<?xml version="1.0" encoding="UTF-8"?>
<!DOCTYPE svg PUBLIC "-//W3C//DTD SVG 1.1//EN" "http://www.w3.org/Graphics/SVG/1.1/DTD/svg11.dtd">
<svg xmlns="http://www.w3.org/2000/svg" version="1.1" width="614px" height="294px" style="shape-rendering:geometricPrecision; text-rendering:geometricPrecision; image-rendering:optimizeQuality; fill-rule:evenodd; clip-rule:evenodd" xmlns:xlink="http://www.w3.org/1999/xlink">
<g><path style="opacity:0.012" fill="#fef7dd" d="M 190.5,17.5 C 191.833,18.1667 191.833,18.1667 190.5,17.5 Z"/></g>
<g><path style="opacity:1" fill="#54bde9" d="M 195.5,27.5 C 195.5,26.1667 195.5,24.8333 195.5,23.5C 192.564,22.5942 189.564,21.9275 186.5,21.5C 186.918,20.7784 187.584,20.2784 188.5,20C 191.817,19.5017 195.15,19.335 198.5,19.5C 198.585,22.6489 197.585,25.3155 195.5,27.5 Z"/></g>
<g><path style="opacity:1" fill="#0ea9f1" d="M 185.5,21.5 C 185.833,21.5 186.167,21.5 186.5,21.5C 189.564,21.9275 192.564,22.5942 195.5,23.5C 195.5,24.8333 195.5,26.1667 195.5,27.5C 192.865,26.8581 190.198,26.1914 187.5,25.5C 183.593,26.8112 179.593,27.4778 175.5,27.5C 175.369,26.6236 175.702,25.9569 176.5,25.5C 179.769,24.5315 182.769,23.1981 185.5,21.5 Z"/></g>
<g><path style="opacity:1" fill="#52c0e4" d="M 185.5,21.5 C 182.769,23.1981 179.769,24.5315 176.5,25.5C 175.702,25.9569 175.369,26.6236 175.5,27.5C 170.246,28.6831 164.912,29.3498 159.5,29.5C 159.762,30.9778 159.429,32.3112 158.5,33.5C 156.132,31.777 153.466,31.1103 150.5,31.5C 161.654,27.2253 173.32,23.892 185.5,21.5 Z"/></g>
<g><path style="opacity:0.024" fill="#fee9db" d="M 196.5,30.5 C 197.833,31.1667 197.833,31.1667 196.5,30.5 Z"/></g>
<g><path style="opacity:1" fill="#07adef" d="M 195.5,27.5 C 195.443,28.609 195.11,29.609 194.5,30.5C 192.241,31.344 191.241,33.0107 191.5,35.5C 188.625,37.2485 187.292,39.9152 187.5,43.5C 186.624,43.3691 185.957,43.7025 185.5,44.5C 182.815,49.8696 180.149,55.2029 177.5,60.5C 177.624,61.1067 177.957,61.44 178.5,61.5C 178.5,61.8333 178.5,62.1667 178.5,62.5C 176.958,63.3007 175.292,63.634 173.5,63.5C 173.357,65.2624 173.691,66.9291 174.5,68.5C 171.203,71.4318 169.87,75.0985 170.5,79.5C 169.5,79.5 168.5,79.5 167.5,79.5C 165.741,85.0244 163.408,90.3577 160.5,95.5C 159.534,97.396 159.201,99.396 159.5,101.5C 158.341,105.151 156.674,108.485 154.5,111.5C 153.533,110.194 152.199,109.527 150.5,109.5C 150.5,108.167 150.5,106.833 150.5,105.5C 149.325,105.281 148.325,105.614 147.5,106.5C 146.833,108.5 146.167,110.5 145.5,112.5C 147.5,112.5 149.5,112.5 151.5,112.5C 150.358,115.399 149.692,118.399 149.5,121.5C 148.167,121.5 146.833,121.5 145.5,121.5C 145.476,126.923 144.81,132.257 143.5,137.5C 144.5,137.5 145.5,137.5 146.5,137.5C 146.238,136.022 146.571,134.689 147.5,133.5C 149.466,131.977 151.466,130.644 153.5,129.5C 154.167,129.5 154.833,129.5 155.5,129.5C 160.328,128.84 162.161,130.84 161,135.5C 159.341,134.169 157.674,132.835 156,131.5C 154.699,132.098 153.865,133.098 153.5,134.5C 152.311,135.429 150.978,135.762 149.5,135.5C 149.797,138.724 149.13,141.724 147.5,144.5C 148.689,145.429 150.022,145.762 151.5,145.5C 151.302,142.094 152.302,139.094 154.5,136.5C 156.045,135.548 157.712,135.215 159.5,135.5C 159.675,137.621 159.341,139.621 158.5,141.5C 157.761,141.631 157.094,141.464 156.5,141C 159.15,137.793 158.984,137.293 156,139.5C 155.713,141.891 155.213,144.224 154.5,146.5C 150.589,151.322 146.922,156.322 143.5,161.5C 142.844,163.453 142.511,165.453 142.5,167.5C 142.5,167.833 142.5,168.167 142.5,168.5C 138.684,169.09 137.017,171.423 137.5,175.5C 133.837,176.845 132.17,179.512 132.5,183.5C 132.5,183.833 132.5,184.167 132.5,184.5C 130.908,183.398 130.075,184.065 130,186.5C 129.586,186.043 129.086,185.709 128.5,185.5C 127.481,187.46 127.481,189.46 128.5,191.5C 128.167,191.5 127.833,191.5 127.5,191.5C 126.167,191.5 124.833,191.5 123.5,191.5C 123.5,193.833 123.5,196.167 123.5,198.5C 123.5,198.833 123.5,199.167 123.5,199.5C 121.633,199.955 119.8,200.622 118,201.5C 117.167,201.167 116.333,200.833 115.5,200.5C 113.015,193.787 111.349,194.12 110.5,201.5C 109.5,198.833 108.5,196.167 107.5,193.5C 109.108,190.618 110.441,187.618 111.5,184.5C 111.167,183.5 110.833,182.5 110.5,181.5C 109.167,184.167 107.833,186.833 106.5,189.5C 105.476,190.853 104.143,191.52 102.5,191.5C 102.5,190.167 102.5,188.833 102.5,187.5C 103.624,182.793 104.957,178.126 106.5,173.5C 107.751,172.528 107.418,171.861 105.5,171.5C 103.578,171.801 101.912,172.467 100.5,173.5C 100.167,173.5 99.8333,173.5 99.5,173.5C 96.8333,173.833 94.1667,174.167 91.5,174.5C 92.8796,166.946 93.5463,159.28 93.5,151.5C 94.0078,147.803 94.6745,144.136 95.5,140.5C 96.9238,138.485 97.5905,136.152 97.5,133.5C 97.5304,129.382 98.1971,125.382 99.5,121.5C 101.163,119.562 101.829,117.228 101.5,114.5C 101.5,113.5 101.5,112.5 101.5,111.5C 103.369,108.955 104.702,105.955 105.5,102.5C 108.374,89.6328 110.374,76.6328 111.5,63.5C 111.5,62.5 111.5,61.5 111.5,60.5C 112.924,58.4855 113.59,56.1522 113.5,53.5C 113.5,52.5 113.5,51.5 113.5,50.5C 114.924,48.4855 115.59,46.1522 115.5,43.5C 121.957,42.4556 128.291,40.7889 134.5,38.5C 135.612,37.7348 136.279,36.7348 136.5,35.5C 140.555,35.8242 144.555,35.4909 148.5,34.5C 149.791,33.4728 149.791,32.4728 148.5,31.5C 149.167,31.5 149.833,31.5 150.5,31.5C 153.466,31.1103 156.132,31.777 158.5,33.5C 159.429,32.3112 159.762,30.9778 159.5,29.5C 164.912,29.3498 170.246,28.6831 175.5,27.5C 179.593,27.4778 183.593,26.8112 187.5,25.5C 190.198,26.1914 192.865,26.8581 195.5,27.5 Z"/></g>
<g><path style="opacity:1" fill="#4ab7db" d="M 148.5,31.5 C 149.791,32.4728 149.791,33.4728 148.5,34.5C 144.555,35.4909 140.555,35.8242 136.5,35.5C 136.611,34.8826 136.944,34.3826 137.5,34C 141.168,33.0524 144.835,32.219 148.5,31.5 Z"/></g>
<g><path style="opacity:0.271" fill="#9ddbe0" d="M 194.5,30.5 C 194.727,32.9328 193.727,34.5994 191.5,35.5C 191.241,33.0107 192.241,31.344 194.5,30.5 Z"/></g>
<g><path style="opacity:1" fill="#42b6e2" d="M 136.5,35.5 C 136.279,36.7348 135.612,37.7348 134.5,38.5C 128.291,40.7889 121.957,42.4556 115.5,43.5C 115.5,42.8333 115.5,42.1667 115.5,41.5C 117.364,39.7817 119.697,38.615 122.5,38C 127.126,36.8485 131.793,36.0152 136.5,35.5 Z"/></g>
<g><path style="opacity:1" fill="#68c9e6" d="M 191.5,35.5 C 190.751,38.638 189.417,41.3046 187.5,43.5C 187.292,39.9152 188.625,37.2485 191.5,35.5 Z"/></g>
<g><path style="opacity:0.247" fill="#b4f4fd" d="M 115.5,41.5 C 115.5,42.1667 115.5,42.8333 115.5,43.5C 115.59,46.1522 114.924,48.4855 113.5,50.5C 113.42,47.2186 114.087,44.2186 115.5,41.5 Z"/></g>
<g><path style="opacity:1" fill="#5ec7e4" d="M 187.5,43.5 C 185.255,49.9171 182.255,55.9171 178.5,61.5C 177.957,61.44 177.624,61.1067 177.5,60.5C 180.149,55.2029 182.815,49.8696 185.5,44.5C 185.957,43.7025 186.624,43.3691 187.5,43.5 Z"/></g>
<g><path style="opacity:0.212" fill="#b1f4fc" d="M 113.5,53.5 C 113.59,56.1522 112.924,58.4855 111.5,60.5C 111.171,57.7718 111.837,55.4385 113.5,53.5 Z"/></g>
<g><path style="opacity:0.204" fill="#a5b8d2" d="M 101.5,64.5 C 99.7839,64.6287 98.1172,64.962 96.5,65.5C 97.8786,63.4031 99.5453,63.0698 101.5,64.5 Z"/></g>
<g><path style="opacity:1" fill="#6fc4ea" d="M 178.5,62.5 C 176.599,68.5393 173.933,74.2059 170.5,79.5C 169.87,75.0985 171.203,71.4318 174.5,68.5C 173.691,66.9291 173.357,65.2624 173.5,63.5C 175.292,63.634 176.958,63.3007 178.5,62.5 Z"/></g>
<g><path style="opacity:1" fill="#394564" d="M 85.5,70.5 C 85.1961,71.1499 84.8627,71.8165 84.5,72.5C 85.1667,72.8333 85.8333,73.1667 86.5,73.5C 86.2907,74.086 85.9574,74.586 85.5,75C 88.0799,76.4814 88.9132,78.648 88,81.5C 86.2458,83.25 84.0792,83.9167 81.5,83.5C 82.3149,82.1634 83.4815,81.1634 85,80.5C 85.2713,77.4016 84.4379,74.5683 82.5,72C 83.2438,70.9614 84.2438,70.4614 85.5,70.5 Z"/></g>
<g><path style="opacity:0.012" fill="#aeb7cc" d="M 72.5,81.5 C 73.8333,81.5 74.5,82.1667 74.5,83.5C 73.5,83.1667 72.8333,82.5 72.5,81.5 Z"/></g>
<g><path style="opacity:1" fill="#36405e" d="M 72.5,81.5 C 72.8333,82.5 73.5,83.1667 74.5,83.5C 75.7348,83.7214 76.7348,84.3881 77.5,85.5C 78.6223,84.3698 79.9557,83.7031 81.5,83.5C 80.7659,84.7079 80.4326,86.0413 80.5,87.5C 75.8617,86.4135 71.1951,85.4135 66.5,84.5C 67.8044,81.4306 69.8044,80.4306 72.5,81.5 Z"/></g>
<g><path style="opacity:1" fill="#57c2e9" d="M 111.5,63.5 C 110.374,76.6328 108.374,89.6328 105.5,102.5C 104.702,105.955 103.369,108.955 101.5,111.5C 104.226,95.2766 107.56,79.2766 111.5,63.5 Z"/></g>
<g><path style="opacity:1" fill="#3a4362" d="M 190.5,86.5 C 189.85,86.8039 189.183,87.1373 188.5,87.5C 185.291,82.0844 182.624,82.4177 180.5,88.5C 179.311,89.4287 177.978,89.762 176.5,89.5C 176.715,91.1788 176.048,92.1788 174.5,92.5C 176.462,87.2432 178.962,82.2432 182,77.5C 185.087,80.4161 187.921,83.4161 190.5,86.5 Z"/></g>
<g><path style="opacity:0.549" fill="#919bb0" d="M 62.5,88.5 C 62.573,90.0269 61.9063,91.0269 60.5,91.5C 60.427,89.9731 61.0937,88.9731 62.5,88.5 Z"/></g>
<g><path style="opacity:1" fill="#70c6e5" d="M 170.5,79.5 C 167.341,87.151 163.675,94.4843 159.5,101.5C 159.201,99.396 159.534,97.396 160.5,95.5C 163.408,90.3577 165.741,85.0244 167.5,79.5C 168.5,79.5 169.5,79.5 170.5,79.5 Z"/></g>
<g><path style="opacity:1" fill="#3a4566" d="M 66.5,84.5 C 64.8308,88.0057 62.8308,91.3391 60.5,94.5C 62.5,95.5 64.5,96.5 66.5,97.5C 65.7376,97.9106 64.7376,98.0773 63.5,98C 64.7911,99.2917 64.7911,100.458 63.5,101.5C 61.7676,98.9181 59.7676,96.4181 57.5,94C 58.3734,92.955 59.3734,92.1217 60.5,91.5C 61.9063,91.0269 62.573,90.0269 62.5,88.5C 63.5,86.8333 64.8333,85.5 66.5,84.5 Z"/></g>
<g><path style="opacity:1" fill="#444c68" d="M 190.5,86.5 C 192.022,87.1909 193.022,88.3576 193.5,90C 192.224,92.2806 190.557,94.2806 188.5,96C 189.252,96.6708 189.586,97.5041 189.5,98.5C 186.057,96.2669 186.057,94.4336 189.5,93C 187.068,91.9125 187.402,91.4125 190.5,91.5C 190.5,89.8333 190.5,88.1667 190.5,86.5 Z"/></g>
<g><path style="opacity:0.404" fill="#9f9db8" d="M 174.5,93.5 C 174.443,94.609 174.11,95.609 173.5,96.5C 173.167,96.5 172.833,96.5 172.5,96.5C 172.427,94.9731 173.094,93.9731 174.5,93.5 Z"/></g>
<g><path style="opacity:0.337" fill="#aeb5c3" d="M 200.5,102.5 C 201.947,101.115 202.947,101.448 203.5,103.5C 202.609,102.89 201.609,102.557 200.5,102.5 Z"/></g>
<g><path style="opacity:1" fill="#3e4661" d="M 191.5,101.5 C 193.024,102.174 194.358,103.174 195.5,104.5C 197.075,103.544 198.742,102.877 200.5,102.5C 201.609,102.557 202.609,102.89 203.5,103.5C 205.341,105.849 206.674,108.515 207.5,111.5C 206.167,111.5 204.833,111.5 203.5,111.5C 203.5,109.5 203.5,107.5 203.5,105.5C 199.833,105.5 196.167,105.5 192.5,105.5C 192.567,104.041 192.234,102.708 191.5,101.5 Z"/></g>
<g><path style="opacity:1" fill="#485070" d="M 95.5,99.5 C 92.6984,103.822 89.1984,107.822 85,111.5C 82.9131,114.07 81.0798,116.737 79.5,119.5C 79.3398,117.801 79.5065,116.134 80,114.5C 81.5272,112.779 82.5272,110.779 83,108.5C 84.3988,107.773 85.8988,107.273 87.5,107C 86.8333,106.667 86.1667,106.333 85.5,106C 86.8333,105.667 88.1667,105.333 89.5,105C 89.1667,104.667 88.8333,104.333 88.5,104C 89.5,103.667 90.5,103.333 91.5,103C 91.1667,102.667 90.8333,102.333 90.5,102C 92.5029,101.665 94.1696,100.832 95.5,99.5 Z"/></g>
<g><path style="opacity:1" fill="#35b5e7" d="M 154.5,111.5 C 152.825,114.877 151.158,118.211 149.5,121.5C 149.692,118.399 150.358,115.399 151.5,112.5C 149.5,112.5 147.5,112.5 145.5,112.5C 146.167,110.5 146.833,108.5 147.5,106.5C 148.325,105.614 149.325,105.281 150.5,105.5C 150.5,106.833 150.5,108.167 150.5,109.5C 152.199,109.527 153.533,110.194 154.5,111.5 Z"/></g>
<g><path style="opacity:1" fill="#525c76" d="M 57.5,109.5 C 56.8333,109.5 56.1667,109.5 55.5,109.5C 53.4727,109.338 51.4727,109.505 49.5,110C 50.1513,111.308 49.4846,112.141 47.5,112.5C 49.0198,105.658 52.3532,104.658 57.5,109.5 Z"/></g>
<g><path style="opacity:1" fill="#343e5d" d="M 63.5,101.5 C 63.4527,105.937 61.6194,109.27 58,111.5C 56.6244,111.316 55.7911,110.649 55.5,109.5C 56.1667,109.5 56.8333,109.5 57.5,109.5C 59.5,106.833 61.5,104.167 63.5,101.5 Z"/></g>
<g><path style="opacity:1" fill="#444a6b" d="M 172.5,96.5 C 172.833,96.5 173.167,96.5 173.5,96.5C 174.145,99.5468 173.145,101.713 170.5,103C 170.314,106.005 170.647,109.172 171.5,112.5C 169.328,111.339 167.994,109.505 167.5,107C 169.044,103.413 170.711,99.913 172.5,96.5 Z"/></g>
<g><path style="opacity:1" fill="#1c2b56" d="M 101.5,64.5 C 100.268,76.3239 98.2678,87.9906 95.5,99.5C 94.1696,100.832 92.5029,101.665 90.5,102C 90.8333,102.333 91.1667,102.667 91.5,103C 90.5,103.333 89.5,103.667 88.5,104C 88.8333,104.333 89.1667,104.667 89.5,105C 88.1667,105.333 86.8333,105.667 85.5,106C 86.1667,106.333 86.8333,106.667 87.5,107C 85.8988,107.273 84.3988,107.773 83,108.5C 82.5272,110.779 81.5272,112.779 80,114.5C 79.5065,116.134 79.3398,117.801 79.5,119.5C 77.8307,123.504 76.1641,127.504 74.5,131.5C 72.783,134.845 72.1164,138.511 72.5,142.5C 72.6218,148.896 73.2885,155.229 74.5,161.5C 74.2355,165.653 75.5688,168.987 78.5,171.5C 79.3382,171.842 79.6716,172.508 79.5,173.5C 79.427,175.027 80.0937,176.027 81.5,176.5C 84.1846,179.19 86.5179,182.19 88.5,185.5C 89.2209,188.817 89.3876,192.151 89,195.5C 88.6667,194.167 88.3333,192.833 88,191.5C 87.5017,194.817 87.335,198.15 87.5,201.5C 85.6921,202.918 85.0254,204.918 85.5,207.5C 83.9112,210.092 82.2445,210.092 80.5,207.5C 79.5713,208.689 79.238,210.022 79.5,211.5C 76.5,211.5 73.5,211.5 70.5,211.5C 69.4154,209.413 67.7488,208.08 65.5,207.5C 64.0256,206.564 63.0256,205.23 62.5,203.5C 64.2785,202.33 65.2785,200.664 65.5,198.5C 66.4124,197.262 66.5791,195.928 66,194.5C 64.0879,192.343 62.4213,190.009 61,187.5C 59.6703,188.582 58.1703,189.249 56.5,189.5C 55.1667,189.5 53.8333,189.5 52.5,189.5C 51.1103,188.101 50.1103,186.434 49.5,184.5C 49.5979,182.447 48.9313,180.78 47.5,179.5C 46.6618,179.158 46.3284,178.492 46.5,177.5C 46.2525,175.142 46.9192,173.142 48.5,171.5C 52.5172,172.161 53.8505,170.828 52.5,167.5C 51.5655,166.432 51.2322,165.099 51.5,163.5C 51.5,161.833 51.5,160.167 51.5,158.5C 48.1667,158.5 44.8333,158.5 41.5,158.5C 40.2299,152.037 40.2299,145.704 41.5,139.5C 44.5,139.5 47.5,139.5 50.5,139.5C 50.5,137.833 50.5,136.167 50.5,134.5C 50.5,133.833 50.5,133.167 50.5,132.5C 52.3371,129.099 51.3371,126.765 47.5,125.5C 47.1667,124.167 46.8333,122.833 46.5,121.5C 46.837,118.824 47.1703,116.157 47.5,113.5C 47.5,113.167 47.5,112.833 47.5,112.5C 49.4846,112.141 50.1513,111.308 49.5,110C 51.4727,109.505 53.4727,109.338 55.5,109.5C 55.7911,110.649 56.6244,111.316 58,111.5C 61.6194,109.27 63.4527,105.937 63.5,101.5C 64.7911,100.458 64.7911,99.2917 63.5,98C 64.7376,98.0773 65.7376,97.9106 66.5,97.5C 64.5,96.5 62.5,95.5 60.5,94.5C 62.8308,91.3391 64.8308,88.0057 66.5,84.5C 71.1951,85.4135 75.8617,86.4135 80.5,87.5C 80.4326,86.0413 80.7659,84.7079 81.5,83.5C 84.0792,83.9167 86.2458,83.25 88,81.5C 88.9132,78.648 88.0799,76.4814 85.5,75C 85.9574,74.586 86.2907,74.086 86.5,73.5C 85.8333,73.1667 85.1667,72.8333 84.5,72.5C 84.8627,71.8165 85.1961,71.1499 85.5,70.5C 88.7512,68.0431 92.4179,66.3764 96.5,65.5C 98.1172,64.962 99.7839,64.6287 101.5,64.5 Z"/></g>
<g><path style="opacity:1" fill="#545e77" d="M 171.5,112.5 C 172.75,112.577 173.583,113.244 174,114.5C 174.333,114.167 174.667,113.833 175,113.5C 175.561,116.279 176.394,118.946 177.5,121.5C 175.265,118.709 173.265,115.709 171.5,112.5 Z"/></g>
<g><path style="opacity:0.361" fill="#aab0c1" d="M 209.5,116.5 C 210.906,119.339 209.906,121.006 206.5,121.5C 208.279,120.33 209.279,118.664 209.5,116.5 Z"/></g>
<g><path style="opacity:0.899" fill="#7c86a0" d="M 279.5,121.5 C 271.174,120.203 262.84,120.203 254.5,121.5C 258.411,119.976 262.578,118.976 267,118.5C 271.461,118.885 275.628,119.885 279.5,121.5 Z"/></g>
<g><path style="opacity:1" fill="#8edaf6" d="M 463.5,119.5 C 459.642,120.294 455.642,120.96 451.5,121.5C 451.611,120.883 451.944,120.383 452.5,120C 455.706,119.704 458.872,119.204 462,118.5C 462.765,118.57 463.265,118.903 463.5,119.5 Z"/></g>
<g><path style="opacity:1" fill="#535b77" d="M 47.5,113.5 C 47.1703,116.157 46.837,118.824 46.5,121.5C 46.8333,122.833 47.1667,124.167 47.5,125.5C 51.3371,126.765 52.3371,129.099 50.5,132.5C 50.6567,131.127 50.49,129.793 50,128.5C 48.1839,127.671 46.3506,126.837 44.5,126C 43.7342,121.453 44.7342,117.287 47.5,113.5 Z"/></g>
<g><path style="opacity:0.427" fill="#99dff0" d="M 101.5,114.5 C 101.829,117.228 101.163,119.562 99.5,121.5C 99.4095,118.848 100.076,116.515 101.5,114.5 Z"/></g>
<g><path style="opacity:1" fill="#69718a" d="M 359.5,125.5 C 357.896,124.713 357.229,123.38 357.5,121.5C 352.405,121.221 347.405,121.555 342.5,122.5C 342.414,121.504 342.748,120.671 343.5,120C 348.167,119.333 352.833,119.333 357.5,120C 358.464,121.725 359.131,123.559 359.5,125.5 Z"/></g>
<g><path style="opacity:1" fill="#606a7e" d="M 408.5,121.5 C 411.834,121.981 414.167,123.647 415.5,126.5C 412.876,125.041 410.542,123.375 408.5,121.5 Z"/></g>
<g><path style="opacity:1" fill="#53c3e3" d="M 560.5,123.5 C 552.21,122.395 543.876,121.728 535.5,121.5C 535.611,120.883 535.944,120.383 536.5,120C 542.5,119.333 548.5,119.333 554.5,120C 556.889,120.739 558.889,121.905 560.5,123.5 Z"/></g>
<g><path style="opacity:1" fill="#1f2e53" d="M 279.5,121.5 C 279.833,121.5 280.167,121.5 280.5,121.5C 280.5,124.833 280.5,128.167 280.5,131.5C 279.5,131.5 278.5,131.5 277.5,131.5C 275.012,129.612 272.012,128.945 268.5,129.5C 265.482,129.704 262.482,130.037 259.5,130.5C 263.183,128.75 267.183,128.083 271.5,128.5C 271.48,126.857 272.147,125.524 273.5,124.5C 266.5,123.167 259.5,123.167 252.5,124.5C 251.012,126.577 249.012,127.577 246.5,127.5C 246.833,126.833 247.167,126.167 247.5,125.5C 249.336,123.412 251.669,122.079 254.5,121.5C 262.84,120.203 271.174,120.203 279.5,121.5 Z"/></g>
<g><path style="opacity:1" fill="#6ccbe4" d="M 533.5,121.5 C 533.539,122.583 533.873,123.583 534.5,124.5C 532.257,125.474 529.924,125.808 527.5,125.5C 528.828,123.281 530.828,121.948 533.5,121.5 Z"/></g>
<g><path style="opacity:0.018" fill="#ccf9fe" d="M 560.5,123.5 C 563.142,123.488 564.475,124.821 564.5,127.5C 562.833,126.5 561.5,125.167 560.5,123.5 Z"/></g>
<g><path style="opacity:0.922" fill="#7d8a9c" d="M 342.5,122.5 C 342.88,124.698 342.213,126.365 340.5,127.5C 340.796,125.597 341.463,123.93 342.5,122.5 Z"/></g>
<g><path style="opacity:0.529" fill="#a8e9f8" d="M 450.5,121.5 C 448.527,124.139 446.194,126.473 443.5,128.5C 443.281,127.325 443.614,126.325 444.5,125.5C 446.133,123.497 448.133,122.164 450.5,121.5 Z"/></g>
<g><path style="opacity:0.596" fill="#8e96a6" d="M 247.5,125.5 C 247.167,126.167 246.833,126.833 246.5,127.5C 245.5,128.167 244.5,128.833 243.5,129.5C 243.833,127.167 245.167,125.833 247.5,125.5 Z"/></g>
<g><path style="opacity:0.392" fill="#9fa6ba" d="M 280.5,121.5 C 281.482,124.962 281.815,128.629 281.5,132.5C 279.901,132.768 278.568,132.434 277.5,131.5C 278.5,131.5 279.5,131.5 280.5,131.5C 280.5,128.167 280.5,124.833 280.5,121.5 Z"/></g>
<g><path style="opacity:1" fill="#34b5e9" d="M 515.5,127.5 C 514.833,128.167 514.167,128.833 513.5,129.5C 513.5,126.833 513.5,124.167 513.5,121.5C 506.833,121.5 500.167,121.5 493.5,121.5C 493.5,123.5 493.5,125.5 493.5,127.5C 492.5,127.5 491.5,127.5 490.5,127.5C 490.583,142.179 490.25,156.846 489.5,171.5C 488.167,171.5 486.833,171.5 485.5,171.5C 485.5,154.5 485.5,137.5 485.5,120.5C 495.341,119.177 505.341,119.177 515.5,120.5C 516.766,122.972 516.766,125.306 515.5,127.5 Z"/></g>
<g><path style="opacity:1" fill="#08aaf1" d="M 513.5,129.5 C 509.5,129.5 505.5,129.5 501.5,129.5C 504.403,127.896 507.737,126.896 511.5,126.5C 505.316,125.028 499.316,125.362 493.5,127.5C 493.5,125.5 493.5,123.5 493.5,121.5C 500.167,121.5 506.833,121.5 513.5,121.5C 513.5,124.167 513.5,126.833 513.5,129.5 Z"/></g>
<g><path style="opacity:1" fill="#02abf8" d="M 493.5,127.5 C 493.5,135.5 493.5,143.5 493.5,151.5C 492.398,158.113 491.732,164.78 491.5,171.5C 490.833,171.5 490.167,171.5 489.5,171.5C 490.25,156.846 490.583,142.179 490.5,127.5C 491.5,127.5 492.5,127.5 493.5,127.5 Z"/></g>
<g><path style="opacity:0.349" fill="#9aa4ba" d="M 415.5,126.5 C 416.906,126.973 417.573,127.973 417.5,129.5C 416.094,129.027 415.427,128.027 415.5,126.5 Z"/></g>
<g><path style="opacity:0.416" fill="#8ae7fd" d="M 463.5,128.5 C 465.735,128.205 467.735,128.539 469.5,129.5C 464.899,129.055 460.565,129.722 456.5,131.5C 458.036,128.908 460.369,127.908 463.5,128.5 Z"/></g>
<g><path style="opacity:1" fill="#727c96" d="M 268.5,129.5 C 272.012,128.945 275.012,129.612 277.5,131.5C 274.311,131.142 271.311,130.475 268.5,129.5 Z"/></g>
<g><path style="opacity:1" fill="#5c647f" d="M 359.5,126.5 C 361.267,128.792 362.267,131.458 362.5,134.5C 361.883,134.611 361.383,134.944 361,135.5C 360.047,132.568 359.547,129.568 359.5,126.5 Z"/></g>
<g><path style="opacity:1" fill="#a7e3f0" d="M 515.5,127.5 C 516.509,128.939 516.176,130.272 514.5,131.5C 508.954,131.34 503.288,131.34 497.5,131.5C 497.253,134.939 497.586,138.272 498.5,141.5C 496.577,137.971 495.911,133.971 496.5,129.5C 498.167,129.5 499.833,129.5 501.5,129.5C 505.5,129.5 509.5,129.5 513.5,129.5C 514.167,128.833 514.833,128.167 515.5,127.5 Z"/></g>
<g><path style="opacity:0.729" fill="#90dbed" d="M 471.5,119.5 C 474.421,119.146 476.754,120.146 478.5,122.5C 477.756,125.443 477.256,128.443 477,131.5C 476.586,131.957 476.086,132.291 475.5,132.5C 473.081,132.086 471.081,131.086 469.5,129.5C 471.5,129.5 473.5,129.5 475.5,129.5C 476.259,125.094 474.925,121.761 471.5,119.5 Z"/></g>
<g><path style="opacity:1" fill="#3c4564" d="M 205.5,121.5 C 204.609,122.261 203.942,123.261 203.5,124.5C 204.223,126.782 204.557,129.116 204.5,131.5C 204.5,132.167 204.5,132.833 204.5,133.5C 202.432,129.355 201.099,125.522 200.5,122C 202.134,121.506 203.801,121.34 205.5,121.5 Z"/></g>
<g><path style="opacity:1" fill="#4d5571" d="M 259.5,130.5 C 257.525,132.137 255.525,133.804 253.5,135.5C 253.461,134.417 253.127,133.417 252.5,132.5C 254.608,131.056 256.941,130.39 259.5,130.5 Z"/></g>
<g><path style="opacity:1" fill="#0fabf2" d="M 533.5,121.5 C 534.167,121.5 534.833,121.5 535.5,121.5C 543.876,121.728 552.21,122.395 560.5,123.5C 561.5,125.167 562.833,126.5 564.5,127.5C 564.5,127.833 564.5,128.167 564.5,128.5C 563.671,131.469 563.505,134.469 564,137.5C 564.71,138.973 565.876,139.64 567.5,139.5C 567.5,144.167 567.5,148.833 567.5,153.5C 566.5,153.5 565.5,153.5 564.5,153.5C 564.397,150.781 564.731,148.115 565.5,145.5C 562.619,139.43 560.619,133.096 559.5,126.5C 558.167,125.167 556.833,125.167 555.5,126.5C 561.203,131.359 560.536,133.692 553.5,133.5C 553.5,131.5 553.5,129.5 553.5,127.5C 549.595,128.49 545.595,129.156 541.5,129.5C 538.181,129.359 535.014,128.693 532,127.5C 531.5,127.833 531,128.167 530.5,128.5C 532.616,130.4 533.949,132.733 534.5,135.5C 533.167,135.5 531.833,135.5 530.5,135.5C 528.279,143.638 529.279,151.305 533.5,158.5C 534.325,159.386 535.325,159.719 536.5,159.5C 536.5,160.833 536.5,162.167 536.5,163.5C 533.833,164.833 531.167,166.167 528.5,167.5C 528.167,167.5 527.833,167.5 527.5,167.5C 526.167,166.833 525.167,165.833 524.5,164.5C 523.962,162.883 523.629,161.216 523.5,159.5C 525.288,159.785 526.955,159.452 528.5,158.5C 526.257,157.526 523.924,157.192 521.5,157.5C 521.5,154.833 521.5,152.167 521.5,149.5C 523.492,149.328 525.158,149.995 526.5,151.5C 527.833,149.5 527.833,147.5 526.5,145.5C 524.286,147.924 523.286,147.257 523.5,143.5C 524.833,143.5 526.167,143.5 527.5,143.5C 527.634,139.698 526.967,136.032 525.5,132.5C 525.886,130.068 526.553,127.734 527.5,125.5C 529.924,125.808 532.257,125.474 534.5,124.5C 533.873,123.583 533.539,122.583 533.5,121.5 Z"/></g>
<g><path style="opacity:1" fill="#53bde6" d="M 553.5,133.5 C 548.269,129.631 543.269,129.631 538.5,133.5C 536.938,133.733 535.605,134.4 534.5,135.5C 533.949,132.733 532.616,130.4 530.5,128.5C 531,128.167 531.5,127.833 532,127.5C 535.014,128.693 538.181,129.359 541.5,129.5C 545.595,129.156 549.595,128.49 553.5,127.5C 553.5,129.5 553.5,131.5 553.5,133.5 Z"/></g>
<g><path style="opacity:0.094" fill="#fdfaed" d="M 543.5,131.5 C 545.429,131.231 547.095,131.731 548.5,133C 547.065,132.689 545.732,132.855 544.5,133.5C 543.702,133.043 543.369,132.376 543.5,131.5 Z"/></g>
<g><path style="opacity:1" fill="#4fbce3" d="M 149.5,121.5 C 148.308,124.718 146.975,127.885 145.5,131C 148.021,130.27 150.687,129.77 153.5,129.5C 151.466,130.644 149.466,131.977 147.5,133.5C 146.571,134.689 146.238,136.022 146.5,137.5C 145.5,137.5 144.5,137.5 143.5,137.5C 144.81,132.257 145.476,126.923 145.5,121.5C 146.833,121.5 148.167,121.5 149.5,121.5 Z"/></g>
<g><path style="opacity:0.584" fill="#828aa3" d="M 204.5,131.5 C 207.488,133.273 210.821,133.94 214.5,133.5C 214.5,134.833 214.5,136.167 214.5,137.5C 213.596,136.791 213.263,135.791 213.5,134.5C 210.287,134.81 207.287,134.477 204.5,133.5C 204.5,132.833 204.5,132.167 204.5,131.5 Z"/></g>
<g><path style="opacity:1" fill="#172857" d="M 259.5,130.5 C 256.941,130.39 254.608,131.056 252.5,132.5C 253.127,133.417 253.461,134.417 253.5,135.5C 253.167,135.5 252.833,135.5 252.5,135.5C 249.779,136.559 248.112,138.559 247.5,141.5C 247.596,145.35 247.762,149.35 248,153.5C 250.037,159.562 254.204,163.229 260.5,164.5C 254.958,168.756 249.792,168.423 245,163.5C 244.993,159.989 243.493,156.822 240.5,154C 241,153.5 241.5,153 242,152.5C 242.246,149.11 242.746,145.777 243.5,142.5C 243.013,141.554 242.68,140.554 242.5,139.5C 243.313,135.234 244.647,131.234 246.5,127.5C 249.012,127.577 251.012,126.577 252.5,124.5C 259.5,123.167 266.5,123.167 273.5,124.5C 272.147,125.524 271.48,126.857 271.5,128.5C 267.183,128.083 263.183,128.75 259.5,130.5 Z"/></g>
<g><path style="opacity:0.133" fill="#fef7eb" d="M 538.5,133.5 C 539.978,133.238 541.311,133.571 542.5,134.5C 541.675,135.386 540.675,135.719 539.5,135.5C 539.167,134.833 538.833,134.167 538.5,133.5 Z"/></g>
<g><path style="opacity:0.024" fill="#dbffee" d="M 512.5,134.5 C 513.833,135.167 513.833,135.167 512.5,134.5 Z"/></g>
<g><path style="opacity:1" fill="#53bce5" d="M 158.5,141.5 C 159.341,139.621 159.675,137.621 159.5,135.5C 157.712,135.215 156.045,135.548 154.5,136.5C 152.302,139.094 151.302,142.094 151.5,145.5C 150.022,145.762 148.689,145.429 147.5,144.5C 149.13,141.724 149.797,138.724 149.5,135.5C 150.978,135.762 152.311,135.429 153.5,134.5C 153.865,133.098 154.699,132.098 156,131.5C 157.674,132.835 159.341,134.169 161,135.5C 162.161,130.84 160.328,128.84 155.5,129.5C 155.611,128.883 155.944,128.383 156.5,128C 159.482,127.502 162.482,127.335 165.5,127.5C 165.66,129.199 165.494,130.866 165,132.5C 163.28,135.989 161.113,138.989 158.5,141.5 Z"/></g>
<g><path style="opacity:1" fill="#80879e" d="M 303.5,130.5 C 308.975,129.511 314.642,129.178 320.5,129.5C 320.5,126.833 320.5,124.167 320.5,121.5C 311.167,121.5 301.833,121.5 292.5,121.5C 292.5,136.833 292.5,152.167 292.5,167.5C 292.167,167.5 291.833,167.5 291.5,167.5C 290.339,152.005 290.172,136.339 291,120.5C 301.09,119.348 311.256,119.181 321.5,120C 322.617,123.073 322.784,126.24 322,129.5C 315.924,130.476 309.758,130.81 303.5,130.5 Z"/></g>
<g><path style="opacity:1" fill="#4ebadd" d="M 463.5,128.5 C 460.369,127.908 458.036,128.908 456.5,131.5C 456.586,132.496 456.252,133.329 455.5,134C 456.823,134.816 457.489,135.983 457.5,137.5C 455.042,137.773 453.375,136.773 452.5,134.5C 453.752,132.999 454.752,131.332 455.5,129.5C 458.074,127.366 460.741,127.032 463.5,128.5 Z"/></g>
<g><path style="opacity:0.075" fill="#fffced" d="M 539.5,135.5 C 539.291,136.922 538.791,138.255 538,139.5C 537.156,137.537 537.656,136.204 539.5,135.5 Z"/></g>
<g><path style="opacity:0.012" fill="#ddfffe" d="M 512.5,136.5 C 513.833,137.167 513.833,137.167 512.5,136.5 Z"/></g>
<g><path style="opacity:0.471" fill="#84cbe9" d="M 564.5,128.5 C 564.5,128.167 564.5,127.833 564.5,127.5C 567.71,129.918 569.376,133.252 569.5,137.5C 566.516,135.18 564.849,132.18 564.5,128.5 Z"/></g>
<g><path style="opacity:0.427" fill="#9ca5bb" d="M 74.5,131.5 C 74.1916,135.36 73.5249,139.026 72.5,142.5C 72.1164,138.511 72.783,134.845 74.5,131.5 Z"/></g>
<g><path style="opacity:0.18" fill="#b1b9cc" d="M 252.5,135.5 C 252.833,135.5 253.167,135.5 253.5,135.5C 253.573,137.027 252.906,138.027 251.5,138.5C 251.557,137.391 251.89,136.391 252.5,135.5 Z"/></g>
<g><path style="opacity:0.133" fill="#bcc5d8" d="M 50.5,134.5 C 50.5,136.167 50.5,137.833 50.5,139.5C 47.5,139.5 44.5,139.5 41.5,139.5C 43.9479,138.527 46.6146,138.194 49.5,138.5C 49.2322,136.901 49.5655,135.568 50.5,134.5 Z"/></g>
<g><path style="opacity:0.224" fill="#b3f5fd" d="M 97.5,133.5 C 97.5905,136.152 96.9238,138.485 95.5,140.5C 95.1706,137.772 95.8372,135.438 97.5,133.5 Z"/></g>
<g><path style="opacity:1" fill="#6ac6e1" d="M 443.5,129.5 C 444.18,133.119 444.68,136.786 445,140.5C 445.333,140.167 445.667,139.833 446,139.5C 447.128,141.345 447.628,143.345 447.5,145.5C 445.544,144.878 444.211,143.545 443.5,141.5C 442.27,137.348 442.27,133.348 443.5,129.5 Z"/></g>
<g><path style="opacity:1" fill="#76cce0" d="M 457.5,137.5 C 460.1,138.468 462.434,139.801 464.5,141.5C 462.5,141.5 460.5,141.5 458.5,141.5C 458.567,140.041 458.234,138.708 457.5,137.5 Z"/></g>
<g><path style="opacity:0.529" fill="#9397a4" d="M 239.5,135.5 C 239.59,138.152 238.924,140.485 237.5,142.5C 237.41,139.848 238.076,137.515 239.5,135.5 Z"/></g>
<g><path style="opacity:1" fill="#4d5571" d="M 362.5,134.5 C 364.204,137.939 365.538,141.605 366.5,145.5C 365.034,144.653 364.2,143.32 364,141.5C 363.346,142.696 362.846,142.696 362.5,141.5C 363.053,139.273 363.053,136.939 362.5,134.5 Z"/></g>
<g><path style="opacity:1" fill="#59627d" d="M 417.5,131.5 C 418.757,136.291 417.757,140.791 414.5,145C 412.922,146.094 411.255,146.928 409.5,147.5C 411.608,144.842 413.608,142.009 415.5,139C 416.871,136.681 417.538,134.181 417.5,131.5 Z"/></g>
<g><path style="opacity:0.159" fill="#fff8e6" d="M 553.5,139.5 C 555.088,140.635 555.421,141.969 554.5,143.5C 553.571,142.311 553.238,140.978 553.5,139.5 Z"/></g>
<g><path style="opacity:0.718" fill="#8fdce9" d="M 569.5,137.5 C 572.074,143.491 572.074,149.491 569.5,155.5C 569.15,149.401 569.15,143.401 569.5,137.5 Z"/></g>
<g><path style="opacity:1" fill="#2fb2e9" d="M 527.5,125.5 C 526.553,127.734 525.886,130.068 525.5,132.5C 526.967,136.032 527.634,139.698 527.5,143.5C 526.167,143.5 524.833,143.5 523.5,143.5C 523.286,147.257 524.286,147.924 526.5,145.5C 527.833,147.5 527.833,149.5 526.5,151.5C 525.158,149.995 523.492,149.328 521.5,149.5C 521.5,152.167 521.5,154.833 521.5,157.5C 523.924,157.192 526.257,157.526 528.5,158.5C 526.955,159.452 525.288,159.785 523.5,159.5C 522.833,159.5 522.167,159.5 521.5,159.5C 516.16,146.855 518.16,135.522 527.5,125.5 Z"/></g>
<g><path style="opacity:0.055" fill="#feffec" d="M 541.5,141.5 C 543.078,142.066 544.412,143.066 545.5,144.5C 542.936,145.564 541.603,144.564 541.5,141.5 Z"/></g>
<g><path style="opacity:0.029" fill="#fffcf0" d="M 549.5,143.5 C 550.586,143.62 551.253,144.287 551.5,145.5C 551.167,146.167 550.833,146.833 550.5,147.5C 549.571,146.311 549.238,144.978 549.5,143.5 Z"/></g>
<g><path style="opacity:0.302" fill="#9aa4b6" d="M 181.5,133.5 C 182.997,137.223 183.663,141.223 183.5,145.5C 183.497,148.355 183.164,151.022 182.5,153.5C 182.609,146.804 182.276,140.137 181.5,133.5 Z"/></g>
<g><path style="opacity:0.828" fill="#525870" d="M 283.5,168.5 C 283.167,168.5 282.833,168.5 282.5,168.5C 282.5,160.167 282.5,151.833 282.5,143.5C 275.833,143.5 269.167,143.5 262.5,143.5C 262.5,143.167 262.5,142.833 262.5,142.5C 269.667,142.323 276.667,142.323 283.5,142.5C 283.5,151.167 283.5,159.833 283.5,168.5 Z"/></g>
<g><path style="opacity:1" fill="#505a78" d="M 407.5,121.5 C 398.833,121.5 390.167,121.5 381.5,121.5C 381.5,138.167 381.5,154.833 381.5,171.5C 380.503,154.675 380.17,137.675 380.5,120.5C 383.984,119.835 387.651,119.501 391.5,119.5C 397.086,119.318 402.42,119.985 407.5,121.5 Z"/></g>
<g><path style="opacity:1" fill="#0cabf1" d="M 463.5,119.5 C 466.167,119.5 468.833,119.5 471.5,119.5C 474.925,121.761 476.259,125.094 475.5,129.5C 473.5,129.5 471.5,129.5 469.5,129.5C 467.735,128.539 465.735,128.205 463.5,128.5C 460.741,127.032 458.074,127.366 455.5,129.5C 454.752,131.332 453.752,132.999 452.5,134.5C 453.375,136.773 455.042,137.773 457.5,137.5C 458.234,138.708 458.567,140.041 458.5,141.5C 460.5,141.5 462.5,141.5 464.5,141.5C 464.833,141.5 465.167,141.5 465.5,141.5C 464.34,143.203 465.007,143.869 467.5,143.5C 467.5,144.833 467.5,146.167 467.5,147.5C 470.926,147.272 473.593,148.605 475.5,151.5C 476.299,155.501 476.965,159.501 477.5,163.5C 477.5,163.833 477.5,164.167 477.5,164.5C 476.735,164.923 475.902,165.257 475,165.5C 473.75,163.294 471.916,161.961 469.5,161.5C 469.5,164.167 469.5,166.833 469.5,169.5C 468.167,169.5 466.833,169.5 465.5,169.5C 466.833,162.167 466.833,154.833 465.5,147.5C 461.947,147.242 459.28,145.575 457.5,142.5C 454.914,141.52 452.247,141.187 449.5,141.5C 449.843,143.483 449.176,144.817 447.5,145.5C 447.628,143.345 447.128,141.345 446,139.5C 445.667,139.833 445.333,140.167 445,140.5C 444.68,136.786 444.18,133.119 443.5,129.5C 443.5,129.167 443.5,128.833 443.5,128.5C 446.194,126.473 448.527,124.139 450.5,121.5C 450.833,121.5 451.167,121.5 451.5,121.5C 455.642,120.96 459.642,120.294 463.5,119.5 Z"/></g>
<g><path style="opacity:1" fill="#54b9df" d="M 465.5,141.5 C 476.88,144.932 480.88,152.266 477.5,163.5C 476.965,159.501 476.299,155.501 475.5,151.5C 473.593,148.605 470.926,147.272 467.5,147.5C 467.5,146.167 467.5,144.833 467.5,143.5C 465.007,143.869 464.34,143.203 465.5,141.5 Z"/></g>
<g><path style="opacity:1" fill="#3e4666" d="M 340.5,128.5 C 340.445,132.277 339.445,135.777 337.5,139C 337.833,140 338.167,141 338.5,142C 336.96,144.33 335.793,146.83 335,149.5C 334.23,148.402 333.397,148.402 332.5,149.5C 334.796,142.269 337.462,135.269 340.5,128.5 Z"/></g>
<g><path style="opacity:1" fill="#26afe6" d="M 501.5,129.5 C 499.833,129.5 498.167,129.5 496.5,129.5C 495.911,133.971 496.577,137.971 498.5,141.5C 499.961,140.314 501.295,140.314 502.5,141.5C 501.527,143.948 501.194,146.615 501.5,149.5C 502.833,149.5 504.167,149.5 505.5,149.5C 505.5,146.833 505.5,144.167 505.5,141.5C 508.234,141.467 511.067,141.467 514,141.5C 514.805,144.696 514.638,147.696 513.5,150.5C 507.833,150.5 502.167,150.5 496.5,150.5C 496.5,154.833 496.5,159.167 496.5,163.5C 495.177,159.571 494.177,155.571 493.5,151.5C 493.5,143.5 493.5,135.5 493.5,127.5C 499.316,125.362 505.316,125.028 511.5,126.5C 507.737,126.896 504.403,127.896 501.5,129.5 Z"/></g>
<g><path style="opacity:0.094" fill="#fefdea" d="M 534.5,147.5 C 535.5,147.5 536.5,147.5 537.5,147.5C 537.073,155.35 536.073,155.35 534.5,147.5 Z"/></g>
<g><path style="opacity:0.933" fill="#7c86a3" d="M 366.5,145.5 C 367.738,147.214 368.405,149.214 368.5,151.5C 366.926,149.898 366.259,147.898 366.5,145.5 Z"/></g>
<g><path style="opacity:1" fill="#08a9f5" d="M 502.5,141.5 C 503.5,141.5 504.5,141.5 505.5,141.5C 505.5,144.167 505.5,146.833 505.5,149.5C 504.167,149.5 502.833,149.5 501.5,149.5C 501.194,146.615 501.527,143.948 502.5,141.5 Z"/></g>
<g><path style="opacity:1" fill="#19b0e9" d="M 564.5,128.5 C 564.849,132.18 566.516,135.18 569.5,137.5C 569.15,143.401 569.15,149.401 569.5,155.5C 567.196,157.322 565.363,159.655 564,162.5C 563.617,161.944 563.117,161.611 562.5,161.5C 562.931,159.74 562.931,157.74 562.5,155.5C 561.158,153.995 559.492,153.328 557.5,153.5C 558.036,156.698 557.369,159.365 555.5,161.5C 556.219,159.236 556.552,156.903 556.5,154.5C 558.516,146.955 557.516,139.955 553.5,133.5C 560.536,133.692 561.203,131.359 555.5,126.5C 556.833,125.167 558.167,125.167 559.5,126.5C 560.619,133.096 562.619,139.43 565.5,145.5C 564.731,148.115 564.397,150.781 564.5,153.5C 565.5,153.5 566.5,153.5 567.5,153.5C 567.5,148.833 567.5,144.167 567.5,139.5C 565.876,139.64 564.71,138.973 564,137.5C 563.505,134.469 563.671,131.469 564.5,128.5 Z"/></g>
<g><path style="opacity:0.38" fill="#8f9bae" d="M 319.5,141.5 C 320.479,144.625 320.813,147.958 320.5,151.5C 314.833,151.5 309.167,151.5 303.5,151.5C 308.64,150.512 313.974,150.179 319.5,150.5C 319.5,147.5 319.5,144.5 319.5,141.5 Z"/></g>
<g><path style="opacity:0.471" fill="#9ba2b6" d="M 262.5,142.5 C 262.5,142.833 262.5,143.167 262.5,143.5C 261.527,145.948 261.194,148.615 261.5,151.5C 264.833,151.5 268.167,151.5 271.5,151.5C 271.5,151.833 271.5,152.167 271.5,152.5C 267.833,152.5 264.167,152.5 260.5,152.5C 260.335,149.15 260.502,145.817 261,142.5C 261.69,141.262 262.19,141.262 262.5,142.5 Z"/></g>
<g><path style="opacity:1" fill="#1a2a53" d="M 359.5,125.5 C 359.5,125.833 359.5,126.167 359.5,126.5C 359.547,129.568 360.047,132.568 361,135.5C 361.383,134.944 361.883,134.611 362.5,134.5C 363.053,136.939 363.053,139.273 362.5,141.5C 362.846,142.696 363.346,142.696 364,141.5C 364.2,143.32 365.034,144.653 366.5,145.5C 366.259,147.898 366.926,149.898 368.5,151.5C 368.187,154.247 368.52,156.914 369.5,159.5C 370.265,160.612 371.265,161.279 372.5,161.5C 372.5,162.167 372.5,162.833 372.5,163.5C 372.387,166.049 373.054,168.382 374.5,170.5C 370.555,171.491 366.555,171.824 362.5,171.5C 362.5,171.167 362.5,170.833 362.5,170.5C 362.951,166.896 361.951,163.896 359.5,161.5C 356.518,160.835 353.352,160.502 350,160.5C 346.424,160.515 343.258,161.182 340.5,162.5C 340.371,164.216 340.038,165.883 339.5,167.5C 337.896,168.287 337.229,169.62 337.5,171.5C 333.029,172.089 329.029,171.423 325.5,169.5C 326.637,165.421 327.971,161.421 329.5,157.5C 331.834,155.824 332.834,153.491 332.5,150.5C 332.5,150.167 332.5,149.833 332.5,149.5C 333.397,148.402 334.23,148.402 335,149.5C 335.793,146.83 336.96,144.33 338.5,142C 338.167,141 337.833,140 337.5,139C 339.445,135.777 340.445,132.277 340.5,128.5C 340.5,128.167 340.5,127.833 340.5,127.5C 342.213,126.365 342.88,124.698 342.5,122.5C 347.405,121.555 352.405,121.221 357.5,121.5C 357.229,123.38 357.896,124.713 359.5,125.5 Z M 349.5,133.5 C 350.167,134.167 350.833,134.833 351.5,135.5C 351.899,139.116 352.899,142.45 354.5,145.5C 354.833,147.5 355.167,149.5 355.5,151.5C 351.774,151.823 348.107,151.489 344.5,150.5C 345.309,148.929 345.643,147.262 345.5,145.5C 346.738,143.786 347.405,141.786 347.5,139.5C 348.738,137.786 349.405,135.786 349.5,133.5 Z"/></g>
<g><path style="opacity:0.71" fill="#5c6582" d="M 345.5,145.5 C 345.643,147.262 345.309,148.929 344.5,150.5C 348.107,151.489 351.774,151.823 355.5,151.5C 355.167,149.5 354.833,147.5 354.5,145.5C 355.309,146.469 356.309,147.302 357.5,148C 356.62,149.356 356.286,150.856 356.5,152.5C 352.167,152.5 347.833,152.5 343.5,152.5C 343.41,149.848 344.076,147.515 345.5,145.5 Z"/></g>
<g><path style="opacity:1" fill="#575f7e" d="M 351.5,135.5 C 352.509,136.935 353.843,137.769 355.5,138C 354.572,138.388 353.905,139.055 353.5,140C 354.233,141.766 354.567,143.599 354.5,145.5C 352.899,142.45 351.899,139.116 351.5,135.5 Z"/></g>
<g><path style="opacity:0.573" fill="#8690a5" d="M 349.5,133.5 C 349.405,135.786 348.738,137.786 347.5,139.5C 347.259,137.102 347.926,135.102 349.5,133.5 Z"/></g>
<g><path style="opacity:0.369" fill="#9ca5bb" d="M 351.5,135.5 C 350.833,134.833 350.167,134.167 349.5,133.5C 349.351,132.448 349.517,131.448 350,130.5C 351.009,132.025 351.509,133.692 351.5,135.5 Z"/></g>
<g><path style="opacity:1" fill="#1c2b54" d="M 407.5,121.5 C 407.833,121.5 408.167,121.5 408.5,121.5C 410.542,123.375 412.876,125.041 415.5,126.5C 415.427,128.027 416.094,129.027 417.5,129.5C 417.5,130.167 417.5,130.833 417.5,131.5C 417.538,134.181 416.871,136.681 415.5,139C 413.608,142.009 411.608,144.842 409.5,147.5C 409.082,148.222 408.416,148.722 407.5,149C 410.219,150.597 412.386,152.763 414,155.5C 417.029,159.562 419.529,163.895 421.5,168.5C 421.414,169.496 421.748,170.329 422.5,171C 418.179,171.499 413.846,171.666 409.5,171.5C 406.139,165.816 402.806,160.149 399.5,154.5C 398.713,152.896 397.38,152.229 395.5,152.5C 394.833,152.5 394.167,152.5 393.5,152.5C 391.544,158.412 390.877,164.745 391.5,171.5C 388.167,171.5 384.833,171.5 381.5,171.5C 381.5,154.833 381.5,138.167 381.5,121.5C 390.167,121.5 398.833,121.5 407.5,121.5 Z M 392.5,129.5 C 399.124,127.973 403.457,130.306 405.5,136.5C 404.623,138.728 403.29,140.728 401.5,142.5C 398.518,142.963 395.518,143.296 392.5,143.5C 392.5,138.833 392.5,134.167 392.5,129.5 Z"/></g>
<g><path style="opacity:0.694" fill="#5d6684" d="M 392.5,129.5 C 392.5,134.167 392.5,138.833 392.5,143.5C 395.518,143.296 398.518,142.963 401.5,142.5C 401.082,143.222 400.416,143.722 399.5,144C 396.854,144.497 394.187,144.664 391.5,144.5C 391.179,139.305 391.513,134.305 392.5,129.5 Z"/></g>
<g><path style="opacity:0.776" fill="#757e99" d="M 405.5,136.5 C 406.109,139.878 404.776,141.878 401.5,142.5C 403.29,140.728 404.623,138.728 405.5,136.5 Z"/></g>
<g><path style="opacity:0.698" fill="#808ca7" d="M 214.5,152.5 C 211.366,153.035 208.366,154.035 205.5,155.5C 205.5,154.5 205.5,153.5 205.5,152.5C 208.5,152.5 211.5,152.5 214.5,152.5 Z"/></g>
<g><path style="opacity:0.282" fill="#a4aec1" d="M 395.5,152.5 C 397.38,152.229 398.713,152.896 399.5,154.5C 397.847,154.34 396.514,153.674 395.5,152.5 Z"/></g>
<g><path style="opacity:1" fill="#49bae4" d="M 534.5,135.5 C 531.283,143.874 531.95,151.874 536.5,159.5C 535.325,159.719 534.325,159.386 533.5,158.5C 529.279,151.305 528.279,143.638 530.5,135.5C 531.833,135.5 533.167,135.5 534.5,135.5 Z"/></g>
<g><path style="opacity:1" fill="#1b2a56" d="M 190.5,86.5 C 190.5,88.1667 190.5,89.8333 190.5,91.5C 187.402,91.4125 187.068,91.9125 189.5,93C 186.057,94.4336 186.057,96.2669 189.5,98.5C 190.906,98.9731 191.573,99.9731 191.5,101.5C 192.234,102.708 192.567,104.041 192.5,105.5C 196.167,105.5 199.833,105.5 203.5,105.5C 203.5,107.5 203.5,109.5 203.5,111.5C 204.833,111.5 206.167,111.5 207.5,111.5C 208.537,112.93 209.204,114.597 209.5,116.5C 209.279,118.664 208.279,120.33 206.5,121.5C 206.167,121.5 205.833,121.5 205.5,121.5C 203.801,121.34 202.134,121.506 200.5,122C 201.099,125.522 202.432,129.355 204.5,133.5C 207.287,134.477 210.287,134.81 213.5,134.5C 213.263,135.791 213.596,136.791 214.5,137.5C 215.619,142.653 215.619,147.653 214.5,152.5C 211.5,152.5 208.5,152.5 205.5,152.5C 205.5,153.5 205.5,154.5 205.5,155.5C 205.656,158.066 205.322,160.566 204.5,163C 205.13,164.31 206.13,165.144 207.5,165.5C 208.514,166.674 209.847,167.34 211.5,167.5C 212.043,167.56 212.376,167.893 212.5,168.5C 211.67,171.016 210.67,173.35 209.5,175.5C 207.744,176.552 207.077,178.219 207.5,180.5C 207.737,181.791 207.404,182.791 206.5,183.5C 205.292,184.234 203.959,184.567 202.5,184.5C 200.401,183.769 198.401,183.769 196.5,184.5C 194.957,187.086 193.291,189.586 191.5,192C 192.056,192.383 192.389,192.883 192.5,193.5C 192.751,195.17 193.418,196.67 194.5,198C 193.663,199.011 193.33,200.178 193.5,201.5C 191.473,201.338 189.473,201.505 187.5,202C 190.232,206.732 189.898,207.232 186.5,203.5C 185.24,205.353 185.24,207.186 186.5,209C 184.741,209.798 183.074,209.631 181.5,208.5C 183.762,206.492 183.262,206.159 180,207.5C 180.195,205.874 180.195,204.207 180,202.5C 179.29,203.973 178.124,204.64 176.5,204.5C 176.5,205.5 176.5,206.5 176.5,207.5C 176.5,208.167 176.167,208.5 175.5,208.5C 174.504,208.586 173.671,208.252 173,207.5C 171.303,209.632 169.136,210.965 166.5,211.5C 166.521,214.535 167.854,216.868 170.5,218.5C 167.889,219.728 166.222,221.728 165.5,224.5C 163.574,226.293 161.241,227.293 158.5,227.5C 156.708,227.634 155.042,227.301 153.5,226.5C 153.598,224.447 152.931,222.78 151.5,221.5C 151.265,220.903 150.765,220.57 150,220.5C 146.644,221.29 143.477,222.29 140.5,223.5C 140.81,226.713 140.477,229.713 139.5,232.5C 133.5,232.5 127.5,232.5 121.5,232.5C 121.677,228.766 121.344,225.099 120.5,221.5C 121.906,221.027 122.573,220.027 122.5,218.5C 123.906,218.027 124.573,217.027 124.5,215.5C 124.328,214.508 124.662,213.842 125.5,213.5C 126.906,213.027 127.573,212.027 127.5,210.5C 128.906,210.027 129.573,209.027 129.5,207.5C 130.435,205.139 131.768,202.972 133.5,201C 136.827,200.39 140.161,199.89 143.5,199.5C 147.998,199.311 152.331,198.311 156.5,196.5C 159.023,193.319 162.19,190.986 166,189.5C 166.608,187.846 167.108,186.179 167.5,184.5C 169.843,181.793 172.177,179.126 174.5,176.5C 175.708,175.766 177.041,175.433 178.5,175.5C 178.373,171.714 179.54,168.381 182,165.5C 182.499,161.848 182.665,158.182 182.5,154.5C 182.5,154.167 182.5,153.833 182.5,153.5C 183.164,151.022 183.497,148.355 183.5,145.5C 183.663,141.223 182.997,137.223 181.5,133.5C 179.604,129.703 178.27,125.703 177.5,121.5C 176.394,118.946 175.561,116.279 175,113.5C 174.667,113.833 174.333,114.167 174,114.5C 173.583,113.244 172.75,112.577 171.5,112.5C 170.647,109.172 170.314,106.005 170.5,103C 173.145,101.713 174.145,99.5468 173.5,96.5C 174.11,95.609 174.443,94.609 174.5,93.5C 174.5,93.1667 174.5,92.8333 174.5,92.5C 176.048,92.1788 176.715,91.1788 176.5,89.5C 177.978,89.762 179.311,89.4287 180.5,88.5C 182.624,82.4177 185.291,82.0844 188.5,87.5C 189.183,87.1373 189.85,86.8039 190.5,86.5 Z"/></g>
<g><path style="opacity:1" fill="#798397" d="M 332.5,150.5 C 332.834,153.491 331.834,155.824 329.5,157.5C 329.935,154.843 330.935,152.509 332.5,150.5 Z"/></g>
<g><path style="opacity:1" fill="#61c3e6" d="M 158.5,141.5 C 154.167,150.844 148.833,159.511 142.5,167.5C 142.511,165.453 142.844,163.453 143.5,161.5C 146.922,156.322 150.589,151.322 154.5,146.5C 155.213,144.224 155.713,141.891 156,139.5C 158.984,137.293 159.15,137.793 156.5,141C 157.094,141.464 157.761,141.631 158.5,141.5 Z"/></g>
<g><path style="opacity:0.235" fill="#aebcd9" d="M 41.5,158.5 C 44.8333,158.5 48.1667,158.5 51.5,158.5C 51.5,160.167 51.5,161.833 51.5,163.5C 50.5655,162.432 50.2322,161.099 50.5,159.5C 47.2869,159.81 44.2869,159.477 41.5,158.5 Z"/></g>
<g><path style="opacity:1" fill="#444f6c" d="M 368.5,151.5 C 370.009,154.678 371.342,158.011 372.5,161.5C 371.265,161.279 370.265,160.612 369.5,159.5C 368.52,156.914 368.187,154.247 368.5,151.5 Z"/></g>
<g><path style="opacity:1" fill="#182754" d="M 262.5,143.5 C 269.167,143.5 275.833,143.5 282.5,143.5C 282.5,151.833 282.5,160.167 282.5,168.5C 281.609,169.11 280.609,169.443 279.5,169.5C 276.753,169.813 274.086,169.48 271.5,168.5C 270.571,166.362 268.904,165.196 266.5,165C 268.218,164.654 269.885,164.154 271.5,163.5C 272.809,159.351 272.809,155.351 271.5,151.5C 268.167,151.5 264.833,151.5 261.5,151.5C 261.194,148.615 261.527,145.948 262.5,143.5 Z"/></g>
<g><path style="opacity:1" fill="#0aaaf4" d="M 562.5,161.5 C 562.675,163.621 562.341,165.621 561.5,167.5C 560.579,166.019 559.412,164.686 558,163.5C 556.711,165.085 555.211,166.419 553.5,167.5C 552.446,167.32 551.446,166.987 550.5,166.5C 545.533,167.829 540.533,168.662 535.5,169C 535.167,168.667 534.833,168.333 534.5,168C 539.301,166.476 543.968,164.976 548.5,163.5C 550.929,163.116 553.263,162.449 555.5,161.5C 557.369,159.365 558.036,156.698 557.5,153.5C 559.492,153.328 561.158,153.995 562.5,155.5C 562.931,157.74 562.931,159.74 562.5,161.5 Z"/></g>
<g><path style="opacity:0.125" fill="#c5c9e1" d="M 359.5,161.5 C 353.077,161.209 346.744,161.542 340.5,162.5C 343.258,161.182 346.424,160.515 350,160.5C 353.352,160.502 356.518,160.835 359.5,161.5 Z"/></g>
<g><path style="opacity:1" fill="#62c1d8" d="M 556.5,154.5 C 556.552,156.903 556.219,159.236 555.5,161.5C 553.263,162.449 550.929,163.116 548.5,163.5C 545.123,163.932 542.123,163.265 539.5,161.5C 543.513,162.672 547.513,162.505 551.5,161C 552.833,160.333 552.833,159.667 551.5,159C 554.342,158.652 556.009,157.152 556.5,154.5 Z"/></g>
<g><path style="opacity:1" fill="#74cdeb" d="M 464.5,161.5 C 463.942,162.79 462.942,163.623 461.5,164C 457.257,164.918 453.257,164.418 449.5,162.5C 448.584,162.543 447.917,162.876 447.5,163.5C 446.167,163.5 444.833,163.5 443.5,163.5C 443.5,165.833 443.5,168.167 443.5,170.5C 442.518,167.038 442.185,163.371 442.5,159.5C 447.396,160.729 452.229,162.062 457,163.5C 459.635,163.261 462.135,162.594 464.5,161.5 Z"/></g>
<g><path style="opacity:0.157" fill="#befefe" d="M 497.5,159.5 C 503.736,161.082 510.07,162.082 516.5,162.5C 510.167,162.5 503.833,162.5 497.5,162.5C 497.5,161.5 497.5,160.5 497.5,159.5 Z"/></g>
<g><path style="opacity:0.71" fill="#6a7080" d="M 322.5,162.5 C 322.5,162.833 322.5,163.167 322.5,163.5C 315.978,163.823 309.645,163.49 303.5,162.5C 310.416,162.302 316.75,162.302 322.5,162.5 Z"/></g>
<g><path style="opacity:1" fill="#96d9e7" d="M 485.5,120.5 C 485.5,137.5 485.5,154.5 485.5,171.5C 486.833,171.5 488.167,171.5 489.5,171.5C 490.167,171.5 490.833,171.5 491.5,171.5C 499.5,171.5 507.5,171.5 515.5,171.5C 515.5,168.833 515.5,166.167 515.5,163.5C 509.167,163.5 502.833,163.5 496.5,163.5C 496.5,159.167 496.5,154.833 496.5,150.5C 502.167,150.5 507.833,150.5 513.5,150.5C 508.36,151.488 503.026,151.821 497.5,151.5C 497.5,154.167 497.5,156.833 497.5,159.5C 497.5,160.5 497.5,161.5 497.5,162.5C 503.833,162.5 510.167,162.5 516.5,162.5C 517.826,165.803 517.826,169.136 516.5,172.5C 505.939,173.819 495.439,173.819 485,172.5C 484.171,154.995 484.338,137.662 485.5,120.5 Z"/></g>
<g><path style="opacity:0.114" fill="#acebf6" d="M 521.5,159.5 C 522.167,159.5 522.833,159.5 523.5,159.5C 523.629,161.216 523.962,162.883 524.5,164.5C 522.75,163.341 521.75,161.674 521.5,159.5 Z"/></g>
<g><path style="opacity:1" fill="#69c2e7" d="M 569.5,155.5 C 569.155,161.157 566.488,165.157 561.5,167.5C 562.341,165.621 562.675,163.621 562.5,161.5C 563.117,161.611 563.617,161.944 564,162.5C 565.363,159.655 567.196,157.322 569.5,155.5 Z"/></g>
<g><path style="opacity:1" fill="#1a2954" d="M 303.5,130.5 C 303.5,134.167 303.5,137.833 303.5,141.5C 308.833,141.5 314.167,141.5 319.5,141.5C 319.5,144.5 319.5,147.5 319.5,150.5C 313.974,150.179 308.64,150.512 303.5,151.5C 303.5,155.167 303.5,158.833 303.5,162.5C 309.645,163.49 315.978,163.823 322.5,163.5C 322.5,166.167 322.5,168.833 322.5,171.5C 312.5,171.5 302.5,171.5 292.5,171.5C 292.5,170.167 292.5,168.833 292.5,167.5C 292.5,152.167 292.5,136.833 292.5,121.5C 301.833,121.5 311.167,121.5 320.5,121.5C 320.5,124.167 320.5,126.833 320.5,129.5C 314.642,129.178 308.975,129.511 303.5,130.5 Z"/></g>
<g><path style="opacity:1" fill="#5f687b" d="M 359.5,161.5 C 361.951,163.896 362.951,166.896 362.5,170.5C 360.928,167.785 359.928,164.785 359.5,161.5 Z"/></g>
<g><path style="opacity:1" fill="#72cbe7" d="M 93.5,151.5 C 93.5463,159.28 92.8796,166.946 91.5,174.5C 94.1667,174.167 96.8333,173.833 99.5,173.5C 95.6699,176.171 92.0032,176.005 88.5,173C 90.4442,165.797 92.1109,158.63 93.5,151.5 Z"/></g>
<g><path style="opacity:0.604" fill="#949baf" d="M 380.5,120.5 C 380.17,137.675 380.503,154.675 381.5,171.5C 384.833,171.5 388.167,171.5 391.5,171.5C 390.877,164.745 391.544,158.412 393.5,152.5C 392.54,159.078 392.207,165.745 392.5,172.5C 388.167,172.5 383.833,172.5 379.5,172.5C 379.17,154.992 379.503,137.659 380.5,120.5 Z"/></g>
<g><path style="opacity:1" fill="#0aaaf3" d="M 447.5,163.5 C 452.577,165.052 457.911,166.052 463.5,166.5C 450.167,167.833 450.167,169.167 463.5,170.5C 458.208,171.495 452.875,171.828 447.5,171.5C 447.5,170.167 447.5,168.833 447.5,167.5C 446.5,167.5 445.5,167.5 444.5,167.5C 444.737,168.791 444.404,169.791 443.5,170.5C 443.5,168.167 443.5,165.833 443.5,163.5C 444.833,163.5 446.167,163.5 447.5,163.5 Z"/></g>
<g><path style="opacity:0.302" fill="#a0aabc" d="M 207.5,165.5 C 209.38,165.229 210.713,165.896 211.5,167.5C 209.847,167.34 208.514,166.674 207.5,165.5 Z"/></g>
<g><path style="opacity:1" fill="#2d385d" d="M 246.5,127.5 C 244.647,131.234 243.313,135.234 242.5,139.5C 242.68,140.554 243.013,141.554 243.5,142.5C 242.746,145.777 242.246,149.11 242,152.5C 241.5,153 241,153.5 240.5,154C 243.493,156.822 244.993,159.989 245,163.5C 249.792,168.423 254.958,168.756 260.5,164.5C 254.204,163.229 250.037,159.562 248,153.5C 247.762,149.35 247.596,145.35 247.5,141.5C 248.112,138.559 249.779,136.559 252.5,135.5C 251.89,136.391 251.557,137.391 251.5,138.5C 249.909,144.649 250.242,150.649 252.5,156.5C 252.427,158.027 253.094,159.027 254.5,159.5C 259.899,162.926 265.399,163.26 271,160.5C 271.497,157.854 271.664,155.187 271.5,152.5C 271.5,152.167 271.5,151.833 271.5,151.5C 272.809,155.351 272.809,159.351 271.5,163.5C 269.885,164.154 268.218,164.654 266.5,165C 268.904,165.196 270.571,166.362 271.5,168.5C 274.086,169.48 276.753,169.813 279.5,169.5C 278.833,170.167 278.167,170.833 277.5,171.5C 268.287,174.394 259.287,174.061 250.5,170.5C 250.027,169.094 249.027,168.427 247.5,168.5C 247.027,167.094 246.027,166.427 244.5,166.5C 238.167,159.821 235.834,151.821 237.5,142.5C 238.924,140.485 239.59,138.152 239.5,135.5C 240.351,133.118 241.684,131.118 243.5,129.5C 244.5,128.833 245.5,128.167 246.5,127.5 Z"/></g>
<g><path style="opacity:0.541" fill="#a4aabe" d="M 252.5,156.5 C 253.906,156.973 254.573,157.973 254.5,159.5C 253.094,159.027 252.427,158.027 252.5,156.5 Z"/></g>
<g><path style="opacity:0.459" fill="#9ca3b6" d="M 244.5,166.5 C 246.027,166.427 247.027,167.094 247.5,168.5C 245.973,168.573 244.973,167.906 244.5,166.5 Z"/></g>
<g><path style="opacity:0.012" fill="#c6faff" d="M 527.5,167.5 C 527.833,167.5 528.167,167.5 528.5,167.5C 529.167,168.167 529.833,168.833 530.5,169.5C 528.821,169.715 527.821,169.048 527.5,167.5 Z"/></g>
<g><path style="opacity:1" fill="#28b0e7" d="M 536.5,159.5 C 537.778,159.782 538.778,160.449 539.5,161.5C 542.123,163.265 545.123,163.932 548.5,163.5C 543.968,164.976 539.301,166.476 534.5,168C 534.833,168.333 535.167,168.667 535.5,169C 540.533,168.662 545.533,167.829 550.5,166.5C 551.446,166.987 552.446,167.32 553.5,167.5C 555.211,166.419 556.711,165.085 558,163.5C 559.412,164.686 560.579,166.019 561.5,167.5C 559.415,169.884 556.748,171.551 553.5,172.5C 547.108,172.751 540.775,172.418 534.5,171.5C 532.62,171.771 531.287,171.104 530.5,169.5C 529.833,168.833 529.167,168.167 528.5,167.5C 531.167,166.167 533.833,164.833 536.5,163.5C 536.5,162.167 536.5,160.833 536.5,159.5 Z"/></g>
<g><path style="opacity:1" fill="#545c7a" d="M 74.5,161.5 C 76.0086,164.678 77.342,168.011 78.5,171.5C 75.5688,168.987 74.2355,165.653 74.5,161.5 Z"/></g>
<g><path style="opacity:0.38" fill="#9ba4b8" d="M 247.5,168.5 C 249.027,168.427 250.027,169.094 250.5,170.5C 248.973,170.573 247.973,169.906 247.5,168.5 Z"/></g>
<g><path style="opacity:0.38" fill="#9b9fb7" d="M 282.5,168.5 C 282.833,168.5 283.167,168.5 283.5,168.5C 282.089,170.539 280.089,171.539 277.5,171.5C 278.167,170.833 278.833,170.167 279.5,169.5C 280.609,169.443 281.609,169.11 282.5,168.5 Z"/></g>
<g><path style="opacity:0.471" fill="#9ba4bf" d="M 339.5,167.5 C 339.34,169.153 338.674,170.486 337.5,171.5C 337.229,169.62 337.896,168.287 339.5,167.5 Z"/></g>
<g><path style="opacity:1" fill="#05aced" d="M 493.5,151.5 C 494.177,155.571 495.177,159.571 496.5,163.5C 502.833,163.5 509.167,163.5 515.5,163.5C 515.5,166.167 515.5,168.833 515.5,171.5C 507.5,171.5 499.5,171.5 491.5,171.5C 491.732,164.78 492.398,158.113 493.5,151.5 Z"/></g>
<g><path style="opacity:1" fill="#646c8a" d="M 52.5,167.5 C 53.8505,170.828 52.5172,172.161 48.5,171.5C 49.2625,170.732 50.2625,170.232 51.5,170C 52.2524,169.329 52.5858,168.496 52.5,167.5 Z"/></g>
<g><path style="opacity:1" fill="#35b1e3" d="M 477.5,164.5 C 476.384,168.617 473.717,170.95 469.5,171.5C 462.535,172.341 455.535,172.674 448.5,172.5C 446.597,172.204 444.93,171.537 443.5,170.5C 444.404,169.791 444.737,168.791 444.5,167.5C 445.5,167.5 446.5,167.5 447.5,167.5C 447.5,168.833 447.5,170.167 447.5,171.5C 452.875,171.828 458.208,171.495 463.5,170.5C 450.167,169.167 450.167,167.833 463.5,166.5C 457.911,166.052 452.577,165.052 447.5,163.5C 447.917,162.876 448.584,162.543 449.5,162.5C 453.257,164.418 457.257,164.918 461.5,164C 462.942,163.623 463.942,162.79 464.5,161.5C 465.914,159.128 465.58,156.961 463.5,155C 459.359,152.551 455.026,150.551 450.5,149C 448.937,148.241 447.937,147.074 447.5,145.5C 449.176,144.817 449.843,143.483 449.5,141.5C 452.247,141.187 454.914,141.52 457.5,142.5C 459.28,145.575 461.947,147.242 465.5,147.5C 466.833,154.833 466.833,162.167 465.5,169.5C 466.833,169.5 468.167,169.5 469.5,169.5C 469.5,166.833 469.5,164.167 469.5,161.5C 471.916,161.961 473.75,163.294 475,165.5C 475.902,165.257 476.735,164.923 477.5,164.5 Z"/></g>
<g><path style="opacity:0.639" fill="#7e8396" d="M 322.5,162.5 C 323.479,165.625 323.813,168.958 323.5,172.5C 312.828,172.667 302.161,172.5 291.5,172C 290.272,170.51 290.272,169.01 291.5,167.5C 291.833,167.5 292.167,167.5 292.5,167.5C 292.5,168.833 292.5,170.167 292.5,171.5C 302.5,171.5 312.5,171.5 322.5,171.5C 322.5,168.833 322.5,166.167 322.5,163.5C 322.5,163.167 322.5,162.833 322.5,162.5 Z"/></g>
<g><path style="opacity:0.663" fill="#747989" d="M 325.5,169.5 C 329.029,171.423 333.029,172.089 337.5,171.5C 333.366,172.485 329.032,172.818 324.5,172.5C 324.263,171.209 324.596,170.209 325.5,169.5 Z"/></g>
<g><path style="opacity:0.627" fill="#6a7184" d="M 372.5,163.5 C 374.472,166.084 375.472,169.084 375.5,172.5C 370.968,172.818 366.634,172.485 362.5,171.5C 366.555,171.824 370.555,171.491 374.5,170.5C 373.054,168.382 372.387,166.049 372.5,163.5 Z"/></g>
<g><path style="opacity:0.627" fill="#75798d" d="M 421.5,168.5 C 423.104,169.287 423.771,170.62 423.5,172.5C 418.637,172.819 413.97,172.486 409.5,171.5C 413.846,171.666 418.179,171.499 422.5,171C 421.748,170.329 421.414,169.496 421.5,168.5 Z"/></g>
<g><path style="opacity:0.776" fill="#848797" d="M 48.5,171.5 C 46.9192,173.142 46.2525,175.142 46.5,177.5C 45.3871,176.054 45.2204,174.387 46,172.5C 46.6708,171.748 47.5041,171.414 48.5,171.5 Z"/></g>
<g><path style="opacity:0.084" fill="#c1fafc" d="M 106.5,173.5 C 104.5,173.5 102.5,173.5 100.5,173.5C 101.912,172.467 103.578,171.801 105.5,171.5C 107.418,171.861 107.751,172.528 106.5,173.5 Z"/></g>
<g><path style="opacity:1" fill="#6dc5e7" d="M 142.5,168.5 C 141.557,171.4 139.89,173.733 137.5,175.5C 137.017,171.423 138.684,169.09 142.5,168.5 Z"/></g>
<g><path style="opacity:0.816" fill="#85ebfe" d="M 469.5,171.5 C 466.402,172.821 462.902,173.488 459,173.5C 455.317,173.499 451.817,173.165 448.5,172.5C 455.535,172.674 462.535,172.341 469.5,171.5 Z"/></g>
<g><path style="opacity:0.927" fill="#87ebfe" d="M 534.5,171.5 C 540.775,172.418 547.108,172.751 553.5,172.5C 547.681,173.653 541.681,173.819 535.5,173C 534.944,172.617 534.611,172.117 534.5,171.5 Z"/></g>
<g><path style="opacity:1" fill="#434a6a" d="M 182.5,154.5 C 182.665,158.182 182.499,161.848 182,165.5C 179.54,168.381 178.373,171.714 178.5,175.5C 177.041,175.433 175.708,175.766 174.5,176.5C 177.794,169.276 180.46,161.943 182.5,154.5 Z"/></g>
<g><path style="opacity:0.518" fill="#9499aa" d="M 79.5,173.5 C 80.9063,173.973 81.573,174.973 81.5,176.5C 80.0937,176.027 79.427,175.027 79.5,173.5 Z"/></g>
<g><path style="opacity:1" fill="#646076" d="M 209.5,175.5 C 209.598,177.553 208.931,179.22 207.5,180.5C 207.077,178.219 207.744,176.552 209.5,175.5 Z"/></g>
<g><path style="opacity:1" fill="#6bc8e9" d="M 137.5,175.5 C 136.831,178.849 135.164,181.516 132.5,183.5C 132.17,179.512 133.837,176.845 137.5,175.5 Z"/></g>
<g><path style="opacity:0.373" fill="#9fa9c4" d="M 47.5,179.5 C 48.9313,180.78 49.5979,182.447 49.5,184.5C 48.0687,183.22 47.4021,181.553 47.5,179.5 Z"/></g>
<g><path style="opacity:0.224" fill="#a2aebf" d="M 206.5,183.5 C 206.38,184.586 205.713,185.253 204.5,185.5C 203.584,185.457 202.917,185.124 202.5,184.5C 203.959,184.567 205.292,184.234 206.5,183.5 Z"/></g>
<g><path style="opacity:1" fill="#63c7e9" d="M 132.5,184.5 C 131.404,187.032 130.071,189.365 128.5,191.5C 127.481,189.46 127.481,187.46 128.5,185.5C 129.086,185.709 129.586,186.043 130,186.5C 130.075,184.065 130.908,183.398 132.5,184.5 Z"/></g>
<g><path style="opacity:0.843" fill="#8b98a7" d="M 52.5,189.5 C 53.8333,189.5 55.1667,189.5 56.5,189.5C 55.7387,190.391 54.7387,191.058 53.5,191.5C 52.7025,191.043 52.3691,190.376 52.5,189.5 Z"/></g>
<g><path style="opacity:1" fill="#4d5671" d="M 88.5,185.5 C 90.2569,186.084 91.5902,187.251 92.5,189C 91.2957,193.466 89.6291,197.633 87.5,201.5C 87.335,198.15 87.5017,194.817 88,191.5C 88.3333,192.833 88.6667,194.167 89,195.5C 89.3876,192.151 89.2209,188.817 88.5,185.5 Z"/></g>
<g><path style="opacity:1" fill="#68c6e8" d="M 127.5,191.5 C 127.413,194.578 126.08,196.911 123.5,198.5C 123.5,196.167 123.5,193.833 123.5,191.5C 124.833,191.5 126.167,191.5 127.5,191.5 Z"/></g>
<g><path style="opacity:0.855" fill="#7a8397" d="M 156.5,193.5 C 156.027,194.906 155.027,195.573 153.5,195.5C 153.973,194.094 154.973,193.427 156.5,193.5 Z"/></g>
<g><path style="opacity:1" fill="#2f3858" d="M 167.5,184.5 C 167.108,186.179 166.608,187.846 166,189.5C 162.19,190.986 159.023,193.319 156.5,196.5C 152.331,198.311 147.998,199.311 143.5,199.5C 146.54,197.654 149.873,196.321 153.5,195.5C 155.027,195.573 156.027,194.906 156.5,193.5C 160.432,190.908 164.099,187.908 167.5,184.5 Z"/></g>
<g><path style="opacity:1" fill="#6a6d86" d="M 65.5,198.5 C 65.2785,200.664 64.2785,202.33 62.5,203.5C 61.9131,201.315 62.9131,199.648 65.5,198.5 Z"/></g>
<g><path style="opacity:0.012" fill="#b4bfd1" d="M 196.5,199.5 C 196.573,201.027 195.906,202.027 194.5,202.5C 194.427,200.973 195.094,199.973 196.5,199.5 Z"/></g>
<g><path style="opacity:1" fill="#33b4ea" d="M 123.5,199.5 C 118.838,207.497 114.171,215.497 109.5,223.5C 107.988,225.596 106.322,227.596 104.5,229.5C 104.643,227.738 104.309,226.071 103.5,224.5C 104.325,223.614 105.325,223.281 106.5,223.5C 105.746,220.744 105.746,218.078 106.5,215.5C 111.897,215.371 113.897,212.704 112.5,207.5C 111.833,208.167 111.167,208.833 110.5,209.5C 109.534,207.604 109.201,205.604 109.5,203.5C 108.167,203.5 106.833,203.5 105.5,203.5C 105.423,199.854 104.423,196.521 102.5,193.5C 101.823,196.867 100.157,199.534 97.5,201.5C 98.3928,196.483 100.06,191.817 102.5,187.5C 102.5,188.833 102.5,190.167 102.5,191.5C 104.143,191.52 105.476,190.853 106.5,189.5C 107.833,186.833 109.167,184.167 110.5,181.5C 110.833,182.5 111.167,183.5 111.5,184.5C 110.441,187.618 109.108,190.618 107.5,193.5C 108.5,196.167 109.5,198.833 110.5,201.5C 111.349,194.12 113.015,193.787 115.5,200.5C 116.333,200.833 117.167,201.167 118,201.5C 119.8,200.622 121.633,199.955 123.5,199.5 Z"/></g>
<g><path style="opacity:1" fill="#5c6683" d="M 87.5,201.5 C 87.405,203.786 86.7384,205.786 85.5,207.5C 85.0254,204.918 85.6921,202.918 87.5,201.5 Z"/></g>
<g><path style="opacity:1" fill="#3b4569" d="M 192.5,193.5 C 194.129,194.625 195.629,195.959 197,197.5C 197.692,198.437 197.525,199.103 196.5,199.5C 195.094,199.973 194.427,200.973 194.5,202.5C 191.521,206.146 188.188,209.479 184.5,212.5C 182.064,210.384 179.397,208.717 176.5,207.5C 176.5,206.5 176.5,205.5 176.5,204.5C 178.124,204.64 179.29,203.973 180,202.5C 180.195,204.207 180.195,205.874 180,207.5C 183.262,206.159 183.762,206.492 181.5,208.5C 183.074,209.631 184.741,209.798 186.5,209C 185.24,207.186 185.24,205.353 186.5,203.5C 189.898,207.232 190.232,206.732 187.5,202C 189.473,201.505 191.473,201.338 193.5,201.5C 193.33,200.178 193.663,199.011 194.5,198C 193.418,196.67 192.751,195.17 192.5,193.5 Z"/></g>
<g><path style="opacity:0.698" fill="#7fddf1" d="M 97.5,201.5 C 97.5,202.833 97.5,204.167 97.5,205.5C 96.8333,206.167 96.1667,206.833 95.5,207.5C 95.2594,205.102 95.9261,203.102 97.5,201.5 Z"/></g>
<g><path style="opacity:0.596" fill="#9fa7b8" d="M 65.5,207.5 C 67.7488,208.08 69.4154,209.413 70.5,211.5C 68.2512,210.92 66.5846,209.587 65.5,207.5 Z"/></g>
<g><path style="opacity:1" fill="#1fafec" d="M 106.5,215.5 C 105.746,218.078 105.746,220.744 106.5,223.5C 105.325,223.281 104.325,223.614 103.5,224.5C 104.309,226.071 104.643,227.738 104.5,229.5C 101.471,231.197 99.8042,233.863 99.5,237.5C 98.063,238.725 96.3964,239.725 94.5,240.5C 93.5,242.5 92.5,244.5 91.5,246.5C 90.3112,247.429 88.9778,247.762 87.5,247.5C 86.9951,250.343 85.9951,253.01 84.5,255.5C 84.8457,256.849 85.179,258.183 85.5,259.5C 85.3465,261.97 84.3465,263.97 82.5,265.5C 79.2206,266.031 77.8872,268.031 78.5,271.5C 77.1667,271.5 75.8333,271.5 74.5,271.5C 76.6418,266.4 77.9752,261.067 78.5,255.5C 82.3297,244.006 86.3297,232.672 90.5,221.5C 90.6925,225.013 90.0259,228.346 88.5,231.5C 88.637,233.107 89.3036,234.441 90.5,235.5C 92.126,231.629 93.126,227.629 93.5,223.5C 94.8333,223.5 96.1667,223.5 97.5,223.5C 100.024,217.101 101.358,210.435 101.5,203.5C 102.5,203.5 103.5,203.5 104.5,203.5C 104.952,207.546 105.619,211.546 106.5,215.5 Z"/></g>
<g><path style="opacity:0.663" fill="#7486ae" d="M 129.5,207.5 C 129.573,209.027 128.906,210.027 127.5,210.5C 127.427,208.973 128.094,207.973 129.5,207.5 Z"/></g>
<g><path style="opacity:1" fill="#35b5ec" d="M 97.5,205.5 C 97.2601,208.579 97.5934,211.579 98.5,214.5C 97.675,215.386 96.675,215.719 95.5,215.5C 95.628,217.655 95.128,219.655 94,221.5C 93.296,219.273 92.1294,218.94 90.5,220.5C 91.9373,215.979 93.604,211.645 95.5,207.5C 96.1667,206.833 96.8333,206.167 97.5,205.5 Z"/></g>
<g><path style="opacity:1" fill="#414d6a" d="M 175.5,208.5 C 173.531,210.159 171.531,211.825 169.5,213.5C 174.612,219.601 173.279,223.268 165.5,224.5C 166.222,221.728 167.889,219.728 170.5,218.5C 167.854,216.868 166.521,214.535 166.5,211.5C 169.136,210.965 171.303,209.632 173,207.5C 173.671,208.252 174.504,208.586 175.5,208.5 Z"/></g>
<g><path style="opacity:1" fill="#414c65" d="M 85.5,207.5 C 85.8244,210.694 84.6578,211.694 82,210.5C 80,212.5 78,214.5 76,216.5C 73.8094,215.167 71.976,213.5 70.5,211.5C 73.5,211.5 76.5,211.5 79.5,211.5C 79.238,210.022 79.5713,208.689 80.5,207.5C 82.2445,210.092 83.9112,210.092 85.5,207.5 Z"/></g>
<g><path style="opacity:0.506" fill="#918fa7" d="M 127.5,210.5 C 127.573,212.027 126.906,213.027 125.5,213.5C 125.427,211.973 126.094,210.973 127.5,210.5 Z"/></g>
<g><path style="opacity:0.651" fill="#7b929d" d="M 124.5,215.5 C 124.573,217.027 123.906,218.027 122.5,218.5C 122.427,216.973 123.094,215.973 124.5,215.5 Z"/></g>
<g><path style="opacity:1" fill="#08aaf3" d="M 106.5,215.5 C 105.619,211.546 104.952,207.546 104.5,203.5C 103.5,203.5 102.5,203.5 101.5,203.5C 101.358,210.435 100.024,217.101 97.5,223.5C 96.1667,223.5 94.8333,223.5 93.5,223.5C 93.126,227.629 92.126,231.629 90.5,235.5C 89.3036,234.441 88.637,233.107 88.5,231.5C 90.0259,228.346 90.6925,225.013 90.5,221.5C 90.5,221.167 90.5,220.833 90.5,220.5C 92.1294,218.94 93.296,219.273 94,221.5C 95.128,219.655 95.628,217.655 95.5,215.5C 96.675,215.719 97.675,215.386 98.5,214.5C 97.5934,211.579 97.2601,208.579 97.5,205.5C 97.5,204.167 97.5,202.833 97.5,201.5C 100.157,199.534 101.823,196.867 102.5,193.5C 104.423,196.521 105.423,199.854 105.5,203.5C 106.833,203.5 108.167,203.5 109.5,203.5C 109.201,205.604 109.534,207.604 110.5,209.5C 111.167,208.833 111.833,208.167 112.5,207.5C 113.897,212.704 111.897,215.371 106.5,215.5 Z"/></g>
<g><path style="opacity:0.494" fill="#929fb7" d="M 122.5,218.5 C 122.573,220.027 121.906,221.027 120.5,221.5C 120.427,219.973 121.094,218.973 122.5,218.5 Z"/></g>
<g><path style="opacity:0.235" fill="#979ebb" d="M 151.5,221.5 C 147.929,222.642 144.262,223.309 140.5,223.5C 143.477,222.29 146.644,221.29 150,220.5C 150.765,220.57 151.265,220.903 151.5,221.5 Z"/></g>
<g><path style="opacity:0.392" fill="#96a2b7" d="M 151.5,221.5 C 152.931,222.78 153.598,224.447 153.5,226.5C 152.069,225.22 151.402,223.553 151.5,221.5 Z"/></g>
<g><path style="opacity:0.043" fill="#fcf3d7" d="M 109.5,223.5 C 110.167,223.5 110.5,223.833 110.5,224.5C 110.167,224.167 109.833,223.833 109.5,223.5 Z"/></g>
<g><path style="opacity:0.012" fill="#fef9dd" d="M 110.5,224.5 C 111.833,225.167 111.833,225.167 110.5,224.5 Z"/></g>
<g><path style="opacity:0.796" fill="#8b92a2" d="M 153.5,226.5 C 155.042,227.301 156.708,227.634 158.5,227.5C 155.987,230.126 154.32,229.793 153.5,226.5 Z"/></g>
<g><path style="opacity:1" fill="#7cd6ef" d="M 104.5,229.5 C 103.805,232.915 102.138,235.582 99.5,237.5C 99.8042,233.863 101.471,231.197 104.5,229.5 Z"/></g>
<g><path style="opacity:0.529" fill="#939bb5" d="M 120.5,221.5 C 121.344,225.099 121.677,228.766 121.5,232.5C 127.5,232.5 133.5,232.5 139.5,232.5C 133.355,233.49 127.022,233.823 120.5,233.5C 120.228,229.277 120.228,225.277 120.5,221.5 Z"/></g>
<g><path style="opacity:1" fill="#51bae4" d="M 99.5,237.5 C 96.296,242.901 93.296,248.567 90.5,254.5C 89.0305,256.513 87.3638,258.18 85.5,259.5C 85.179,258.183 84.8457,256.849 84.5,255.5C 85.9951,253.01 86.9951,250.343 87.5,247.5C 88.9778,247.762 90.3112,247.429 91.5,246.5C 92.5,244.5 93.5,242.5 94.5,240.5C 96.3964,239.725 98.063,238.725 99.5,237.5 Z"/></g>
<g><path style="opacity:0.055" fill="#96dbed" d="M 78.5,255.5 C 77.9752,261.067 76.6418,266.4 74.5,271.5C 75.8333,271.5 77.1667,271.5 78.5,271.5C 77.8872,268.031 79.2206,266.031 82.5,265.5C 81.0256,267.979 80.0256,270.646 79.5,273.5C 77.8008,273.66 76.1341,273.494 74.5,273C 73.9032,271.938 73.5698,270.772 73.5,269.5C 74.4283,264.425 76.095,259.758 78.5,255.5 Z"/></g>
</svg>
