<?xml version="1.0" encoding="UTF-8"?>
<!DOCTYPE svg PUBLIC "-//W3C//DTD SVG 1.1//EN" "http://www.w3.org/Graphics/SVG/1.1/DTD/svg11.dtd">
<svg xmlns="http://www.w3.org/2000/svg" version="1.1" width="240px" height="97px" style="shape-rendering:geometricPrecision; text-rendering:geometricPrecision; image-rendering:optimizeQuality; fill-rule:evenodd; clip-rule:evenodd" xmlns:xlink="http://www.w3.org/1999/xlink">
<g><path style="opacity:1" fill="#49319e" d="M 87.5,-0.5 C 89.8333,-0.5 92.1667,-0.5 94.5,-0.5C 96.8729,0.378094 97.7062,2.04476 97,4.5C 96.6174,3.94404 96.1174,3.61071 95.5,3.5C 95.1667,2.16667 94.8333,2.16667 94.5,3.5C 94.1788,5.04814 93.1788,5.71481 91.5,5.5C 91.2322,7.09903 91.5655,8.43236 92.5,9.5C 93.0431,9.55999 93.3764,9.89333 93.5,10.5C 92.4793,11.9014 91.4793,13.2347 90.5,14.5C 89.8333,12.8333 89.1667,11.1667 88.5,9.5C 86.5843,6.27677 86.251,2.94344 87.5,-0.5 Z"/></g>
<g><path style="opacity:0.796" fill="#867abf" d="M 94.5,3.5 C 94.8333,3.5 95.1667,3.5 95.5,3.5C 95.4142,4.4959 95.7476,5.32924 96.5,6C 95.1667,6.33333 93.8333,6.66667 92.5,7C 93.5981,7.76971 93.5981,8.60305 92.5,9.5C 91.5655,8.43236 91.2322,7.09903 91.5,5.5C 93.1788,5.71481 94.1788,5.04814 94.5,3.5 Z"/></g>
<g><path style="opacity:0.373" fill="#a9a2d1" d="M 88.5,9.5 C 89.1667,11.1667 89.8333,12.8333 90.5,14.5C 90.2172,15.2891 89.7172,15.9558 89,16.5C 88.5034,14.1902 88.3367,11.8568 88.5,9.5 Z"/></g>
<g><path style="opacity:1" fill="#382397" d="M 85.5,42.5 C 85.5,43.1667 85.1667,43.5 84.5,43.5C 84.1667,43.5 83.8333,43.5 83.5,43.5C 82.7095,42.5987 81.7095,41.9321 80.5,41.5C 79.8333,41.5 79.5,41.1667 79.5,40.5C 78.5,39.8333 77.5,39.1667 76.5,38.5C 77.2883,31.6727 79.455,25.3394 83,19.5C 85.0478,23.1002 87.2145,26.6002 89.5,30C 88.4479,34.3088 86.7812,38.3088 84.5,42C 84.7284,42.3988 85.0618,42.5654 85.5,42.5 Z"/></g>
<g><path style="opacity:1" fill="#442d9b" d="M 99.5,24.5 C 98.7206,27.5447 97.3873,30.2114 95.5,32.5C 89.9624,26.6768 91.2957,24.0101 99.5,24.5 Z"/></g>
<g><path style="opacity:0.357" fill="#aba4d2" d="M 99.5,24.5 C 101.104,25.287 101.771,26.6203 101.5,28.5C 100.175,27.0474 99.3418,27.3808 99,29.5C 97.8011,32.7256 97.3011,36.059 97.5,39.5C 96.7321,37.2854 96.0654,34.9521 95.5,32.5C 97.3873,30.2114 98.7206,27.5447 99.5,24.5 Z"/></g>
<g><path style="opacity:1" fill="#311d93" d="M 101.5,28.5 C 102.775,31.6038 102.775,34.6038 101.5,37.5C 100.833,38.5 100.167,39.5 99.5,40.5C 98.5084,40.6716 97.8417,40.3382 97.5,39.5C 97.3011,36.059 97.8011,32.7256 99,29.5C 99.3418,27.3808 100.175,27.0474 101.5,28.5 Z"/></g>
<g><path style="opacity:0.753" fill="#5147a5" d="M 33.5,82.5 C 33.1667,82.5 32.8333,82.5 32.5,82.5C 32.5,66.8333 32.5,51.1667 32.5,35.5C 29.8333,35.5 27.1667,35.5 24.5,35.5C 24.8204,38.8984 24.487,42.2317 23.5,45.5C 22.8933,45.3764 22.56,45.0431 22.5,44.5C 23.4794,41.3752 23.8128,38.0419 23.5,34.5C 26.8333,34.5 30.1667,34.5 33.5,34.5C 33.5,50.5 33.5,66.5 33.5,82.5 Z"/></g>
<g><path style="opacity:1" fill="#0e048b" d="M -0.5,35.5 C 2.5,35.5 5.5,35.5 8.5,35.5C 8.5,37.5 8.5,39.5 8.5,41.5C 5.5,41.5 2.5,41.5 -0.5,41.5C -0.5,39.5 -0.5,37.5 -0.5,35.5 Z"/></g>
<g><path style="opacity:1" fill="#241290" d="M 32.5,82.5 C 29.586,82.1949 26.9193,82.1949 24.5,82.5C 19.3264,84.4587 14.8264,83.4587 11,79.5C 10.3333,68.8333 10.3333,58.1667 11,47.5C 11.5,45.6667 12.6667,44.5 14.5,44C 17.367,43.1993 20.0336,43.3659 22.5,44.5C 22.56,45.0431 22.8933,45.3764 23.5,45.5C 24.487,42.2317 24.8204,38.8984 24.5,35.5C 27.1667,35.5 29.8333,35.5 32.5,35.5C 32.5,51.1667 32.5,66.8333 32.5,82.5 Z M 23.5,76.5 C 22.391,76.4431 21.391,76.1098 20.5,75.5C 20.3336,67.4931 20.5003,59.4931 21,51.5C 21.414,51.0426 21.914,50.7093 22.5,50.5C 23.498,59.1411 23.8314,67.8078 23.5,76.5 Z"/></g>
<g><path style="opacity:0.343" fill="#9c96ca" d="M 76.5,38.5 C 77.5,39.1667 78.5,39.8333 79.5,40.5C 78.0222,40.762 76.6888,40.4287 75.5,39.5C 75.6236,38.8933 75.9569,38.56 76.5,38.5 Z"/></g>
<g><path style="opacity:0.644" fill="#6e66b3" d="M -0.5,35.5 C -0.5,35.1667 -0.5,34.8333 -0.5,34.5C 2.83333,34.5 6.16667,34.5 9.5,34.5C 9.5,37.1667 9.5,39.8333 9.5,42.5C 6.16667,42.5 2.83333,42.5 -0.5,42.5C -0.5,42.1667 -0.5,41.8333 -0.5,41.5C 2.5,41.5 5.5,41.5 8.5,41.5C 8.5,39.5 8.5,37.5 8.5,35.5C 5.5,35.5 2.5,35.5 -0.5,35.5 Z"/></g>
<g><path style="opacity:1" fill="#0f058c" d="M -0.5,44.5 C 2.5,44.5 5.5,44.5 8.5,44.5C 8.5,57.1667 8.5,69.8333 8.5,82.5C 5.5,82.5 2.5,82.5 -0.5,82.5C -0.5,69.8333 -0.5,57.1667 -0.5,44.5 Z"/></g>
<g><path style="opacity:0.233" fill="#b4b0d7" d="M 44.5,44.5 C 41.7484,44.7618 38.7484,44.7618 35.5,44.5C 35.5,59.8333 35.5,75.1667 35.5,90.5C 38.5,90.5 41.5,90.5 44.5,90.5C 44.1936,87.6146 44.5269,84.9479 45.5,82.5C 45.5,85.5 45.5,88.5 45.5,91.5C 41.8333,91.5 38.1667,91.5 34.5,91.5C 34.5,75.5 34.5,59.5 34.5,43.5C 37.9387,43.2529 41.272,43.5863 44.5,44.5 Z"/></g>
<g><path style="opacity:0.157" fill="#c4bfdf" d="M 80.5,41.5 C 81.7095,41.9321 82.7095,42.5987 83.5,43.5C 82.0077,45.9216 80.0077,46.5883 77.5,45.5C 78.325,44.6143 79.325,44.281 80.5,44.5C 80.5,43.5 80.5,42.5 80.5,41.5 Z"/></g>
<g><path style="opacity:0.638" fill="#7168b4" d="M -0.5,44.5 C -0.5,44.1667 -0.5,43.8333 -0.5,43.5C 2.83333,43.5 6.16667,43.5 9.5,43.5C 9.5,56.8333 9.5,70.1667 9.5,83.5C 6.16667,83.5 2.83333,83.5 -0.5,83.5C -0.5,83.1667 -0.5,82.8333 -0.5,82.5C 2.5,82.5 5.5,82.5 8.5,82.5C 8.5,69.8333 8.5,57.1667 8.5,44.5C 5.5,44.5 2.5,44.5 -0.5,44.5 Z"/></g>
<g><path style="opacity:1" fill="#2f1994" d="M 55.5,45.5 C 55.427,47.0269 56.0937,48.0269 57.5,48.5C 58.64,58.4229 58.8066,68.4229 58,78.5C 55.1128,83.4797 50.9461,84.813 45.5,82.5C 44.5269,84.9479 44.1936,87.6146 44.5,90.5C 41.5,90.5 38.5,90.5 35.5,90.5C 35.5,75.1667 35.5,59.8333 35.5,44.5C 38.7484,44.7618 41.7484,44.7618 44.5,44.5C 48.3946,43.0593 52.0612,43.3927 55.5,45.5 Z M 45.5,50.5 C 46.8255,54.4451 47.4921,58.7784 47.5,63.5C 47.1667,67.8333 46.8333,72.1667 46.5,76.5C 45.502,67.8589 45.1686,59.1922 45.5,50.5 Z"/></g>
<g><path style="opacity:0.152" fill="#d3d0e7" d="M 76.5,47.5 C 75.8333,47.5 75.5,47.8333 75.5,48.5C 73.3977,48.4298 71.3977,47.9298 69.5,47C 72.0385,46.2042 74.3718,46.3709 76.5,47.5 Z"/></g>
<g><path style="opacity:0.479" fill="#afa9d4" d="M 101.5,37.5 C 101.893,43.845 104.893,47.1784 110.5,47.5C 109.761,47.369 109.094,47.5357 108.5,48C 110.058,48.21 111.391,48.71 112.5,49.5C 109.813,49.6641 107.146,49.4974 104.5,49C 102.282,46.4906 99.6157,45.9906 96.5,47.5C 97.376,48.2508 98.376,48.7508 99.5,49C 98.944,49.3826 98.6107,49.8826 98.5,50.5C 97.1779,50.33 96.0113,50.6634 95,51.5C 92.9045,50.2845 93.0712,49.4512 95.5,49C 92.3004,48.8985 89.3004,48.2319 86.5,47C 87.1667,46.6667 87.8333,46.3333 88.5,46C 87.1416,45.0656 85.8083,44.2323 84.5,43.5C 85.1667,43.5 85.5,43.1667 85.5,42.5C 90.9511,44.3813 96.6178,45.2146 102.5,45C 101.117,43.7292 100.117,42.2292 99.5,40.5C 100.167,39.5 100.833,38.5 101.5,37.5 Z"/></g>
<g><path style="opacity:0.369" fill="#cecbe4" d="M 114.5,48.5 C 113.791,47.596 112.791,47.2627 111.5,47.5C 113.001,45.2612 114.334,45.2612 115.5,47.5C 115.376,48.1067 115.043,48.44 114.5,48.5 Z"/></g>
<g><path style="opacity:0.541" fill="#968dc8" d="M 55.5,45.5 C 56.9063,45.9731 57.573,46.9731 57.5,48.5C 56.0937,48.0269 55.427,47.0269 55.5,45.5 Z"/></g>
<g><path style="opacity:0.855" fill="#43369e" d="M 110.5,47.5 C 110.833,47.5 111.167,47.5 111.5,47.5C 112.791,47.2627 113.791,47.596 114.5,48.5C 114.158,49.3382 113.492,49.6716 112.5,49.5C 111.391,48.71 110.058,48.21 108.5,48C 109.094,47.5357 109.761,47.369 110.5,47.5 Z"/></g>
<g><path style="opacity:0.82" fill="#6e5fb2" d="M 76.5,47.5 C 77.8333,47.5 79.1667,47.5 80.5,47.5C 80.2627,48.791 80.596,49.791 81.5,50.5C 81.1898,52.1436 80.1898,53.1436 78.5,53.5C 78.5,52.1667 78.5,50.8333 78.5,49.5C 77.209,49.7373 76.209,49.404 75.5,48.5C 75.5,47.8333 75.8333,47.5 76.5,47.5 Z"/></g>
<g><path style="opacity:0.573" fill="#8879be" d="M 141.5,48.5 C 143.288,48.2148 144.955,48.5481 146.5,49.5C 144.302,64.0214 142.635,63.6881 141.5,48.5 Z"/></g>
<g><path style="opacity:0.585" fill="#9089c5" d="M 126.5,48.5 C 126.185,52.3714 126.518,56.0381 127.5,59.5C 127.44,60.0431 127.107,60.3764 126.5,60.5C 125.191,56.3507 125.191,52.3507 126.5,48.5 Z"/></g>
<g><path style="opacity:1" fill="#654ba8" d="M 126.5,48.5 C 127.787,49.8714 128.453,51.7047 128.5,54C 128.494,56.0326 128.161,57.866 127.5,59.5C 126.518,56.0381 126.185,52.3714 126.5,48.5 Z"/></g>
<g><path style="opacity:1" fill="#634ba7" d="M 133.5,48.5 C 134.787,49.8714 135.453,51.7047 135.5,54C 135.333,55.8333 135.167,57.6667 135,59.5C 134.333,60.8333 133.667,60.8333 133,59.5C 132.517,58.552 132.351,57.552 132.5,56.5C 132.5,55.8333 132.5,55.1667 132.5,54.5C 133.461,52.7354 133.795,50.7354 133.5,48.5 Z"/></g>
<g><path style="opacity:0.356" fill="#b9b5d9" d="M 155.5,48.5 C 156.791,48.2627 157.791,48.596 158.5,49.5C 157.523,52.2869 157.19,55.2869 157.5,58.5C 156.833,55.8333 156.167,53.1667 155.5,50.5C 155.5,49.8333 155.5,49.1667 155.5,48.5 Z"/></g>
<g><path style="opacity:0.557" fill="#958ec7" d="M 160.5,49.5 C 160.56,48.9569 160.893,48.6236 161.5,48.5C 162.808,52.3147 162.808,55.9813 161.5,59.5C 161.813,55.9581 161.479,52.6248 160.5,49.5 Z"/></g>
<g><path style="opacity:0.571" fill="#9790c8" d="M 189.5,49.5 C 188.71,50.6085 188.21,51.9419 188,53.5C 187.667,52.1667 187.333,50.8333 187,49.5C 186.192,53.0267 186.359,56.3601 187.5,59.5C 187.44,60.0431 187.107,60.3764 186.5,60.5C 185.509,56.5546 185.176,52.5546 185.5,48.5C 187.099,48.2322 188.432,48.5655 189.5,49.5 Z"/></g>
<g><path style="opacity:0.846" fill="#584ea9" d="M 204.5,48.5 C 205.787,49.8714 206.453,51.7047 206.5,54C 206.167,55.8333 205.833,57.6667 205.5,59.5C 204.511,55.8927 204.177,52.226 204.5,48.5 Z"/></g>
<g><path style="opacity:0.672" fill="#7768b6" d="M 217.5,48.5 C 221.257,48.2864 221.924,49.2864 219.5,51.5C 222.167,53.1667 222.167,54.8333 219.5,56.5C 220.853,57.5237 221.52,58.857 221.5,60.5C 220.167,60.5 218.833,60.5 217.5,60.5C 217.5,56.5 217.5,52.5 217.5,48.5 Z"/></g>
<g><path style="opacity:0.351" fill="#ada8d2" d="M 224.5,49.5 C 223.521,52.6248 223.187,55.9581 223.5,59.5C 222.192,55.9813 222.192,52.3147 223.5,48.5C 224.107,48.6236 224.44,48.9569 224.5,49.5 Z"/></g>
<g><path style="opacity:1" fill="#3d2b99" d="M 224.5,49.5 C 225.338,49.8417 225.672,50.5084 225.5,51.5C 225.167,52.8333 224.833,54.1667 224.5,55.5C 224.854,57.7674 224.521,59.1007 223.5,59.5C 223.187,55.9581 223.521,52.6248 224.5,49.5 Z"/></g>
<g><path style="opacity:0.84" fill="#7265b4" d="M 224.5,55.5 C 224.833,54.1667 225.167,52.8333 225.5,51.5C 226.158,50.6016 226.824,49.6016 227.5,48.5C 228.833,52.5 228.833,56.5 227.5,60.5C 226.304,58.8554 225.304,57.1887 224.5,55.5 Z"/></g>
<g><path style="opacity:0.829" fill="#7060b3" d="M 239.5,48.5 C 239.5,49.1667 239.5,49.8333 239.5,50.5C 236.833,51.1667 236.833,51.8333 239.5,52.5C 239.5,53.5 239.5,54.5 239.5,55.5C 236.833,56.1667 236.833,56.8333 239.5,57.5C 239.5,58.5 239.5,59.5 239.5,60.5C 238.167,60.5 236.833,60.5 235.5,60.5C 235.5,56.5 235.5,52.5 235.5,48.5C 236.833,48.5 238.167,48.5 239.5,48.5 Z"/></g>
<g><path style="opacity:0.071" fill="#ededf3" d="M 103.5,50.5 C 104.833,51.1667 104.833,51.1667 103.5,50.5 Z"/></g>
<g><path style="opacity:0.255" fill="#c7c3e0" d="M 133.5,48.5 C 133.795,50.7354 133.461,52.7354 132.5,54.5C 132.167,53.1667 131.833,51.8333 131.5,50.5C 132.167,49.8333 132.833,49.1667 133.5,48.5 Z"/></g>
<g><path style="opacity:1" fill="#6e59b0" d="M 137.5,55.5 C 136.631,53.283 136.298,50.9496 136.5,48.5C 140.257,48.2864 140.924,49.2864 138.5,51.5C 140.207,53.6421 141.041,55.9754 141,58.5C 139.182,60.6454 137.682,60.6454 136.5,58.5C 137.167,57.8333 137.833,57.1667 138.5,56.5C 138.376,55.8933 138.043,55.56 137.5,55.5 Z"/></g>
<g><path style="opacity:0.58" fill="#7669b6" d="M 147.5,48.5 C 148.794,50.0478 149.461,52.0478 149.5,54.5C 149.167,56.5 148.833,58.5 148.5,60.5C 147.509,56.5546 147.176,52.5546 147.5,48.5 Z"/></g>
<g><path style="opacity:0.847" fill="#6256ad" d="M 155.5,48.5 C 155.5,49.1667 155.5,49.8333 155.5,50.5C 154.834,53.3583 154.167,56.3583 153.5,59.5C 152.978,55.9655 151.978,52.6321 150.5,49.5C 152.045,48.5481 153.712,48.2148 155.5,48.5 Z"/></g>
<g><path style="opacity:1" fill="#7c68b6" d="M 168.5,50.5 C 170.682,47.9571 172.848,47.9571 175,50.5C 176.281,54.6277 175.281,57.961 172,60.5C 171,59.8333 170,59.1667 169,58.5C 168.503,55.854 168.336,53.1873 168.5,50.5 Z"/></g>
<g><path style="opacity:0.851" fill="#5e4da9" d="M 189.5,49.5 C 190.05,52.2859 190.383,55.1192 190.5,58C 190.028,60.9735 189.195,60.8068 188,57.5C 187.536,58.0944 187.369,58.7611 187.5,59.5C 186.359,56.3601 186.192,53.0267 187,49.5C 187.333,50.8333 187.667,52.1667 188,53.5C 188.21,51.9419 188.71,50.6085 189.5,49.5 Z"/></g>
<g><path style="opacity:0.824" fill="#7668b6" d="M 202.5,54.5 C 201.662,54.8417 201.328,55.5084 201.5,56.5C 199,54.8113 198.167,52.478 199,49.5C 200.494,48.2528 201.994,48.2528 203.5,49.5C 202.5,50.1667 201.5,50.8333 200.5,51.5C 201.193,52.5178 201.859,53.5178 202.5,54.5 Z"/></g>
<g><path style="opacity:0.355" fill="#c1bddd" d="M 212.5,58.5 C 211.5,58.5 210.5,58.5 209.5,58.5C 209.665,55.4816 209.498,52.4816 209,49.5C 208.502,52.8168 208.335,56.1501 208.5,59.5C 207.518,56.0381 207.185,52.3714 207.5,48.5C 208.5,48.5 209.5,48.5 210.5,48.5C 210.06,52.1785 210.727,55.5118 212.5,58.5 Z"/></g>
<g><path style="opacity:0.346" fill="#a293cb" d="M 213.5,48.5 C 214.5,48.5 215.5,48.5 216.5,48.5C 216.924,52.7032 216.424,56.7032 215,60.5C 213.576,56.7032 213.076,52.7032 213.5,48.5 Z"/></g>
<g><path style="opacity:1" fill="#221190" d="M 81.5,50.5 C 83.3079,51.9179 83.9746,53.9179 83.5,56.5C 83.8333,61.1667 84.1667,65.8333 84.5,70.5C 85.6748,74.1834 85.6748,77.85 84.5,81.5C 85.5,81.5 86.5,81.5 87.5,81.5C 89.0618,81.7329 90.3951,82.3995 91.5,83.5C 91.1667,84.1667 90.8333,84.8333 90.5,85.5C 89.6236,85.3691 88.9569,85.7025 88.5,86.5C 94.3204,87.8157 99.9871,87.8157 105.5,86.5C 108.167,86.5 110.833,86.5 113.5,86.5C 113.5,88.1667 113.5,89.8333 113.5,91.5C 107.491,91.3338 101.491,91.5005 95.5,92C 105.161,92.4998 114.828,92.6665 124.5,92.5C 124.5,93.8333 124.5,95.1667 124.5,96.5C 103.5,96.5 82.5,96.5 61.5,96.5C 61.2641,93.3915 61.5975,90.3915 62.5,87.5C 65.6104,86.9115 68.6104,86.2448 71.5,85.5C 75.6277,75.1917 77.9611,64.525 78.5,53.5C 80.1898,53.1436 81.1898,52.1436 81.5,50.5 Z"/></g>
<g><path style="opacity:1" fill="#3c2799" d="M 98.5,50.5 C 100.292,50.366 101.958,50.6993 103.5,51.5C 102.833,58.1667 102.167,64.8333 101.5,71.5C 101.06,73.8439 100.06,75.8439 98.5,77.5C 96.8333,76.5 95.5,75.1667 94.5,73.5C 95.5,72.8333 96.5,72.1667 97.5,71.5C 94.9761,67.6374 92.3095,63.8041 89.5,60C 91.8041,60.5733 93.9708,61.74 96,63.5C 97.2295,62.7248 97.5628,61.7248 97,60.5C 95.3484,59.6006 93.8484,58.6006 92.5,57.5C 93.5676,56.5655 94.901,56.2322 96.5,56.5C 96.5,55.1667 96.5,53.8333 96.5,52.5C 97.1667,51.8333 97.8333,51.1667 98.5,50.5 Z"/></g>
<g><path style="opacity:1" fill="#372095" d="M 158.5,49.5 C 158.183,52.5719 158.516,55.5719 159.5,58.5C 160.107,58.3764 160.44,58.0431 160.5,57.5C 160.5,54.8333 160.5,52.1667 160.5,49.5C 161.479,52.6248 161.813,55.9581 161.5,59.5C 159.737,60.9538 158.403,60.6204 157.5,58.5C 157.19,55.2869 157.523,52.2869 158.5,49.5 Z"/></g>
<g><path style="opacity:0.074" fill="#e7e6f1" d="M 158.5,49.5 C 159.167,52.1667 159.833,54.8333 160.5,57.5C 160.44,58.0431 160.107,58.3764 159.5,58.5C 158.516,55.5719 158.183,52.5719 158.5,49.5 Z"/></g>
<g><path style="opacity:0.346" fill="#9182c2" d="M 168.5,50.5 C 167.918,53.8323 167.084,57.1656 166,60.5C 164.842,56.9701 164.008,53.3034 163.5,49.5C 164.333,49.1667 165.167,48.8333 166,48.5C 167.376,48.6842 168.209,49.3509 168.5,50.5 Z"/></g>
<g><path style="opacity:0.955" fill="#42319b" d="M 195.5,49.5 C 195.719,50.675 195.386,51.675 194.5,52.5C 193.893,52.3764 193.56,52.0431 193.5,51.5C 193.281,50.325 193.614,49.325 194.5,48.5C 195.107,48.6236 195.44,48.9569 195.5,49.5 Z"/></g>
<g><path style="opacity:1" fill="#4f349e" d="M 212.5,58.5 C 212.38,59.5862 211.713,60.2528 210.5,60.5C 209.584,60.4573 208.917,60.1239 208.5,59.5C 208.335,56.1501 208.502,52.8168 209,49.5C 209.498,52.4816 209.665,55.4816 209.5,58.5C 210.5,58.5 211.5,58.5 212.5,58.5 Z"/></g>
<g><path style="opacity:0.144" fill="#cbc7e2" d="M 81.5,50.5 C 82.209,49.596 83.209,49.2627 84.5,49.5C 84.8016,52.0593 84.4682,54.3926 83.5,56.5C 83.9746,53.9179 83.3079,51.9179 81.5,50.5 Z"/></g>
<g><path style="opacity:0.487" fill="#9c96ca" d="M 132.5,54.5 C 132.5,55.1667 132.5,55.8333 132.5,56.5C 131.833,57.5 131.167,58.5 130.5,59.5C 130.338,57.4727 130.505,55.4727 131,53.5C 131.383,54.056 131.883,54.3893 132.5,54.5 Z"/></g>
<g><path style="opacity:0.698" fill="#9188c5" d="M 195.5,49.5 C 196.434,50.5676 196.768,51.901 196.5,53.5C 195.842,54.3984 195.176,55.3984 194.5,56.5C 193.818,55.7573 193.151,55.0906 192.5,54.5C 192.263,53.209 192.596,52.209 193.5,51.5C 193.56,52.0431 193.893,52.3764 194.5,52.5C 195.386,51.675 195.719,50.675 195.5,49.5 Z"/></g>
<g><path style="opacity:1" fill="#3b2697" d="M 131.5,50.5 C 131.833,51.8333 132.167,53.1667 132.5,54.5C 131.883,54.3893 131.383,54.056 131,53.5C 130.505,55.4727 130.338,57.4727 130.5,59.5C 129.745,58.6487 129.411,56.982 129.5,54.5C 129.833,52.5 130.167,50.5 130.5,48.5C 131.298,48.9569 131.631,49.6236 131.5,50.5 Z"/></g>
<g><path style="opacity:0.071" fill="#ededf3" d="M 137.5,55.5 C 136.833,56.1667 136.833,56.1667 137.5,55.5 Z"/></g>
<g><path style="opacity:0.837" fill="#7262b4" d="M 179.5,48.5 C 182.261,47.9147 183.927,48.9147 184.5,51.5C 184.385,54.09 184.052,56.7567 183.5,59.5C 182.264,60.2458 180.93,60.5792 179.5,60.5C 179.5,56.5 179.5,52.5 179.5,48.5 Z"/></g>
<g><path style="opacity:1" fill="#6b54ad" d="M 202.5,54.5 C 204.023,57.0449 203.357,59.0449 200.5,60.5C 199.893,60.3764 199.56,60.0431 199.5,59.5C 200.167,58.8333 200.833,58.1667 201.5,57.5C 201.5,57.1667 201.5,56.8333 201.5,56.5C 201.328,55.5084 201.662,54.8417 202.5,54.5 Z"/></g>
<g><path style="opacity:0.675" fill="#9b91c9" d="M 96.5,52.5 C 96.5,53.8333 96.5,55.1667 96.5,56.5C 94.901,56.2322 93.5676,56.5655 92.5,57.5C 90.8042,57.3146 89.4709,56.4813 88.5,55C 90.7972,54.9822 93.1305,55.1489 95.5,55.5C 95.2627,54.209 95.596,53.209 96.5,52.5 Z"/></g>
<g><path style="opacity:1" fill="#5c47a7" d="M 196.5,53.5 C 197.537,55.7375 197.703,58.0709 197,60.5C 196.085,59.6721 195.419,58.6721 195,57.5C 194.167,58.5 193.333,59.5 192.5,60.5C 191.481,58.5405 191.481,56.5405 192.5,54.5C 193.151,55.0906 193.818,55.7573 194.5,56.5C 195.176,55.3984 195.842,54.3984 196.5,53.5 Z"/></g>
<g><path style="opacity:0.682" fill="#7d6cb8" d="M 230.5,48.5 C 235.11,48.5959 235.444,49.5959 231.5,51.5C 235.386,54.6356 235.386,57.6356 231.5,60.5C 228.761,58.7692 229.094,57.6025 232.5,57C 229.689,54.5943 229.023,51.761 230.5,48.5 Z"/></g>
<g><path style="opacity:0.161" fill="#bdb9db" d="M 201.5,57.5 C 200.833,58.1667 200.167,58.8333 199.5,59.5C 198.957,59.44 198.624,59.1067 198.5,58.5C 199.325,57.6143 200.325,57.281 201.5,57.5 Z"/></g>
<g><path style="opacity:0.055" fill="#ededf3" d="M 133.5,64.5 C 134.833,65.1667 134.833,65.1667 133.5,64.5 Z"/></g>
<g><path style="opacity:0.827" fill="#7161b3" d="M 130.5,76.5 C 129.566,75.4324 129.232,74.099 129.5,72.5C 128.766,71.2921 128.433,69.9587 128.5,68.5C 129.067,67.5798 128.401,67.2465 126.5,67.5C 125.931,71.3293 126.598,74.6627 128.5,77.5C 127.791,78.404 126.791,78.7373 125.5,78.5C 125.5,74.5 125.5,70.5 125.5,66.5C 127.288,66.2148 128.955,66.5481 130.5,67.5C 131.783,70.6346 131.783,73.6346 130.5,76.5 Z M 128.5,68.5 C 128.433,69.9587 128.766,71.2921 129.5,72.5C 128.833,73.5 128.167,74.5 127.5,75.5C 127.198,72.9407 127.532,70.6074 128.5,68.5 Z"/></g>
<g><path style="opacity:0.837" fill="#6b59b0" d="M 134.5,75.5 C 135.167,76.1667 135.833,76.8333 136.5,77.5C 135.432,78.4345 134.099,78.7678 132.5,78.5C 132.5,74.5 132.5,70.5 132.5,66.5C 137.443,66.2876 138.11,67.2876 134.5,69.5C 135.5,70.3333 136.5,71.1667 137.5,72C 135.937,72.7589 134.937,73.9256 134.5,75.5 Z"/></g>
<g><path style="opacity:0.989" fill="#5e4aa8" d="M 145.5,67.5 C 144.791,68.404 143.791,68.7373 142.5,68.5C 142.187,71.2469 142.52,73.9135 143.5,76.5C 144.107,76.3764 144.44,76.0431 144.5,75.5C 145.167,73.5 145.833,71.5 146.5,69.5C 148.47,73.5807 147.303,76.5807 143,78.5C 141.576,74.7032 141.076,70.7032 141.5,66.5C 143.099,66.2322 144.432,66.5655 145.5,67.5 Z"/></g>
<g><path style="opacity:0.834" fill="#5449a7" d="M 148.5,66.5 C 149.787,67.8714 150.453,69.7047 150.5,72C 150.167,73.8333 149.833,75.6667 149.5,77.5C 148.511,73.8927 148.177,70.226 148.5,66.5 Z"/></g>
<g><path style="opacity:0.141" fill="#cdc9e4" d="M 156.5,67.5 C 155.167,67.5 153.833,67.5 152.5,67.5C 152.5,70.8333 152.5,74.1667 152.5,77.5C 151.518,74.0381 151.185,70.3714 151.5,66.5C 153.415,66.2155 155.081,66.5489 156.5,67.5 Z"/></g>
<g><path style="opacity:0.841" fill="#5e4faa" d="M 161.5,71.5 C 160.722,72.1556 160.056,72.9889 159.5,74C 159.57,74.7648 159.903,75.2648 160.5,75.5C 161.376,75.3691 162.043,75.7025 162.5,76.5C 161.311,77.4287 159.978,77.762 158.5,77.5C 158.5,73.8333 158.5,70.1667 158.5,66.5C 162.515,66.2759 163.181,67.4425 160.5,70C 160.57,70.7648 160.903,71.2648 161.5,71.5 Z"/></g>
<g><path style="opacity:0.986" fill="#6a58b0" d="M 183.5,66.5 C 186.59,65.83 188.257,66.9967 188.5,70C 187.084,72.3258 185.75,74.8258 184.5,77.5C 183.511,73.8927 183.177,70.226 183.5,66.5 Z"/></g>
<g><path style="opacity:0.692" fill="#6354ac" d="M 193.5,65.5 C 192.833,65.5 192.5,65.8333 192.5,66.5C 191.523,69.2869 191.19,72.2869 191.5,75.5C 191.56,76.0431 191.893,76.3764 192.5,76.5C 193.821,64.5726 194.488,64.5726 194.5,76.5C 193.365,78.0878 192.031,78.4212 190.5,77.5C 189.341,73.878 189.175,70.2113 190,66.5C 190.779,65.2718 191.779,64.2718 193,63.5C 194.718,64.0311 194.885,64.6977 193.5,65.5 Z"/></g>
<g><path style="opacity:0.271" fill="#c9c5e2" d="M 193.5,65.5 C 195.675,69.0284 196.008,72.695 194.5,76.5C 194.488,64.5726 193.821,64.5726 192.5,76.5C 191.893,76.3764 191.56,76.0431 191.5,75.5C 192.477,72.7131 192.81,69.7131 192.5,66.5C 192.5,65.8333 192.833,65.5 193.5,65.5 Z"/></g>
<g><path style="opacity:0.994" fill="#231890" d="M 128.5,68.5 C 127.532,70.6074 127.198,72.9407 127.5,75.5C 127.833,76.1667 128.167,76.8333 128.5,77.5C 126.598,74.6627 125.931,71.3293 126.5,67.5C 128.401,67.2465 129.067,67.5798 128.5,68.5 Z"/></g>
<g><path style="opacity:0.832" fill="#44399f" d="M 167.5,68.5 C 168.833,67.1667 170.167,67.1667 171.5,68.5C 170.834,71.3583 170.167,74.3583 169.5,77.5C 168.833,74.3583 168.166,71.3583 167.5,68.5 Z"/></g>
<g><path style="opacity:0.455" fill="#918bc4" d="M 204.5,67.5 C 203.521,70.6248 203.187,73.9581 203.5,77.5C 202.192,73.9813 202.192,70.3147 203.5,66.5C 204.107,66.6236 204.44,66.9569 204.5,67.5 Z"/></g>
<g><path style="opacity:0.573" fill="#6c5fb1" d="M 208.5,66.5 C 209.787,67.8714 210.453,69.7047 210.5,72C 210.167,73.8333 209.833,75.6667 209.5,77.5C 208.511,73.8927 208.177,70.226 208.5,66.5 Z"/></g>
<g><path style="opacity:0.8" fill="#8174bc" d="M 214.5,75.5 C 213.833,73.5 213.167,71.5 212.5,69.5C 213.163,66.577 214.83,65.9103 217.5,67.5C 216.675,68.3857 215.675,68.719 214.5,68.5C 214.5,70.8333 214.5,73.1667 214.5,75.5 Z"/></g>
<g><path style="opacity:0.704" fill="#8a81c1" d="M 145.5,67.5 C 146.338,67.8417 146.672,68.5084 146.5,69.5C 145.833,71.5 145.167,73.5 144.5,75.5C 144.44,76.0431 144.107,76.3764 143.5,76.5C 142.52,73.9135 142.187,71.2469 142.5,68.5C 143.791,68.7373 144.791,68.404 145.5,67.5 Z"/></g>
<g><path style="opacity:1" fill="#664ca9" d="M 165.5,66.5 C 165.5,70.1667 165.5,73.8333 165.5,77.5C 164.213,76.1286 163.547,74.2953 163.5,72C 163.547,69.7047 164.213,67.8714 165.5,66.5 Z"/></g>
<g><path style="opacity:0.705" fill="#a098cc" d="M 165.5,66.5 C 168.279,66.2786 170.946,66.612 173.5,67.5C 173.5,70.5 173.5,73.5 173.5,76.5C 172.833,73.8333 172.167,71.1667 171.5,68.5C 170.167,67.1667 168.833,67.1667 167.5,68.5C 166.833,71.5 166.167,74.5 165.5,77.5C 165.5,73.8333 165.5,70.1667 165.5,66.5 Z"/></g>
<g><path style="opacity:1" fill="#6049a9" d="M 178.5,75.5 C 177.833,73.5 177.167,71.5 176.5,69.5C 176.44,68.9569 176.107,68.6236 175.5,68.5C 174.534,70.396 174.201,72.396 174.5,74.5C 174.782,75.7777 175.449,76.7777 176.5,77.5C 175.221,78.7152 174.221,78.3818 173.5,76.5C 173.5,73.5 173.5,70.5 173.5,67.5C 177.391,65.8484 179.391,67.3484 179.5,72C 179.352,73.2559 179.018,74.4226 178.5,75.5 Z M 176.5,69.5 C 176.662,71.5273 176.495,73.5273 176,75.5C 175.617,74.944 175.117,74.6107 174.5,74.5C 174.201,72.396 174.534,70.396 175.5,68.5C 176.107,68.6236 176.44,68.9569 176.5,69.5 Z"/></g>
<g><path style="opacity:1" fill="#291692" d="M 204.5,67.5 C 204.5,70.1667 204.5,72.8333 204.5,75.5C 205.167,76.1667 205.833,76.8333 206.5,77.5C 205.202,78.1157 204.202,78.1157 203.5,77.5C 203.187,73.9581 203.521,70.6248 204.5,67.5 Z"/></g>
<g><path style="opacity:1" fill="#5b43a4" d="M 212.5,69.5 C 213.167,71.5 213.833,73.5 214.5,75.5C 215.167,76.1667 215.833,76.8333 216.5,77.5C 215.022,77.762 213.689,77.4287 212.5,76.5C 211.234,74.0276 211.234,71.6943 212.5,69.5 Z"/></g>
<g><path style="opacity:1" fill="#5e44a5" d="M 218.5,68.5 C 219.167,70.8333 219.833,73.1667 220.5,75.5C 220.158,76.3382 219.492,76.6716 218.5,76.5C 218.5,75.8333 218.167,75.5 217.5,75.5C 217.298,73.0504 217.631,70.717 218.5,68.5 Z"/></g>
<g><path style="opacity:0.804" fill="#6454ac" d="M 218.5,76.5 C 219.492,76.6716 220.158,76.3382 220.5,75.5C 219.833,73.1667 219.167,70.8333 218.5,68.5C 219.751,66.439 221.418,66.1057 223.5,67.5C 224.799,70.6987 224.799,73.8653 223.5,77C 221.613,77.7796 219.946,77.6129 218.5,76.5 Z M 220.5,75.5 C 220.337,73.1432 220.503,70.8098 221,68.5C 223.106,71.094 222.94,73.4274 220.5,75.5 Z"/></g>
<g><path style="opacity:0.808" fill="#8377bd" d="M 97.5,71.5 C 96.5,72.1667 95.5,72.8333 94.5,73.5C 94.1667,73.5 93.8333,73.5 93.5,73.5C 92.178,71.6889 91.678,69.6889 92,67.5C 92.8747,70.2146 94.7081,71.5479 97.5,71.5 Z"/></g>
<g><path style="opacity:0.667" fill="#7a6fb9" d="M 101.5,71.5 C 101.813,74.2469 101.48,76.9135 100.5,79.5C 99.4777,79.1445 98.811,78.4778 98.5,77.5C 100.06,75.8439 101.06,73.8439 101.5,71.5 Z"/></g>
<g><path style="opacity:1" fill="#3a2396" d="M 156.5,67.5 C 157.686,68.9613 157.686,70.2946 156.5,71.5C 156.167,71.5 155.833,71.5 155.5,71.5C 154.222,72.7908 153.555,74.7908 153.5,77.5C 153.167,77.5 152.833,77.5 152.5,77.5C 152.5,74.1667 152.5,70.8333 152.5,67.5C 153.833,67.5 155.167,67.5 156.5,67.5 Z"/></g>
<g><path style="opacity:0.265" fill="#c1bdde" d="M 155.5,71.5 C 153.535,71.0517 153.202,70.0517 154.5,68.5C 155.386,69.325 155.719,70.325 155.5,71.5 Z"/></g>
<g><path style="opacity:0.157" fill="#b3acd6" d="M 160.5,75.5 C 159.903,75.2648 159.57,74.7648 159.5,74C 160.056,72.9889 160.722,72.1556 161.5,71.5C 161.969,70.2546 162.303,70.4213 162.5,72C 161.571,73.0769 160.904,74.2436 160.5,75.5 Z"/></g>
<g><path style="opacity:0.833" fill="#8a7cc0" d="M 155.5,71.5 C 155.833,71.5 156.167,71.5 156.5,71.5C 156.357,73.2624 156.691,74.9291 157.5,76.5C 156.139,76.7876 154.806,77.121 153.5,77.5C 153.555,74.7908 154.222,72.7908 155.5,71.5 Z"/></g>
<g><path style="opacity:0.812" fill="#998ec9" d="M 129.5,72.5 C 129.232,74.099 129.566,75.4324 130.5,76.5C 130.158,77.3382 129.492,77.6716 128.5,77.5C 128.167,76.8333 127.833,76.1667 127.5,75.5C 128.167,74.5 128.833,73.5 129.5,72.5 Z"/></g>
<g><path style="opacity:0.349" fill="#b9b4d9" d="M 134.5,75.5 C 135.675,75.281 136.675,75.6143 137.5,76.5C 137.376,77.1067 137.043,77.44 136.5,77.5C 135.833,76.8333 135.167,76.1667 134.5,75.5 Z"/></g>
<g><path style="opacity:0.145" fill="#c9c6e2" d="M 214.5,75.5 C 215.5,75.5 216.5,75.5 217.5,75.5C 217.672,76.4916 217.338,77.1583 216.5,77.5C 215.833,76.8333 215.167,76.1667 214.5,75.5 Z"/></g>
<g><path style="opacity:0.514" fill="#9288c5" d="M 20.5,75.5 C 21.391,76.1098 22.391,76.4431 23.5,76.5C 22.0527,77.8852 21.0527,77.5518 20.5,75.5 Z"/></g>
<g><path style="opacity:0.829" fill="#8a7bc0" d="M 93.5,73.5 C 93.8337,76.1678 95.1671,78.1678 97.5,79.5C 94.1342,80.3466 92.1342,78.8466 91.5,75C 91.8361,73.9701 92.5028,73.4701 93.5,73.5 Z"/></g>
<g><path style="opacity:0.824" fill="#8a7ec0" d="M 176.5,69.5 C 177.167,71.5 177.833,73.5 178.5,75.5C 178.5,76.8333 177.833,77.5 176.5,77.5C 175.449,76.7777 174.782,75.7777 174.5,74.5C 175.117,74.6107 175.617,74.944 176,75.5C 176.495,73.5273 176.662,71.5273 176.5,69.5 Z"/></g>
<g><path style="opacity:1" fill="#6c5ab1" d="M 196.5,66.5 C 198.144,66.2865 199.644,66.6198 201,67.5C 200.61,70.7313 200.776,74.0646 201.5,77.5C 199.799,77.9662 198.299,77.9662 197,77.5C 196.501,73.8484 196.335,70.1817 196.5,66.5 Z"/></g>
<g><path style="opacity:0.259" fill="#c3c0de" d="M 204.5,75.5 C 205.675,75.281 206.675,75.6143 207.5,76.5C 207.376,77.1067 207.043,77.44 206.5,77.5C 205.833,76.8333 205.167,76.1667 204.5,75.5 Z"/></g>
<g><path style="opacity:1" fill="#6b58ae" d="M 84.5,70.5 C 86.5754,74.0325 87.5754,77.6991 87.5,81.5C 86.5,81.5 85.5,81.5 84.5,81.5C 85.6748,77.85 85.6748,74.1834 84.5,70.5 Z"/></g>
<g><path style="opacity:0.231" fill="#b8b2d9" d="M 24.5,82.5 C 26.9193,82.1949 29.586,82.1949 32.5,82.5C 32.8333,82.5 33.1667,82.5 33.5,82.5C 30.6038,83.7752 27.6038,83.7752 24.5,82.5 Z"/></g>
<g><path style="opacity:0.239" fill="#c3bfde" d="M 91.5,83.5 C 93.4286,83.2308 95.0953,83.7308 96.5,85C 94.5273,85.4955 92.5273,85.6621 90.5,85.5C 90.8333,84.8333 91.1667,84.1667 91.5,83.5 Z"/></g>
<g><path style="opacity:0.694" fill="#8d81c1" d="M 100.5,86.5 C 99.5,86.5 98.5,86.5 97.5,86.5C 98.9672,84.6373 100.967,83.304 103.5,82.5C 105.603,73.7779 106.936,74.4446 107.5,84.5C 104.772,84.1706 102.438,84.8372 100.5,86.5 Z"/></g>
<g><path style="opacity:0.257" fill="#aaa5d1" d="M 71.5,85.5 C 68.6104,86.2448 65.6104,86.9115 62.5,87.5C 64.9878,85.6122 67.9878,84.9455 71.5,85.5 Z"/></g>
<g><path style="opacity:0.793" fill="#5045a5" d="M 90.5,85.5 C 92.6074,86.4682 94.9407,86.8016 97.5,86.5C 98.5,86.5 99.5,86.5 100.5,86.5C 102.167,86.5 103.833,86.5 105.5,86.5C 99.9871,87.8157 94.3204,87.8157 88.5,86.5C 88.9569,85.7025 89.6236,85.3691 90.5,85.5 Z"/></g>
<g><path style="opacity:0.439" fill="#948dc6" d="M 113.5,86.5 C 114.451,87.9187 114.784,89.5853 114.5,91.5C 118.167,91.5 121.833,91.5 125.5,91.5C 125.5,93.1667 125.5,94.8333 125.5,96.5C 125.167,96.5 124.833,96.5 124.5,96.5C 124.5,95.1667 124.5,93.8333 124.5,92.5C 114.828,92.6665 105.161,92.4998 95.5,92C 101.491,91.5005 107.491,91.3338 113.5,91.5C 113.5,89.8333 113.5,88.1667 113.5,86.5 Z"/></g>
</svg>
