<?xml version="1.0" encoding="UTF-8"?>
<!DOCTYPE svg PUBLIC "-//W3C//DTD SVG 1.1//EN" "http://www.w3.org/Graphics/SVG/1.1/DTD/svg11.dtd">
<svg xmlns="http://www.w3.org/2000/svg" version="1.1" width="400px" height="400px" style="shape-rendering:geometricPrecision; text-rendering:geometricPrecision; image-rendering:optimizeQuality; fill-rule:evenodd; clip-rule:evenodd" xmlns:xlink="http://www.w3.org/1999/xlink">
<g><path style="opacity:0.381" fill="#818f16" d="M 84.5,144.5 C 84.8333,144.5 85.1667,144.5 85.5,144.5C 85.5,145.5 85.5,146.5 85.5,147.5C 85.5,148.167 85.5,148.833 85.5,149.5C 85.5,177.5 85.5,205.5 85.5,233.5C 100.167,233.5 114.833,233.5 129.5,233.5C 129.5,233.833 129.5,234.167 129.5,234.5C 114.765,235.83 99.9312,235.83 85,234.5C 83.8907,220.872 83.3907,207.205 83.5,193.5C 83.6343,177.046 83.9677,160.713 84.5,144.5 Z"/></g>
<g><path style="opacity:0.922" fill="#1c2000" d="M 85.5,144.5 C 90.8333,144.5 96.1667,144.5 101.5,144.5C 101.5,169.5 101.5,194.5 101.5,219.5C 100.662,219.158 100.328,218.492 100.5,217.5C 100.5,215.5 100.5,213.5 100.5,211.5C 100.5,191.833 100.5,172.167 100.5,152.5C 100.5,150.5 100.5,148.5 100.5,146.5C 95.4053,146.221 90.4053,146.555 85.5,147.5C 85.5,146.5 85.5,145.5 85.5,144.5 Z"/></g>
<g><path style="opacity:0.049" fill="#d4e638" d="M 102.5,145.5 C 103.176,169.736 103.843,194.069 104.5,218.5C 103.833,218.5 103.167,218.5 102.5,218.5C 102.5,194.167 102.5,169.833 102.5,145.5 Z"/></g>
<g><path style="opacity:1" fill="#16180d" d="M 100.5,152.5 C 96.2648,151.564 91.9315,151.231 87.5,151.5C 87.4914,153.308 87.9914,154.975 89,156.5C 89.1973,179.53 89.6973,202.53 90.5,225.5C 88.087,226.68 87.087,228.68 87.5,231.5C 86.8333,204.167 86.1667,176.833 85.5,149.5C 85.5,148.833 85.5,148.167 85.5,147.5C 90.4053,146.555 95.4053,146.221 100.5,146.5C 100.5,148.5 100.5,150.5 100.5,152.5 Z"/></g>
<g><path style="opacity:1" fill="#161811" d="M 100.5,152.5 C 100.5,172.167 100.5,191.833 100.5,211.5C 99.5032,193.674 99.1699,175.674 99.5,157.5C 97.5,157.5 95.5,157.5 93.5,157.5C 93.833,179.177 93.4997,200.844 92.5,222.5C 91.8243,223.602 91.1577,224.602 90.5,225.5C 89.6973,202.53 89.1973,179.53 89,156.5C 87.9914,154.975 87.4914,153.308 87.5,151.5C 91.9315,151.231 96.2648,151.564 100.5,152.5 Z"/></g>
<g><path style="opacity:1" fill="#171715" d="M 100.5,211.5 C 100.5,213.5 100.5,215.5 100.5,217.5C 99.7321,218.263 99.2321,219.263 99,220.5C 95.4527,221.541 93.6193,223.875 93.5,227.5C 92.1667,227.5 90.8333,227.5 89.5,227.5C 89.8432,229.483 89.1765,230.817 87.5,231.5C 87.087,228.68 88.087,226.68 90.5,225.5C 91.1577,224.602 91.8243,223.602 92.5,222.5C 93.4997,200.844 93.833,179.177 93.5,157.5C 95.5,157.5 97.5,157.5 99.5,157.5C 99.1699,175.674 99.5032,193.674 100.5,211.5 Z"/></g>
<g><path style="opacity:0.479" fill="#7b8512" d="M 84.5,144.5 C 87.3138,143.835 90.3138,143.502 93.5,143.5C 96.9134,143.517 99.9134,144.184 102.5,145.5C 102.5,169.833 102.5,194.167 102.5,218.5C 102.5,218.833 102.5,219.167 102.5,219.5C 102.167,219.5 101.833,219.5 101.5,219.5C 101.5,194.5 101.5,169.5 101.5,144.5C 96.1667,144.5 90.8333,144.5 85.5,144.5C 85.1667,144.5 84.8333,144.5 84.5,144.5 Z"/></g>
<g><path style="opacity:0.263" fill="#a5b61a" d="M 303.5,167.5 C 296.45,165.427 289.45,165.094 282.5,166.5C 281.167,166.5 279.833,166.5 278.5,166.5C 278.918,165.778 279.584,165.278 280.5,165C 286.5,164.333 292.5,164.333 298.5,165C 300.491,165.374 302.158,166.207 303.5,167.5 Z"/></g>
<g><path style="opacity:0.09" fill="#b5c333" d="M 229.5,165.5 C 227.819,167.008 225.819,168.008 223.5,168.5C 224.911,166.461 226.911,165.461 229.5,165.5 Z"/></g>
<g><path style="opacity:0.024" fill="#afc026" d="M 229.5,165.5 C 233.311,164.355 237.311,164.188 241.5,165C 242.942,165.377 243.942,166.21 244.5,167.5C 239.659,165.848 234.659,165.182 229.5,165.5 Z"/></g>
<g><path style="opacity:0.075" fill="#b8c82b" d="M 278.5,166.5 C 276.337,168.083 274.004,169.416 271.5,170.5C 273.052,167.888 275.386,166.555 278.5,166.5 Z"/></g>
<g><path style="opacity:0.753" fill="#2e3500" d="M 204.5,166.5 C 204.5,196.833 204.5,227.167 204.5,257.5C 209.167,257.5 213.833,257.5 218.5,257.5C 213.695,258.487 208.695,258.821 203.5,258.5C 203.169,227.662 203.502,196.995 204.5,166.5 Z"/></g>
<g><path style="opacity:0.573" fill="#859217" d="M 244.5,167.5 C 246.914,168.911 248.581,170.911 249.5,173.5C 247.086,172.089 245.419,170.089 244.5,167.5 Z"/></g>
<g><path style="opacity:0.129" fill="#aebb26" d="M 303.5,167.5 C 306.204,167.67 307.871,169.003 308.5,171.5C 306.611,170.396 304.945,169.063 303.5,167.5 Z"/></g>
<g><path style="opacity:0.153" fill="#b1bf2c" d="M 271.5,170.5 C 269.467,173.523 267.467,176.523 265.5,179.5C 265.993,175.366 267.993,172.366 271.5,170.5 Z"/></g>
<g><path style="opacity:1" fill="#1b1f09" d="M 156.5,220.5 C 156.5,222.5 157.5,223.5 159.5,223.5C 161.525,223.211 163.525,222.878 165.5,222.5C 168.674,221.99 171.008,220.323 172.5,217.5C 173.434,216.432 173.768,215.099 173.5,213.5C 174.391,214.261 175.058,215.261 175.5,216.5C 173.378,219.124 171.045,221.624 168.5,224C 168.833,224.333 169.167,224.667 169.5,225C 164.61,225.966 159.943,225.466 155.5,223.5C 155.048,220.326 154.048,219.993 152.5,222.5C 151.021,218.466 150.021,214.299 149.5,210C 151.552,198.939 152.052,187.772 151,176.5C 149.938,173.971 149.105,171.304 148.5,168.5C 147.108,173.144 145.274,173.477 143,169.5C 143.791,183.499 143.624,197.499 142.5,211.5C 143.5,211.5 144.5,211.5 145.5,211.5C 144.237,216.049 143.57,220.716 143.5,225.5C 144.833,225.5 146.167,225.5 147.5,225.5C 147.201,223.396 147.534,221.396 148.5,219.5C 148.887,223.22 150.887,225.22 154.5,225.5C 155.043,225.56 155.376,225.893 155.5,226.5C 152.914,227.48 150.247,227.813 147.5,227.5C 147.259,229.886 147.925,231.886 149.5,233.5C 148.167,233.5 146.833,233.5 145.5,233.5C 145.167,232.5 144.5,231.833 143.5,231.5C 144.491,229.877 143.824,228.877 141.5,228.5C 140.559,207.856 140.226,187.189 140.5,166.5C 145.5,166.5 150.5,166.5 155.5,166.5C 155.181,184.577 155.514,202.577 156.5,220.5 Z"/></g>
<g><path style="opacity:1" fill="#161812" d="M 173.5,227.5 C 172.081,226.549 170.415,226.216 168.5,226.5C 168.5,227.5 168.5,228.5 168.5,229.5C 164.143,228.843 161.143,230.51 159.5,234.5C 155.958,234.813 152.625,234.479 149.5,233.5C 147.925,231.886 147.259,229.886 147.5,227.5C 150.247,227.813 152.914,227.48 155.5,226.5C 155.376,225.893 155.043,225.56 154.5,225.5C 154.833,224.833 155.167,224.167 155.5,223.5C 159.943,225.466 164.61,225.966 169.5,225C 169.167,224.667 168.833,224.333 168.5,224C 171.045,221.624 173.378,219.124 175.5,216.5C 175.058,215.261 174.391,214.261 173.5,213.5C 173.5,198.167 173.5,182.833 173.5,167.5C 177.833,167.5 182.167,167.5 186.5,167.5C 186.833,188.844 186.5,210.177 185.5,231.5C 181.951,231.537 178.285,231.87 174.5,232.5C 174.784,230.585 174.451,228.919 173.5,227.5 Z"/></g>
<g><path style="opacity:1" fill="#1a1b0f" d="M 278.5,166.5 C 279.833,166.5 281.167,166.5 282.5,166.5C 287.179,166.334 291.845,166.501 296.5,167C 296.167,167.333 295.833,167.667 295.5,168C 297.833,168.333 300.167,168.667 302.5,169C 304.063,169.759 305.063,170.926 305.5,172.5C 302.616,171.734 299.783,170.734 297,169.5C 295.941,169.63 295.108,170.13 294.5,171C 297.87,173.078 301.537,173.911 305.5,173.5C 306.107,177.07 304.94,179.737 302,181.5C 300.832,180.491 299.665,179.491 298.5,178.5C 297.571,179.689 297.238,181.022 297.5,182.5C 300.893,182.375 302.226,184.042 301.5,187.5C 301.167,188.833 300.833,190.167 300.5,191.5C 299.787,189.565 298.787,189.232 297.5,190.5C 297.802,187.941 297.468,185.607 296.5,183.5C 296.5,183.167 296.5,182.833 296.5,182.5C 296.5,180.5 295.5,179.5 293.5,179.5C 291.205,177.615 288.538,177.115 285.5,178C 283.249,178.748 281.916,180.248 281.5,182.5C 281.768,184.099 281.434,185.432 280.5,186.5C 275.5,186.5 270.5,186.5 265.5,186.5C 265.5,184.167 265.5,181.833 265.5,179.5C 267.467,176.523 269.467,173.523 271.5,170.5C 274.004,169.416 276.337,168.083 278.5,166.5 Z"/></g>
<g><path style="opacity:0.282" fill="#808b0f" d="M 308.5,171.5 C 309.906,171.973 310.573,172.973 310.5,174.5C 309.094,174.027 308.427,173.027 308.5,171.5 Z"/></g>
<g><path style="opacity:0.16" fill="#9bab15" d="M 219.5,172.5 C 219.44,173.043 219.107,173.376 218.5,173.5C 217.526,171.257 217.192,168.924 217.5,166.5C 213.167,166.5 208.833,166.5 204.5,166.5C 203.502,196.995 203.169,227.662 203.5,258.5C 202.17,227.664 202.17,196.664 203.5,165.5C 208.047,165.616 212.714,165.449 217.5,165C 218.123,167.607 218.79,170.107 219.5,172.5 Z"/></g>
<g><path style="opacity:1" fill="#171615" d="M 155.5,223.5 C 155.167,224.167 154.833,224.833 154.5,225.5C 150.887,225.22 148.887,223.22 148.5,219.5C 147.534,221.396 147.201,223.396 147.5,225.5C 146.167,225.5 144.833,225.5 143.5,225.5C 143.57,220.716 144.237,216.049 145.5,211.5C 144.5,211.5 143.5,211.5 142.5,211.5C 143.624,197.499 143.791,183.499 143,169.5C 145.274,173.477 147.108,173.144 148.5,168.5C 149.105,171.304 149.938,173.971 151,176.5C 152.052,187.772 151.552,198.939 149.5,210C 150.021,214.299 151.021,218.466 152.5,222.5C 154.048,219.993 155.048,220.326 155.5,223.5 Z"/></g>
<g><path style="opacity:0.165" fill="#a1af24" d="M 157.5,220.5 C 157.167,220.5 156.833,220.5 156.5,220.5C 155.514,202.577 155.181,184.577 155.5,166.5C 150.5,166.5 145.5,166.5 140.5,166.5C 140.226,187.189 140.559,207.856 141.5,228.5C 140.71,227.391 140.21,226.058 140,224.5C 139.167,204.825 139.334,185.158 140.5,165.5C 141.446,165.013 142.446,164.68 143.5,164.5C 148.057,165.078 152.557,165.745 157,166.5C 157.285,184.561 157.452,202.561 157.5,220.5 Z"/></g>
<g><path style="opacity:0.232" fill="#8f9c1a" d="M 187.5,234.5 C 187.5,234.167 187.5,233.833 187.5,233.5C 187.5,211.167 187.5,188.833 187.5,166.5C 182.5,166.5 177.5,166.5 172.5,166.5C 172.5,183.5 172.5,200.5 172.5,217.5C 171.008,220.323 168.674,221.99 165.5,222.5C 167.807,221.023 169.64,219.023 171,216.5C 171.591,199.801 171.591,183.134 171,166.5C 172.194,165.57 173.527,164.903 175,164.5C 179.446,165.412 183.946,165.745 188.5,165.5C 188.831,188.673 188.498,211.673 187.5,234.5 Z"/></g>
<g><path style="opacity:0.369" fill="#99a81c" d="M 249.5,173.5 C 250.924,175.515 251.59,177.848 251.5,180.5C 250.076,178.485 249.41,176.152 249.5,173.5 Z"/></g>
<g><path style="opacity:1" fill="#1d2004" d="M 229.5,165.5 C 234.659,165.182 239.659,165.848 244.5,167.5C 245.419,170.089 247.086,172.089 249.5,173.5C 249.41,176.152 250.076,178.485 251.5,180.5C 251.667,193.171 251.5,205.838 251,218.5C 250.442,221.934 249.609,225.267 248.5,228.5C 248.262,230.404 247.262,231.738 245.5,232.5C 243.973,232.427 242.973,233.094 242.5,234.5C 237.13,234.608 231.797,234.275 226.5,233.5C 226.167,232.833 225.833,232.167 225.5,231.5C 231.192,232.099 236.859,232.266 242.5,232C 245.295,230.226 247.128,227.726 248,224.5C 250.585,210.959 251.085,197.292 249.5,183.5C 248.832,181.031 248.165,178.698 247.5,176.5C 246.999,173.845 245.666,171.678 243.5,170C 239.267,169.925 235.267,169.092 231.5,167.5C 230.263,167.556 229.263,168.056 228.5,169C 231.173,170.337 233.007,172.171 234,174.5C 230.843,173.921 227.843,172.921 225,171.5C 223.72,171.613 222.887,172.28 222.5,173.5C 225.5,174.333 228.5,175.167 231.5,176C 232.056,176.383 232.389,176.883 232.5,177.5C 227.561,175.821 223.228,176.821 219.5,180.5C 218.334,193.487 218.167,206.487 219,219.5C 219.717,220.044 220.217,220.711 220.5,221.5C 219.167,221.5 217.833,221.5 216.5,221.5C 216.769,206.138 216.436,190.805 215.5,175.5C 215.5,174.167 215.5,172.833 215.5,171.5C 213.5,171.5 211.5,171.5 209.5,171.5C 208.141,170.993 207.141,169.993 206.5,168.5C 206.167,169.167 205.833,169.833 205.5,170.5C 205.528,199.007 205.528,227.674 205.5,256.5C 208.833,256.5 212.167,256.5 215.5,256.5C 215.79,250.439 215.457,244.439 214.5,238.5C 215.242,237.713 216.075,237.047 217,236.5C 217.183,233.635 217.683,230.969 218.5,228.5C 218.5,238.167 218.5,247.833 218.5,257.5C 213.833,257.5 209.167,257.5 204.5,257.5C 204.5,227.167 204.5,196.833 204.5,166.5C 208.833,166.5 213.167,166.5 217.5,166.5C 217.192,168.924 217.526,171.257 218.5,173.5C 219.107,173.376 219.44,173.043 219.5,172.5C 221.167,171.5 222.5,170.167 223.5,168.5C 225.819,168.008 227.819,167.008 229.5,165.5 Z M 234.5,218.5 C 232.846,221.666 230.179,223.333 226.5,223.5C 223.398,222.234 221.065,220.067 219.5,217C 219.417,205.603 219.584,194.103 220,182.5C 224.973,176.121 229.64,176.121 234,182.5C 235.806,194.473 235.972,206.473 234.5,218.5 Z"/></g>
<g><path style="opacity:0.318" fill="#88941a" d="M 232.5,177.5 C 234.071,179.635 235.404,181.968 236.5,184.5C 236.666,193.839 236.5,203.173 236,212.5C 235.809,214.708 235.309,216.708 234.5,218.5C 235.972,206.473 235.806,194.473 234,182.5C 229.64,176.121 224.973,176.121 220,182.5C 219.584,194.103 219.417,205.603 219.5,217C 221.065,220.067 223.398,222.234 226.5,223.5C 224.297,223.396 222.297,222.73 220.5,221.5C 220.217,220.711 219.717,220.044 219,219.5C 218.167,206.487 218.334,193.487 219.5,180.5C 223.228,176.821 227.561,175.821 232.5,177.5 Z"/></g>
<g><path style="opacity:1" fill="#161717" d="M 209.5,171.5 C 211.5,171.5 213.5,171.5 215.5,171.5C 215.5,172.833 215.5,174.167 215.5,175.5C 214.732,176.263 214.232,177.263 214,178.5C 213.586,178.043 213.086,177.709 212.5,177.5C 211.03,181.068 211.364,184.401 213.5,187.5C 212.609,188.59 211.609,188.59 210.5,187.5C 210.007,197.162 209.007,206.662 207.5,216C 207.833,217.5 208.167,219 208.5,220.5C 208.744,215.372 210.244,210.705 213,206.5C 213.333,201.5 213.667,196.5 214,191.5C 214.333,191.833 214.667,192.167 215,192.5C 215.167,196 215.333,199.5 215.5,203C 215.394,207.146 214.728,211.146 213.5,215C 215.653,219.676 215.986,224.509 214.5,229.5C 213.914,229.291 213.414,228.957 213,228.5C 212.843,226.005 212.676,223.672 212.5,221.5C 210.517,222.982 208.684,224.649 207,226.5C 206.333,209.167 206.333,191.833 207,174.5C 207.202,176.256 207.702,177.922 208.5,179.5C 209.429,178.311 209.762,176.978 209.5,175.5C 210.978,175.762 212.311,175.429 213.5,174.5C 211.668,173.943 210.335,172.943 209.5,171.5 Z"/></g>
<g><path style="opacity:0.263" fill="#a4b12b" d="M 223.5,168.5 C 222.5,170.167 221.167,171.5 219.5,172.5C 219.833,170.167 221.167,168.833 223.5,168.5 Z"/></g>
<g><path style="opacity:0.176" fill="#919e25" d="M 293.5,179.5 C 288.951,178.097 284.951,179.097 281.5,182.5C 281.916,180.248 283.249,178.748 285.5,178C 288.538,177.115 291.205,177.615 293.5,179.5 Z"/></g>
<g><path style="opacity:0.404" fill="#929d2c" d="M 293.5,179.5 C 295.5,179.5 296.5,180.5 296.5,182.5C 295.167,181.833 294.167,180.833 293.5,179.5 Z"/></g>
<g><path style="opacity:1" fill="#171813" d="M 247.5,176.5 C 247.616,179.91 245.95,181.244 242.5,180.5C 242.337,182.857 242.503,185.19 243,187.5C 244,188.833 245,188.833 246,187.5C 247.536,193.749 247.87,200.083 247,206.5C 246,207.833 245,207.833 244,206.5C 243.667,208.833 243.333,211.167 243,213.5C 241.861,205.31 241.027,196.977 240.5,188.5C 239.824,187.398 239.158,186.398 238.5,185.5C 237.833,185.167 237.167,184.833 236.5,184.5C 235.404,181.968 234.071,179.635 232.5,177.5C 232.389,176.883 232.056,176.383 231.5,176C 228.5,175.167 225.5,174.333 222.5,173.5C 222.887,172.28 223.72,171.613 225,171.5C 227.843,172.921 230.843,173.921 234,174.5C 233.007,172.171 231.173,170.337 228.5,169C 229.263,168.056 230.263,167.556 231.5,167.5C 235.267,169.092 239.267,169.925 243.5,170C 245.666,171.678 246.999,173.845 247.5,176.5 Z"/></g>
<g><path style="opacity:0.83" fill="#232800" d="M 187.5,233.5 C 182.833,233.5 178.167,233.5 173.5,233.5C 173.5,231.5 173.5,229.5 173.5,227.5C 174.451,228.919 174.784,230.585 174.5,232.5C 178.285,231.87 181.951,231.537 185.5,231.5C 186.5,210.177 186.833,188.844 186.5,167.5C 182.167,167.5 177.833,167.5 173.5,167.5C 173.5,182.833 173.5,198.167 173.5,213.5C 173.768,215.099 173.434,216.432 172.5,217.5C 172.5,200.5 172.5,183.5 172.5,166.5C 177.5,166.5 182.5,166.5 187.5,166.5C 187.5,188.833 187.5,211.167 187.5,233.5 Z"/></g>
<g><path style="opacity:1" fill="#171713" d="M 305.5,172.5 C 306.827,175.17 308.327,177.836 310,180.5C 310.254,197.85 310.754,215.184 311.5,232.5C 307.167,232.5 302.833,232.5 298.5,232.5C 298.5,232.167 298.5,231.833 298.5,231.5C 300.081,227.077 298.415,225.41 293.5,226.5C 293.162,222.849 294.828,221.183 298.5,221.5C 298.334,215.491 298.501,209.491 299,203.5C 299.333,206.833 299.667,210.167 300,213.5C 300.804,210.486 301.971,207.653 303.5,205C 302.5,203.333 301.5,201.667 300.5,200C 296.312,198.369 291.979,197.536 287.5,197.5C 288.11,196.609 288.443,195.609 288.5,194.5C 289.995,194.011 291.329,193.345 292.5,192.5C 293.209,191.596 294.209,191.263 295.5,191.5C 296.492,191.672 297.158,191.338 297.5,190.5C 298.787,189.232 299.787,189.565 300.5,191.5C 300.833,190.167 301.167,188.833 301.5,187.5C 302.226,184.042 300.893,182.375 297.5,182.5C 297.238,181.022 297.571,179.689 298.5,178.5C 299.665,179.491 300.832,180.491 302,181.5C 304.94,179.737 306.107,177.07 305.5,173.5C 301.537,173.911 297.87,173.078 294.5,171C 295.108,170.13 295.941,169.63 297,169.5C 299.783,170.734 302.616,171.734 305.5,172.5 Z"/></g>
<g><path style="opacity:0.053" fill="#acbb25" d="M 265.5,179.5 C 265.5,181.833 265.5,184.167 265.5,186.5C 270.5,186.5 275.5,186.5 280.5,186.5C 275.35,187.651 270.016,187.817 264.5,187C 263.622,184.342 263.956,181.842 265.5,179.5 Z"/></g>
<g><path style="opacity:0.184" fill="#8e9b16" d="M 296.5,183.5 C 297.468,185.607 297.802,187.941 297.5,190.5C 297.158,191.338 296.492,191.672 295.5,191.5C 296.388,188.946 296.721,186.279 296.5,183.5 Z"/></g>
<g><path style="opacity:1" fill="#171810" d="M 209.5,171.5 C 210.335,172.943 211.668,173.943 213.5,174.5C 212.311,175.429 210.978,175.762 209.5,175.5C 209.762,176.978 209.429,178.311 208.5,179.5C 207.702,177.922 207.202,176.256 207,174.5C 206.333,191.833 206.333,209.167 207,226.5C 208.684,224.649 210.517,222.982 212.5,221.5C 212.676,223.672 212.843,226.005 213,228.5C 213.414,228.957 213.914,229.291 214.5,229.5C 215.986,224.509 215.653,219.676 213.5,215C 214.728,211.146 215.394,207.146 215.5,203C 215.333,199.5 215.167,196 215,192.5C 214.667,192.167 214.333,191.833 214,191.5C 213.667,196.5 213.333,201.5 213,206.5C 210.244,210.705 208.744,215.372 208.5,220.5C 208.167,219 207.833,217.5 207.5,216C 209.007,206.662 210.007,197.162 210.5,187.5C 211.609,188.59 212.609,188.59 213.5,187.5C 211.364,184.401 211.03,181.068 212.5,177.5C 213.086,177.709 213.586,178.043 214,178.5C 214.232,177.263 214.732,176.263 215.5,175.5C 216.436,190.805 216.769,206.138 216.5,221.5C 217.833,221.5 219.167,221.5 220.5,221.5C 222.297,222.73 224.297,223.396 226.5,223.5C 229.451,224.729 232.117,224.062 234.5,221.5C 234.489,223.017 233.823,224.184 232.5,225C 226.124,226.286 226.458,227.286 233.5,228C 230.7,229.232 227.7,229.899 224.5,230C 225.056,230.383 225.389,230.883 225.5,231.5C 224.833,231.5 224.167,231.5 223.5,231.5C 222.599,229.273 220.933,228.273 218.5,228.5C 217.683,230.969 217.183,233.635 217,236.5C 216.075,237.047 215.242,237.713 214.5,238.5C 215.457,244.439 215.79,250.439 215.5,256.5C 212.167,256.5 208.833,256.5 205.5,256.5C 205.528,227.674 205.528,199.007 205.5,170.5C 205.833,169.833 206.167,169.167 206.5,168.5C 207.141,169.993 208.141,170.993 209.5,171.5 Z"/></g>
<g><path style="opacity:0.222" fill="#8a9810" d="M 251.5,180.5 C 252.66,193.66 252.827,206.994 252,220.5C 251.613,223.599 250.446,226.266 248.5,228.5C 249.609,225.267 250.442,221.934 251,218.5C 251.5,205.838 251.667,193.171 251.5,180.5 Z"/></g>
<g><path style="opacity:0.937" fill="#1d2101" d="M 282.5,166.5 C 289.45,165.094 296.45,165.427 303.5,167.5C 304.945,169.063 306.611,170.396 308.5,171.5C 308.427,173.027 309.094,174.027 310.5,174.5C 311.338,174.842 311.672,175.508 311.5,176.5C 312.447,194.806 312.78,213.139 312.5,231.5C 310.603,232.805 308.269,233.471 305.5,233.5C 302.975,233.497 300.641,233.163 298.5,232.5C 302.833,232.5 307.167,232.5 311.5,232.5C 310.754,215.184 310.254,197.85 310,180.5C 308.327,177.836 306.827,175.17 305.5,172.5C 305.063,170.926 304.063,169.759 302.5,169C 300.167,168.667 297.833,168.333 295.5,168C 295.833,167.667 296.167,167.333 296.5,167C 291.845,166.501 287.179,166.334 282.5,166.5 Z"/></g>
<g><path style="opacity:0.295" fill="#7f8b19" d="M 311.5,176.5 C 312.268,177.263 312.768,178.263 313,179.5C 313.5,196.83 313.667,214.163 313.5,231.5C 313.167,231.5 312.833,231.5 312.5,231.5C 312.78,213.139 312.447,194.806 311.5,176.5 Z"/></g>
<g><path style="opacity:0.525" fill="#8e991c" d="M 292.5,192.5 C 291.329,193.345 289.995,194.011 288.5,194.5C 284.574,196.031 280.574,197.364 276.5,198.5C 281.23,195.142 286.563,193.142 292.5,192.5 Z"/></g>
<g><path style="opacity:0.416" fill="#95a21c" d="M 276.5,198.5 C 276.027,199.906 275.027,200.573 273.5,200.5C 273.973,199.094 274.973,198.427 276.5,198.5 Z"/></g>
<g><path style="opacity:0.431" fill="#889714" d="M 273.5,200.5 C 272.109,202.89 270.109,204.557 267.5,205.5C 268.865,203.14 270.865,201.473 273.5,200.5 Z"/></g>
<g><path style="opacity:1" fill="#161811" d="M 247.5,176.5 C 248.165,178.698 248.832,181.031 249.5,183.5C 251.085,197.292 250.585,210.959 248,224.5C 247.128,227.726 245.295,230.226 242.5,232C 236.859,232.266 231.192,232.099 225.5,231.5C 225.389,230.883 225.056,230.383 224.5,230C 227.7,229.899 230.7,229.232 233.5,228C 226.458,227.286 226.124,226.286 232.5,225C 233.823,224.184 234.489,223.017 234.5,221.5C 234.5,221.167 234.5,220.833 234.5,220.5C 236.914,218.745 238.581,216.411 239.5,213.5C 238.581,204.193 238.248,194.86 238.5,185.5C 239.158,186.398 239.824,187.398 240.5,188.5C 241.027,196.977 241.861,205.31 243,213.5C 243.333,211.167 243.667,208.833 244,206.5C 245,207.833 246,207.833 247,206.5C 247.87,200.083 247.536,193.749 246,187.5C 245,188.833 244,188.833 243,187.5C 242.503,185.19 242.337,182.857 242.5,180.5C 245.95,181.244 247.616,179.91 247.5,176.5 Z"/></g>
<g><path style="opacity:0.486" fill="#7b8a0b" d="M 267.5,205.5 C 267.573,207.027 266.906,208.027 265.5,208.5C 265.427,206.973 266.094,205.973 267.5,205.5 Z"/></g>
<g><path style="opacity:0.196" fill="#98a914" d="M 265.5,208.5 C 265.573,210.027 264.906,211.027 263.5,211.5C 263.427,209.973 264.094,208.973 265.5,208.5 Z"/></g>
<g><path style="opacity:0.991" fill="#202403" d="M 236.5,184.5 C 237.167,184.833 237.833,185.167 238.5,185.5C 238.248,194.86 238.581,204.193 239.5,213.5C 238.581,216.411 236.914,218.745 234.5,220.5C 234.5,219.833 234.5,219.167 234.5,218.5C 235.309,216.708 235.809,214.708 236,212.5C 236.5,203.173 236.666,193.839 236.5,184.5 Z"/></g>
<g><path style="opacity:0.311" fill="#93a310" d="M 129.5,234.5 C 129.5,234.167 129.5,233.833 129.5,233.5C 129.5,228.833 129.5,224.167 129.5,219.5C 120.5,219.5 111.5,219.5 102.5,219.5C 102.5,219.167 102.5,218.833 102.5,218.5C 103.167,218.5 103.833,218.5 104.5,218.5C 112.385,217.911 120.218,217.577 128,217.5C 128.414,217.957 128.914,218.291 129.5,218.5C 130.815,223.986 130.815,229.32 129.5,234.5 Z"/></g>
<g><path style="opacity:0.604" fill="#6e7410" d="M 156.5,220.5 C 156.833,220.5 157.167,220.5 157.5,220.5C 158.167,221.5 158.833,222.5 159.5,223.5C 157.5,223.5 156.5,222.5 156.5,220.5 Z"/></g>
<g><path style="opacity:0.361" fill="#8d971f" d="M 234.5,218.5 C 234.5,219.167 234.5,219.833 234.5,220.5C 234.5,220.833 234.5,221.167 234.5,221.5C 232.117,224.062 229.451,224.729 226.5,223.5C 230.179,223.333 232.846,221.666 234.5,218.5 Z"/></g>
<g><path style="opacity:1" fill="#161812" d="M 100.5,217.5 C 100.328,218.492 100.662,219.158 101.5,219.5C 101.833,219.5 102.167,219.5 102.5,219.5C 110.984,220.493 119.651,220.826 128.5,220.5C 128.793,224.437 128.46,228.27 127.5,232C 113.994,232.827 100.66,232.66 87.5,231.5C 89.1765,230.817 89.8432,229.483 89.5,227.5C 90.8333,227.5 92.1667,227.5 93.5,227.5C 93.6193,223.875 95.4527,221.541 99,220.5C 99.2321,219.263 99.7321,218.263 100.5,217.5 Z"/></g>
<g><path style="opacity:1" fill="#1f220c" d="M 288.5,194.5 C 288.443,195.609 288.11,196.609 287.5,197.5C 291.979,197.536 296.312,198.369 300.5,200C 301.5,201.667 302.5,203.333 303.5,205C 301.971,207.653 300.804,210.486 300,213.5C 299.667,210.167 299.333,206.833 299,203.5C 298.501,209.491 298.334,215.491 298.5,221.5C 294.828,221.183 293.162,222.849 293.5,226.5C 298.415,225.41 300.081,227.077 298.5,231.5C 298.167,231.5 297.833,231.5 297.5,231.5C 297.719,230.325 297.386,229.325 296.5,228.5C 295.893,228.624 295.56,228.957 295.5,229.5C 293.973,229.427 292.973,230.094 292.5,231.5C 292.5,232.167 292.167,232.5 291.5,232.5C 288.579,232.283 285.913,232.949 283.5,234.5C 278.463,234.587 273.463,234.254 268.5,233.5C 266.823,231.46 265.156,229.46 263.5,227.5C 260.904,222.183 260.904,216.849 263.5,211.5C 264.906,211.027 265.573,210.027 265.5,208.5C 266.906,208.027 267.573,207.027 267.5,205.5C 270.109,204.557 272.109,202.89 273.5,200.5C 275.027,200.573 276.027,199.906 276.5,198.5C 280.574,197.364 284.574,196.031 288.5,194.5 Z M 281.5,222.5 C 281.167,221.5 280.5,220.833 279.5,220.5C 279.368,217.43 279.701,214.43 280.5,211.5C 282.525,209.804 284.525,208.137 286.5,206.5C 289.596,205.453 292.596,204.12 295.5,202.5C 300.307,216.312 295.641,222.979 281.5,222.5 Z"/></g>
<g><path style="opacity:0.029" fill="#b4c144" d="M 280.5,211.5 C 279.701,214.43 279.368,217.43 279.5,220.5C 278.366,218.034 278.199,215.367 279,212.5C 279.383,211.944 279.883,211.611 280.5,211.5 Z"/></g>
<g><path style="opacity:0.188" fill="#8b9819" d="M 281.5,222.5 C 295.641,222.979 300.307,216.312 295.5,202.5C 292.596,204.12 289.596,205.453 286.5,206.5C 286.953,205.542 287.619,204.708 288.5,204C 291.353,202.57 294.353,201.737 297.5,201.5C 297.666,207.176 297.499,212.843 297,218.5C 292.459,223.76 287.292,225.093 281.5,222.5 Z"/></g>
<g><path style="opacity:1" fill="#171715" d="M 287.5,197.5 C 288.666,199.166 288.666,200.833 287.5,202.5C 280.739,206.093 276.406,211.593 274.5,219C 277.384,221.383 279.717,224.217 281.5,227.5C 284.375,228.081 287.042,229.081 289.5,230.5C 282.512,233.059 275.512,233.059 268.5,230.5C 269.325,229.614 270.325,229.281 271.5,229.5C 270.572,226.87 269.572,224.204 268.5,221.5C 269.472,218.536 269.638,215.536 269,212.5C 268.261,214.221 267.427,215.887 266.5,217.5C 264.717,216.652 264.217,215.319 265,213.5C 268.137,207.358 272.804,203.024 279,200.5C 280.578,201.547 282.078,201.547 283.5,200.5C 282.975,199.808 282.308,199.308 281.5,199C 283.345,197.872 285.345,197.372 287.5,197.5 Z"/></g>
<g><path style="opacity:0.816" fill="#737f1f" d="M 141.5,228.5 C 143.824,228.877 144.491,229.877 143.5,231.5C 142.094,231.027 141.427,230.027 141.5,228.5 Z"/></g>
<g><path style="opacity:0.933" fill="#2a2f09" d="M 173.5,227.5 C 173.167,227.5 172.833,227.5 172.5,227.5C 170.973,227.427 169.973,228.094 169.5,229.5C 168.205,230.488 166.872,231.488 165.5,232.5C 163.973,232.427 162.973,233.094 162.5,234.5C 161.5,234.5 160.5,234.5 159.5,234.5C 161.143,230.51 164.143,228.843 168.5,229.5C 168.5,228.5 168.5,227.5 168.5,226.5C 170.415,226.216 172.081,226.549 173.5,227.5 Z"/></g>
<g><path style="opacity:0.063" fill="#b8c53a" d="M 172.5,227.5 C 172.5,229.833 172.5,232.167 172.5,234.5C 172.028,232.469 171.028,230.802 169.5,229.5C 169.973,228.094 170.973,227.427 172.5,227.5 Z"/></g>
<g><path style="opacity:0.224" fill="#a8b626" d="M 263.5,227.5 C 265.156,229.46 266.823,231.46 268.5,233.5C 265.438,232.732 263.772,230.732 263.5,227.5 Z"/></g>
<g><path style="opacity:0.024" fill="#9bab2a" d="M 295.5,229.5 C 295.027,230.906 294.027,231.573 292.5,231.5C 292.973,230.094 293.973,229.427 295.5,229.5 Z"/></g>
<g><path style="opacity:0.051" fill="#b1c626" d="M 295.5,229.5 C 295.56,228.957 295.893,228.624 296.5,228.5C 297.386,229.325 297.719,230.325 297.5,231.5C 297.5,232.167 297.5,232.833 297.5,233.5C 296.833,232.167 296.167,230.833 295.5,229.5 Z"/></g>
<g><path style="opacity:0.861" fill="#1c2000" d="M 85.5,149.5 C 86.1667,176.833 86.8333,204.167 87.5,231.5C 100.66,232.66 113.994,232.827 127.5,232C 128.46,228.27 128.793,224.437 128.5,220.5C 119.651,220.826 110.984,220.493 102.5,219.5C 111.5,219.5 120.5,219.5 129.5,219.5C 129.5,224.167 129.5,228.833 129.5,233.5C 114.833,233.5 100.167,233.5 85.5,233.5C 85.5,205.5 85.5,177.5 85.5,149.5 Z"/></g>
<g><path style="opacity:0.008" fill="#c0d041" d="M 143.5,231.5 C 144.5,231.833 145.167,232.5 145.5,233.5C 144.167,233.5 143.5,232.833 143.5,231.5 Z"/></g>
<g><path style="opacity:0.212" fill="#87971c" d="M 223.5,231.5 C 224.167,231.5 224.833,231.5 225.5,231.5C 225.833,232.167 226.167,232.833 226.5,233.5C 224.973,233.573 223.973,232.906 223.5,231.5 Z"/></g>
<g><path style="opacity:0.02" fill="#b2c12d" d="M 165.5,232.5 C 165.027,233.906 164.027,234.573 162.5,234.5C 162.973,233.094 163.973,232.427 165.5,232.5 Z"/></g>
<g><path style="opacity:0.51" fill="#69720c" d="M 172.5,227.5 C 172.833,227.5 173.167,227.5 173.5,227.5C 173.5,229.5 173.5,231.5 173.5,233.5C 178.167,233.5 182.833,233.5 187.5,233.5C 187.5,233.833 187.5,234.167 187.5,234.5C 182.5,235.833 177.5,235.833 172.5,234.5C 172.5,232.167 172.5,229.833 172.5,227.5 Z"/></g>
<g><path style="opacity:0.012" fill="#a9bb23" d="M 245.5,232.5 C 245.027,233.906 244.027,234.573 242.5,234.5C 242.973,233.094 243.973,232.427 245.5,232.5 Z"/></g>
<g><path style="opacity:0.596" fill="#687214" d="M 291.5,232.5 C 289.316,234.585 286.649,235.585 283.5,235.5C 283.5,235.167 283.5,234.833 283.5,234.5C 285.913,232.949 288.579,232.283 291.5,232.5 Z"/></g>
<g><path style="opacity:0.509" fill="#6e7a0a" d="M 297.5,231.5 C 297.833,231.5 298.167,231.5 298.5,231.5C 298.5,231.833 298.5,232.167 298.5,232.5C 300.641,233.163 302.975,233.497 305.5,233.5C 308.269,233.471 310.603,232.805 312.5,231.5C 312.833,231.5 313.167,231.5 313.5,231.5C 314.684,232.688 314.684,233.855 313.5,235C 310.833,235.167 308.167,235.333 305.5,235.5C 302.41,235.478 299.743,234.812 297.5,233.5C 297.5,232.833 297.5,232.167 297.5,231.5 Z"/></g>
<g><path style="opacity:0.663" fill="#6b7409" d="M 145.5,233.5 C 146.833,233.5 148.167,233.5 149.5,233.5C 152.625,234.479 155.958,234.813 159.5,234.5C 160.5,234.5 161.5,234.5 162.5,234.5C 156.667,237.334 151.001,237.001 145.5,233.5 Z"/></g>
<g><path style="opacity:0.6" fill="#68720a" d="M 226.5,233.5 C 231.797,234.275 237.13,234.608 242.5,234.5C 236.997,237.314 231.664,236.98 226.5,233.5 Z"/></g>
<g><path style="opacity:0.682" fill="#646b0a" d="M 268.5,233.5 C 273.463,234.254 278.463,234.587 283.5,234.5C 283.5,234.833 283.5,235.167 283.5,235.5C 280.36,236.641 277.027,236.808 273.5,236C 271.509,235.626 269.842,234.793 268.5,233.5 Z"/></g>
<g><path style="opacity:0.324" fill="#808b16" d="M 218.5,228.5 C 220.933,228.273 222.599,229.273 223.5,231.5C 221.983,231.489 220.816,230.823 220,229.5C 219.5,239.494 219.334,249.494 219.5,259.5C 213.974,259.821 208.64,259.488 203.5,258.5C 208.695,258.821 213.695,258.487 218.5,257.5C 218.5,247.833 218.5,238.167 218.5,228.5 Z"/></g>
</svg>
