<svg xmlns="http://www.w3.org/2000/svg" xmlns:xlink="http://www.w3.org/1999/xlink" width="80" zoomAndPan="magnify" viewBox="0 0 60 60" height="80" preserveAspectRatio="xMidYMid meet" version="1.0"><defs><clipPath id="8735a9ed6f"><path d="M 24.265625 0.253906 L 59.953125 0.253906 L 59.953125 51.074219 L 24.265625 51.074219 Z M 24.265625 0.253906 " clip-rule="nonzero"/></clipPath><clipPath id="0b278842d4"><path d="M 24.265625 19.3125 L 59.953125 19.3125 L 59.953125 51.074219 L 24.265625 51.074219 Z M 24.265625 19.3125 " clip-rule="nonzero"/></clipPath><clipPath id="fd4dee552a"><path d="M 6 55.644531 L 14.621094 55.644531 L 14.621094 60 L 6 60 Z M 6 55.644531 " clip-rule="nonzero"/></clipPath></defs><path fill="#ffb46b" d="M 43.703125 86.984375 L 40.632812 86.984375 L 40.632812 46.371094 L 43.703125 46.371094 L 43.703125 86.984375 " fill-opacity="1" fill-rule="nonzero"/><path fill="#bd8045" d="M 43.703125 52.6875 L 43.703125 44.476562 L 40.632812 44.476562 L 40.632812 54.738281 C 41.648438 54.042969 42.671875 53.359375 43.703125 52.6875 " fill-opacity="1" fill-rule="nonzero"/><g clip-path="url(#8735a9ed6f)"><path fill="#ffb46b" d="M 59.167969 0.410156 C 59.601562 0.410156 59.953125 0.757812 59.953125 1.191406 L 59.953125 50.238281 C 59.953125 50.667969 59.601562 51.019531 59.167969 51.019531 L 25.167969 51.019531 C 24.734375 51.019531 24.382812 50.667969 24.382812 50.238281 L 24.382812 1.191406 C 24.382812 0.757812 24.734375 0.410156 25.167969 0.410156 L 59.167969 0.410156 " fill-opacity="1" fill-rule="nonzero"/></g><g clip-path="url(#0b278842d4)"><path fill="#db9753" d="M 24.382812 38.535156 L 24.382812 50.238281 C 24.382812 50.667969 24.734375 51.019531 25.167969 51.019531 L 59.167969 51.019531 C 59.601562 51.019531 59.953125 50.667969 59.953125 50.238281 L 59.953125 19.316406 L 24.382812 38.535156 " fill-opacity="1" fill-rule="nonzero"/></g><path fill="#ba834f" d="M 56.257812 47.359375 L 27.710938 47.359375 L 27.710938 4.550781 L 28.65625 4.550781 L 28.65625 46.414062 L 56.257812 46.414062 L 56.257812 47.359375 " fill-opacity="1" fill-rule="nonzero"/><path fill="#ffffff" d="M 28.183594 46.886719 L 56.257812 46.886719 L 56.257812 4.550781 L 28.183594 4.550781 Z M 28.183594 46.886719 " fill-opacity="1" fill-rule="nonzero"/><path fill="#204470" d="M 30.058594 26.03125 L 54.253906 26.03125 L 54.253906 10.648438 L 30.058594 10.648438 Z M 30.058594 26.03125 " fill-opacity="1" fill-rule="nonzero"/><path fill="#e16662" d="M 31.945312 21.9375 L 33.6875 21.9375 L 33.6875 21.304688 L 31.945312 21.304688 Z M 31.945312 21.9375 " fill-opacity="1" fill-rule="nonzero"/><path fill="#ecac50" d="M 31.945312 23.277344 L 33.6875 23.277344 L 33.6875 22.644531 L 31.945312 22.644531 Z M 31.945312 23.277344 " fill-opacity="1" fill-rule="nonzero"/><path fill="#00fcf1" d="M 33.6875 24.507812 L 31.945312 24.507812 L 31.945312 23.871094 L 33.6875 23.871094 L 33.6875 24.507812 " fill-opacity="1" fill-rule="nonzero"/><path fill="#e2f2f4" d="M 51.453125 12.753906 L 48.363281 12.753906 L 48.363281 12.011719 L 51.453125 12.011719 L 51.453125 12.753906 " fill-opacity="1" fill-rule="nonzero"/><path fill="#e2f2f4" d="M 51.453125 13.921875 L 48.363281 13.921875 L 48.363281 13.183594 L 51.453125 13.183594 L 51.453125 13.921875 " fill-opacity="1" fill-rule="nonzero"/><path fill="#e2f2f4" d="M 51.453125 15.09375 L 48.363281 15.09375 L 48.363281 14.351562 L 51.453125 14.351562 L 51.453125 15.09375 " fill-opacity="1" fill-rule="nonzero"/><path fill="#e2f2f4" d="M 51.453125 16.261719 L 48.363281 16.261719 L 48.363281 15.523438 L 51.453125 15.523438 L 51.453125 16.261719 " fill-opacity="1" fill-rule="nonzero"/><path fill="#e2f2f4" d="M 51.453125 17.433594 L 48.363281 17.433594 L 48.363281 16.691406 L 51.453125 16.691406 L 51.453125 17.433594 " fill-opacity="1" fill-rule="nonzero"/><path fill="#e2f2f4" d="M 51.453125 18.605469 L 48.363281 18.605469 L 48.363281 17.863281 L 51.453125 17.863281 L 51.453125 18.605469 " fill-opacity="1" fill-rule="nonzero"/><path fill="#e2f2f4" d="M 51.453125 20.796875 L 48.363281 20.796875 L 48.363281 20.058594 L 51.453125 20.058594 L 51.453125 20.796875 " fill-opacity="1" fill-rule="nonzero"/><path fill="#e2f2f4" d="M 51.453125 21.96875 L 48.363281 21.96875 L 48.363281 21.226562 L 51.453125 21.226562 L 51.453125 21.96875 " fill-opacity="1" fill-rule="nonzero"/><path fill="#e2f2f4" d="M 51.453125 23.136719 L 48.363281 23.136719 L 48.363281 22.398438 L 51.453125 22.398438 L 51.453125 23.136719 " fill-opacity="1" fill-rule="nonzero"/><path fill="#ecac50" d="M 41.347656 16.585938 C 41.835938 16.6875 42.222656 17.066406 42.347656 17.546875 L 46.796875 17.542969 C 46.625 14.613281 44.273438 12.28125 41.347656 12.148438 L 41.347656 16.585938 " fill-opacity="1" fill-rule="nonzero"/><path fill="#e16662" d="M 41.6875 18.671875 C 41.601562 19.210938 41.191406 19.640625 40.660156 19.75 L 40.660156 24.191406 C 43.632812 24.050781 46.011719 21.652344 46.117188 18.667969 L 41.6875 18.671875 " fill-opacity="1" fill-rule="nonzero"/><path fill="#e16662" d="M 39.121094 18.136719 C 39.246094 17.652344 39.632812 17.273438 40.125 17.171875 L 40.125 12.734375 C 37.191406 12.871094 34.835938 15.207031 34.671875 18.140625 L 39.121094 18.136719 " fill-opacity="1" fill-rule="nonzero"/><path fill="#86f2ea" d="M 40.125 19.75 C 39.59375 19.640625 39.183594 19.210938 39.097656 18.671875 L 34.667969 18.679688 C 34.777344 21.660156 37.152344 24.054688 40.125 24.191406 L 40.125 19.75 " fill-opacity="1" fill-rule="nonzero"/><path fill="#e2f2f4" d="M 47.621094 12.742188 L 44.53125 12.742188 L 44.53125 12 L 47.621094 12 L 47.621094 12.742188 " fill-opacity="1" fill-rule="nonzero"/><path fill="#e2f2f4" d="M 47.621094 13.914062 L 44.53125 13.914062 L 44.53125 13.171875 L 47.621094 13.171875 L 47.621094 13.914062 " fill-opacity="1" fill-rule="nonzero"/><path fill="#e2f2f4" d="M 47.621094 15.082031 L 44.53125 15.082031 L 44.53125 14.34375 L 47.621094 14.34375 L 47.621094 15.082031 " fill-opacity="1" fill-rule="nonzero"/><path fill="#e2f2f4" d="M 47.621094 16.253906 L 44.53125 16.253906 L 44.53125 15.511719 L 47.621094 15.511719 L 47.621094 16.253906 " fill-opacity="1" fill-rule="nonzero"/><path fill="#b57a46" d="M 24.382812 33.820312 L 24.382812 27.375 L 26.523438 23.28125 C 26.535156 23.304688 26.550781 23.328125 26.5625 23.351562 L 27.246094 22.152344 L 27.710938 21.335938 L 27.710938 28.671875 L 25.519531 32.867188 C 25.277344 33.324219 24.871094 33.671875 24.382812 33.820312 " fill-opacity="1" fill-rule="nonzero"/><path fill="#845933" d="M 27.710938 28.671875 L 27.710938 21.335938 L 27.898438 21.011719 C 27.976562 20.875 28.070312 20.746094 28.183594 20.636719 L 28.183594 27.765625 L 27.710938 28.671875 " fill-opacity="1" fill-rule="nonzero"/><path fill="#b5ada6" d="M 28.183594 27.765625 L 28.183594 20.636719 C 28.351562 20.46875 28.558594 20.332031 28.792969 20.25 C 28.964844 20.1875 29.144531 20.148438 29.316406 20.144531 C 29.335938 20.144531 29.351562 20.144531 29.371094 20.144531 C 29.511719 20.144531 29.65625 20.160156 29.792969 20.191406 C 29.882812 20.1875 29.972656 20.175781 30.058594 20.160156 L 30.058594 22.664062 L 29.371094 22.554688 L 29.027344 23.171875 L 28.667969 23.859375 C 29.148438 24.085938 29.878906 24.515625 29.664062 24.929688 L 28.183594 27.765625 " fill-opacity="1" fill-rule="nonzero"/><path fill="#172e49" d="M 33.6875 23.136719 L 33.6875 22.644531 L 31.945312 22.644531 L 31.945312 22.960938 L 30.058594 22.664062 L 30.058594 20.160156 C 30.296875 20.117188 30.515625 20.039062 30.667969 19.980469 L 30.671875 19.972656 C 30.792969 19.894531 30.914062 19.816406 31.015625 19.757812 C 31.488281 19.480469 31.960938 19.355469 32.300781 19.355469 C 32.535156 19.355469 32.699219 19.414062 32.757812 19.53125 C 32.898438 19.8125 32.667969 20.289062 31.84375 20.699219 C 31.753906 20.746094 31.65625 20.789062 31.554688 20.832031 L 32.257812 21.085938 L 32.929688 20.574219 L 33.726562 19.96875 C 33.726562 19.96875 33.914062 19.667969 34.460938 19.199219 C 34.539062 19.132812 34.617188 19.078125 34.691406 19.035156 C 34.726562 19.386719 34.792969 19.730469 34.890625 20.058594 L 33.660156 21.242188 L 33.691406 21.222656 L 34.5625 20.726562 C 34.5625 20.726562 34.683594 20.582031 34.980469 20.351562 C 35.085938 20.652344 35.214844 20.945312 35.367188 21.21875 L 34.164062 22.105469 L 33.933594 22.273438 L 34.429688 22.226562 C 34.429688 22.226562 34.699219 22.097656 35.296875 22.007812 C 35.363281 21.996094 35.433594 21.992188 35.496094 21.992188 C 35.6875 21.992188 35.84375 22.039062 35.964844 22.105469 C 36.054688 22.214844 36.152344 22.324219 36.25 22.425781 C 36.269531 22.515625 36.242188 22.589844 36.15625 22.613281 L 33.6875 23.136719 M 31.945312 21.304688 L 31.945312 21.9375 L 33.6875 21.9375 L 33.6875 21.304688 L 31.945312 21.304688 " fill-opacity="1" fill-rule="nonzero"/><path fill="#a04540" d="M 31.945312 21.9375 L 33.6875 21.9375 L 33.6875 21.304688 L 31.945312 21.304688 Z M 31.945312 21.9375 " fill-opacity="1" fill-rule="nonzero"/><path fill="#a87534" d="M 33.347656 23.179688 C 33.332031 23.179688 33.3125 23.179688 33.296875 23.179688 L 31.945312 22.960938 L 31.945312 22.644531 L 33.6875 22.644531 L 33.6875 23.136719 L 33.613281 23.152344 L 33.601562 23.144531 C 33.515625 23.167969 33.429688 23.179688 33.347656 23.179688 " fill-opacity="1" fill-rule="nonzero"/><path fill="#5fa498" d="M 36.25 22.425781 C 36.152344 22.324219 36.054688 22.214844 35.964844 22.105469 C 36.128906 22.195312 36.226562 22.320312 36.25 22.425781 M 35.367188 21.21875 C 35.214844 20.945312 35.085938 20.652344 34.980469 20.351562 C 35.09375 20.265625 35.230469 20.167969 35.394531 20.058594 C 35.648438 19.894531 35.890625 19.835938 36.09375 19.835938 C 36.542969 19.835938 36.808594 20.136719 36.628906 20.296875 L 35.367188 21.21875 M 34.890625 20.058594 C 34.792969 19.730469 34.726562 19.386719 34.691406 19.035156 C 34.890625 18.917969 35.085938 18.875 35.25 18.875 C 35.625 18.875 35.859375 19.105469 35.710938 19.269531 L 34.890625 20.058594 " fill-opacity="1" fill-rule="nonzero"/><path fill="#0c191f" d="M 28.8125 19.988281 C 28.8125 19.988281 30.515625 20.628906 30.203125 21.230469 C 28.890625 21.433594 27.265625 20.59375 28.8125 19.988281 " fill-opacity="1" fill-rule="nonzero"/><path fill="#ffb187" d="M 34.328125 19.378906 C 34.265625 19.40625 34.203125 19.429688 34.140625 19.445312 C 34.039062 19.472656 33.933594 19.484375 33.828125 19.480469 L 29.910156 18.851562 L 28.878906 20.703125 L 27.425781 20.117188 L 27.417969 20.113281 L 26.96875 19.882812 L 28.433594 17.308594 C 28.625 16.96875 28.9375 16.695312 29.332031 16.550781 C 29.503906 16.484375 29.679688 16.453125 29.851562 16.445312 L 29.855469 16.449219 C 30.015625 16.441406 30.175781 16.457031 30.328125 16.492188 C 30.390625 16.507812 30.453125 16.527344 30.511719 16.550781 L 30.746094 16.636719 L 31.023438 16.738281 L 32.09375 17.128906 L 32.796875 17.386719 L 33.605469 17.6875 L 33.726562 17.8125 L 33.820312 17.90625 L 34.390625 18.503906 L 34.460938 18.578125 L 34.464844 18.582031 L 34.648438 18.769531 L 34.570312 18.855469 C 34.464844 18.984375 34.484375 19.304688 34.328125 19.378906 " fill-opacity="1" fill-rule="nonzero"/><path fill="#ffb187" d="M 33.40625 18.675781 L 34.125 18.609375 L 34.964844 18.527344 C 34.964844 18.527344 35.238281 18.398438 35.832031 18.308594 C 36.640625 18.1875 36.980469 18.832031 36.695312 18.914062 L 34.148438 19.453125 L 33.40625 18.675781 " fill-opacity="1" fill-rule="nonzero"/><path fill="#ffb187" d="M 37.164062 16.59375 L 34.703125 18.40625 L 34.464844 18.582031 C 34.464844 18.582031 33.992188 18.347656 33.476562 18.273438 C 32.273438 18.101562 31.160156 17.300781 30.285156 17.152344 C 29.386719 17.003906 29.140625 17.175781 28.738281 17.789062 C 28.316406 18.425781 27.109375 19.957031 27.109375 19.957031 L 27.417969 20.113281 L 26.96875 19.882812 L 28.433594 17.308594 C 28.625 16.96875 28.9375 16.695312 29.332031 16.550781 C 29.503906 16.484375 29.679688 16.453125 29.851562 16.445312 L 29.855469 16.449219 C 30.015625 16.441406 30.175781 16.457031 30.328125 16.492188 C 30.667969 16.476562 30.996094 16.363281 31.207031 16.277344 L 31.210938 16.277344 C 31.328125 16.195312 31.449219 16.117188 31.554688 16.054688 C 32.347656 15.597656 33.15625 15.550781 33.296875 15.832031 C 33.433594 16.117188 33.203125 16.59375 32.382812 17 C 32.292969 17.046875 32.191406 17.089844 32.09375 17.128906 L 32.796875 17.386719 L 33.464844 16.878906 L 34.261719 16.269531 C 34.261719 16.269531 34.453125 15.964844 35 15.5 C 35.738281 14.867188 36.484375 15.304688 36.25 15.570312 L 34.195312 17.546875 L 34.230469 17.523438 L 35.101562 17.027344 C 35.101562 17.027344 35.328125 16.753906 35.933594 16.363281 C 36.746094 15.835938 37.429688 16.367188 37.164062 16.59375 " fill-opacity="1" fill-rule="nonzero"/><path fill="#ffffff" d="M 27.785156 18.449219 C 27.886719 18.917969 29.121094 19.613281 29.574219 19.453125 L 28.71875 21.085938 L 26.96875 19.882812 L 27.785156 18.449219 " fill-opacity="1" fill-rule="nonzero"/><path fill="#12262e" d="M 30.203125 21.230469 L 26.058594 29.164062 C 25.769531 29.722656 25.238281 30.105469 24.621094 30.199219 C 24.003906 30.300781 23.375 30.101562 22.929688 29.664062 L 19.785156 26.582031 L 19.101562 25.910156 L 15.703125 22.582031 L 17.238281 21.015625 L 19.222656 21.285156 C 19.480469 21.382812 19.820312 21.554688 20.101562 21.835938 L 20.359375 22.09375 L 23.898438 25.644531 L 27.058594 19.582031 C 27.460938 20.445312 29.492188 21.335938 30.203125 21.230469 " fill-opacity="1" fill-rule="nonzero"/><path fill="#f0866e" d="M 19.375 88.242188 C 19.234375 88.457031 13.820312 88.21875 13.96875 88.070312 C 13.925781 86.945312 13.457031 85.5 12.765625 84.152344 C 12.3125 83.285156 11.769531 82.453125 11.183594 81.78125 C 10.691406 79.792969 12.050781 78.480469 12.972656 77.839844 C 13.117188 76.5625 11.183594 62.191406 12.96875 59.257812 C 16.375 58.121094 17.664062 54.785156 18.59375 55.871094 C 18.828125 59.828125 16.875 75.355469 16.589844 80.042969 C 17.429688 82.5625 17.441406 84.09375 17.621094 85.796875 C 17.632812 85.816406 17.652344 85.839844 17.675781 85.867188 C 18 86.265625 19.21875 87.3125 19.21875 87.3125 C 19.453125 87.773438 19.375 88 19.375 88.242188 " fill-opacity="1" fill-rule="nonzero"/><g clip-path="url(#fd4dee552a)"><path fill="#ffb187" d="M 14.394531 88.429688 C 14.25 88.640625 8.839844 88.402344 8.988281 88.253906 C 8.941406 87.132812 8.476562 85.683594 7.785156 84.335938 C 7.332031 83.46875 6.789062 82.636719 6.203125 81.96875 C 5.710938 79.976562 7.070312 78.664062 7.992188 78.023438 C 8.136719 76.746094 6.203125 62.378906 7.988281 59.441406 C 11.390625 58.308594 12.683594 54.972656 13.613281 56.058594 C 13.847656 60.011719 11.894531 75.539062 11.609375 80.226562 C 12.445312 82.746094 12.460938 84.277344 12.640625 85.980469 C 12.652344 86.003906 12.671875 86.027344 12.691406 86.050781 C 13.015625 86.453125 14.238281 87.496094 14.238281 87.496094 C 14.472656 87.960938 14.394531 88.183594 14.394531 88.429688 " fill-opacity="1" fill-rule="nonzero"/></g><path fill="#f0866e" d="M 13.226562 63.441406 C 13.511719 60.207031 13.695312 57.433594 13.613281 56.058594 C 12.683594 54.972656 11.390625 58.308594 7.988281 59.441406 C 7.640625 60.015625 7.433594 61.023438 7.328125 62.28125 C 7.53125 62.539062 9.335938 63.460938 13.226562 63.441406 " fill-opacity="1" fill-rule="nonzero"/><path fill="#613214" d="M 21.011719 14.15625 C 20.433594 14.914062 20.285156 15.34375 20.59375 16.261719 C 20.765625 16.777344 20.910156 17.253906 20.546875 17.746094 C 20.238281 18.160156 19.820312 18.292969 19.636719 18.808594 C 19.378906 19.503906 19.613281 20.015625 18.871094 20.484375 C 18.617188 20.644531 18.34375 20.773438 18.046875 20.84375 C 17.878906 20.882812 17.695312 20.863281 17.53125 20.902344 C 17.109375 21.007812 16.816406 21.347656 16.417969 21.496094 C 16.046875 21.632812 15.597656 21.703125 15.210938 21.808594 C 6.210938 23.257812 5.085938 20.945312 5.085938 20.945312 C 4.75 20.265625 4.683594 19.316406 4.691406 18.574219 C 4.699219 17.941406 4.730469 17.113281 4.277344 16.609375 C 3.859375 16.144531 3.511719 15.882812 3.535156 15.207031 C 3.570312 14.214844 4.515625 13.496094 4.578125 12.480469 C 4.632812 11.601562 3.898438 11.113281 3.910156 10.316406 C 3.917969 9.328125 4.71875 8.667969 5.210938 7.929688 C 5.433594 7.59375 5.875 6.652344 6.292969 5.765625 C 6.640625 5.027344 6.972656 4.328125 7.144531 4.050781 C 7.300781 3.800781 7.496094 3.511719 7.71875 3.222656 C 8.292969 2.464844 9.078125 1.699219 9.925781 1.613281 C 19.542969 0.636719 18.882812 4.28125 19.910156 5.824219 C 20.28125 6.382812 20.386719 7.355469 20.539062 7.988281 C 20.707031 8.679688 20.800781 9.222656 20.707031 9.925781 C 20.613281 10.613281 20.460938 11.332031 20.722656 12.003906 C 21.054688 12.839844 21.691406 13.257812 21.011719 14.15625 " fill-opacity="1" fill-rule="nonzero"/><path fill="#3b1e0c" d="M 8.125 16.328125 C 8.144531 15.277344 8.226562 14.230469 8.308594 13.1875 C 8.527344 11.765625 8.609375 10.324219 8.378906 8.835938 C 8.324219 8.492188 8.164062 8.238281 7.945312 8.066406 C 8.015625 7.464844 8.0625 6.859375 8.058594 6.253906 C 8.058594 5.730469 7.839844 5.351562 7.519531 5.113281 C 14.226562 0 18.570312 3.988281 19.785156 5.644531 C 18.765625 5.488281 17.550781 6.636719 18.15625 7.898438 C 18.640625 8.910156 18.566406 10.230469 18.558594 11.320312 C 18.554688 12.078125 18.570312 12.835938 18.511719 13.589844 C 18.464844 14.226562 18.25 14.792969 18.472656 15.429688 C 18.582031 15.742188 18.773438 16.050781 18.851562 16.363281 C 19.011719 17.007812 18.632812 17.28125 18.222656 17.683594 C 17.679688 18.21875 18.378906 18.648438 18.6875 19.113281 C 18.820312 19.308594 18.941406 19.617188 18.863281 19.875 C 18.742188 20.269531 18.417969 20.171875 18.070312 20.207031 C 17.371094 20.277344 16.261719 20.324219 15.703125 20.796875 C 15.265625 21.171875 15.089844 21.921875 14.476562 22.054688 C 14.257812 22.101562 14.015625 22.039062 13.796875 22.039062 C 13.386719 22.039062 12.980469 22.113281 12.574219 22.152344 C 12.269531 22.179688 8.679688 22.503906 8.628906 22.230469 C 8.277344 20.285156 8.089844 18.3125 8.125 16.328125 " fill-opacity="1" fill-rule="nonzero"/><path fill="#12262e" d="M 19.109375 61.0625 C 19.050781 61.285156 18.878906 61.460938 18.660156 61.527344 C 14.945312 62.648438 10.519531 62.777344 7.433594 61.417969 C 7.261719 60.542969 7.082031 59.621094 6.902344 58.660156 L 6.902344 58.644531 C 6.058594 54.117188 5.214844 48.804688 5.136719 44.21875 L 5.140625 44.160156 C 5.167969 43.519531 5.203125 42.867188 5.253906 42.199219 C 5.277344 41.902344 5.304688 41.597656 5.335938 41.292969 C 7.324219 41.902344 11.324219 41.925781 15.074219 41.488281 C 17.285156 41.234375 19.410156 40.816406 20.976562 40.265625 C 21.246094 40.171875 21.496094 40.078125 21.722656 39.976562 C 21.757812 40.113281 21.785156 40.253906 21.8125 40.402344 C 22.898438 46.125 19.707031 58.785156 19.109375 61.0625 " fill-opacity="1" fill-rule="nonzero"/><path fill="#12262e" d="M 21.8125 40.402344 C 18.058594 41.695312 7.84375 42.136719 5.402344 42.222656 C 5.351562 42.222656 5.300781 42.21875 5.253906 42.199219 C 5.175781 42.175781 5.105469 42.132812 5.054688 42.066406 C 4.96875 41.964844 4.9375 41.832031 4.964844 41.699219 L 4.96875 41.695312 C 5.121094 41.027344 5.417969 40.089844 5.738281 39.125 C 5.75 39.101562 5.753906 39.078125 5.761719 39.050781 C 5.871094 38.71875 5.984375 38.378906 6.097656 38.050781 C 6.246094 37.617188 6.386719 37.199219 6.515625 36.808594 C 6.789062 35.96875 6.988281 35.285156 6.988281 34.996094 C 6.988281 34.929688 6.976562 34.863281 6.976562 34.796875 C 6.972656 34.664062 6.964844 34.527344 6.949219 34.390625 C 6.910156 34.027344 6.851562 33.636719 6.761719 33.226562 C 6.609375 32.546875 6.394531 31.796875 6.160156 30.988281 C 6.066406 30.652344 5.960938 30.300781 5.855469 29.953125 C 5.84375 29.898438 5.828125 29.847656 5.816406 29.796875 C 5.78125 29.691406 5.75 29.578125 5.71875 29.464844 C 5.441406 28.511719 5.171875 27.492188 4.945312 26.402344 C 4.898438 26.160156 4.851562 25.914062 4.804688 25.664062 C 4.566406 24.332031 4.347656 23.171875 4.199219 22.363281 C 4.25 22.269531 4.3125 22.179688 4.367188 22.085938 C 4.722656 21.550781 5.171875 21.085938 5.707031 20.949219 C 5.625 20.945312 5.539062 20.941406 5.46875 20.945312 C 5.539062 20.917969 5.625 20.894531 5.710938 20.871094 L 6.121094 20.792969 L 6.390625 20.738281 L 10.160156 19.917969 L 10.898438 19.757812 L 14.71875 19.757812 L 15.503906 19.964844 L 18.808594 20.851562 L 18.816406 20.855469 L 18.855469 20.863281 L 18.863281 20.863281 C 19.113281 20.949219 20.207031 21.394531 20.640625 23.035156 C 20.664062 23.117188 20.679688 23.199219 20.699219 23.277344 L 20.277344 25.757812 L 20.316406 26.65625 L 19.519531 29.316406 L 19.371094 29.796875 L 19.007812 30.988281 L 18.984375 31.082031 C 18.964844 31.234375 18.953125 31.386719 18.945312 31.539062 L 18.945312 31.546875 C 18.9375 31.640625 18.9375 31.742188 18.9375 31.835938 C 18.9375 32.316406 18.996094 32.796875 19.101562 33.265625 C 19.125 33.375 19.15625 33.476562 19.183594 33.585938 L 19.1875 33.601562 C 19.4375 34.859375 19.957031 36.542969 21.027344 38.230469 C 21.332031 38.710938 21.5625 39.304688 21.722656 39.976562 C 21.753906 40.113281 21.78125 40.253906 21.8125 40.402344 " fill-opacity="1" fill-rule="nonzero"/><path fill="#0c191f" d="M 21.027344 38.230469 C 19.957031 36.542969 19.4375 34.859375 19.1875 33.601562 L 19.183594 33.585938 C 19.15625 33.476562 19.125 33.375 19.101562 33.265625 C 18.996094 32.796875 18.9375 32.316406 18.9375 31.835938 C 18.9375 31.742188 18.9375 31.640625 18.945312 31.546875 L 18.945312 31.539062 C 18.953125 31.386719 18.964844 31.234375 18.984375 31.082031 L 19.007812 30.988281 L 19.21875 30.292969 L 5.484375 28.632812 C 5.554688 28.863281 6.097656 30.761719 6.160156 30.988281 C 6.394531 31.796875 6.609375 32.546875 6.761719 33.226562 C 6.851562 33.636719 6.910156 34.027344 6.949219 34.390625 C 6.964844 34.527344 6.972656 34.664062 6.976562 34.796875 C 6.976562 34.863281 6.988281 34.929688 6.988281 34.996094 C 6.988281 35.285156 6.789062 35.96875 6.515625 36.808594 C 6.386719 37.199219 6.246094 37.617188 6.097656 38.050781 C 5.984375 38.378906 5.871094 38.71875 5.761719 39.050781 C 5.753906 39.078125 5.75 39.101562 5.738281 39.125 C 5.417969 40.089844 5.121094 41.027344 4.96875 41.695312 L 4.964844 41.699219 C 4.9375 41.832031 4.96875 41.964844 5.054688 42.066406 C 5.105469 42.132812 5.175781 42.175781 5.253906 42.199219 C 5.300781 42.21875 5.351562 42.222656 5.402344 42.222656 C 7.84375 42.136719 18.058594 41.695312 21.8125 40.402344 C 21.78125 40.253906 21.753906 40.113281 21.722656 39.976562 C 21.5625 39.304688 21.332031 38.710938 21.027344 38.230469 " fill-opacity="1" fill-rule="nonzero"/><path fill="#12262e" d="M 20.289062 25.976562 L 10.023438 25.847656 L 10.023438 31.238281 C 12.929688 31.296875 17 31.21875 17.996094 31.0625 C 21.160156 30.828125 20.289062 25.976562 20.289062 25.976562 " fill-opacity="1" fill-rule="nonzero"/><path fill="#12262e" d="M 5.542969 25.976562 L 15.808594 25.847656 L 15.808594 31.238281 C 12.902344 31.296875 8.832031 31.21875 7.835938 31.0625 C 4.675781 30.828125 5.542969 25.976562 5.542969 25.976562 " fill-opacity="1" fill-rule="nonzero"/><path fill="#18333d" d="M 11.488281 18.582031 C 11.488281 18.582031 7.917969 20.089844 8.742188 24.265625 C 8.773438 24.410156 8.886719 24.523438 9.03125 24.539062 L 10.617188 24.71875 L 8.742188 25.792969 C 8.664062 25.839844 8.609375 25.917969 8.59375 26.007812 C 8.578125 26.097656 8.601562 26.1875 8.660156 26.257812 C 9.847656 27.6875 11.695312 28.503906 13.722656 29.304688 C 13.722656 29.304688 13.40625 26.019531 13.183594 24.480469 C 12.953125 22.910156 11.488281 18.582031 11.488281 18.582031 " fill-opacity="1" fill-rule="nonzero"/><path fill="#18333d" d="M 15.078125 18.382812 C 15.078125 18.382812 18.375 19.371094 18.351562 23.507812 C 18.351562 23.644531 18.257812 23.769531 18.121094 23.804688 L 16.566406 24.210938 L 18.519531 24.980469 C 18.613281 25.019531 18.679688 25.09375 18.707031 25.191406 C 18.730469 25.285156 18.707031 25.386719 18.648438 25.460938 C 17.101562 27.378906 15.875 28.148438 13.914062 29.285156 C 13.914062 29.285156 13.578125 25.980469 13.648438 24.398438 C 13.714844 22.8125 15.078125 18.382812 15.078125 18.382812 " fill-opacity="1" fill-rule="nonzero"/><path fill="#ffffff" d="M 15.785156 20.917969 C 15.546875 23.378906 14.765625 25.242188 13.621094 27.199219 C 12.390625 25.6875 11.570312 24.34375 11.019531 21.554688 C 10.882812 20.714844 11.015625 20.003906 11.367188 19.753906 L 15.101562 19.539062 C 15.101562 19.539062 15.894531 19.789062 15.785156 20.917969 " fill-opacity="1" fill-rule="nonzero"/><path fill="#f0866e" d="M 15.164062 20.113281 C 15.167969 20.078125 15.421875 16.714844 15.421875 16.714844 C 15.5 15.585938 14.804688 14.625 13.875 14.566406 L 13.429688 14.539062 C 12.496094 14.484375 11.6875 15.355469 11.609375 16.480469 L 11.367188 19.722656 C 11.746094 21.457031 14.214844 21.769531 15.164062 20.113281 " fill-opacity="1" fill-rule="nonzero"/><path fill="#ffb187" d="M 11.414062 19.113281 L 11.367188 19.722656 C 11.746094 21.457031 14.214844 21.769531 15.164062 20.113281 C 15.167969 20.09375 15.25 18.957031 15.324219 18.003906 C 13.945312 18.089844 12.410156 18.34375 11.414062 19.113281 " fill-opacity="1" fill-rule="nonzero"/><path fill="#c3dbe3" d="M 11.429688 23.21875 L 13.339844 21.722656 L 15.480469 22.769531 L 15.40625 23.078125 L 13.359375 22.128906 L 11.578125 23.675781 L 11.429688 23.21875 " fill-opacity="1" fill-rule="nonzero"/><path fill="#ffffff" d="M 13.035156 12.8125 C 13.042969 12.988281 13.074219 13.160156 13.125 13.320312 C 13.359375 14.101562 14.050781 14.6875 14.902344 14.746094 C 15.5625 14.792969 16.175781 14.511719 16.574219 14.039062 C 16.640625 13.960938 16.703125 13.878906 16.753906 13.789062 C 16.796875 13.722656 16.835938 13.652344 16.867188 13.578125 C 16.945312 13.417969 16.984375 13.246094 17.03125 13.070312 C 17.070312 12.941406 16.914062 12.953125 16.914062 12.953125 C 15.679688 12.941406 14.394531 12.855469 13.171875 12.695312 C 13.171875 12.695312 13.03125 12.683594 13.035156 12.8125 " fill-opacity="1" fill-rule="nonzero"/><path fill="#ffb187" d="M 8.464844 10.410156 C 8.460938 10.457031 8.457031 10.480469 8.457031 10.480469 C 8.167969 13.648438 11.367188 17.203125 14.921875 17.203125 C 16.203125 17.203125 19.351562 14.742188 19.460938 11.410156 C 19.507812 9.917969 19.480469 7.1875 19.472656 3.863281 L 16.125 4.066406 L 9.984375 4.742188 C 9.277344 6.210938 8.882812 7.859375 8.671875 9.011719 C 8.960938 9.082031 9.15625 9.394531 9.125 9.753906 C 9.089844 10.144531 8.792969 10.4375 8.464844 10.410156 " fill-opacity="1" fill-rule="nonzero"/><path fill="#613214" d="M 7.523438 15.175781 C 7.621094 14.53125 7.691406 13.867188 7.757812 13.214844 C 7.804688 12.792969 7.917969 12.199219 7.703125 11.800781 C 7.582031 11.574219 7.425781 11.410156 7.253906 11.292969 C 7.222656 10.738281 7.179688 10.175781 7.109375 9.640625 C 7.03125 9.074219 6.917969 8.515625 6.882812 7.945312 C 6.847656 7.386719 6.925781 6.980469 7.007812 6.4375 C 7.070312 6.042969 7.117188 5.648438 7.207031 5.261719 C 7.277344 4.96875 7.363281 4.6875 7.46875 4.417969 C 7.648438 3.964844 7.886719 3.542969 8.191406 3.136719 C 8.660156 2.515625 9.191406 1.90625 9.925781 1.613281 C 10.554688 1.363281 10.96875 1.398438 11.492188 0.972656 C 11.960938 0.589844 12.554688 0.398438 13.148438 0.3125 C 14.347656 0.132812 15.605469 0.382812 16.710938 0.839844 C 18.371094 1.519531 19.8125 3.242188 20.289062 4.980469 C 20.414062 5.449219 20.410156 5.984375 20.582031 6.453125 C 20.792969 7.023438 21.644531 7.867188 21.347656 8.519531 C 21.039062 9.195312 20.179688 8.875 19.84375 8.417969 C 19.089844 7.390625 19.429688 5.941406 18.882812 4.84375 C 18.796875 4.671875 18.71875 4.433594 18.542969 4.335938 C 18.355469 4.230469 18.191406 4.367188 18.089844 4.523438 C 18.039062 4.601562 17.988281 4.679688 17.929688 4.757812 C 17.582031 5.226562 17.246094 5.5625 16.679688 5.75 C 15.566406 6.128906 14.414062 6.089844 13.277344 6.332031 C 12.523438 6.496094 11.167969 6.667969 10.71875 7.390625 C 10.503906 7.734375 10.496094 8.195312 10.296875 8.5625 C 10.207031 8.722656 10.109375 8.859375 9.960938 8.976562 C 9.839844 9.070312 9.675781 9.085938 9.566406 9.164062 C 9.257812 9.371094 9.339844 10.035156 9.390625 10.363281 C 9.488281 11.007812 9.398438 11.652344 9.511719 12.292969 C 9.660156 13.128906 9.308594 14 9.421875 14.875 C 9.488281 15.371094 10 17.011719 9.351562 17.316406 C 9.007812 17.472656 8.796875 17.03125 8.496094 17.007812 C 7.835938 16.957031 8.210938 18.113281 8.328125 18.414062 C 8.542969 18.96875 8.785156 19.683594 8.566406 20.285156 C 8.488281 20.503906 8.300781 20.660156 8.082031 20.738281 C 7.816406 20.835938 7.738281 20.671875 7.484375 20.636719 C 6.945312 20.554688 6.914062 21.429688 6.527344 21.664062 C 6.136719 21.90625 5.601562 21.742188 5.316406 21.402344 C 5.203125 21.269531 5.089844 21.074219 5.027344 20.90625 C 4.828125 20.355469 4.910156 19.601562 5.113281 19.066406 C 5.332031 18.488281 5.820312 17.925781 6.242188 17.484375 C 6.558594 17.152344 6.902344 16.84375 7.15625 16.460938 C 7.429688 16.046875 7.449219 15.644531 7.523438 15.175781 " fill-opacity="1" fill-rule="nonzero"/><path fill="#964f34" d="M 11.417969 8.703125 C 11.355469 8.703125 11.296875 8.671875 11.257812 8.617188 C 11.195312 8.527344 11.214844 8.40625 11.300781 8.339844 C 11.335938 8.320312 12.101562 7.777344 13.273438 7.867188 C 13.382812 7.875 13.464844 7.96875 13.457031 8.078125 C 13.449219 8.1875 13.355469 8.273438 13.242188 8.261719 C 12.222656 8.183594 11.542969 8.660156 11.535156 8.664062 C 11.5 8.6875 11.457031 8.703125 11.417969 8.703125 " fill-opacity="1" fill-rule="nonzero"/><path fill="#964f34" d="M 18.652344 8.277344 C 18.617188 8.277344 18.574219 8.265625 18.539062 8.242188 C 18.53125 8.234375 17.851562 7.761719 16.832031 7.839844 C 16.722656 7.847656 16.625 7.765625 16.617188 7.65625 C 16.609375 7.546875 16.691406 7.449219 16.800781 7.445312 C 17.972656 7.355469 18.738281 7.894531 18.769531 7.917969 C 18.859375 7.980469 18.878906 8.105469 18.816406 8.195312 C 18.777344 8.25 18.714844 8.277344 18.652344 8.277344 " fill-opacity="1" fill-rule="nonzero"/><path fill="#ffb187" d="M 9.8125 9.332031 C 9.578125 9.144531 9.308594 9.054688 9.042969 9.097656 C 8.375 9.207031 7.964844 10.09375 8.125 11.074219 C 8.285156 12.054688 8.953125 12.761719 9.617188 12.648438 C 9.773438 12.625 9.914062 12.554688 10.039062 12.453125 C 9.910156 11.417969 9.832031 10.378906 9.8125 9.332031 " fill-opacity="1" fill-rule="nonzero"/><path fill="#f0966e" d="M 8.769531 10.839844 C 8.820312 11.144531 9.0625 11.355469 9.316406 11.3125 C 9.296875 11.167969 9.242188 10.769531 9.199219 10.21875 C 9.179688 10.214844 9.160156 10.21875 9.136719 10.21875 C 8.886719 10.261719 8.722656 10.542969 8.769531 10.839844 " fill-opacity="1" fill-rule="nonzero"/><path fill="#ffffff" d="M 13.492188 9.832031 C 13.492188 9.867188 13.484375 9.902344 13.472656 9.933594 C 13.4375 10.039062 13.351562 10.128906 13.234375 10.199219 C 13.152344 10.246094 13.050781 10.285156 12.945312 10.308594 C 12.910156 10.316406 12.875 10.324219 12.835938 10.328125 C 12.785156 10.332031 12.722656 10.335938 12.667969 10.335938 L 12.652344 10.335938 C 12.589844 10.332031 12.519531 10.328125 12.457031 10.316406 C 12.414062 10.304688 12.375 10.296875 12.335938 10.285156 C 12.265625 10.265625 12.203125 10.238281 12.144531 10.203125 L 12.144531 10.199219 C 11.96875 10.109375 11.855469 9.960938 11.859375 9.804688 C 11.863281 9.558594 12.132812 9.355469 12.496094 9.308594 C 12.554688 9.296875 12.617188 9.296875 12.683594 9.296875 C 12.738281 9.296875 12.796875 9.300781 12.851562 9.308594 C 12.941406 9.324219 13.027344 9.347656 13.105469 9.378906 C 13.246094 9.433594 13.359375 9.519531 13.425781 9.617188 C 13.46875 9.683594 13.492188 9.753906 13.492188 9.832031 " fill-opacity="1" fill-rule="nonzero"/><path fill="#421c16" d="M 13.164062 9.949219 C 13.121094 10.097656 13.042969 10.222656 12.945312 10.308594 C 12.910156 10.316406 12.875 10.324219 12.835938 10.328125 C 12.785156 10.332031 12.722656 10.335938 12.667969 10.335938 L 12.652344 10.335938 C 12.589844 10.332031 12.519531 10.328125 12.457031 10.316406 C 12.414062 10.304688 12.375 10.296875 12.335938 10.285156 C 12.226562 10.144531 12.1875 9.914062 12.257812 9.683594 C 12.300781 9.527344 12.390625 9.394531 12.496094 9.308594 C 12.554688 9.296875 12.617188 9.296875 12.683594 9.296875 C 12.738281 9.296875 12.796875 9.300781 12.851562 9.308594 C 12.941406 9.324219 13.027344 9.347656 13.105469 9.378906 C 13.195312 9.523438 13.226562 9.734375 13.164062 9.949219 " fill-opacity="1" fill-rule="nonzero"/><path fill="#ffffff" d="M 13.238281 9.765625 C 13.238281 9.855469 13.164062 9.925781 13.074219 9.925781 C 12.984375 9.925781 12.914062 9.847656 12.914062 9.757812 C 12.914062 9.667969 12.992188 9.597656 13.078125 9.597656 C 13.167969 9.601562 13.238281 9.675781 13.238281 9.765625 " fill-opacity="1" fill-rule="nonzero"/><path fill="#ffffff" d="M 12.339844 10.0625 C 12.335938 10.128906 12.28125 10.179688 12.21875 10.179688 C 12.152344 10.179688 12.101562 10.125 12.101562 10.058594 C 12.101562 9.992188 12.15625 9.941406 12.222656 9.941406 C 12.289062 9.941406 12.339844 9.996094 12.339844 10.0625 " fill-opacity="1" fill-rule="nonzero"/><path fill="#ffffff" d="M 18.3125 9.855469 C 18.308594 9.890625 18.304688 9.925781 18.292969 9.957031 C 18.253906 10.066406 18.171875 10.15625 18.054688 10.222656 C 17.972656 10.273438 17.875 10.308594 17.765625 10.332031 C 17.730469 10.339844 17.695312 10.347656 17.65625 10.351562 C 17.601562 10.359375 17.542969 10.359375 17.488281 10.359375 L 17.472656 10.359375 C 17.40625 10.359375 17.339844 10.351562 17.277344 10.339844 C 17.234375 10.332031 17.195312 10.324219 17.15625 10.3125 C 17.085938 10.289062 17.019531 10.261719 16.960938 10.230469 L 16.960938 10.222656 C 16.789062 10.132812 16.675781 9.984375 16.679688 9.828125 C 16.683594 9.582031 16.953125 9.378906 17.316406 9.332031 C 17.375 9.320312 17.4375 9.320312 17.503906 9.320312 C 17.558594 9.320312 17.617188 9.324219 17.671875 9.335938 C 17.761719 9.347656 17.847656 9.371094 17.925781 9.402344 C 18.066406 9.460938 18.175781 9.542969 18.246094 9.644531 C 18.289062 9.710938 18.3125 9.78125 18.3125 9.855469 " fill-opacity="1" fill-rule="nonzero"/><path fill="#421c16" d="M 17.984375 9.972656 C 17.941406 10.121094 17.863281 10.246094 17.765625 10.332031 C 17.730469 10.339844 17.695312 10.347656 17.65625 10.351562 C 17.601562 10.359375 17.542969 10.359375 17.488281 10.359375 L 17.472656 10.359375 C 17.40625 10.359375 17.339844 10.351562 17.277344 10.339844 C 17.234375 10.332031 17.195312 10.324219 17.15625 10.3125 C 17.046875 10.167969 17.007812 9.941406 17.074219 9.710938 C 17.121094 9.550781 17.210938 9.417969 17.316406 9.332031 C 17.375 9.320312 17.4375 9.320312 17.503906 9.320312 C 17.558594 9.320312 17.617188 9.324219 17.671875 9.335938 C 17.761719 9.347656 17.847656 9.371094 17.925781 9.402344 C 18.015625 9.550781 18.046875 9.757812 17.984375 9.972656 " fill-opacity="1" fill-rule="nonzero"/><path fill="#ffffff" d="M 18.058594 9.746094 C 18.058594 9.835938 17.984375 9.910156 17.894531 9.90625 C 17.808594 9.90625 17.734375 9.832031 17.734375 9.738281 C 17.738281 9.652344 17.8125 9.578125 17.898438 9.578125 C 17.988281 9.578125 18.0625 9.65625 18.058594 9.746094 " fill-opacity="1" fill-rule="nonzero"/><path fill="#ffffff" d="M 17.140625 10.09375 C 17.140625 10.160156 17.089844 10.214844 17.023438 10.214844 C 16.957031 10.210938 16.90625 10.15625 16.90625 10.089844 C 16.90625 10.023438 16.960938 9.972656 17.027344 9.972656 C 17.09375 9.972656 17.144531 10.027344 17.140625 10.09375 " fill-opacity="1" fill-rule="nonzero"/><path fill="#e67b5a" d="M 15.109375 9.203125 C 15.128906 9.550781 15.199219 9.898438 15.324219 10.230469 C 15.359375 10.3125 15.394531 10.398438 15.4375 10.476562 C 15.480469 10.5625 15.53125 10.636719 15.585938 10.714844 C 15.640625 10.789062 15.695312 10.867188 15.773438 10.929688 C 15.835938 11.003906 15.917969 11.058594 16 11.117188 L 15.894531 10.960938 C 15.914062 11.136719 15.84375 11.355469 15.730469 11.507812 C 15.671875 11.582031 15.605469 11.640625 15.535156 11.667969 C 15.503906 11.683594 15.46875 11.6875 15.433594 11.6875 C 15.402344 11.6875 15.363281 11.675781 15.332031 11.664062 L 15.3125 11.660156 C 15.210938 11.625 15.097656 11.683594 15.066406 11.789062 C 15.035156 11.890625 15.085938 11.996094 15.183594 12.035156 C 15.261719 12.058594 15.347656 12.078125 15.433594 12.082031 C 15.519531 12.078125 15.605469 12.0625 15.683594 12.035156 C 15.839844 11.96875 15.957031 11.859375 16.046875 11.742188 C 16.132812 11.625 16.195312 11.496094 16.238281 11.359375 C 16.277344 11.226562 16.300781 11.082031 16.285156 10.925781 L 16.273438 10.820312 L 16.183594 10.769531 C 16.121094 10.738281 16.050781 10.710938 15.988281 10.664062 C 15.921875 10.628906 15.867188 10.574219 15.804688 10.523438 C 15.753906 10.464844 15.691406 10.410156 15.644531 10.34375 C 15.589844 10.28125 15.546875 10.210938 15.5 10.144531 C 15.324219 9.859375 15.191406 9.539062 15.109375 9.203125 " fill-opacity="1" fill-rule="nonzero"/><path fill="#bf4231" d="M 17.324219 12.871094 C 17.265625 13.601562 16.917969 14.132812 16.398438 14.449219 C 16.09375 14.636719 15.726562 14.746094 15.332031 14.773438 C 15.300781 14.773438 15.273438 14.777344 15.242188 14.777344 L 15.214844 14.777344 C 14.839844 14.785156 14.488281 14.722656 14.179688 14.589844 C 13.570312 14.328125 13.128906 13.792969 13.019531 13.003906 C 13.015625 12.972656 13.023438 12.9375 13.042969 12.910156 C 13.0625 12.886719 13.089844 12.871094 13.117188 12.871094 L 13.128906 12.871094 C 14.671875 13.148438 15.667969 13.085938 17.207031 12.746094 L 17.214844 12.746094 C 17.246094 12.746094 17.273438 12.757812 17.292969 12.78125 C 17.3125 12.804688 17.324219 12.839844 17.324219 12.871094 " fill-opacity="1" fill-rule="nonzero"/><path fill="#ffffff" d="M 16.960938 13.640625 C 16.808594 13.988281 16.648438 14.261719 16.398438 14.449219 C 16.09375 14.636719 15.726562 14.746094 15.332031 14.773438 C 15.300781 14.773438 15.273438 14.777344 15.242188 14.777344 L 15.214844 14.777344 C 14.839844 14.785156 14.488281 14.722656 14.179688 14.589844 C 13.839844 14.421875 13.59375 14.140625 13.402344 13.75 C 14.695312 14.027344 15.566406 14.089844 16.960938 13.640625 " fill-opacity="1" fill-rule="nonzero"/><path fill="#ffffff" d="M 17.214844 12.746094 C 16.875 13.554688 16.316406 14.050781 15.207031 14.160156 C 14.015625 14.273438 13.507812 13.660156 13.117188 12.871094 L 13.128906 12.871094 C 14.671875 13.148438 15.667969 13.085938 17.207031 12.746094 L 17.214844 12.746094 " fill-opacity="1" fill-rule="nonzero"/><path fill="#ffffff" d="M 13.449219 33.835938 L 13.558594 33.847656 C 13.488281 33.847656 13.449219 33.835938 13.449219 33.835938 " fill-opacity="1" fill-rule="nonzero"/><path fill="#82431b" d="M 18.101562 3.554688 C 17.011719 5.578125 15.277344 5.613281 13.171875 5.613281 C 12.128906 5.613281 11.265625 6.046875 10.523438 6.765625 C 10.339844 6.941406 8.890625 8.40625 9.101562 7.242188 C 9.160156 6.941406 9.488281 6.730469 9.296875 6.386719 C 8.96875 6.507812 8.976562 7.074219 8.550781 6.949219 C 8.519531 6.488281 8.394531 6.089844 7.917969 6.132812 C 7.363281 6.175781 7.050781 7.109375 6.582031 7.101562 C 6.078125 7.09375 6.378906 6.3125 6.488281 6.03125 C 6.644531 5.640625 6.953125 4.921875 7.285156 4.644531 C 7.820312 4.207031 7.667969 4.804688 7.835938 5.136719 C 8.382812 6.195312 9.226562 4.222656 9.894531 4.835938 C 10.238281 5.15625 9.664062 5.664062 9.984375 5.902344 C 10.320312 6.152344 11.148438 5.277344 11.414062 5.105469 C 12 4.71875 12.691406 4.519531 13.394531 4.609375 C 14.136719 4.707031 15.164062 5.078125 15.917969 4.839844 C 16.464844 4.667969 16.789062 4.101562 17.191406 3.738281 C 17.308594 3.632812 17.59375 3.316406 17.765625 3.3125 C 18.210938 3.308594 18.15625 3.734375 17.863281 3.988281 L 18.101562 3.554688 " fill-opacity="1" fill-rule="nonzero"/><path fill="#82431b" d="M 4.214844 10.171875 C 4.339844 9.683594 4.820312 9.148438 5.28125 8.960938 C 5.464844 8.886719 5.773438 8.785156 5.9375 8.917969 C 6.089844 9.039062 5.992188 9.199219 6.082031 9.347656 C 6.574219 10.171875 7.378906 8.640625 7.980469 9.03125 C 8.316406 9.246094 7.886719 9.777344 7.730469 9.957031 C 7.417969 10.316406 7.292969 10.574219 7.113281 11 C 6.9375 11.410156 6.59375 11.523438 6.546875 11.007812 C 6.511719 10.632812 6.609375 10.242188 6.105469 10.308594 C 5.605469 10.375 5.457031 10.972656 5.078125 11.152344 C 4.480469 11.433594 4.855469 10.695312 4.863281 10.425781 C 4.871094 9.910156 4.628906 10.03125 4.359375 10.316406 C 3.847656 10.859375 4.207031 10.179688 4.324219 9.851562 L 4.214844 10.171875 " fill-opacity="1" fill-rule="nonzero"/><path fill="#964f34" d="M 12.4375 53.023438 C 12.519531 53.023438 12.597656 53.015625 12.671875 53 C 12.613281 53.015625 12.554688 53.023438 12.492188 53.023438 L 12.4375 53.023438 " fill-opacity="1" fill-rule="nonzero"/><path fill="#964f34" d="M 12.804688 42.246094 C 12.730469 42.230469 12.652344 42.222656 12.574219 42.222656 L 12.625 42.222656 C 12.6875 42.222656 12.746094 42.230469 12.804688 42.246094 " fill-opacity="1" fill-rule="nonzero"/><path fill="#12262e" d="M 4.273438 32.972656 L 5.335938 29.148438 L 7.136719 22.878906 L 4.5625 21.78125 C 4.335938 22.039062 4.136719 22.34375 3.960938 22.652344 C 3.59375 23.308594 3.347656 23.996094 3.230469 24.363281 C 3.210938 24.417969 3.195312 24.46875 3.183594 24.507812 L 3.148438 24.625 L 3.148438 24.632812 L 1.007812 32.207031 C 0.9375 32.460938 0.890625 32.714844 0.859375 32.972656 L 4.273438 32.972656 " fill-opacity="1" fill-rule="nonzero"/><path fill="#0c191f" d="M 15.515625 41.53125 C 15.515625 41.53125 13.53125 45.28125 13.007812 45.710938 C 12.476562 46.144531 9.566406 45.710938 9.566406 45.710938 C 9.566406 45.710938 6.292969 52.9375 6.902344 58.644531 C 6.058594 54.117188 5.214844 48.804688 5.136719 44.21875 L 5.140625 44.160156 C 5.167969 43.519531 5.203125 42.867188 5.253906 42.199219 C 5.277344 41.902344 5.304688 41.597656 5.335938 41.292969 C 7.324219 41.902344 11.324219 41.925781 15.074219 41.488281 L 15.515625 41.53125 " fill-opacity="1" fill-rule="nonzero"/><path fill="#a8562e" d="M 7.652344 30.710938 L 16.886719 35.855469 L 12.371094 43.382812 C 12.191406 43.683594 11.800781 43.78125 11.5 43.601562 L 2.964844 38.46875 L 7.652344 30.710938 " fill-opacity="1" fill-rule="nonzero"/><path fill="#ffffff" d="M 7.515625 30.9375 L 16.027344 36.054688 C 16.328125 36.238281 16.71875 36.140625 16.902344 35.835938 C 17.082031 35.535156 16.984375 35.144531 16.683594 34.960938 L 8.171875 29.84375 C 8.300781 30.558594 8.066406 30.773438 7.515625 30.9375 " fill-opacity="1" fill-rule="nonzero"/><path fill="#de723d" d="M 8.039062 30.066406 L 8.261719 30.203125 L 8.261719 30.199219 L 16.546875 35.1875 C 16.726562 35.292969 16.785156 35.523438 16.675781 35.703125 C 16.570312 35.878906 16.339844 35.9375 16.160156 35.832031 L 7.875 30.847656 L 7.878906 30.84375 L 7.652344 30.710938 L 7.515625 30.9375 L 16.027344 36.054688 C 16.328125 36.238281 16.71875 36.140625 16.902344 35.835938 C 17.082031 35.535156 16.984375 35.144531 16.683594 34.960938 L 8.171875 29.84375 L 8.039062 30.066406 " fill-opacity="1" fill-rule="nonzero"/><path fill="#a8562e" d="M 3.644531 37.386719 L 12.15625 42.507812 C 12.457031 42.6875 12.550781 43.082031 12.371094 43.382812 C 12.191406 43.683594 11.800781 43.78125 11.5 43.601562 L 2.988281 38.480469 L 3.644531 37.386719 " fill-opacity="1" fill-rule="nonzero"/><path fill="#204470" d="M 54.265625 45.300781 L 29.824219 45.300781 L 29.824219 29.765625 L 54.265625 29.765625 L 54.265625 45.300781 " fill-opacity="1" fill-rule="nonzero"/><path fill="#86f2ea" d="M 34.285156 43.644531 L 32.054688 43.644531 L 32.054688 41.160156 L 34.285156 41.160156 L 34.285156 43.644531 " fill-opacity="1" fill-rule="nonzero"/><path fill="#86f2ea" d="M 37.179688 43.644531 L 34.949219 43.644531 L 34.949219 40.429688 L 37.179688 40.429688 L 37.179688 43.644531 " fill-opacity="1" fill-rule="nonzero"/><path fill="#86f2ea" d="M 40.070312 43.644531 L 37.839844 43.644531 L 37.839844 38 L 40.070312 38 L 40.070312 43.644531 " fill-opacity="1" fill-rule="nonzero"/><path fill="#86f2ea" d="M 42.964844 43.644531 L 40.730469 43.644531 L 40.730469 37.417969 L 42.964844 37.417969 L 42.964844 43.644531 " fill-opacity="1" fill-rule="nonzero"/><path fill="#86f2ea" d="M 45.855469 43.644531 L 43.621094 43.644531 L 43.621094 38.972656 L 45.855469 38.972656 L 45.855469 43.644531 " fill-opacity="1" fill-rule="nonzero"/><path fill="#86f2ea" d="M 48.746094 43.644531 L 46.515625 43.644531 L 46.515625 35.945312 L 48.746094 35.945312 L 48.746094 43.644531 " fill-opacity="1" fill-rule="nonzero"/><path fill="#86f2ea" d="M 51.640625 43.644531 L 49.40625 43.644531 L 49.40625 33.007812 L 51.640625 33.007812 L 51.640625 43.644531 " fill-opacity="1" fill-rule="nonzero"/><path fill="#e16662" d="M 31.921875 41.203125 L 31.816406 41.117188 L 32.929688 39.714844 L 33.066406 40.136719 L 33.597656 38.515625 L 33.917969 39.210938 L 34.117188 38.417969 L 34.503906 39.992188 L 35.773438 36.429688 L 36.019531 36.957031 L 36.574219 35.765625 L 36.765625 36.324219 L 37.363281 34.707031 L 38.058594 38.398438 L 38.40625 36.683594 L 38.617188 37.457031 L 39.390625 33.097656 L 39.644531 33.824219 L 39.875 33.070312 L 40.320312 35.679688 L 40.882812 34.121094 L 41.144531 34.675781 L 41.347656 33.863281 L 41.558594 34.441406 L 41.898438 32.03125 L 42.523438 33.757812 L 42.835938 32.476562 L 43.433594 34.46875 L 43.820312 33.660156 L 44 34.558594 L 44.417969 33.988281 L 44.792969 35.585938 L 46.246094 31.953125 L 46.667969 32.714844 L 46.96875 31.960938 L 47.25 32.417969 L 47.484375 30.640625 L 47.917969 32.128906 L 48.277344 31.441406 L 48.703125 33.113281 L 49.839844 31.042969 L 50.003906 31.648438 L 50.445312 31.117188 L 50.863281 31.636719 L 51.25 31.304688 L 51.40625 31.628906 L 52.613281 30.675781 L 52.695312 30.785156 L 51.355469 31.84375 L 51.203125 31.523438 L 50.84375 31.832031 L 50.445312 31.332031 L 49.941406 31.933594 L 49.796875 31.402344 L 48.65625 33.480469 L 48.234375 31.820312 L 47.882812 32.492188 L 47.535156 31.296875 L 47.332031 32.816406 L 46.996094 32.261719 L 46.6875 33.027344 L 46.265625 32.269531 L 44.761719 36.035156 L 44.351562 34.304688 L 43.925781 34.890625 L 43.765625 34.089844 L 43.40625 34.84375 L 42.847656 32.996094 L 42.550781 34.226562 L 41.957031 32.589844 L 41.613281 35.007812 L 41.371094 34.328125 L 41.183594 35.078125 L 40.902344 34.476562 L 40.273438 36.210938 L 39.839844 33.660156 L 39.65625 34.261719 L 39.433594 33.632812 L 38.644531 38.074219 L 38.425781 37.269531 L 38.050781 39.101562 L 37.320312 35.214844 L 36.761719 36.726562 L 36.554688 36.128906 L 36.019531 37.277344 L 35.789062 36.789062 L 34.480469 40.464844 L 34.117188 38.980469 L 33.957031 39.617188 L 33.617188 38.886719 L 33.066406 40.574219 L 32.878906 39.996094 L 31.921875 41.203125 " fill-opacity="1" fill-rule="nonzero"/><path fill="#ffffff" d="M 31.921875 43.464844 L 31.816406 43.378906 L 32.550781 42.449219 L 32.878906 42.863281 L 33.21875 41.875 L 33.589844 42.511719 L 34.042969 41.507812 L 34.480469 42.320312 L 35.773438 38.695312 L 36.019531 39.21875 L 36.574219 38.03125 L 36.75 38.535156 L 37.320312 35.773438 L 38.0625 40.628906 L 38.40625 38.949219 L 38.625 39.746094 L 39.214844 37.109375 L 39.457031 37.507812 L 39.863281 36.066406 L 40.3125 37.972656 L 40.882812 36.382812 L 41.144531 36.9375 L 41.347656 36.125 L 41.558594 36.710938 L 42.007812 33.804688 L 42.53125 34.695312 L 42.785156 34.160156 L 43.269531 35.242188 L 43.621094 35.027344 L 43.746094 35.632812 L 44.039062 34.867188 L 44.804688 36.191406 L 46.265625 34.25 L 46.667969 34.976562 L 46.96875 34.226562 L 47.25 34.679688 L 47.484375 32.902344 L 47.917969 34.394531 L 48.277344 33.703125 L 48.703125 35.375 L 49.839844 33.304688 L 50.003906 33.910156 L 50.445312 33.378906 L 50.816406 33.84375 L 51.101562 32.449219 L 51.378906 33.140625 L 51.621094 32.484375 L 51.84375 33.136719 L 52.589844 31.386719 L 52.714844 31.441406 L 51.832031 33.515625 L 51.617188 32.886719 L 51.382812 33.515625 L 51.144531 32.921875 L 50.890625 34.152344 L 50.445312 33.59375 L 49.941406 34.199219 L 49.796875 33.667969 L 48.65625 35.742188 L 48.234375 34.082031 L 47.882812 34.753906 L 47.535156 33.558594 L 47.332031 35.078125 L 46.996094 34.527344 L 46.6875 35.289062 L 46.246094 34.5 L 44.792969 36.4375 L 44.066406 35.179688 L 43.707031 36.113281 L 43.527344 35.246094 L 43.207031 35.4375 L 42.78125 34.484375 L 42.546875 34.988281 L 42.085938 34.203125 L 41.613281 37.261719 L 41.371094 36.589844 L 41.183594 37.339844 L 40.902344 36.738281 L 40.28125 38.445312 L 39.851562 36.609375 L 39.503906 37.84375 L 39.273438 37.46875 L 38.640625 40.308594 L 38.425781 39.53125 L 38.046875 41.398438 L 37.296875 36.539062 L 36.78125 39.042969 L 36.554688 38.390625 L 36.019531 39.539062 L 35.789062 39.050781 L 34.507812 42.65625 L 34.054688 41.816406 L 33.605469 42.808594 L 33.253906 42.199219 L 32.925781 43.144531 L 32.550781 42.667969 L 31.921875 43.464844 " fill-opacity="1" fill-rule="nonzero"/><path fill="#e16662" d="M 52.714844 7.6875 L 31.816406 7.6875 L 31.816406 6.34375 L 52.714844 6.34375 L 52.714844 7.6875 " fill-opacity="1" fill-rule="nonzero"/><path fill="#7a3f22" d="M 13.785156 39.40625 C 13.75 39.394531 13.710938 39.378906 13.667969 39.367188 C 12.640625 39.195312 11.609375 38.777344 10.835938 38.277344 C 10.675781 38.171875 10.539062 38.046875 10.421875 37.90625 C 10.316406 37.925781 10.246094 37.9375 10.210938 37.933594 C 10.199219 37.933594 10.175781 37.929688 10.148438 37.921875 L 10.117188 37.894531 L 9.800781 37.765625 C 9.777344 37.695312 9.726562 37.628906 9.65625 37.59375 C 8.242188 36.949219 4.984375 37.789062 3.792969 37.097656 L 3.394531 37.800781 C 4.871094 38.914062 6.617188 39.960938 8.265625 40.65625 C 8.363281 40.695312 8.480469 40.667969 8.554688 40.585938 C 8.636719 40.492188 8.726562 40.371094 8.8125 40.234375 C 8.964844 40.308594 9.296875 40.449219 9.519531 40.425781 C 9.632812 40.492188 9.730469 40.558594 9.785156 40.609375 C 10.40625 41.214844 11.332031 41.695312 11.722656 41.933594 C 12.015625 42.113281 12.585938 42.492188 12.941406 42.433594 L 14.804688 39.449219 L 14.757812 39.460938 C 14.46875 39.566406 14.019531 39.484375 13.785156 39.40625 " fill-opacity="1" fill-rule="nonzero"/><path fill="#ffa480" d="M 15.195312 40.128906 C 15.074219 40.15625 15.035156 40.253906 14.984375 40.367188 C 14.925781 40.503906 14.839844 40.621094 14.738281 40.726562 C 14.675781 40.792969 14.613281 40.863281 14.535156 40.910156 C 14.453125 40.957031 14.367188 40.984375 14.300781 41.050781 C 14.171875 41.183594 14.167969 41.351562 14.070312 41.503906 C 13.960938 41.671875 13.839844 41.765625 13.648438 41.816406 C 13.570312 41.839844 13.492188 41.855469 13.410156 41.867188 C 13.003906 41.933594 12.519531 41.648438 12.183594 41.441406 C 11.734375 41.167969 10.675781 40.617188 9.957031 39.917969 C 9.683594 39.652344 8.417969 39.121094 8.417969 39.121094 C 8.265625 38.804688 8.722656 38.660156 8.757812 38.335938 C 8.796875 37.964844 8.925781 36.664062 9.398438 36.554688 C 9.53125 36.523438 10.3125 36.835938 10.449219 36.851562 C 10.613281 36.867188 11.59375 36.5625 13.101562 36.648438 C 13.972656 36.695312 14.300781 35.753906 14.5625 35.824219 C 14.839844 35.890625 14.886719 36.226562 14.859375 36.472656 C 14.8125 36.941406 14.589844 37.265625 14.238281 37.5625 C 14.019531 37.746094 13.738281 37.875 13.921875 38.175781 C 14.042969 38.367188 14.351562 38.476562 14.550781 38.542969 C 14.820312 38.628906 15.335938 38.722656 15.667969 38.601562 C 15.75 38.574219 15.839844 38.585938 15.914062 38.636719 C 15.988281 38.683594 16.03125 38.765625 16.03125 38.851562 C 16.046875 39.515625 15.546875 40.046875 15.195312 40.128906 " fill-opacity="1" fill-rule="nonzero"/><path fill="#ffffff" d="M 10.566406 36.871094 C 10.625 36.894531 10.632812 36.953125 10.648438 37.015625 C 10.78125 37.515625 10.089844 39.554688 9.75 39.75 C 9.453125 39.78125 8.960938 39.511719 8.960938 39.511719 L 10.050781 36.664062 L 10.566406 36.871094 " fill-opacity="1" fill-rule="nonzero"/><path fill="#12262e" d="M 9.941406 36.511719 C 7.589844 35.433594 5.742188 34.484375 4 33.25 L 1.773438 33.25 C 1.78125 34.089844 1.742188 34.933594 1.695312 35.777344 C 1.734375 35.800781 1.765625 35.828125 1.800781 35.855469 C 4.117188 37.304688 6.121094 38.621094 8.769531 39.734375 C 8.871094 39.773438 8.988281 39.746094 9.058594 39.664062 C 9.542969 39.113281 9.945312 37.527344 10.097656 36.816406 C 10.121094 36.691406 10.058594 36.5625 9.941406 36.511719 " fill-opacity="1" fill-rule="nonzero"/><path fill="#b0e162" d="M 29.816406 5.5 C 29.816406 5.835938 29.546875 6.105469 29.210938 6.105469 C 28.878906 6.105469 28.605469 5.835938 28.605469 5.5 C 28.605469 5.167969 28.878906 4.894531 29.210938 4.894531 C 29.546875 4.894531 29.816406 5.167969 29.816406 5.5 " fill-opacity="1" fill-rule="nonzero"/><path fill="#b0e162" d="M 55.464844 5.5 C 55.464844 5.835938 55.191406 6.105469 54.859375 6.105469 C 54.523438 6.105469 54.253906 5.835938 54.253906 5.5 C 54.253906 5.167969 54.523438 4.894531 54.859375 4.894531 C 55.191406 4.894531 55.464844 5.167969 55.464844 5.5 " fill-opacity="1" fill-rule="nonzero"/><path fill="#b0e162" d="M 55.914062 46.058594 C 55.914062 46.390625 55.644531 46.664062 55.308594 46.664062 C 54.976562 46.664062 54.703125 46.390625 54.703125 46.058594 C 54.703125 45.722656 54.976562 45.453125 55.308594 45.453125 C 55.644531 45.453125 55.914062 45.722656 55.914062 46.058594 " fill-opacity="1" fill-rule="nonzero"/><path fill="#b0e162" d="M 29.707031 45.90625 C 29.707031 46.242188 29.4375 46.511719 29.101562 46.511719 C 28.769531 46.511719 28.496094 46.242188 28.496094 45.90625 C 28.496094 45.574219 28.769531 45.300781 29.101562 45.300781 C 29.4375 45.300781 29.707031 45.574219 29.707031 45.90625 " fill-opacity="1" fill-rule="nonzero"/><path fill="#12262e" d="M 0.859375 32.972656 C 0.859375 32.972656 0.0507812 34.738281 1.695312 35.777344 C 3.890625 34.746094 4.199219 33.390625 4.199219 33.390625 L 4.273438 32.972656 C 4.273438 32.972656 1.734375 32.144531 0.859375 32.972656 " fill-opacity="1" fill-rule="nonzero"/><path fill="#0c191f" d="M 5.523438 28.550781 C 5.5 28.597656 5.6875 27.929688 5.847656 27.371094 C 5.859375 27.324219 5.90625 27.292969 5.957031 27.300781 C 6.003906 27.304688 6.042969 27.347656 6.042969 27.394531 C 6.058594 28.457031 6.21875 30.316406 7.136719 30.914062 C 6.738281 31.296875 6.351562 31.65625 6.351562 31.65625 L 5.523438 28.636719 L 5.523438 28.550781 " fill-opacity="1" fill-rule="nonzero"/><path fill="#0c191f" d="M 23.898438 25.644531 L 23.429688 26.617188 C 23.402344 26.675781 23.339844 26.707031 23.277344 26.691406 C 23.214844 26.675781 23.171875 26.617188 23.171875 26.554688 L 23.21875 24.960938 L 23.898438 25.644531 " fill-opacity="1" fill-rule="nonzero"/></svg>