<?xml version="1.0" encoding="UTF-8"?>
<!DOCTYPE svg PUBLIC "-//W3C//DTD SVG 1.1//EN" "http://www.w3.org/Graphics/SVG/1.1/DTD/svg11.dtd">
<svg xmlns="http://www.w3.org/2000/svg" version="1.1" width="1846px" height="432px" style="shape-rendering:geometricPrecision; text-rendering:geometricPrecision; image-rendering:optimizeQuality; fill-rule:evenodd; clip-rule:evenodd" xmlns:xlink="http://www.w3.org/1999/xlink">
<g><path style="opacity:0.983" fill="#6dc5c5" d="M 36.5,20.5 C 627.494,23.1741 1218.49,25.5074 1809.5,27.5C 1809.5,38.8333 1809.5,50.1667 1809.5,61.5C 1218.49,59.4925 627.495,57.1592 36.5,54.5C 36.5,43.1667 36.5,31.8333 36.5,20.5 Z"/></g>
<g><path style="opacity:0.981" fill="#01514e" d="M 247.5,103.5 C 259.167,103.5 270.833,103.5 282.5,103.5C 282.5,121.167 282.5,138.833 282.5,156.5C 303.212,156.059 323.879,156.559 344.5,158C 361.564,162.397 371.731,173.23 375,190.5C 375.5,223.498 375.667,256.498 375.5,289.5C 363.833,289.5 352.167,289.5 340.5,289.5C 340.667,259.831 340.5,230.165 340,200.5C 338.712,193.21 334.545,188.377 327.5,186C 312.504,185.5 297.504,185.333 282.5,185.5C 282.5,220.167 282.5,254.833 282.5,289.5C 270.833,289.5 259.167,289.5 247.5,289.5C 247.5,227.5 247.5,165.5 247.5,103.5 Z"/></g>
<g><path style="opacity:0.98" fill="#01514e" d="M 1171.5,103.5 C 1183.17,103.5 1194.83,103.5 1206.5,103.5C 1206.5,165.5 1206.5,227.5 1206.5,289.5C 1177.83,289.667 1149.16,289.5 1120.5,289C 1094.7,286.516 1077.86,273.016 1070,248.5C 1064.71,227.394 1066.04,206.728 1074,186.5C 1082.82,170.493 1096.32,160.993 1114.5,158C 1133.46,156.594 1152.46,156.094 1171.5,156.5C 1171.5,138.833 1171.5,121.167 1171.5,103.5 Z M 1128.5,185.5 C 1142.83,185.5 1157.17,185.5 1171.5,185.5C 1171.5,210.5 1171.5,235.5 1171.5,260.5C 1157.16,260.667 1142.83,260.5 1128.5,260C 1115.42,255.915 1107.59,247.082 1105,233.5C 1102.9,220.761 1104.9,208.761 1111,197.5C 1115.84,191.847 1121.67,187.847 1128.5,185.5 Z"/></g>
<g><path style="opacity:0.966" fill="#01524e" d="M 869.5,111.5 C 881.5,111.5 893.5,111.5 905.5,111.5C 905.5,122.5 905.5,133.5 905.5,144.5C 893.5,144.5 881.5,144.5 869.5,144.5C 869.5,133.5 869.5,122.5 869.5,111.5 Z"/></g>
<g><path style="opacity:0.948" fill="#01514e" d="M 1560.5,111.5 C 1572.17,111.5 1583.83,111.5 1595.5,111.5C 1595.5,122.5 1595.5,133.5 1595.5,144.5C 1583.83,144.5 1572.17,144.5 1560.5,144.5C 1560.5,133.5 1560.5,122.5 1560.5,111.5 Z"/></g>
<g><path style="opacity:0.983" fill="#01514e" d="M 90.5,156.5 C 118.835,156.333 147.169,156.5 175.5,157C 201.867,159.055 219.034,172.555 227,197.5C 232.18,217.819 231.18,237.819 224,257.5C 215.692,274.465 202.192,284.632 183.5,288C 164.203,289.408 144.87,289.908 125.5,289.5C 125.5,307.167 125.5,324.833 125.5,342.5C 113.833,342.5 102.167,342.5 90.5,342.5C 90.5,280.5 90.5,218.5 90.5,156.5 Z M 125.5,185.5 C 139.837,185.333 154.171,185.5 168.5,186C 185.915,192.286 193.915,204.786 192.5,223.5C 193.432,241.704 185.432,253.871 168.5,260C 154.171,260.5 139.837,260.667 125.5,260.5C 125.5,235.5 125.5,210.5 125.5,185.5 Z"/></g>
<g><path style="opacity:0.984" fill="#01514f" d="M 399.5,156.5 C 427.502,156.333 455.502,156.5 483.5,157C 506.923,161.089 520.089,174.922 523,198.5C 523.5,228.832 523.667,259.165 523.5,289.5C 489.832,289.667 456.165,289.5 422.5,289C 400.994,284.657 390.328,271.491 390.5,249.5C 390.206,227.964 400.539,214.797 421.5,210C 443.497,209.5 465.497,209.333 487.5,209.5C 490.199,197.341 485.866,189.174 474.5,185C 449.544,183.548 424.544,183.048 399.5,183.5C 399.5,174.5 399.5,165.5 399.5,156.5 Z M 439.5,236.5 C 455.5,236.5 471.5,236.5 487.5,236.5C 487.5,245.167 487.5,253.833 487.5,262.5C 471.497,262.667 455.497,262.5 439.5,262C 428.82,259.477 425.32,252.977 429,242.5C 431.893,239.274 435.393,237.274 439.5,236.5 Z"/></g>
<g><path style="opacity:0.976" fill="#01514e" d="M 543.5,156.5 C 566.502,156.333 589.502,156.5 612.5,157C 626.314,159.144 635.814,166.644 641,179.5C 642.403,190.102 642.903,200.769 642.5,211.5C 630.833,211.5 619.167,211.5 607.5,211.5C 607.666,205.491 607.499,199.491 607,193.5C 605.737,189.781 603.237,187.281 599.5,186C 592.508,185.5 585.508,185.334 578.5,185.5C 578.5,220.167 578.5,254.833 578.5,289.5C 566.833,289.5 555.167,289.5 543.5,289.5C 543.5,245.167 543.5,200.833 543.5,156.5 Z"/></g>
<g><path style="opacity:0.981" fill="#01514e" d="M 659.5,156.5 C 710.834,156.333 762.168,156.5 813.5,157C 832.471,160.639 844.304,171.805 849,190.5C 849.5,223.498 849.667,256.498 849.5,289.5C 837.833,289.5 826.167,289.5 814.5,289.5C 814.667,259.831 814.5,230.165 814,200.5C 812.712,193.21 808.545,188.377 801.5,186C 791.839,185.5 782.172,185.334 772.5,185.5C 772.5,220.167 772.5,254.833 772.5,289.5C 760.833,289.5 749.167,289.5 737.5,289.5C 737.5,254.833 737.5,220.167 737.5,185.5C 723.167,185.5 708.833,185.5 694.5,185.5C 694.5,220.167 694.5,254.833 694.5,289.5C 682.833,289.5 671.167,289.5 659.5,289.5C 659.5,245.167 659.5,200.833 659.5,156.5 Z"/></g>
<g><path style="opacity:0.995" fill="#01514e" d="M 869.5,156.5 C 881.5,156.5 893.5,156.5 905.5,156.5C 905.5,200.833 905.5,245.167 905.5,289.5C 893.5,289.5 881.5,289.5 869.5,289.5C 869.5,245.167 869.5,200.833 869.5,156.5 Z"/></g>
<g><path style="opacity:0.972" fill="#01514f" d="M 927.5,156.5 C 957.169,156.333 986.835,156.5 1016.5,157C 1035.92,160.755 1047.75,172.255 1052,191.5C 1052.5,224.165 1052.67,256.832 1052.5,289.5C 1040.83,289.5 1029.17,289.5 1017.5,289.5C 1017.67,260.165 1017.5,230.831 1017,201.5C 1016.14,193.644 1011.98,188.478 1004.5,186C 990.837,185.5 977.171,185.333 963.5,185.5C 963.5,220.167 963.5,254.833 963.5,289.5C 951.5,289.5 939.5,289.5 927.5,289.5C 927.5,245.167 927.5,200.833 927.5,156.5 Z"/></g>
<g><path style="opacity:0.982" fill="#01514f" d="M 1277.5,156.5 C 1299.17,156.5 1320.83,156.5 1342.5,156.5C 1342.5,165.5 1342.5,174.5 1342.5,183.5C 1321.14,183.11 1299.8,183.61 1278.5,185C 1267.31,189.186 1261.98,197.353 1262.5,209.5C 1288.17,209.5 1313.83,209.5 1339.5,209.5C 1339.5,218.5 1339.5,227.5 1339.5,236.5C 1313.83,236.5 1288.17,236.5 1262.5,236.5C 1262.29,252.127 1269.96,260.627 1285.5,262C 1304.5,262.5 1323.5,262.667 1342.5,262.5C 1342.5,271.5 1342.5,280.5 1342.5,289.5C 1320.5,289.667 1298.5,289.5 1276.5,289C 1247.78,285.611 1230.61,269.778 1225,241.5C 1222.09,224.142 1223.42,207.142 1229,190.5C 1234.92,176.245 1245.09,166.411 1259.5,161C 1265.55,159.153 1271.55,157.653 1277.5,156.5 Z"/></g>
<g><path style="opacity:0.989" fill="#01514f" d="M 1358.5,156.5 C 1381.5,156.333 1404.5,156.5 1427.5,157C 1445,159.833 1455.17,170 1458,187.5C 1458.5,195.493 1458.67,203.493 1458.5,211.5C 1446.83,211.5 1435.17,211.5 1423.5,211.5C 1423.58,204.835 1423.08,198.502 1422,192.5C 1420.44,189.272 1417.94,187.105 1414.5,186C 1407.84,185.5 1401.17,185.334 1394.5,185.5C 1394.5,220.167 1394.5,254.833 1394.5,289.5C 1382.5,289.5 1370.5,289.5 1358.5,289.5C 1358.5,245.167 1358.5,200.833 1358.5,156.5 Z"/></g>
<g><path style="opacity:0.977" fill="#01514e" d="M 1560.5,156.5 C 1572.17,156.5 1583.83,156.5 1595.5,156.5C 1595.67,206.168 1595.5,255.834 1595,305.5C 1591.57,321.203 1582.4,332.036 1567.5,338C 1562.02,340.121 1556.35,341.454 1550.5,342C 1542.17,342.5 1533.84,342.666 1525.5,342.5C 1525.5,333.5 1525.5,324.5 1525.5,315.5C 1533.71,315.641 1541.71,314.475 1549.5,312C 1554.88,308.957 1558.38,304.457 1560,298.5C 1560.5,251.168 1560.67,203.835 1560.5,156.5 Z"/></g>
<g><path style="opacity:0.974" fill="#01514f" d="M 1618.5,156.5 C 1641.5,156.333 1664.5,156.5 1687.5,157C 1701.31,159.144 1710.81,166.644 1716,179.5C 1717.4,190.102 1717.9,200.769 1717.5,211.5C 1705.83,211.5 1694.17,211.5 1682.5,211.5C 1682.67,205.491 1682.5,199.491 1682,193.5C 1680.74,189.781 1678.24,187.281 1674.5,186C 1667.51,185.5 1660.51,185.334 1653.5,185.5C 1653.5,220.167 1653.5,254.833 1653.5,289.5C 1641.83,289.5 1630.17,289.5 1618.5,289.5C 1618.5,245.167 1618.5,200.833 1618.5,156.5 Z"/></g>
<g><path style="opacity:0.914" fill="#2da9a3" d="M 1754.5,260.5 C 1772.31,258.378 1780.81,266.378 1780,284.5C 1771.66,301.169 1759,313.502 1742,321.5C 1740.03,321.374 1737.86,321.208 1735.5,321C 1727.59,316.216 1722.59,309.216 1720.5,300C 1726.38,282.038 1737.71,268.871 1754.5,260.5 Z M 1757.5,263.5 C 1771.7,263.596 1774.87,269.596 1767,281.5C 1763.67,286.167 1759.67,290.167 1755,293.5C 1752.75,286.23 1750.59,278.564 1748.5,270.5C 1748.53,268.971 1749.2,267.804 1750.5,267C 1752.93,265.787 1755.26,264.621 1757.5,263.5 Z M 1738.5,276.5 C 1739.5,276.5 1740.5,276.5 1741.5,276.5C 1743.67,284.154 1745.5,291.821 1747,299.5C 1741.2,303.909 1734.7,305.742 1727.5,305C 1723.97,301.107 1723.81,296.941 1727,292.5C 1730.61,286.932 1734.44,281.598 1738.5,276.5 Z M 1758.5,296.5 C 1753.24,305.567 1745.74,312.234 1736,316.5C 1733.98,314.65 1732.15,312.65 1730.5,310.5C 1741.23,308.466 1750.57,303.8 1758.5,296.5 Z"/></g>
<g><path style="opacity:0.983" fill="#6dc5c5" d="M 36.5,367.5 C 627.5,369.801 1218.5,372.135 1809.5,374.5C 1809.5,385.833 1809.5,397.167 1809.5,408.5C 1218.5,406.115 627.5,403.782 36.5,401.5C 36.5,390.167 36.5,378.833 36.5,367.5 Z"/></g>
</svg>
