<svg xmlns="http://www.w3.org/2000/svg" xmlns:xlink="http://www.w3.org/1999/xlink" width="80" zoomAndPan="magnify" viewBox="0 0 60 60" height="80" preserveAspectRatio="xMidYMid meet" version="1.0"><path fill="#f9c780" d="M 28.746094 26.578125 L -2.222656 26.578125 L -2.222656 28.097656 L -1 28.097656 L -1 59.394531 L 1.496094 59.394531 L 1.496094 29.925781 L 8.9375 29.925781 L 8.9375 59.300781 L 11.433594 59.300781 L 11.433594 29.925781 L 12.882812 29.925781 L 12.882812 59.394531 L 16.363281 59.394531 L 16.363281 29.925781 L 22.773438 29.925781 L 22.773438 59.222656 L 25.269531 59.222656 L 25.269531 28.097656 L 28.746094 28.097656 Z M 28.746094 26.578125 " fill-opacity="1" fill-rule="nonzero"/><path fill="#fdeccf" d="M 26.363281 44.902344 C 26.363281 44.902344 26.761719 46.496094 26.667969 48.726562 C 26.570312 50.957031 26.484375 53.070312 26.3125 53.53125 C 26.140625 53.992188 22.527344 56.3125 22.527344 56.3125 C 22.527344 56.3125 23.730469 58.46875 23.765625 58.472656 C 23.800781 58.476562 30.503906 57.777344 30.503906 57.777344 C 30.503906 57.777344 30.214844 53.082031 30.292969 51.933594 C 30.375 50.785156 30.851562 47.546875 31.078125 46.511719 C 31.308594 45.476562 31.613281 44.695312 31.613281 44.695312 Z M 26.363281 44.902344 " fill-opacity="1" fill-rule="nonzero"/><path fill="#f9c780" d="M 40.738281 29.617188 C 40.738281 29.617188 36.335938 27.410156 30.5625 28.132812 C 30.5625 28.132812 28.964844 28.355469 27.976562 34.398438 L 27.597656 34.171875 L 24.6875 40.925781 L 24.019531 44.539062 C 27.792969 45.703125 31.613281 45.140625 31.613281 45.140625 C 31.902344 43.085938 32.101562 39.390625 32.179688 37.761719 C 34.207031 38.855469 36.777344 39.941406 39.503906 40.355469 L 48.640625 40.355469 C 48.640625 40.355469 52.28125 39.234375 54.035156 34.15625 C 54.035156 34.15625 46.171875 29.671875 40.738281 29.617188 Z M 40.738281 29.617188 " fill-opacity="1" fill-rule="nonzero"/><path fill="#f9c780" d="M 40.738281 29.617188 C 40.738281 29.617188 35.972656 26.023438 33.449219 24.476562 C 30.925781 22.933594 28.101562 22.5 26.253906 24.355469 C 24.410156 26.214844 23.351562 28.613281 22.375 30.375 C 21.554688 31.855469 18.546875 36.625 17.597656 38.125 C 17.390625 38.449219 17.390625 38.867188 17.597656 39.195312 C 17.949219 39.753906 18.703125 40.570312 20.265625 41.097656 C 22.835938 41.964844 24.28125 41.566406 24.28125 41.566406 C 24.28125 41.566406 27.449219 36.667969 28.300781 33.828125 C 29.152344 30.992188 29.257812 28.386719 32.371094 28.277344 C 35.484375 28.171875 40.738281 29.617188 40.738281 29.617188 Z M 40.738281 29.617188 " fill-opacity="1" fill-rule="nonzero"/><path fill="#af7146" d="M 20.789062 39.539062 C 20.789062 39.539062 18.480469 38.398438 17.785156 38.738281 C 17.089844 39.078125 20.175781 40.925781 20.175781 40.925781 C 20.175781 40.925781 20.882812 40.710938 20.789062 39.539062 Z M 20.789062 39.539062 " fill-opacity="1" fill-rule="nonzero"/><path fill="#f3c3ae" d="M 22.757812 56.160156 C 22.757812 56.160156 23.515625 57.210938 23.738281 57.863281 L 30.46875 57.183594 C 30.46875 57.183594 30.652344 58.15625 30.574219 59.15625 C 30.574219 59.15625 29.308594 59.320312 26.636719 59.324219 C 23.96875 59.324219 20.578125 59.5625 19.445312 59.414062 C 18.316406 59.261719 18.1875 59.171875 18.066406 58.792969 C 17.949219 58.414062 19.71875 57.738281 20.925781 57.160156 C 22.136719 56.582031 22.757812 56.160156 22.757812 56.160156 Z M 22.757812 56.160156 " fill-opacity="1" fill-rule="nonzero"/><path fill="#fdeccf" d="M 46.226562 19.753906 L 44.296875 20.976562 L 43.03125 25.910156 L 46.453125 23.070312 Z M 46.226562 19.753906 " fill-opacity="1" fill-rule="nonzero"/><path fill="#fdeccf" d="M 48.3125 2.324219 C 48.3125 2.324219 46.59375 3.4375 46.992188 6.183594 C 47.039062 6.503906 46.929688 6.835938 46.683594 7.050781 C 46.59375 7.132812 46.507812 7.242188 46.441406 7.382812 C 46.441406 7.382812 46.242188 8.023438 47.414062 7.839844 C 47.414062 7.839844 47.191406 8.644531 47.476562 8.757812 C 47.476562 8.757812 47.378906 9.160156 47.421875 9.691406 C 47.453125 10.0625 47.632812 10.410156 47.9375 10.625 C 48.347656 10.914062 49.089844 11.386719 50.4375 11.0625 L 50.941406 13.609375 C 50.941406 13.609375 50.164062 14.355469 49.519531 14.980469 C 48.875 15.601562 47.816406 17.238281 47.367188 18.273438 C 46.921875 19.3125 46.410156 21.960938 46.410156 21.960938 C 46.410156 21.960938 48.414062 18.511719 49.8125 17.339844 C 51.210938 16.164062 53.300781 14.398438 54.542969 13.996094 C 55.785156 13.597656 56.109375 13.121094 56.109375 13.121094 L 54.839844 12.128906 L 54.570312 9.175781 L 52.402344 2.296875 L 48.875 2.0625 Z M 48.3125 2.324219 " fill-opacity="1" fill-rule="nonzero"/><path fill="#af7146" d="M 47.195312 3.421875 C 47.195312 3.421875 47.78125 1.210938 49.601562 0.628906 C 51.417969 0.0429688 53.0625 0.546875 53.320312 1.0625 C 53.320312 1.0625 55.183594 1.433594 55.601562 3.855469 C 56.015625 6.277344 54.792969 8.035156 54.6875 10.441406 C 54.6875 10.441406 53.484375 9.65625 53.117188 8.558594 C 53.117188 8.558594 52.898438 9.21875 53.089844 9.78125 C 53.089844 9.78125 51.3125 8.496094 51.386719 7.070312 C 51.457031 5.640625 52.195312 4.722656 52.195312 4.722656 L 50.523438 6.039062 C 50.371094 6.15625 50.152344 6.03125 50.179688 5.84375 L 50.429688 4.113281 C 50.429688 4.113281 48.980469 4.019531 48.863281 2.453125 C 48.863281 2.453125 48.691406 3.308594 48.773438 3.761719 C 48.773438 3.761719 47.921875 3.386719 48.257812 2.367188 Z M 47.195312 3.421875 " fill-opacity="1" fill-rule="nonzero"/><path fill="#fdeccf" d="M 51.785156 4.390625 C 51.890625 4.414062 51.984375 4.46875 52.066406 4.554688 C 52.148438 4.644531 52.210938 4.757812 52.257812 4.894531 C 52.304688 5.035156 52.328125 5.1875 52.335938 5.355469 C 52.339844 5.523438 52.320312 5.695312 52.28125 5.867188 C 52.246094 6.039062 52.1875 6.203125 52.113281 6.355469 C 52.035156 6.503906 51.949219 6.632812 51.847656 6.738281 C 51.746094 6.84375 51.640625 6.917969 51.53125 6.964844 C 51.417969 7.007812 51.3125 7.019531 51.207031 6.996094 C 51.101562 6.972656 51.007812 6.917969 50.925781 6.832031 C 50.847656 6.742188 50.78125 6.628906 50.734375 6.492188 C 50.6875 6.351562 50.664062 6.199219 50.660156 6.03125 C 50.65625 5.863281 50.671875 5.691406 50.710938 5.519531 C 50.75 5.347656 50.804688 5.183594 50.882812 5.03125 C 50.957031 4.882812 51.046875 4.753906 51.144531 4.648438 C 51.246094 4.542969 51.351562 4.46875 51.464844 4.421875 C 51.574219 4.378906 51.683594 4.367188 51.785156 4.390625 Z M 51.785156 4.390625 " fill-opacity="1" fill-rule="nonzero"/><path fill="#af7146" d="M 50.542969 13.976562 C 50.542969 13.976562 50.296875 14.355469 49.972656 14.835938 C 49.644531 15.316406 48.242188 16.914062 47.773438 17.960938 C 47.300781 19.011719 47.25 20.382812 47.25 20.382812 C 47.25 20.382812 48.253906 17.628906 50.8125 15.804688 C 53.375 13.976562 54.785156 13.066406 56.386719 13.238281 C 56.386719 13.238281 58.992188 14.445312 59.375 18.675781 C 59.375 18.675781 56.53125 28.984375 54.035156 34.15625 C 54.035156 34.15625 53.171875 36.273438 50.15625 34.484375 C 47.144531 32.695312 42.949219 29.832031 42.949219 29.832031 L 45.765625 23.289062 C 45.765625 23.289062 45.011719 23.089844 45.167969 22.429688 C 45.324219 21.773438 46.496094 19.300781 46.941406 17.800781 C 47.382812 16.300781 47.882812 15.433594 48.660156 14.964844 C 49.4375 14.492188 50.542969 13.976562 50.542969 13.976562 Z M 50.542969 13.976562 " fill-opacity="1" fill-rule="nonzero"/><path fill="#fdeccf" d="M 55.808594 18.011719 C 54.378906 16.347656 51.574219 17.25 51.574219 17.25 L 50.089844 19.351562 C 50.089844 19.351562 47.714844 21.453125 46.398438 22.539062 C 45.609375 23.1875 44.648438 23.820312 43.832031 24.328125 C 44.234375 23.359375 44.578125 22.347656 44.578125 22.347656 C 44.761719 21.167969 44.804688 22.117188 44.871094 20.832031 C 44.941406 19.542969 45.589844 15.691406 45.589844 15.691406 C 46.769531 15.859375 46.925781 15.242188 46.925781 15.242188 C 46.925781 15.242188 47.25 15.492188 47.523438 15.300781 C 47.800781 15.113281 48.613281 14.140625 48.613281 14.140625 C 48.472656 14.507812 48.636719 14.925781 48.734375 14.984375 C 48.835938 15.046875 49.015625 14.984375 49.15625 14.828125 C 49.296875 14.667969 49.636719 14.066406 49.726562 13.941406 C 49.816406 13.816406 50.003906 13.769531 50.164062 13.6875 C 50.324219 13.605469 50.46875 13.128906 50.46875 13.128906 C 50.421875 13.363281 50.441406 13.570312 50.46875 13.722656 C 50.5 13.867188 50.652344 13.953125 50.789062 13.898438 C 51.3125 13.691406 51.222656 13.183594 51.160156 12.804688 C 51.09375 12.371094 50.902344 11.054688 50.714844 10.800781 C 50.53125 10.546875 48.554688 10.554688 48.554688 10.554688 C 47.898438 10.339844 47.667969 10.648438 47.667969 10.648438 C 46.980469 10.277344 46.570312 11.15625 46.570312 11.15625 C 46.28125 11.011719 45.871094 10.996094 45.5 11.210938 C 45.132812 11.429688 43.234375 13.753906 42.949219 14.484375 C 42.664062 15.21875 41.253906 19.949219 40.710938 22.402344 C 40.167969 24.859375 40.046875 26.402344 40.710938 26.703125 C 40.855469 26.765625 41.019531 26.796875 41.195312 26.800781 C 40.886719 27.558594 40.824219 28.421875 41.402344 29.089844 C 42.570312 30.429688 44.335938 30.585938 46.5625 28.742188 C 48.785156 26.898438 49.96875 25.855469 51.746094 24.734375 C 54.933594 22.726562 56.097656 21.25 56.097656 21.25 C 56.097656 21.25 57.238281 19.671875 55.808594 18.011719 Z M 55.808594 18.011719 " fill-opacity="1" fill-rule="nonzero"/><path fill="#af7146" d="M 57.257812 16.03125 C 55.96875 14.429688 54.554688 14.5 52.886719 15.597656 C 51.214844 16.695312 50.089844 19.351562 50.089844 19.351562 C 50.089844 19.351562 50.792969 18.429688 51.53125 17.882812 C 51.890625 17.617188 52.296875 17.570312 52.722656 17.710938 C 53.152344 17.851562 53.746094 18.28125 54.515625 18.972656 C 55.449219 19.8125 55.890625 20.671875 56.097656 21.253906 C 55.8125 21.65625 54.726562 22.726562 54.726562 22.726562 C 55.203125 22.496094 56.277344 21.960938 56.277344 21.960938 C 58.179688 20.859375 58.546875 17.628906 57.257812 16.03125 Z M 57.257812 16.03125 " fill-opacity="1" fill-rule="nonzero"/><path fill="#af7146" d="M 47.75 6.160156 C 47.777344 6.253906 47.785156 6.339844 47.769531 6.417969 C 47.753906 6.492188 47.722656 6.539062 47.671875 6.554688 C 47.621094 6.570312 47.570312 6.546875 47.515625 6.492188 C 47.460938 6.433594 47.417969 6.359375 47.390625 6.265625 C 47.363281 6.167969 47.359375 6.082031 47.375 6.007812 C 47.390625 5.929688 47.421875 5.882812 47.472656 5.867188 C 47.519531 5.855469 47.574219 5.875 47.628906 5.933594 C 47.683594 5.988281 47.722656 6.066406 47.75 6.160156 Z M 47.75 6.160156 " fill-opacity="1" fill-rule="nonzero"/><path fill="#fdeccf" d="M 24.28125 41.566406 L 20.789062 39.539062 L 20.148438 40.992188 C 20.148438 40.992188 19.230469 43.316406 18.675781 44.003906 C 18.117188 44.6875 15.851562 45.007812 15.851562 45.007812 C 15.851562 45.007812 16.992188 46.394531 16.820312 48.105469 C 16.820312 48.105469 18.84375 48.753906 19.832031 48.769531 C 20.816406 48.789062 22.707031 49.277344 22.707031 49.277344 C 22.707031 49.277344 22.933594 48.941406 22.671875 47.957031 C 22.410156 46.972656 22.101562 46.175781 22.980469 44.449219 C 23.855469 42.726562 24.28125 41.566406 24.28125 41.566406 Z M 24.28125 41.566406 " fill-opacity="1" fill-rule="nonzero"/><path fill="#f3c3ae" d="M 16.347656 44.8125 C 16.347656 44.8125 17.070312 45.761719 17.289062 47.523438 C 17.289062 47.523438 18.511719 48.15625 20.066406 48.320312 C 21.621094 48.480469 22.773438 49.089844 22.773438 49.089844 L 22.597656 50.316406 C 22.597656 50.316406 22.726562 50.921875 20.28125 50.570312 C 17.839844 50.21875 16.917969 49.539062 14.953125 49.324219 C 12.988281 49.105469 10.890625 48.175781 9.859375 47.371094 C 8.828125 46.566406 9.171875 46.222656 9.679688 46.042969 C 10.183594 45.859375 14.699219 45.246094 16.347656 44.8125 Z M 16.347656 44.8125 " fill-opacity="1" fill-rule="nonzero"/><path fill="#f9c780" d="M 56.386719 13.238281 L 55.6875 12.246094 C 55.6875 12.246094 52.96875 13.570312 52.144531 14.054688 C 51.324219 14.542969 49.660156 15.851562 49.085938 16.664062 C 48.511719 17.476562 47.476562 19.457031 47.476562 19.457031 C 47.476562 19.457031 47.726562 17.914062 48.609375 16.796875 C 49.488281 15.679688 50.582031 14.621094 50.679688 13.914062 L 50.484375 13.554688 C 50.484375 13.554688 50.207031 14.203125 49.519531 14.980469 C 48.832031 15.753906 47.359375 17.933594 47.195312 19.296875 C 47.03125 20.660156 46.894531 21.160156 46.894531 21.160156 C 46.894531 21.160156 48.945312 17.9375 49.972656 17.003906 C 51.003906 16.074219 56.386719 13.238281 56.386719 13.238281 Z M 56.386719 13.238281 " fill-opacity="1" fill-rule="nonzero"/><path fill="#c97061" d="M 57.667969 30.167969 L 57.132812 29.738281 C 56.207031 28.992188 55.867188 27.734375 56.289062 26.621094 L 59.730469 17.59375 C 60.15625 16.484375 61.246094 15.773438 62.433594 15.832031 L 63.121094 15.863281 Z M 57.667969 30.167969 " fill-opacity="1" fill-rule="nonzero"/><path fill="#c97061" d="M 53.527344 40.191406 L 36.953125 40.191406 C 35.910156 40.191406 35.070312 41.035156 35.070312 42.074219 L 54.054688 44.03125 Z M 53.527344 40.191406 " fill-opacity="1" fill-rule="nonzero"/><path fill="#f3c3ae" d="M 56.699219 39.71875 L 65.917969 16.316406 C 66 16.109375 65.886719 15.871094 65.667969 15.785156 L 63.546875 14.957031 C 63.328125 14.871094 63.085938 14.96875 63.003906 15.179688 L 56.820312 30.972656 L 35.878906 30.972656 C 35.722656 30.972656 35.59375 31.101562 35.59375 31.257812 L 35.59375 33.453125 C 35.59375 33.609375 35.722656 33.738281 35.878906 33.738281 L 37.957031 33.738281 L 37.957031 42.074219 L 34.269531 42.074219 C 34.148438 42.074219 34.039062 42.152344 34.003906 42.269531 L 28.730469 59.964844 L 32.238281 59.96875 L 36.769531 44.765625 L 53.726562 44.765625 L 58.261719 59.96875 L 61.765625 59.964844 L 56.433594 42.074219 L 56.429688 42.074219 L 56.429688 41.136719 C 56.429688 40.652344 56.519531 40.171875 56.699219 39.71875 Z M 52.925781 42.074219 L 39.882812 42.074219 L 39.882812 33.738281 L 55.734375 33.738281 L 53.125 40.402344 L 53.125 42.074219 Z M 52.925781 42.074219 " fill-opacity="1" fill-rule="nonzero"/><path fill="#fdeccf" d="M 20.578125 25.902344 L 16.363281 25.902344 L 15.085938 17.320312 C 15.046875 17.046875 14.8125 16.84375 14.535156 16.847656 L 2.4375 16.945312 C 2.089844 16.949219 1.832031 17.265625 1.898438 17.609375 L 3.535156 25.902344 L 3.648438 25.902344 C 3.53125 25.902344 3.453125 26.019531 3.503906 26.125 L 3.671875 26.566406 C 3.695312 26.621094 3.753906 26.65625 3.816406 26.65625 L 20.410156 26.65625 C 20.472656 26.65625 20.527344 26.621094 20.554688 26.566406 L 20.722656 26.125 C 20.769531 26.019531 20.695312 25.902344 20.578125 25.902344 Z M 20.578125 25.902344 " fill-opacity="1" fill-rule="nonzero"/><path fill="#f9c780" d="M 15.476562 25.277344 L 4.210938 25.277344 L 2.910156 17.984375 L 14.203125 17.871094 Z M 15.476562 25.277344 " fill-opacity="1" fill-rule="nonzero"/><path fill="#c97061" d="M 6.394531 25.277344 C 6.394531 25.277344 6.363281 22.703125 7.441406 22.296875 C 8.519531 21.886719 10.9375 21.875 11.367188 22.21875 C 11.753906 22.53125 12.667969 24.265625 13.03125 24.976562 C 13.101562 25.113281 13.003906 25.277344 12.847656 25.277344 Z M 6.394531 25.277344 " fill-opacity="1" fill-rule="nonzero"/><path fill="#af7146" d="M 9.4375 19.054688 C 9.4375 19.054688 9.984375 18.921875 10.199219 19.257812 C 10.414062 19.59375 10.5625 21.574219 10.5625 21.574219 L 9.363281 21.679688 L 9.128906 19.203125 Z M 9.4375 19.054688 " fill-opacity="1" fill-rule="nonzero"/><path fill="#fdeccf" d="M 10.117188 20.050781 C 10.023438 19.410156 9.832031 19.257812 9.832031 19.257812 C 9.832031 19.257812 8.960938 19.230469 8.535156 19.589844 C 8.113281 19.949219 8.535156 21 8.535156 21 C 8.535156 21 8.539062 21 8.546875 21.007812 L 8.546875 22.050781 L 8.234375 22.097656 C 8.234375 22.097656 9.496094 22.777344 9.765625 22.722656 C 10.035156 22.664062 10.023438 21.976562 10.023438 21.976562 L 9.515625 21.972656 L 9.445312 21.433594 C 9.589844 21.476562 9.730469 21.507812 9.847656 21.5 C 10.308594 21.476562 10.214844 20.691406 10.117188 20.050781 Z M 10.117188 20.050781 " fill-opacity="1" fill-rule="nonzero"/><path fill="#af7146" d="M 9.4375 19.054688 C 9.4375 19.054688 9.363281 20.320312 9.027344 20.832031 C 8.691406 21.339844 8.730469 21.777344 8.730469 21.777344 L 7.816406 21.777344 C 7.816406 21.777344 7.777344 19.738281 8.234375 19.324219 C 8.691406 18.90625 9.4375 19.054688 9.4375 19.054688 Z M 9.4375 19.054688 " fill-opacity="1" fill-rule="nonzero"/><path fill="#fdeccf" d="M 12.90625 25.113281 C 12.90625 25.113281 13.363281 24.21875 13.625 23.800781 C 13.691406 23.800781 13.753906 23.773438 13.804688 23.734375 C 13.859375 23.695312 13.898438 23.644531 13.933594 23.589844 C 13.96875 23.539062 14.015625 23.492188 14.042969 23.4375 C 14.089844 23.351562 14.132812 23.269531 14.179688 23.183594 C 14.191406 23.160156 14.203125 23.136719 14.210938 23.113281 C 14.222656 23.0625 14.230469 23.003906 14.207031 22.960938 C 14.195312 22.941406 14.207031 22.921875 14.214844 22.902344 C 14.242188 22.839844 14.238281 22.765625 14.210938 22.707031 C 14.230469 22.675781 14.242188 22.640625 14.25 22.605469 C 14.253906 22.589844 14.257812 22.574219 14.25 22.558594 C 14.242188 22.527344 14.207031 22.515625 14.175781 22.519531 C 14.144531 22.527344 14.101562 22.566406 14.074219 22.582031 C 14.035156 22.578125 13.992188 22.59375 13.960938 22.617188 C 13.929688 22.640625 13.902344 22.675781 13.878906 22.707031 C 13.789062 22.835938 13.707031 22.964844 13.585938 23.058594 C 13.554688 23.003906 13.523438 22.949219 13.519531 22.886719 C 13.515625 22.863281 13.519531 22.839844 13.519531 22.8125 C 13.527344 22.683594 13.488281 22.546875 13.410156 22.4375 C 13.398438 22.421875 13.382812 22.402344 13.359375 22.398438 C 13.335938 22.394531 13.308594 22.445312 13.320312 22.460938 C 13.332031 22.585938 13.300781 22.765625 13.269531 22.90625 C 13.238281 23.054688 13.230469 23.207031 13.242188 23.359375 L 13.253906 23.496094 L 12.558594 24.300781 C 12.523438 24.386719 12.496094 24.464844 12.476562 24.539062 C 12.390625 24.824219 12.605469 25.113281 12.90625 25.113281 Z M 12.90625 25.113281 " fill-opacity="1" fill-rule="nonzero"/><path fill="#af7146" d="M 0.25 29.910156 L 1.539062 29.910156 L 1.539062 59.394531 L 0.25 59.394531 Z M 12.859375 28.097656 L 12.882812 45.472656 C 13.613281 45.351562 14.363281 45.222656 15.019531 45.097656 L 15 28.097656 Z M 8.9375 59.300781 L 11.433594 59.300781 L 11.433594 48.296875 C 10.796875 48 10.25 47.675781 9.859375 47.371094 C 8.828125 46.566406 9.171875 46.222656 9.679688 46.042969 C 9.859375 45.976562 10.546875 45.859375 11.433594 45.710938 L 11.433594 29.910156 L 8.9375 29.910156 Z M 12.882812 48.863281 L 12.882812 59.394531 L 15.015625 59.394531 L 15.015625 49.332031 C 14.996094 49.328125 14.976562 49.324219 14.953125 49.324219 C 14.261719 49.246094 13.554688 49.082031 12.882812 48.863281 Z M 49.847656 10.941406 C 48.914062 11.199219 47.808594 10.542969 47.808594 10.542969 C 47.734375 10.574219 47.667969 10.648438 47.667969 10.648438 C 47.667969 10.648438 47.476562 10.53125 47.195312 10.574219 C 46.804688 10.636719 46.570312 11.15625 46.570312 11.15625 L 46.835938 11.722656 C 47.148438 11.3125 48.023438 12.011719 48.023438 12.011719 C 48.382812 11.757812 49.289062 12.539062 49.289062 12.539062 C 49.453125 12.007812 50.125 12.152344 50.125 12.152344 C 50.324219 11.972656 50.671875 12.246094 50.671875 12.246094 L 51.871094 10.132812 C 51.300781 10.507812 49.847656 10.941406 49.847656 10.941406 Z M 46.226562 19.753906 L 44.917969 20.582031 L 45.128906 18.640625 L 43.363281 24.613281 L 45.542969 23.195312 C 45.335938 23.078125 45.070312 22.847656 45.167969 22.429688 C 45.265625 22.019531 45.761719 20.902344 46.226562 19.753906 Z M 24.6875 40.925781 L 24.019531 44.539062 C 27.792969 45.703125 31.613281 45.140625 31.613281 45.140625 C 31.902344 43.085938 32.101562 39.390625 32.179688 37.761719 C 29.589844 36.367188 27.648438 34.734375 27.648438 34.730469 C 26.769531 36.855469 25.425781 39.730469 24.6875 40.925781 Z M 20.789062 39.539062 L 20.585938 40.003906 L 23.835938 42.648438 L 24.28125 41.566406 Z M 20.789062 39.539062 " fill-opacity="0.298" fill-rule="nonzero"/><path fill="#af7146" d="M 48.21875 12.613281 C 48.246094 12.753906 48.238281 12.902344 48.191406 13.039062 C 48.171875 13.105469 48.136719 13.171875 48.101562 13.230469 C 48.070312 13.285156 48.035156 13.34375 48 13.398438 C 47.871094 13.605469 47.742188 13.816406 47.609375 14.019531 C 47.621094 14.070312 47.632812 14.121094 47.636719 14.171875 C 47.65625 14.292969 47.652344 14.433594 47.601562 14.554688 C 47.550781 14.679688 47.445312 14.789062 47.316406 14.832031 C 47.253906 14.859375 47.183594 14.867188 47.117188 14.867188 C 47.097656 14.867188 47.082031 14.863281 47.0625 14.859375 C 47.042969 14.855469 47.015625 14.847656 47 14.835938 C 46.984375 14.824219 46.96875 14.8125 46.953125 14.800781 C 46.910156 14.859375 46.859375 14.910156 46.804688 14.957031 C 46.816406 14.980469 46.832031 15.007812 46.84375 15.03125 C 46.863281 15.058594 46.878906 15.085938 46.894531 15.109375 C 46.910156 15.136719 46.929688 15.15625 46.949219 15.175781 C 46.96875 15.195312 46.996094 15.207031 47.03125 15.226562 L 47.035156 15.230469 C 47.046875 15.238281 47.050781 15.253906 47.042969 15.265625 C 47.039062 15.273438 47.035156 15.277344 47.03125 15.277344 C 46.988281 15.292969 46.9375 15.292969 46.894531 15.277344 C 46.847656 15.257812 46.8125 15.226562 46.785156 15.1875 C 46.757812 15.152344 46.742188 15.109375 46.734375 15.070312 C 46.730469 15.054688 46.730469 15.039062 46.726562 15.019531 C 46.613281 15.105469 46.488281 15.175781 46.355469 15.234375 C 46.230469 15.285156 46.09375 15.324219 45.945312 15.316406 C 45.871094 15.308594 45.789062 15.289062 45.722656 15.230469 C 45.660156 15.171875 45.628906 15.082031 45.625 15.007812 C 45.617188 14.855469 45.667969 14.722656 45.71875 14.597656 C 45.773438 14.472656 45.835938 14.355469 45.910156 14.242188 C 46.058594 14.019531 46.222656 13.808594 46.429688 13.632812 C 46.441406 13.621094 46.457031 13.621094 46.46875 13.636719 C 46.476562 13.644531 46.476562 13.664062 46.46875 13.671875 L 46.46875 13.675781 C 46.289062 13.863281 46.140625 14.082031 46.007812 14.300781 C 45.945312 14.414062 45.886719 14.527344 45.835938 14.644531 C 45.789062 14.761719 45.75 14.886719 45.757812 14.996094 C 45.765625 15.109375 45.835938 15.175781 45.953125 15.1875 C 46.070312 15.195312 46.195312 15.164062 46.3125 15.121094 C 46.433594 15.082031 46.550781 15.023438 46.65625 14.957031 C 46.75 14.902344 46.835938 14.835938 46.914062 14.757812 C 46.746094 14.566406 46.65625 14.339844 46.589844 14.109375 C 46.527344 13.882812 46.507812 13.644531 46.515625 13.40625 C 46.25 13.015625 45.988281 12.625 45.726562 12.230469 C 45.71875 12.21875 45.71875 12.203125 45.730469 12.195312 C 45.742188 12.1875 45.757812 12.191406 45.765625 12.199219 C 46.050781 12.585938 46.335938 12.972656 46.613281 13.359375 C 46.621094 13.371094 46.625 13.382812 46.621094 13.390625 L 46.621094 13.394531 C 46.617188 13.625 46.644531 13.855469 46.707031 14.078125 C 46.773438 14.296875 46.867188 14.515625 47.011719 14.679688 C 47.03125 14.695312 47.050781 14.714844 47.066406 14.722656 C 47.078125 14.730469 47.078125 14.726562 47.085938 14.730469 C 47.097656 14.734375 47.109375 14.734375 47.121094 14.734375 C 47.171875 14.738281 47.222656 14.726562 47.269531 14.710938 C 47.363281 14.675781 47.4375 14.597656 47.476562 14.503906 C 47.558594 14.3125 47.488281 14.074219 47.433594 13.851562 C 47.375 13.625 47.300781 13.398438 47.234375 13.167969 C 47.203125 13.054688 47.175781 12.9375 47.152344 12.816406 C 47.132812 12.699219 47.113281 12.59375 47.074219 12.480469 C 46.933594 12.035156 46.742188 11.597656 46.542969 11.171875 C 46.535156 11.15625 46.542969 11.140625 46.558594 11.132812 C 46.570312 11.125 46.589844 11.132812 46.59375 11.144531 C 46.8125 11.566406 47.027344 11.992188 47.179688 12.445312 C 47.21875 12.558594 47.25 12.683594 47.269531 12.796875 C 47.292969 12.910156 47.324219 13.023438 47.355469 13.136719 C 47.421875 13.359375 47.496094 13.585938 47.5625 13.816406 C 47.570312 13.851562 47.578125 13.886719 47.585938 13.921875 C 47.6875 13.726562 47.792969 13.53125 47.898438 13.339844 C 47.929688 13.28125 47.960938 13.222656 47.992188 13.167969 C 48.027344 13.109375 48.050781 13.058594 48.070312 13 C 48.105469 12.882812 48.109375 12.757812 48.085938 12.640625 C 48.035156 12.386719 47.964844 12.128906 47.894531 11.878906 C 47.816406 11.628906 47.734375 11.378906 47.621094 11.144531 C 47.613281 11.132812 47.617188 11.117188 47.632812 11.109375 C 47.644531 11.101562 47.65625 11.109375 47.664062 11.117188 C 47.8125 11.34375 47.914062 11.59375 48.003906 11.84375 C 48.089844 12.097656 48.15625 12.351562 48.21875 12.613281 Z M 49.042969 13.558594 L 49.324219 13.199219 C 49.371094 13.136719 49.417969 13.074219 49.457031 13 C 49.46875 12.980469 49.476562 12.960938 49.484375 12.9375 C 49.488281 12.925781 49.492188 12.894531 49.492188 12.886719 C 49.488281 12.871094 49.488281 12.859375 49.484375 12.847656 C 49.476562 12.800781 49.460938 12.765625 49.449219 12.726562 C 49.324219 12.4375 49.171875 12.175781 49.011719 11.914062 C 48.84375 11.65625 48.683594 11.394531 48.46875 11.167969 C 48.457031 11.160156 48.441406 11.15625 48.433594 11.167969 C 48.421875 11.175781 48.421875 11.191406 48.429688 11.203125 C 48.523438 11.320312 48.601562 11.449219 48.679688 11.578125 C 48.761719 11.707031 48.835938 11.839844 48.910156 11.972656 C 49.058594 12.238281 49.210938 12.503906 49.320312 12.777344 C 49.335938 12.8125 49.347656 12.84375 49.355469 12.875 C 49.355469 12.882812 49.355469 12.886719 49.359375 12.894531 C 49.359375 12.902344 49.359375 12.890625 49.359375 12.898438 C 49.355469 12.910156 49.347656 12.925781 49.339844 12.9375 C 49.308594 13 49.265625 13.0625 49.21875 13.121094 C 49.128906 13.238281 49.035156 13.363281 48.949219 13.488281 C 48.761719 13.734375 48.609375 13.996094 48.417969 14.230469 C 48.40625 14.242188 48.410156 14.257812 48.417969 14.269531 C 48.429688 14.28125 48.449219 14.28125 48.460938 14.269531 C 48.570312 14.160156 48.667969 14.039062 48.761719 13.921875 C 48.855469 13.796875 48.949219 13.675781 49.042969 13.558594 Z M 47.113281 7.398438 C 47.132812 7.449219 47.1875 7.480469 47.242188 7.464844 L 47.304688 7.445312 C 47.359375 7.425781 47.386719 7.371094 47.371094 7.316406 L 46.703125 5.199219 C 47.015625 5.1875 47.328125 5.171875 47.640625 5.15625 L 48.714844 5.085938 L 49.789062 4.996094 C 50.148438 4.964844 50.503906 4.929688 50.863281 4.886719 C 50.875 4.882812 50.886719 4.875 50.882812 4.859375 C 50.882812 4.847656 50.871094 4.835938 50.859375 4.835938 C 50.5 4.84375 50.140625 4.863281 49.78125 4.882812 L 48.707031 4.949219 L 47.632812 5.039062 C 47.316406 5.066406 47 5.097656 46.683594 5.132812 L 46.558594 4.734375 C 46.542969 4.683594 46.484375 4.652344 46.429688 4.667969 L 46.371094 4.6875 C 46.316406 4.703125 46.285156 4.761719 46.300781 4.816406 Z M 45.792969 23.019531 C 45.804688 23.035156 45.800781 23.050781 45.789062 23.058594 C 45.59375 23.214844 45.394531 23.363281 45.195312 23.507812 C 44.992188 23.652344 44.78125 23.789062 44.570312 23.917969 C 44.152344 24.183594 43.726562 24.4375 43.3125 24.707031 C 42.894531 24.96875 42.484375 25.246094 42.125 25.574219 C 41.765625 25.90625 41.480469 26.3125 41.246094 26.746094 C 41.242188 26.757812 41.226562 26.765625 41.214844 26.757812 C 41.199219 26.75 41.195312 26.738281 41.203125 26.722656 C 41.308594 26.5 41.421875 26.277344 41.5625 26.070312 C 41.707031 25.863281 41.867188 25.667969 42.042969 25.492188 C 42.40625 25.140625 42.820312 24.859375 43.238281 24.59375 C 43.578125 24.378906 43.921875 24.171875 44.265625 23.964844 L 44.410156 23.160156 L 44.558594 22.296875 L 44.714844 21.429688 L 44.796875 21 L 44.839844 20.785156 L 44.875 20.621094 L 44.882812 20.59375 L 44.890625 20.570312 L 44.890625 20.566406 C 44.867188 20.5625 44.949219 20.539062 44.945312 20.570312 C 44.945312 20.574219 44.945312 20.578125 44.945312 20.582031 C 44.945312 20.589844 44.945312 20.59375 44.941406 20.597656 L 44.941406 20.609375 L 44.9375 20.632812 L 44.929688 20.6875 L 44.917969 20.796875 L 44.890625 21.015625 L 44.832031 21.449219 C 44.789062 21.742188 44.738281 22.03125 44.691406 22.320312 C 44.636719 22.605469 44.585938 22.894531 44.523438 23.183594 C 44.46875 23.429688 44.40625 23.679688 44.335938 23.921875 C 44.394531 23.886719 44.453125 23.855469 44.507812 23.820312 C 44.9375 23.570312 45.347656 23.296875 45.753906 23.015625 C 45.765625 23.003906 45.785156 23.007812 45.792969 23.019531 Z M 44.890625 20.582031 C 44.890625 20.585938 44.890625 20.585938 44.890625 20.589844 C 44.890625 20.59375 44.894531 20.597656 44.898438 20.601562 C 44.894531 20.59375 44.890625 20.589844 44.890625 20.582031 Z M 52.132812 9.933594 L 52.128906 9.933594 C 51.972656 10.039062 51.800781 10.128906 51.625 10.210938 C 51.453125 10.292969 51.277344 10.375 51.097656 10.449219 C 50.742188 10.597656 50.390625 10.753906 50.015625 10.835938 C 49.648438 10.925781 49.261719 10.957031 48.886719 10.90625 C 48.703125 10.878906 48.519531 10.816406 48.34375 10.75 C 48.164062 10.679688 47.988281 10.601562 47.816406 10.515625 L 47.816406 10.511719 C 47.800781 10.507812 47.785156 10.511719 47.777344 10.523438 C 47.769531 10.539062 47.773438 10.554688 47.785156 10.5625 C 48.121094 10.765625 48.472656 10.941406 48.867188 11.019531 C 49.15625 11.070312 49.449219 11.066406 49.738281 11.023438 C 49.824219 11.054688 49.90625 11.105469 49.976562 11.167969 C 50.078125 11.261719 50.167969 11.375 50.242188 11.496094 C 50.394531 11.742188 50.511719 12.011719 50.613281 12.285156 C 50.714844 12.558594 50.839844 12.832031 50.859375 13.109375 C 50.871094 13.246094 50.839844 13.386719 50.722656 13.445312 C 50.664062 13.476562 50.613281 13.480469 50.558594 13.4375 C 50.523438 13.410156 50.496094 13.367188 50.46875 13.324219 C 50.484375 13.289062 50.5 13.253906 50.511719 13.21875 C 50.546875 13.105469 50.558594 12.992188 50.539062 12.871094 C 50.519531 12.753906 50.472656 12.65625 50.429688 12.554688 C 50.335938 12.355469 50.21875 12.171875 50.085938 12 C 49.824219 11.660156 49.507812 11.34375 49.109375 11.164062 C 49.097656 11.15625 49.082031 11.164062 49.074219 11.175781 C 49.070312 11.1875 49.074219 11.203125 49.085938 11.210938 C 49.273438 11.308594 49.4375 11.441406 49.585938 11.589844 C 49.738281 11.734375 49.875 11.898438 49.996094 12.066406 C 50.113281 12.238281 50.226562 12.417969 50.3125 12.605469 C 50.351562 12.703125 50.394531 12.796875 50.410156 12.894531 C 50.425781 12.980469 50.414062 13.089844 50.382812 13.179688 C 50.332031 13.363281 50.171875 13.496094 50.003906 13.625 L 49.875 13.71875 C 49.824219 13.757812 49.785156 13.800781 49.75 13.84375 C 49.679688 13.929688 49.621094 14.019531 49.5625 14.109375 C 49.445312 14.285156 49.332031 14.46875 49.207031 14.632812 C 49.144531 14.71875 49.074219 14.796875 48.996094 14.859375 C 48.917969 14.917969 48.820312 14.941406 48.746094 14.875 C 48.734375 14.863281 48.714844 14.863281 48.703125 14.875 C 48.695312 14.886719 48.695312 14.902344 48.707031 14.914062 L 48.707031 14.917969 C 48.75 14.957031 48.808594 14.988281 48.875 14.980469 C 48.9375 14.980469 48.992188 14.953125 49.039062 14.921875 C 49.136719 14.859375 49.210938 14.777344 49.28125 14.695312 C 49.417969 14.527344 49.535156 14.347656 49.660156 14.171875 C 49.71875 14.085938 49.78125 14 49.847656 13.921875 C 49.878906 13.882812 49.914062 13.847656 49.949219 13.820312 L 50.078125 13.726562 C 50.164062 13.664062 50.253906 13.597656 50.332031 13.515625 C 50.371094 13.476562 50.402344 13.433594 50.433594 13.386719 C 50.453125 13.425781 50.476562 13.460938 50.511719 13.492188 C 50.542969 13.523438 50.585938 13.546875 50.632812 13.550781 C 50.679688 13.558594 50.722656 13.542969 50.761719 13.527344 C 50.839844 13.492188 50.90625 13.421875 50.933594 13.34375 C 50.96875 13.265625 50.972656 13.183594 50.972656 13.105469 C 50.972656 12.949219 50.933594 12.800781 50.886719 12.65625 C 50.839844 12.511719 50.792969 12.378906 50.742188 12.238281 C 50.632812 11.960938 50.511719 11.683594 50.34375 11.433594 C 50.257812 11.308594 50.15625 11.191406 50.035156 11.09375 C 49.988281 11.058594 49.9375 11.027344 49.882812 11 C 49.9375 10.992188 49.992188 10.980469 50.046875 10.96875 C 50.433594 10.875 50.792969 10.714844 51.144531 10.554688 C 51.496094 10.386719 51.851562 10.21875 52.160156 9.976562 C 52.171875 9.96875 52.175781 9.953125 52.167969 9.941406 C 52.160156 9.929688 52.144531 9.925781 52.132812 9.933594 Z M 44.941406 20.59375 C 44.945312 20.59375 44.941406 20.59375 44.945312 20.59375 C 44.945312 20.589844 44.945312 20.589844 44.945312 20.589844 Z M 44.945312 20.59375 L 44.941406 20.597656 C 44.949219 20.59375 44.949219 20.59375 44.945312 20.59375 Z M 48.332031 8.507812 C 48.25 8.558594 48.164062 8.601562 48.070312 8.632812 C 47.976562 8.664062 47.878906 8.683594 47.78125 8.699219 C 47.683594 8.714844 47.582031 8.726562 47.480469 8.730469 C 47.464844 8.730469 47.457031 8.738281 47.453125 8.753906 C 47.449219 8.769531 47.457031 8.785156 47.472656 8.789062 C 47.578125 8.816406 47.683594 8.820312 47.792969 8.816406 C 47.902344 8.816406 48.007812 8.796875 48.113281 8.761719 C 48.21875 8.726562 48.316406 8.671875 48.402344 8.601562 C 48.460938 8.550781 48.507812 8.492188 48.542969 8.425781 C 48.566406 8.480469 48.59375 8.53125 48.625 8.578125 C 48.667969 8.648438 48.714844 8.714844 48.773438 8.773438 C 48.78125 8.78125 48.792969 8.78125 48.800781 8.78125 C 48.816406 8.773438 48.820312 8.757812 48.816406 8.746094 C 48.789062 8.671875 48.757812 8.597656 48.730469 8.527344 L 48.636719 8.3125 L 48.546875 8.097656 C 48.515625 8.023438 48.484375 7.953125 48.449219 7.882812 C 48.441406 7.871094 48.433594 7.863281 48.421875 7.863281 C 48.402344 7.867188 48.390625 7.878906 48.394531 7.894531 C 48.398438 7.976562 48.414062 8.058594 48.433594 8.136719 C 48.453125 8.207031 48.476562 8.28125 48.507812 8.347656 C 48.453125 8.410156 48.398438 8.464844 48.332031 8.507812 Z M 51.144531 5.789062 L 51.148438 5.785156 C 51.238281 5.730469 51.359375 5.699219 51.46875 5.664062 C 51.578125 5.632812 51.65625 5.660156 51.667969 5.757812 C 51.683594 5.84375 51.617188 5.941406 51.53125 6.023438 C 51.449219 6.109375 51.359375 6.183594 51.257812 6.253906 C 51.25 6.261719 51.246094 6.277344 51.25 6.289062 C 51.257812 6.300781 51.273438 6.304688 51.285156 6.300781 C 51.398438 6.246094 51.503906 6.175781 51.597656 6.097656 C 51.644531 6.054688 51.695312 6.011719 51.734375 5.953125 C 51.773438 5.894531 51.800781 5.820312 51.792969 5.742188 C 51.785156 5.667969 51.742188 5.582031 51.660156 5.546875 C 51.582031 5.511719 51.503906 5.519531 51.4375 5.535156 C 51.375 5.554688 51.3125 5.570312 51.253906 5.59375 C 51.355469 5.410156 51.496094 5.246094 51.671875 5.117188 C 51.683594 5.109375 51.6875 5.09375 51.679688 5.078125 C 51.675781 5.066406 51.65625 5.058594 51.640625 5.066406 C 51.382812 5.203125 51.167969 5.433594 51.054688 5.707031 C 51.046875 5.726562 51.046875 5.746094 51.058594 5.765625 C 51.078125 5.796875 51.117188 5.804688 51.144531 5.789062 Z M 40.871094 29.589844 C 39.875 29.273438 38.855469 29.050781 37.835938 28.851562 C 36.8125 28.65625 35.78125 28.503906 34.742188 28.394531 C 34.222656 28.34375 33.703125 28.300781 33.179688 28.292969 C 32.660156 28.28125 32.132812 28.28125 31.613281 28.382812 C 31.09375 28.480469 30.597656 28.683594 30.160156 28.980469 C 29.796875 29.234375 29.476562 29.554688 29.242188 29.9375 C 29.28125 29.730469 29.316406 29.527344 29.34375 29.320312 C 29.421875 28.691406 29.457031 28.046875 29.355469 27.414062 C 29.351562 27.402344 29.339844 27.390625 29.324219 27.394531 C 29.3125 27.398438 29.300781 27.410156 29.304688 27.425781 C 29.390625 28.046875 29.34375 28.683594 29.253906 29.308594 C 29.164062 29.929688 29.015625 30.546875 28.84375 31.152344 C 28.5 32.371094 28.058594 33.558594 27.574219 34.726562 C 27.09375 35.894531 26.5625 37.042969 26.007812 38.183594 C 25.730469 38.75 25.445312 39.316406 25.152344 39.878906 C 24.863281 40.441406 24.566406 41 24.257812 41.550781 C 24.25 41.566406 24.253906 41.582031 24.269531 41.589844 C 24.28125 41.601562 24.300781 41.59375 24.308594 41.582031 C 24.421875 41.386719 24.53125 41.191406 24.640625 41 C 24.582031 41.273438 24.519531 41.546875 24.46875 41.820312 C 24.40625 42.121094 24.347656 42.417969 24.289062 42.71875 C 24.171875 43.320312 24.066406 43.925781 23.960938 44.527344 C 23.953125 44.5625 23.976562 44.59375 24.007812 44.597656 L 24.761719 44.742188 C 25.011719 44.789062 25.261719 44.828125 25.515625 44.875 C 25.527344 44.875 25.539062 44.867188 25.542969 44.855469 C 25.546875 44.839844 25.539062 44.828125 25.523438 44.824219 C 25.277344 44.765625 25.027344 44.703125 24.78125 44.648438 L 24.089844 44.492188 C 24.203125 43.910156 24.3125 43.328125 24.417969 42.742188 C 24.472656 42.441406 24.519531 42.140625 24.570312 41.839844 C 24.625 41.535156 24.667969 41.234375 24.714844 40.929688 C 24.714844 40.917969 24.707031 40.90625 24.695312 40.902344 C 25.191406 40.023438 25.664062 39.136719 26.113281 38.234375 C 26.675781 37.109375 27.203125 35.964844 27.6875 34.804688 C 28.023438 35.082031 28.363281 35.347656 28.710938 35.605469 C 29.078125 35.878906 29.457031 36.144531 29.835938 36.402344 C 30.214844 36.65625 30.601562 36.90625 30.996094 37.144531 C 31.390625 37.378906 31.792969 37.597656 32.203125 37.804688 C 32.214844 37.8125 32.230469 37.804688 32.238281 37.792969 C 32.246094 37.78125 32.242188 37.765625 32.226562 37.757812 C 32.03125 37.640625 31.832031 37.53125 31.640625 37.40625 C 31.441406 37.289062 31.25 37.167969 31.054688 37.042969 C 30.671875 36.796875 30.285156 36.550781 29.910156 36.289062 C 29.53125 36.035156 29.15625 35.773438 28.78125 35.511719 L 28.222656 35.113281 C 28.050781 34.992188 27.882812 34.867188 27.714844 34.746094 C 27.953125 34.167969 28.175781 33.585938 28.382812 33 C 28.597656 32.402344 28.789062 31.796875 28.953125 31.183594 C 29.050781 30.828125 29.136719 30.464844 29.210938 30.101562 C 29.449219 29.679688 29.808594 29.324219 30.214844 29.054688 C 30.640625 28.773438 31.128906 28.582031 31.636719 28.496094 C 32.140625 28.40625 32.660156 28.402344 33.179688 28.417969 C 33.695312 28.433594 34.214844 28.476562 34.730469 28.527344 C 35.761719 28.632812 36.789062 28.785156 37.8125 28.96875 C 38.324219 29.0625 38.835938 29.15625 39.339844 29.269531 C 39.847656 29.382812 40.355469 29.496094 40.851562 29.644531 C 40.867188 29.652344 40.882812 29.644531 40.886719 29.628906 C 40.894531 29.613281 40.882812 29.597656 40.871094 29.589844 Z M 28.214844 30.402344 C 28.308594 30.253906 28.367188 30.09375 28.421875 29.933594 C 28.476562 29.773438 28.515625 29.605469 28.550781 29.4375 C 28.582031 29.269531 28.601562 29.101562 28.617188 28.933594 L 28.628906 28.679688 C 28.628906 28.59375 28.628906 28.507812 28.628906 28.425781 C 28.625 28.414062 28.617188 28.402344 28.605469 28.398438 C 28.589844 28.398438 28.578125 28.40625 28.574219 28.421875 L 28.5 28.921875 C 28.472656 29.085938 28.449219 29.25 28.414062 29.414062 C 28.386719 29.578125 28.347656 29.738281 28.308594 29.902344 C 28.269531 30.0625 28.222656 30.222656 28.164062 30.375 L 28.164062 30.378906 C 28.160156 30.390625 28.164062 30.40625 28.175781 30.414062 C 28.1875 30.421875 28.207031 30.417969 28.214844 30.402344 Z M 11.03125 25.96875 C 11.003906 26.09375 10.972656 26.214844 10.917969 26.316406 C 10.886719 26.378906 10.84375 26.429688 10.792969 26.472656 C 10.742188 26.511719 10.675781 26.53125 10.601562 26.554688 C 10.589844 26.558594 10.582031 26.566406 10.582031 26.574219 C 10.578125 26.589844 10.589844 26.601562 10.601562 26.605469 C 10.683594 26.617188 10.773438 26.613281 10.855469 26.570312 C 10.933594 26.527344 10.996094 26.457031 11.035156 26.382812 C 11.078125 26.304688 11.101562 26.222656 11.109375 26.144531 C 11.117188 26.085938 11.117188 26.027344 11.109375 25.96875 L 14.421875 25.960938 C 15.636719 25.957031 16.851562 25.945312 18.066406 25.929688 C 18.082031 25.929688 18.097656 25.917969 18.097656 25.902344 C 18.097656 25.886719 18.082031 25.871094 18.066406 25.871094 C 16.851562 25.859375 15.636719 25.847656 14.421875 25.84375 L 10.777344 25.832031 L 7.132812 25.84375 C 5.917969 25.847656 4.703125 25.859375 3.488281 25.875 C 3.472656 25.875 3.464844 25.886719 3.464844 25.902344 C 3.460938 25.914062 3.472656 25.925781 3.488281 25.925781 C 4.703125 25.941406 5.917969 25.953125 7.132812 25.960938 L 10.777344 25.96875 Z M 22.390625 49.957031 C 22.273438 49.855469 22.128906 49.796875 21.984375 49.757812 C 21.691406 49.679688 21.390625 49.671875 21.09375 49.667969 C 20.800781 49.671875 20.503906 49.691406 20.214844 49.667969 C 19.925781 49.648438 19.636719 49.589844 19.351562 49.519531 C 19.066406 49.449219 18.785156 49.371094 18.5 49.292969 C 18.210938 49.21875 17.9375 49.136719 17.660156 49.035156 C 17.105469 48.835938 16.5625 48.613281 16.015625 48.390625 C 15.46875 48.171875 14.917969 47.949219 14.367188 47.742188 C 13.816406 47.53125 13.257812 47.328125 12.6875 47.164062 C 11.546875 46.847656 10.378906 46.644531 9.199219 46.550781 C 9.183594 46.546875 9.171875 46.558594 9.167969 46.574219 C 9.167969 46.589844 9.179688 46.605469 9.195312 46.605469 C 9.78125 46.664062 10.363281 46.757812 10.941406 46.867188 C 11.519531 46.980469 12.09375 47.113281 12.65625 47.28125 C 13.78125 47.621094 14.871094 48.074219 15.964844 48.515625 C 16.511719 48.734375 17.058594 48.957031 17.617188 49.15625 C 17.894531 49.253906 18.183594 49.339844 18.46875 49.414062 C 18.753906 49.488281 19.039062 49.566406 19.328125 49.632812 C 19.613281 49.699219 19.910156 49.753906 20.207031 49.773438 C 20.507812 49.792969 20.804688 49.765625 21.097656 49.761719 C 21.390625 49.757812 21.683594 49.757812 21.964844 49.828125 C 22.105469 49.859375 22.242188 49.914062 22.351562 50.003906 C 22.460938 50.09375 22.539062 50.214844 22.574219 50.355469 C 22.578125 50.367188 22.589844 50.378906 22.605469 50.375 C 22.621094 50.371094 22.628906 50.355469 22.625 50.34375 C 22.589844 50.195312 22.507812 50.054688 22.390625 49.957031 Z M 24.089844 58.53125 C 24.050781 58.394531 24.003906 58.261719 23.945312 58.132812 C 23.890625 58.003906 23.828125 57.875 23.753906 57.753906 C 23.746094 57.742188 23.734375 57.738281 23.722656 57.742188 C 23.707031 57.746094 23.699219 57.761719 23.703125 57.777344 L 23.835938 58.171875 C 23.878906 58.304688 23.921875 58.4375 23.960938 58.570312 C 24 58.699219 24.035156 58.835938 24.070312 58.96875 L 24.171875 59.371094 C 24.175781 59.382812 24.1875 59.390625 24.199219 59.390625 C 24.214844 59.390625 24.226562 59.378906 24.222656 59.367188 C 24.222656 59.222656 24.207031 59.082031 24.183594 58.945312 C 24.160156 58.804688 24.128906 58.667969 24.089844 58.53125 Z M 29.542969 57.253906 C 29.527344 57.25 29.511719 57.257812 29.503906 57.269531 C 29.4375 57.433594 29.382812 57.597656 29.324219 57.761719 C 29.269531 57.925781 29.222656 58.09375 29.167969 58.257812 C 29.121094 58.425781 29.074219 58.589844 29.03125 58.757812 C 28.988281 58.929688 28.945312 59.097656 28.910156 59.265625 C 28.910156 59.28125 28.917969 59.292969 28.925781 59.296875 C 28.941406 59.300781 28.957031 59.296875 28.960938 59.28125 C 29.027344 59.121094 29.085938 58.957031 29.140625 58.792969 C 29.195312 58.628906 29.246094 58.460938 29.300781 58.296875 C 29.347656 58.128906 29.394531 57.964844 29.441406 57.796875 C 29.484375 57.625 29.527344 57.457031 29.558594 57.289062 C 29.5625 57.273438 29.554688 57.261719 29.542969 57.253906 Z M 36.117188 44.097656 C 35.890625 43.886719 35.660156 43.675781 35.433594 43.46875 C 35.199219 43.261719 34.96875 43.054688 34.734375 42.851562 C 34.5 42.648438 34.265625 42.445312 34.023438 42.25 C 34.011719 42.242188 33.996094 42.242188 33.984375 42.25 C 33.972656 42.261719 33.972656 42.28125 33.984375 42.292969 C 34.203125 42.511719 34.429688 42.726562 34.65625 42.9375 C 34.882812 43.152344 35.113281 43.359375 35.339844 43.566406 C 35.574219 43.773438 35.804688 43.980469 36.039062 44.183594 C 36.273438 44.386719 36.511719 44.585938 36.753906 44.78125 C 36.761719 44.789062 36.777344 44.789062 36.785156 44.78125 C 36.796875 44.769531 36.796875 44.753906 36.785156 44.746094 C 36.566406 44.523438 36.34375 44.3125 36.117188 44.097656 Z M 53.507812 43.445312 C 53.449219 43.214844 53.398438 42.984375 53.339844 42.753906 C 53.28125 42.523438 53.222656 42.292969 53.15625 42.066406 C 53.152344 42.054688 53.136719 42.042969 53.121094 42.046875 C 53.105469 42.050781 53.097656 42.0625 53.097656 42.078125 C 53.132812 42.3125 53.179688 42.546875 53.226562 42.78125 C 53.273438 43.011719 53.324219 43.242188 53.375 43.476562 C 53.429688 43.707031 53.480469 43.9375 53.539062 44.167969 C 53.597656 44.398438 53.660156 44.628906 53.726562 44.855469 C 53.730469 44.867188 53.742188 44.875 53.757812 44.875 C 53.769531 44.871094 53.78125 44.859375 53.777344 44.84375 C 53.742188 44.609375 53.699219 44.375 53.652344 44.144531 C 53.605469 43.910156 53.554688 43.679688 53.507812 43.445312 Z M 40.328125 42.046875 C 40.09375 42.03125 39.859375 42.023438 39.625 42.015625 C 39.390625 42.007812 39.152344 42.007812 38.917969 42.003906 C 38.683594 42.007812 38.449219 42.007812 38.214844 42.015625 C 37.980469 42.019531 37.742188 42.027344 37.507812 42.042969 C 37.496094 42.046875 37.484375 42.054688 37.480469 42.070312 C 37.480469 42.085938 37.492188 42.101562 37.507812 42.101562 C 37.742188 42.117188 37.980469 42.125 38.214844 42.132812 C 38.449219 42.136719 38.683594 42.136719 38.917969 42.140625 C 39.152344 42.136719 39.390625 42.136719 39.625 42.128906 C 39.859375 42.125 40.09375 42.117188 40.328125 42.097656 C 40.34375 42.097656 40.351562 42.089844 40.351562 42.074219 C 40.355469 42.0625 40.34375 42.046875 40.328125 42.046875 Z M 40.328125 33.726562 C 40.09375 33.707031 39.859375 33.699219 39.625 33.691406 C 39.390625 33.6875 39.152344 33.6875 38.917969 33.683594 C 38.683594 33.6875 38.449219 33.683594 38.214844 33.691406 C 37.980469 33.699219 37.742188 33.707031 37.507812 33.722656 C 37.496094 33.722656 37.484375 33.734375 37.480469 33.75 C 37.480469 33.765625 37.492188 33.777344 37.507812 33.78125 C 37.742188 33.796875 37.980469 33.804688 38.214844 33.808594 C 38.449219 33.816406 38.683594 33.816406 38.917969 33.820312 C 39.152344 33.816406 39.390625 33.816406 39.625 33.808594 C 39.859375 33.800781 40.09375 33.792969 40.328125 33.777344 C 40.34375 33.777344 40.351562 33.765625 40.351562 33.753906 C 40.355469 33.738281 40.34375 33.726562 40.328125 33.726562 Z M 56.832031 30.949219 C 56.820312 30.941406 56.800781 30.949219 56.796875 30.960938 C 56.6875 31.195312 56.585938 31.433594 56.484375 31.671875 C 56.382812 31.910156 56.289062 32.148438 56.195312 32.386719 C 56.101562 32.628906 56.007812 32.867188 55.921875 33.109375 C 55.832031 33.351562 55.746094 33.597656 55.667969 33.84375 C 55.664062 33.855469 55.667969 33.867188 55.679688 33.875 C 55.695312 33.878906 55.710938 33.875 55.714844 33.863281 C 55.824219 33.628906 55.925781 33.390625 56.027344 33.152344 C 56.128906 32.914062 56.222656 32.675781 56.320312 32.4375 C 56.410156 32.195312 56.507812 31.957031 56.59375 31.714844 C 56.683594 31.472656 56.769531 31.230469 56.847656 30.984375 C 56.851562 30.96875 56.847656 30.953125 56.832031 30.949219 Z M 45.835938 15.707031 L 45.550781 15.597656 C 45.457031 15.558594 45.367188 15.519531 45.273438 15.476562 C 45.183594 15.4375 45.09375 15.390625 45.003906 15.347656 C 44.914062 15.300781 44.828125 15.25 44.734375 15.203125 C 44.726562 15.199219 44.710938 15.199219 44.703125 15.207031 C 44.691406 15.21875 44.691406 15.238281 44.703125 15.25 C 44.773438 15.324219 44.859375 15.390625 44.945312 15.449219 C 45.03125 15.507812 45.125 15.554688 45.21875 15.601562 C 45.316406 15.640625 45.414062 15.679688 45.515625 15.707031 C 45.617188 15.730469 45.71875 15.75 45.824219 15.757812 C 45.835938 15.757812 45.847656 15.75 45.851562 15.738281 C 45.855469 15.726562 45.847656 15.710938 45.835938 15.707031 Z M 48.964844 3.59375 C 49.027344 3.746094 49.101562 3.890625 49.199219 4.023438 C 49.203125 4.035156 49.21875 4.039062 49.230469 4.03125 C 49.242188 4.027344 49.25 4.011719 49.242188 4 C 49.179688 3.851562 49.121094 3.707031 49.074219 3.554688 C 49.027344 3.40625 48.988281 3.253906 48.960938 3.097656 C 48.933594 2.945312 48.917969 2.789062 48.90625 2.632812 C 48.898438 2.472656 48.902344 2.316406 48.914062 2.15625 C 48.914062 2.144531 48.90625 2.132812 48.890625 2.128906 C 48.875 2.125 48.859375 2.132812 48.855469 2.148438 C 48.8125 2.304688 48.792969 2.46875 48.789062 2.632812 C 48.785156 2.796875 48.800781 2.960938 48.828125 3.121094 C 48.859375 3.285156 48.902344 3.441406 48.964844 3.59375 Z M 4.496094 21.902344 L 3.976562 18.984375 C 3.96875 18.945312 3.992188 18.910156 4.03125 18.90625 C 4.035156 18.90625 4.039062 18.902344 4.042969 18.902344 L 5.949219 18.921875 C 5.976562 18.921875 5.996094 18.9375 6 18.964844 L 6.464844 21.914062 L 4.539062 21.941406 C 4.515625 21.941406 4.5 21.925781 4.496094 21.90625 Z M 5.90625 19.023438 L 4.121094 19.039062 L 4.578125 21.851562 L 6.421875 21.878906 L 6.425781 21.878906 Z M 12.097656 21.785156 L 11.578125 18.867188 C 11.574219 18.828125 11.597656 18.792969 11.632812 18.789062 C 11.636719 18.785156 11.640625 18.785156 11.644531 18.785156 L 13.550781 18.800781 L 13.554688 18.804688 C 13.578125 18.804688 13.597656 18.820312 13.601562 18.84375 L 14.066406 21.796875 L 12.140625 21.824219 C 12.121094 21.824219 12.101562 21.808594 12.097656 21.789062 Z M 13.507812 18.90625 L 11.726562 18.921875 L 12.179688 21.734375 L 14.027344 21.761719 Z M 13.507812 18.90625 " fill-opacity="1" fill-rule="nonzero"/><path fill="#c97061" d="M 10.242188 50.730469 L 10.253906 53.589844 L 10.242188 56.445312 C 10.238281 57.398438 10.226562 58.351562 10.210938 59.300781 C 10.210938 59.316406 10.199219 59.328125 10.183594 59.328125 C 10.171875 59.328125 10.160156 59.316406 10.160156 59.300781 C 10.144531 58.351562 10.132812 57.398438 10.125 56.445312 L 10.117188 53.589844 L 10.125 50.730469 C 10.128906 49.777344 10.140625 48.828125 10.15625 47.875 C 10.15625 47.859375 10.167969 47.84375 10.183594 47.847656 C 10.199219 47.847656 10.214844 47.859375 10.214844 47.875 C 10.226562 48.828125 10.238281 49.777344 10.242188 50.730469 Z M 15.046875 49.550781 C 15.046875 49.535156 15.03125 49.519531 15.015625 49.519531 C 15 49.519531 14.988281 49.53125 14.988281 49.550781 C 14.972656 50.371094 14.960938 51.191406 14.957031 52.011719 L 14.949219 54.472656 L 14.957031 56.933594 C 14.964844 57.753906 14.976562 58.574219 14.992188 59.394531 C 14.992188 59.40625 15.003906 59.417969 15.015625 59.417969 C 15.03125 59.417969 15.042969 59.40625 15.042969 59.394531 C 15.058594 58.574219 15.070312 57.753906 15.074219 56.933594 L 15.085938 54.472656 L 15.074219 52.011719 C 15.070312 51.191406 15.058594 50.371094 15.046875 49.550781 Z M 24.507812 26.554688 C 24.496094 26.546875 24.476562 26.550781 24.46875 26.566406 C 24.300781 26.835938 24.136719 27.109375 23.972656 27.386719 L 23.582031 28.070312 L 20.515625 28.050781 L 17.269531 28.042969 L 16.242188 28.042969 C 16.253906 27.933594 16.261719 27.828125 16.269531 27.71875 C 16.277344 27.59375 16.277344 27.464844 16.277344 27.339844 C 16.277344 27.210938 16.277344 27.085938 16.269531 26.960938 C 16.265625 26.832031 16.257812 26.707031 16.238281 26.578125 C 16.238281 26.566406 16.226562 26.554688 16.214844 26.554688 C 16.199219 26.550781 16.183594 26.5625 16.183594 26.578125 C 16.164062 26.707031 16.15625 26.832031 16.152344 26.960938 C 16.144531 27.085938 16.144531 27.210938 16.144531 27.339844 C 16.144531 27.464844 16.144531 27.59375 16.152344 27.71875 C 16.160156 27.828125 16.167969 27.933594 16.179688 28.042969 L 10.773438 28.03125 L 4.273438 28.042969 L 1.027344 28.050781 L -2.222656 28.070312 C -2.238281 28.070312 -2.25 28.082031 -2.25 28.097656 C -2.25 28.113281 -2.238281 28.125 -2.222656 28.125 L -0.121094 28.140625 C -0.132812 28.390625 -0.140625 28.640625 -0.148438 28.890625 C -0.152344 29.023438 -0.152344 29.152344 -0.152344 29.289062 C -0.152344 29.433594 -0.105469 29.578125 -0.0195312 29.695312 C 0.0429688 29.78125 0.125 29.847656 0.21875 29.894531 L 0.199219 33.53125 L 0.195312 37.226562 L 0.179688 44.617188 L 0.195312 52.003906 L 0.203125 55.699219 L 0.222656 59.394531 C 0.222656 59.40625 0.234375 59.417969 0.25 59.417969 C 0.261719 59.417969 0.273438 59.40625 0.273438 59.394531 L 0.292969 55.699219 L 0.300781 52.003906 L 0.316406 44.617188 L 0.304688 37.226562 L 0.296875 33.53125 L 0.277344 29.921875 C 0.296875 29.929688 0.316406 29.9375 0.332031 29.941406 C 0.402344 29.964844 0.476562 29.972656 0.546875 29.972656 L 0.746094 29.96875 C 1.011719 29.960938 1.273438 29.953125 1.539062 29.9375 C 1.550781 29.933594 1.5625 29.925781 1.5625 29.910156 C 1.566406 29.898438 1.554688 29.886719 1.539062 29.882812 C 1.273438 29.867188 1.011719 29.859375 0.746094 29.851562 L 0.546875 29.847656 C 0.488281 29.847656 0.429688 29.835938 0.371094 29.820312 C 0.257812 29.78125 0.160156 29.710938 0.0898438 29.613281 C 0.015625 29.523438 -0.0234375 29.402344 -0.0273438 29.285156 C -0.0273438 29.15625 -0.0273438 29.023438 -0.03125 28.890625 C -0.0390625 28.640625 -0.046875 28.390625 -0.0585938 28.140625 L 1.027344 28.144531 L 4.273438 28.152344 L 10.773438 28.164062 L 12.847656 28.160156 C 12.835938 28.292969 12.828125 28.421875 12.820312 28.550781 C 12.816406 28.703125 12.8125 28.851562 12.8125 29.003906 C 12.8125 29.15625 12.816406 29.304688 12.824219 29.457031 C 12.832031 29.609375 12.839844 29.757812 12.855469 29.910156 C 12.855469 29.921875 12.867188 29.933594 12.878906 29.933594 C 12.890625 29.933594 12.90625 29.925781 12.90625 29.910156 C 12.925781 29.757812 12.933594 29.609375 12.9375 29.457031 C 12.945312 29.304688 12.949219 29.15625 12.949219 29.003906 C 12.949219 28.851562 12.949219 28.703125 12.941406 28.550781 C 12.933594 28.421875 12.925781 28.292969 12.914062 28.160156 L 14.988281 28.15625 C 14.972656 29.554688 14.960938 30.949219 14.957031 32.347656 L 14.949219 36.597656 L 14.957031 40.847656 C 14.964844 42.265625 14.976562 43.683594 14.992188 45.097656 C 14.992188 45.113281 15.003906 45.125 15.015625 45.125 C 15.03125 45.125 15.042969 45.113281 15.042969 45.097656 C 15.058594 43.683594 15.070312 42.265625 15.074219 40.847656 L 15.085938 36.597656 L 15.074219 32.347656 C 15.070312 30.949219 15.058594 29.554688 15.046875 28.15625 L 17.269531 28.152344 L 20.515625 28.144531 L 23.550781 28.125 L 23.496094 28.21875 L 23.039062 29.058594 C 22.886719 29.339844 22.738281 29.625 22.597656 29.910156 C 22.589844 29.921875 22.59375 29.9375 22.605469 29.945312 C 22.617188 29.953125 22.632812 29.949219 22.640625 29.9375 C 22.8125 29.667969 22.976562 29.390625 23.136719 29.117188 L 23.617188 28.285156 L 23.703125 28.125 L 23.765625 28.125 C 23.777344 28.125 23.789062 28.113281 23.789062 28.097656 C 23.789062 28.085938 23.777344 28.074219 23.765625 28.074219 L 23.734375 28.070312 L 24.078125 27.445312 C 24.226562 27.164062 24.378906 26.878906 24.519531 26.59375 C 24.527344 26.582031 24.523438 26.5625 24.507812 26.554688 Z M 11.546875 29.882812 C 11.320312 29.867188 11.09375 29.859375 10.867188 29.851562 C 10.640625 29.847656 10.414062 29.847656 10.1875 29.84375 C 9.960938 29.84375 9.734375 29.84375 9.507812 29.851562 C 9.28125 29.855469 9.054688 29.863281 8.828125 29.882812 C 8.816406 29.882812 8.804688 29.894531 8.804688 29.90625 C 8.800781 29.925781 8.8125 29.9375 8.828125 29.9375 C 9.054688 29.957031 9.28125 29.964844 9.507812 29.96875 C 9.722656 29.976562 9.941406 29.976562 10.15625 29.976562 C 10.140625 31.261719 10.128906 32.550781 10.125 33.835938 L 10.117188 37.746094 L 10.125 41.65625 C 10.132812 42.960938 10.144531 44.261719 10.160156 45.566406 C 10.160156 45.582031 10.171875 45.59375 10.183594 45.59375 C 10.199219 45.59375 10.210938 45.582031 10.210938 45.566406 C 10.226562 44.261719 10.238281 42.960938 10.242188 41.65625 L 10.253906 37.746094 L 10.242188 33.835938 C 10.238281 32.550781 10.226562 31.261719 10.214844 29.976562 C 10.433594 29.972656 10.648438 29.972656 10.867188 29.96875 C 11.09375 29.960938 11.320312 29.953125 11.546875 29.9375 C 11.558594 29.933594 11.570312 29.925781 11.570312 29.914062 C 11.574219 29.898438 11.5625 29.886719 11.546875 29.882812 Z M 11.546875 29.882812 " fill-opacity="1" fill-rule="nonzero"/></svg>