<svg xmlns="http://www.w3.org/2000/svg" xmlns:xlink="http://www.w3.org/1999/xlink" width="80" zoomAndPan="magnify" viewBox="0 0 60 60" height="80" preserveAspectRatio="xMidYMid meet" version="1.0"><defs><clipPath id="260e7e3bc6"><path d="M 28.867188 11.773438 L 59.957031 11.773438 L 59.957031 59.25 L 28.867188 59.25 Z M 28.867188 11.773438 " clip-rule="nonzero"/></clipPath></defs><g clip-path="url(#260e7e3bc6)"><path fill="#d3d4d3" d="M 59.957031 59.25 L 30.042969 59.25 C 29.417969 59.25 28.910156 58.746094 28.910156 58.121094 L 28.910156 12.953125 C 28.910156 12.332031 29.417969 11.824219 30.042969 11.824219 L 58.824219 11.824219 C 59.449219 11.824219 59.957031 12.332031 59.957031 12.953125 L 59.957031 59.25 " fill-opacity="1" fill-rule="nonzero"/></g><path fill="#6a5f50" d="M 57.355469 57.890625 L 29.457031 57.890625 C 28.84375 57.890625 28.347656 57.398438 28.347656 56.789062 L 28.347656 12.191406 C 28.347656 11.582031 28.84375 11.085938 29.457031 11.085938 L 57.355469 11.085938 C 57.964844 11.085938 58.464844 11.582031 58.464844 12.191406 L 58.464844 56.789062 C 58.464844 57.398438 57.964844 57.890625 57.355469 57.890625 " fill-opacity="1" fill-rule="nonzero"/><path fill="#52423b" d="M 29.457031 11.390625 C 29.015625 11.390625 28.65625 11.75 28.65625 12.191406 L 28.65625 56.789062 C 28.65625 57.230469 29.015625 57.585938 29.457031 57.585938 L 57.355469 57.585938 C 57.796875 57.585938 58.15625 57.230469 58.15625 56.789062 L 58.15625 12.191406 C 58.15625 11.75 57.796875 11.390625 57.355469 11.390625 Z M 57.355469 58.195312 L 29.457031 58.195312 C 28.675781 58.195312 28.042969 57.566406 28.042969 56.789062 L 28.042969 12.191406 C 28.042969 11.414062 28.675781 10.78125 29.457031 10.78125 L 57.355469 10.78125 C 58.132812 10.78125 58.769531 11.414062 58.769531 12.191406 L 58.769531 56.789062 C 58.769531 57.566406 58.132812 58.195312 57.355469 58.195312 " fill-opacity="1" fill-rule="nonzero"/><path fill="#61a3b8" d="M 57.21875 55.316406 L 29.660156 55.316406 L 29.660156 12.21875 L 57.21875 12.21875 L 57.21875 55.316406 " fill-opacity="1" fill-rule="nonzero"/><path fill="#73929d" d="M 44.304688 12.21875 C 44.304688 12.503906 44.070312 12.734375 43.785156 12.734375 C 43.5 12.734375 43.265625 12.503906 43.265625 12.21875 C 43.265625 11.9375 43.5 11.707031 43.785156 11.707031 C 44.070312 11.707031 44.304688 11.9375 44.304688 12.21875 " fill-opacity="1" fill-rule="nonzero"/><path fill="#f03c4e" d="M 33.699219 55.535156 C 33.378906 55.40625 33.160156 55.640625 33.042969 55.84375 C 33.023438 55.875 33.007812 55.90625 32.992188 55.9375 C 32.980469 55.910156 32.964844 55.886719 32.949219 55.859375 C 32.832031 55.652344 32.613281 55.402344 32.285156 55.535156 C 32.042969 55.632812 31.773438 56.023438 32.070312 56.617188 C 32.289062 57.050781 32.746094 57.464844 32.917969 57.613281 C 32.925781 57.617188 32.992188 57.671875 32.992188 57.671875 C 32.992188 57.671875 33.058594 57.617188 33.0625 57.613281 C 33.0625 57.613281 33.695312 57.050781 33.914062 56.617188 C 34.210938 56.023438 33.941406 55.632812 33.699219 55.535156 " fill-opacity="1" fill-rule="nonzero"/><path fill="#f03c4e" d="M 29.777344 3.859375 L 23.859375 3.859375 L 24.132812 5.398438 L 22.042969 3.859375 L 19.214844 3.859375 C 18.820312 3.859375 18.496094 3.539062 18.496094 3.144531 L 18.496094 0.714844 C 18.496094 0.320312 18.820312 0 19.214844 0 L 29.777344 0 C 30.171875 0 30.496094 0.320312 30.496094 0.714844 L 30.496094 3.144531 C 30.496094 3.539062 30.171875 3.859375 29.777344 3.859375 " fill-opacity="1" fill-rule="nonzero"/><path fill="#ffffff" d="M 22.65625 0.855469 C 22.238281 0.714844 21.957031 0.972656 21.804688 1.191406 C 21.777344 1.226562 21.757812 1.261719 21.738281 1.296875 C 21.722656 1.269531 21.707031 1.238281 21.6875 1.207031 C 21.535156 0.984375 21.25 0.710938 20.824219 0.855469 C 20.511719 0.964844 20.160156 1.390625 20.546875 2.039062 C 20.828125 2.515625 21.417969 2.964844 21.644531 3.128906 C 21.652344 3.132812 21.738281 3.195312 21.738281 3.195312 C 21.738281 3.195312 21.742188 3.195312 21.742188 3.195312 C 21.742188 3.195312 21.828125 3.132812 21.832031 3.128906 C 21.832031 3.128906 22.648438 2.515625 22.929688 2.039062 C 23.320312 1.390625 22.96875 0.964844 22.65625 0.855469 " fill-opacity="1" fill-rule="nonzero"/><path fill="#ffffff" d="M 25.488281 1.769531 C 25.421875 1.878906 25.289062 1.964844 25.121094 1.964844 C 24.902344 1.964844 24.761719 1.800781 24.761719 1.570312 C 24.761719 1.308594 24.914062 1.117188 25.128906 1.117188 C 25.394531 1.117188 25.511719 1.359375 25.511719 1.679688 C 25.511719 1.71875 25.5 1.746094 25.488281 1.769531 Z M 25.148438 0.925781 C 24.765625 0.925781 24.511719 1.234375 24.511719 1.585938 C 24.511719 1.902344 24.726562 2.15625 25.0625 2.15625 C 25.25 2.15625 25.398438 2.082031 25.5 1.953125 L 25.511719 1.953125 C 25.476562 2.175781 25.386719 2.335938 25.261719 2.449219 C 25.15625 2.546875 25.019531 2.609375 24.875 2.628906 C 24.789062 2.636719 24.722656 2.644531 24.667969 2.636719 L 24.667969 2.84375 C 24.730469 2.84375 24.808594 2.84375 24.902344 2.828125 C 25.101562 2.804688 25.300781 2.71875 25.445312 2.578125 C 25.628906 2.402344 25.765625 2.117188 25.765625 1.710938 C 25.765625 1.234375 25.53125 0.925781 25.148438 0.925781 " fill-opacity="1" fill-rule="nonzero"/><path fill="#ffffff" d="M 26.957031 1.769531 C 26.894531 1.878906 26.761719 1.964844 26.589844 1.964844 C 26.375 1.964844 26.234375 1.800781 26.234375 1.570312 C 26.234375 1.308594 26.386719 1.117188 26.601562 1.117188 C 26.863281 1.117188 26.980469 1.359375 26.980469 1.679688 C 26.980469 1.71875 26.972656 1.746094 26.957031 1.769531 Z M 26.621094 0.925781 C 26.238281 0.925781 25.984375 1.234375 25.984375 1.585938 C 25.984375 1.902344 26.199219 2.15625 26.535156 2.15625 C 26.722656 2.15625 26.871094 2.082031 26.972656 1.953125 L 26.980469 1.953125 C 26.949219 2.175781 26.859375 2.335938 26.734375 2.449219 C 26.628906 2.546875 26.492188 2.609375 26.34375 2.628906 C 26.257812 2.636719 26.195312 2.644531 26.140625 2.636719 L 26.140625 2.84375 C 26.203125 2.84375 26.28125 2.84375 26.375 2.828125 C 26.574219 2.804688 26.773438 2.71875 26.914062 2.578125 C 27.097656 2.402344 27.238281 2.117188 27.238281 1.710938 C 27.238281 1.234375 27.003906 0.925781 26.621094 0.925781 " fill-opacity="1" fill-rule="nonzero"/><path fill="#ffffff" d="M 28.429688 1.769531 C 28.363281 1.878906 28.230469 1.964844 28.0625 1.964844 C 27.84375 1.964844 27.703125 1.800781 27.703125 1.570312 C 27.703125 1.308594 27.855469 1.117188 28.070312 1.117188 C 28.335938 1.117188 28.453125 1.359375 28.453125 1.679688 C 28.453125 1.71875 28.445312 1.746094 28.429688 1.769531 Z M 28.09375 0.925781 C 27.710938 0.925781 27.457031 1.234375 27.457031 1.585938 C 27.457031 1.902344 27.671875 2.15625 28.003906 2.15625 C 28.191406 2.15625 28.339844 2.082031 28.445312 1.953125 L 28.453125 1.953125 C 28.417969 2.175781 28.328125 2.335938 28.207031 2.449219 C 28.101562 2.546875 27.960938 2.609375 27.816406 2.628906 C 27.730469 2.636719 27.667969 2.644531 27.613281 2.636719 L 27.613281 2.84375 C 27.671875 2.84375 27.753906 2.84375 27.84375 2.828125 C 28.046875 2.804688 28.242188 2.71875 28.386719 2.578125 C 28.570312 2.402344 28.707031 2.117188 28.707031 1.710938 C 28.707031 1.234375 28.472656 0.925781 28.09375 0.925781 " fill-opacity="1" fill-rule="nonzero"/><path fill="#f03c4e" d="M 50.703125 34.09375 L 50.703125 36.164062 C 50.703125 36.523438 50.996094 36.816406 51.359375 36.816406 L 55.761719 36.816406 L 55.519531 38.171875 L 57.363281 36.816406 L 59.210938 36.816406 C 59.53125 36.816406 59.789062 36.558594 59.789062 36.242188 L 59.789062 33.996094 C 59.789062 33.679688 59.53125 33.421875 59.210938 33.421875 L 51.378906 33.421875 C 51.003906 33.421875 50.703125 33.722656 50.703125 34.09375 " fill-opacity="1" fill-rule="nonzero"/><path fill="#ffffff" d="M 54.046875 34.71875 L 53.152344 34.71875 L 53.152344 33.980469 C 53.152344 33.980469 53.09375 33.570312 52.832031 33.535156 C 52.738281 33.523438 52.617188 33.628906 52.617188 33.746094 L 52.617188 34.457031 C 52.617188 34.601562 52.5 34.71875 52.355469 34.71875 C 52.304688 34.71875 52.257812 34.738281 52.226562 34.773438 L 52.226562 36.324219 C 52.265625 36.386719 52.335938 36.429688 52.417969 36.429688 L 53.703125 36.429688 C 53.8125 36.402344 53.890625 36.304688 53.890625 36.1875 L 53.890625 36.183594 C 53.96875 36.140625 54.019531 36.058594 54.019531 35.964844 L 54.019531 35.847656 C 54.019531 35.808594 54.011719 35.773438 53.996094 35.742188 C 54.070312 35.699219 54.117188 35.617188 54.117188 35.527344 L 54.117188 35.40625 C 54.117188 35.367188 54.109375 35.328125 54.089844 35.292969 C 54.167969 35.25 54.21875 35.167969 54.21875 35.074219 L 54.21875 34.953125 C 54.21875 34.84375 54.148438 34.75 54.046875 34.71875 " fill-opacity="1" fill-rule="nonzero"/><path fill="#ffffff" d="M 52.050781 34.730469 L 51.664062 34.730469 C 51.613281 34.730469 51.574219 34.773438 51.574219 34.824219 L 51.574219 36.296875 C 51.574219 36.347656 51.613281 36.386719 51.664062 36.386719 L 52.050781 36.386719 C 52.101562 36.386719 52.140625 36.347656 52.140625 36.296875 L 52.140625 34.824219 C 52.140625 34.773438 52.101562 34.730469 52.050781 34.730469 " fill-opacity="1" fill-rule="nonzero"/><path fill="#ffffff" d="M 57.050781 35.242188 C 56.992188 35.34375 56.875 35.414062 56.726562 35.414062 C 56.535156 35.414062 56.410156 35.273438 56.410156 35.066406 C 56.410156 34.835938 56.542969 34.671875 56.734375 34.671875 C 56.964844 34.671875 57.070312 34.882812 57.070312 35.164062 C 57.070312 35.199219 57.0625 35.222656 57.050781 35.242188 Z M 56.75 34.503906 C 56.417969 34.503906 56.191406 34.773438 56.191406 35.082031 C 56.191406 35.363281 56.378906 35.582031 56.675781 35.582031 C 56.839844 35.582031 56.972656 35.519531 57.0625 35.40625 L 57.070312 35.40625 C 57.039062 35.601562 56.960938 35.746094 56.851562 35.84375 C 56.757812 35.929688 56.636719 35.984375 56.507812 36 C 56.433594 36.007812 56.378906 36.011719 56.332031 36.007812 L 56.332031 36.1875 C 56.382812 36.191406 56.453125 36.1875 56.535156 36.175781 C 56.710938 36.15625 56.886719 36.082031 57.011719 35.957031 C 57.171875 35.800781 57.296875 35.550781 57.296875 35.191406 C 57.296875 34.773438 57.085938 34.503906 56.75 34.503906 " fill-opacity="1" fill-rule="nonzero"/><path fill="#ffffff" d="M 58.417969 35.242188 C 58.359375 35.34375 58.242188 35.414062 58.09375 35.414062 C 57.902344 35.414062 57.777344 35.273438 57.777344 35.066406 C 57.777344 34.835938 57.910156 34.671875 58.101562 34.671875 C 58.332031 34.671875 58.4375 34.882812 58.4375 35.164062 C 58.4375 35.199219 58.429688 35.222656 58.417969 35.242188 Z M 58.117188 34.503906 C 57.78125 34.503906 57.558594 34.773438 57.558594 35.082031 C 57.558594 35.363281 57.746094 35.582031 58.042969 35.582031 C 58.207031 35.582031 58.339844 35.519531 58.429688 35.40625 L 58.4375 35.40625 C 58.40625 35.601562 58.328125 35.746094 58.21875 35.84375 C 58.125 35.929688 58.003906 35.984375 57.875 36 C 57.800781 36.007812 57.746094 36.011719 57.695312 36.007812 L 57.695312 36.1875 C 57.75 36.191406 57.820312 36.1875 57.902344 36.175781 C 58.078125 36.15625 58.253906 36.082031 58.378906 35.957031 C 58.539062 35.800781 58.660156 35.550781 58.660156 35.191406 C 58.660156 34.773438 58.453125 34.503906 58.117188 34.503906 " fill-opacity="1" fill-rule="nonzero"/><path fill="#ffffff" d="M 55.476562 36.011719 C 55.265625 36.011719 55.140625 35.867188 55.148438 35.703125 C 55.148438 35.546875 55.253906 35.421875 55.445312 35.367188 C 55.667969 35.429688 55.804688 35.523438 55.804688 35.722656 C 55.804688 35.890625 55.675781 36.011719 55.476562 36.011719 Z M 55.195312 34.90625 C 55.195312 34.765625 55.296875 34.644531 55.480469 34.644531 C 55.679688 34.644531 55.757812 34.78125 55.757812 34.910156 C 55.757812 35.058594 55.648438 35.160156 55.507812 35.207031 C 55.316406 35.15625 55.195312 35.070312 55.195312 34.90625 Z M 55.699219 35.277344 L 55.699219 35.269531 C 55.902344 35.175781 55.96875 35.027344 55.96875 34.886719 C 55.96875 34.683594 55.808594 34.484375 55.492188 34.484375 C 55.203125 34.484375 54.984375 34.660156 54.984375 34.921875 C 54.984375 35.0625 55.0625 35.203125 55.246094 35.289062 L 55.246094 35.296875 C 55.042969 35.378906 54.921875 35.527344 54.921875 35.730469 C 54.921875 35.972656 55.128906 36.175781 55.472656 36.175781 C 55.785156 36.175781 56.03125 35.984375 56.03125 35.699219 C 56.03125 35.5 55.902344 35.359375 55.699219 35.277344 " fill-opacity="1" fill-rule="nonzero"/><path fill="#f03c4e" d="M 31.058594 39.269531 L 31.058594 40.917969 C 31.058594 41.207031 30.824219 41.441406 30.535156 41.441406 L 27.027344 41.441406 L 27.21875 42.519531 L 25.75 41.441406 L 24.273438 41.441406 C 24.019531 41.441406 23.8125 41.238281 23.8125 40.984375 L 23.8125 39.191406 C 23.8125 38.9375 24.019531 38.734375 24.273438 38.734375 L 30.519531 38.734375 C 30.820312 38.734375 31.058594 38.972656 31.058594 39.269531 " fill-opacity="1" fill-rule="nonzero"/><path fill="#ffffff" d="M 25.042969 39.554688 L 25.042969 40.730469 C 25.042969 40.84375 25.136719 40.933594 25.25 40.933594 L 27.1875 40.933594 C 27.300781 40.933594 27.390625 40.84375 27.390625 40.730469 L 27.390625 39.554688 L 26.191406 40.261719 L 25.042969 39.554688 " fill-opacity="1" fill-rule="nonzero"/><path fill="#ffffff" d="M 27.390625 39.46875 C 27.390625 39.359375 27.300781 39.265625 27.1875 39.265625 L 25.25 39.265625 C 25.136719 39.265625 25.042969 39.359375 25.042969 39.46875 L 25.042969 39.472656 L 26.191406 40.175781 L 27.390625 39.46875 " fill-opacity="1" fill-rule="nonzero"/><path fill="#ffffff" d="M 29.519531 40.074219 C 29.472656 40.152344 29.378906 40.210938 29.257812 40.210938 C 29.105469 40.210938 29.007812 40.097656 29.007812 39.933594 C 29.007812 39.75 29.113281 39.617188 29.265625 39.617188 C 29.449219 39.617188 29.535156 39.789062 29.535156 40.011719 C 29.535156 40.039062 29.527344 40.058594 29.519531 40.074219 Z M 29.28125 39.484375 C 29.011719 39.484375 28.832031 39.699219 28.832031 39.945312 C 28.832031 40.167969 28.984375 40.34375 29.21875 40.34375 C 29.351562 40.34375 29.457031 40.292969 29.527344 40.203125 L 29.535156 40.203125 C 29.507812 40.359375 29.445312 40.472656 29.359375 40.550781 C 29.285156 40.621094 29.1875 40.664062 29.085938 40.675781 C 29.027344 40.683594 28.980469 40.6875 28.945312 40.683594 L 28.945312 40.828125 C 28.984375 40.828125 29.042969 40.828125 29.105469 40.816406 C 29.246094 40.800781 29.386719 40.742188 29.488281 40.644531 C 29.617188 40.519531 29.710938 40.320312 29.710938 40.03125 C 29.710938 39.699219 29.546875 39.484375 29.28125 39.484375 " fill-opacity="1" fill-rule="nonzero"/><path fill="#ffffff" d="M 28.261719 40.6875 C 28.097656 40.6875 27.996094 40.570312 28 40.4375 C 28 40.316406 28.082031 40.214844 28.238281 40.171875 C 28.414062 40.222656 28.523438 40.296875 28.523438 40.457031 C 28.523438 40.589844 28.421875 40.6875 28.261719 40.6875 Z M 28.039062 39.804688 C 28.039062 39.691406 28.117188 39.59375 28.265625 39.59375 C 28.425781 39.59375 28.488281 39.703125 28.488281 39.808594 C 28.488281 39.925781 28.398438 40.007812 28.289062 40.042969 C 28.136719 40.003906 28.039062 39.933594 28.039062 39.804688 Z M 28.441406 40.101562 L 28.441406 40.09375 C 28.601562 40.019531 28.65625 39.898438 28.65625 39.789062 C 28.65625 39.628906 28.527344 39.46875 28.273438 39.46875 C 28.046875 39.46875 27.871094 39.609375 27.871094 39.816406 C 27.871094 39.929688 27.933594 40.039062 28.078125 40.109375 L 28.078125 40.113281 C 27.917969 40.183594 27.820312 40.300781 27.820312 40.464844 C 27.820312 40.652344 27.984375 40.816406 28.257812 40.816406 C 28.507812 40.816406 28.703125 40.664062 28.703125 40.4375 C 28.703125 40.277344 28.605469 40.164062 28.441406 40.101562 " fill-opacity="1" fill-rule="nonzero"/><path fill="#f03c4e" d="M 45.449219 5.121094 C 45.449219 4.953125 45.585938 4.8125 45.757812 4.8125 C 45.929688 4.8125 46.070312 4.953125 46.070312 5.121094 C 46.070312 5.292969 45.929688 5.433594 45.757812 5.433594 C 45.585938 5.433594 45.449219 5.292969 45.449219 5.121094 Z M 46.363281 5.097656 C 46.363281 4.929688 46.503906 4.789062 46.675781 4.789062 C 46.84375 4.789062 46.984375 4.929688 46.984375 5.097656 C 46.984375 5.269531 46.84375 5.40625 46.675781 5.40625 C 46.503906 5.40625 46.363281 5.269531 46.363281 5.097656 Z M 47.320312 5.097656 C 47.320312 4.929688 47.457031 4.789062 47.628906 4.789062 C 47.800781 4.789062 47.941406 4.929688 47.941406 5.097656 C 47.941406 5.269531 47.800781 5.40625 47.628906 5.40625 C 47.457031 5.40625 47.320312 5.269531 47.320312 5.097656 Z M 44.167969 8.441406 C 44.296875 8.496094 45.460938 7.363281 45.597656 7.402344 C 45.957031 7.515625 46.347656 7.574219 46.753906 7.574219 C 48.535156 7.574219 49.976562 6.417969 49.976562 4.996094 C 49.976562 3.570312 48.535156 2.414062 46.753906 2.414062 C 44.972656 2.414062 43.53125 3.570312 43.53125 4.996094 C 43.53125 5.816406 44.011719 6.550781 44.765625 7.023438 C 44.902344 7.109375 44.015625 8.375 44.167969 8.441406 " fill-opacity="1" fill-rule="nonzero"/><path fill="#f03c4e" d="M 50.378906 29.265625 L 54.191406 29.265625 L 54.015625 30.390625 L 55.363281 29.265625 L 57.1875 29.265625 C 57.441406 29.265625 57.648438 29.03125 57.648438 28.746094 L 57.648438 26.964844 C 57.648438 26.675781 57.441406 26.441406 57.1875 26.441406 L 50.378906 26.441406 C 50.125 26.441406 49.917969 26.675781 49.917969 26.964844 L 49.917969 28.746094 C 49.917969 29.03125 50.125 29.265625 50.378906 29.265625 " fill-opacity="1" fill-rule="nonzero"/><path fill="#ffffff" d="M 52.378906 27.683594 C 52.367188 27.683594 52.226562 27.882812 51.90625 27.898438 C 51.585938 27.882812 51.441406 27.683594 51.429688 27.683594 C 51.140625 27.699219 50.910156 27.941406 50.910156 28.234375 L 50.910156 28.824219 C 50.910156 28.917969 50.984375 28.992188 51.082031 28.992188 L 52.804688 28.992188 C 52.898438 28.992188 52.902344 28.917969 52.902344 28.824219 L 52.902344 28.234375 C 52.902344 27.941406 52.671875 27.699219 52.378906 27.683594 " fill-opacity="1" fill-rule="nonzero"/><path fill="#ffffff" d="M 51.90625 27.835938 C 52.226562 27.835938 52.484375 27.578125 52.484375 27.261719 C 52.484375 26.945312 52.226562 26.6875 51.90625 26.6875 C 51.589844 26.6875 51.332031 26.945312 51.332031 27.261719 C 51.332031 27.578125 51.589844 27.835938 51.90625 27.835938 " fill-opacity="1" fill-rule="nonzero"/><path fill="#ffffff" d="M 53.121094 27.5 L 53.15625 27.628906 L 53.375 27.511719 L 53.378906 27.511719 L 53.378906 28.613281 L 53.542969 28.613281 L 53.542969 27.351562 L 53.398438 27.351562 L 53.121094 27.5 " fill-opacity="1" fill-rule="nonzero"/><path fill="#ffffff" d="M 54.507812 27.929688 L 54.507812 27.925781 C 54.664062 27.871094 54.742188 27.761719 54.742188 27.632812 C 54.742188 27.476562 54.628906 27.332031 54.378906 27.332031 C 54.242188 27.332031 54.113281 27.378906 54.046875 27.429688 L 54.09375 27.550781 C 54.148438 27.511719 54.246094 27.46875 54.347656 27.46875 C 54.503906 27.46875 54.566406 27.558594 54.566406 27.660156 C 54.566406 27.808594 54.410156 27.871094 54.285156 27.871094 L 54.191406 27.871094 L 54.191406 28 L 54.285156 28 C 54.453125 28 54.609375 28.074219 54.613281 28.25 C 54.613281 28.355469 54.546875 28.496094 54.328125 28.496094 C 54.207031 28.496094 54.09375 28.445312 54.046875 28.414062 L 54 28.546875 C 54.0625 28.589844 54.1875 28.632812 54.328125 28.632812 C 54.632812 28.632812 54.789062 28.457031 54.789062 28.253906 C 54.789062 28.078125 54.664062 27.960938 54.507812 27.929688 " fill-opacity="1" fill-rule="nonzero"/><path fill="#ffffff" d="M 55.117188 27.5 L 55.152344 27.628906 L 55.371094 27.511719 L 55.375 27.511719 L 55.375 28.613281 L 55.542969 28.613281 L 55.542969 27.351562 L 55.394531 27.351562 L 55.117188 27.5 " fill-opacity="1" fill-rule="nonzero"/><path fill="#ffffff" d="M 56.503906 27.929688 L 56.503906 27.925781 C 56.660156 27.871094 56.738281 27.761719 56.738281 27.632812 C 56.738281 27.476562 56.625 27.332031 56.375 27.332031 C 56.242188 27.332031 56.113281 27.378906 56.046875 27.429688 L 56.089844 27.550781 C 56.144531 27.511719 56.242188 27.46875 56.34375 27.46875 C 56.5 27.46875 56.566406 27.558594 56.566406 27.660156 C 56.566406 27.808594 56.40625 27.871094 56.285156 27.871094 L 56.1875 27.871094 L 56.1875 28 L 56.285156 28 C 56.449219 28 56.609375 28.074219 56.609375 28.25 C 56.613281 28.355469 56.542969 28.496094 56.324219 28.496094 C 56.207031 28.496094 56.09375 28.445312 56.042969 28.414062 L 55.996094 28.546875 C 56.058594 28.589844 56.183594 28.632812 56.324219 28.632812 C 56.628906 28.632812 56.789062 28.457031 56.789062 28.253906 C 56.789062 28.078125 56.660156 27.960938 56.503906 27.929688 " fill-opacity="1" fill-rule="nonzero"/><path fill="#855434" d="M 54.660156 44.929688 C 53.269531 42.765625 51.835938 41.820312 50.53125 40.777344 C 50.304688 41.6875 49.832031 42.515625 49.203125 43.214844 C 47.835938 44.738281 45.828125 45.6875 43.820312 46.003906 C 42.859375 46.152344 41.871094 46.164062 40.914062 45.972656 C 40.453125 45.878906 40 45.734375 39.570312 45.535156 C 39.476562 45.492188 39.304688 45.433594 39.167969 45.359375 C 38.886719 47.429688 38.285156 52.46875 37.933594 55.316406 L 56.03125 55.316406 C 56.167969 52.132812 56.203125 47.332031 54.660156 44.929688 " fill-opacity="1" fill-rule="nonzero"/><path fill="#a47444" d="M 54.660156 44.929688 C 53.269531 42.765625 51.835938 41.820312 50.53125 40.777344 C 50.488281 40.945312 50.4375 41.113281 50.378906 41.28125 C 51.59375 42.230469 52.902344 43.1875 54.175781 45.171875 C 55.679688 47.511719 55.683594 52.136719 55.554688 55.316406 L 56.03125 55.316406 C 56.167969 52.132812 56.203125 47.332031 54.660156 44.929688 " fill-opacity="1" fill-rule="nonzero"/><path fill="#6f4324" d="M 51.273438 43.570312 C 51.367188 41.945312 50.800781 41.390625 50.769531 40.964844 C 50.691406 40.902344 50.609375 40.839844 50.53125 40.777344 C 50.304688 41.6875 49.832031 42.515625 49.203125 43.214844 C 47.835938 44.738281 45.828125 45.6875 43.820312 46.003906 C 42.859375 46.152344 41.871094 46.164062 40.914062 45.972656 C 40.453125 45.878906 40 45.734375 39.570312 45.535156 C 39.476562 45.492188 39.304688 45.433594 39.167969 45.359375 C 38.886719 47.429688 38.285156 52.46875 37.933594 55.316406 L 44.824219 55.316406 C 44.828125 55.15625 46.101562 52.105469 47.820312 49.179688 C 49.289062 46.671875 51.230469 44.28125 51.273438 43.570312 " fill-opacity="1" fill-rule="nonzero"/><path fill="#e9eaea" d="M 50.46875 40.277344 C 50.265625 40.019531 49.925781 39.917969 49.632812 39.796875 C 49.511719 39.75 49.390625 39.699219 49.269531 39.648438 C 48.753906 39.089844 48.269531 38.375 48.167969 37.546875 C 47.816406 34.667969 48.25 30.371094 48.363281 28.375 C 48.484375 26.265625 47.554688 24.34375 46 23.550781 C 44.445312 22.757812 42.128906 22 42.039062 21.921875 C 41.773438 21.6875 41.402344 21.113281 40.972656 20.957031 C 39.921875 20.585938 37.652344 21.414062 36.546875 21.863281 C 35.113281 22.445312 35.039062 22.507812 34.773438 22.917969 C 34.589844 22.980469 22.910156 29.902344 21.398438 30.789062 C 18.738281 32.34375 20.558594 34.675781 22.609375 33.863281 C 23.664062 33.445312 31.09375 30.382812 33.078125 29.515625 C 33.078125 29.519531 33.074219 29.523438 33.074219 29.523438 C 33.0625 29.550781 33.046875 29.578125 33.035156 29.605469 C 33.035156 29.605469 33.035156 29.605469 33.039062 29.605469 C 32.867188 29.984375 32.703125 30.355469 32.683594 30.425781 C 32.417969 31.40625 32.429688 32.453125 32.746094 33.445312 C 34.25 38.160156 37.539062 42.132812 38.921875 43.910156 C 38.8125 44.425781 38.574219 45.117188 38.871094 45.589844 C 39.160156 46.058594 39.945312 46.160156 40.4375 46.265625 C 41.6875 46.535156 42.980469 46.546875 44.238281 46.328125 C 45.515625 46.109375 46.753906 45.640625 47.847656 44.953125 C 48.90625 44.292969 49.988281 43.386719 50.480469 42.210938 C 50.710938 41.652344 50.882812 40.796875 50.46875 40.277344 " fill-opacity="1" fill-rule="nonzero"/><path fill="#ffffff" d="M 50.449219 40.265625 C 50.246094 40.011719 49.90625 39.910156 49.613281 39.789062 C 49.492188 39.738281 49.371094 39.6875 49.25 39.640625 C 48.734375 39.078125 48.25 38.363281 48.148438 37.535156 C 47.796875 34.65625 48.230469 30.363281 48.34375 28.367188 C 48.464844 26.253906 47.535156 24.335938 45.980469 23.542969 C 44.425781 22.746094 42.105469 21.992188 42.015625 21.914062 C 41.75 21.679688 41.378906 21.101562 40.949219 20.949219 C 39.902344 20.574219 37.632812 21.40625 36.527344 21.851562 C 36.492188 21.867188 36.457031 21.882812 36.425781 21.894531 C 37.605469 21.4375 39.550781 20.792969 40.496094 21.128906 C 40.925781 21.28125 41.296875 21.859375 41.5625 22.09375 C 41.652344 22.171875 43.972656 22.929688 45.527344 23.722656 C 47.078125 24.515625 48.011719 26.4375 47.890625 28.546875 C 47.773438 30.542969 47.339844 34.839844 47.691406 37.714844 C 47.792969 38.546875 48.277344 39.261719 48.796875 39.820312 C 48.917969 39.871094 49.039062 39.917969 49.15625 39.96875 C 49.449219 40.089844 49.789062 40.191406 49.996094 40.449219 C 50.410156 40.964844 50.234375 41.824219 50.003906 42.382812 C 49.515625 43.558594 48.429688 44.460938 47.371094 45.125 C 46.9375 45.398438 46.480469 45.632812 46.007812 45.835938 C 46.644531 45.601562 47.253906 45.304688 47.828125 44.945312 C 48.886719 44.28125 49.96875 43.378906 50.460938 42.199219 C 50.691406 41.644531 50.863281 40.785156 50.449219 40.265625 " fill-opacity="1" fill-rule="nonzero"/><path fill="#d3d4d3" d="M 45.648438 26.3125 C 45.179688 25.429688 44.492188 24.753906 43.804688 24.042969 C 43.320312 23.539062 43 22.976562 43.027344 22.300781 C 42.46875 22.09375 42.074219 21.953125 42.039062 21.921875 C 41.984375 21.875 41.929688 21.816406 41.871094 21.75 C 41.820312 22.351562 41.730469 22.949219 41.574219 23.527344 C 41.390625 24.21875 41.097656 24.976562 40.46875 25.378906 C 40.4375 25.398438 40.390625 25.390625 40.363281 25.363281 C 39.574219 24.605469 38.492188 24.566406 37.761719 25.421875 C 37.6875 25.511719 37.566406 25.386719 37.636719 25.296875 C 38.175781 24.617188 38.960938 24.203125 39.550781 23.570312 C 40.238281 22.828125 40.535156 21.859375 40.867188 20.925781 C 39.777344 20.640625 37.617188 21.429688 36.546875 21.863281 C 35.113281 22.445312 35.039062 22.507812 34.773438 22.917969 C 34.589844 22.980469 22.910156 29.902344 21.398438 30.789062 C 18.738281 32.34375 20.558594 34.675781 22.609375 33.863281 C 23.664062 33.445312 31.09375 30.382812 33.078125 29.515625 C 33.078125 29.519531 33.074219 29.523438 33.074219 29.523438 C 33.0625 29.550781 33.046875 29.578125 33.035156 29.605469 C 33.035156 29.605469 33.035156 29.605469 33.039062 29.605469 C 32.867188 29.984375 32.703125 30.355469 32.683594 30.425781 C 32.417969 31.40625 32.429688 32.453125 32.746094 33.445312 C 34.25 38.160156 37.539062 42.132812 38.921875 43.910156 C 38.8125 44.425781 38.574219 45.117188 38.871094 45.589844 C 39.160156 46.058594 39.945312 46.160156 40.4375 46.265625 C 41.367188 46.464844 42.324219 46.523438 43.269531 46.449219 C 43.320312 45.835938 43.855469 45.121094 44.480469 44.417969 C 45.378906 43.410156 46.636719 41.886719 46.726562 41.28125 C 46.839844 40.515625 43.84375 43.539062 43.820312 42.304688 C 43.785156 40.488281 42.785156 36.484375 43.09375 34.707031 C 43.660156 31.40625 45.902344 29.367188 46.007812 28.957031 C 46.246094 28.050781 46.085938 27.132812 45.648438 26.3125 " fill-opacity="1" fill-rule="nonzero"/><path fill="#bbbcbd" d="M 35.335938 25.667969 C 35.300781 25.667969 35.265625 25.683594 35.230469 25.71875 C 34.890625 26.054688 34.5 26.570312 34.046875 26.820312 C 34.25 25.636719 34.488281 24.457031 34.761719 23.289062 C 34.8125 23.074219 34.484375 22.984375 34.433594 23.199219 C 34.136719 24.472656 33.878906 25.757812 33.664062 27.046875 C 33.644531 27.171875 33.738281 27.292969 33.875 27.257812 C 34.511719 27.082031 34.988281 26.445312 35.4375 25.988281 C 35.441406 25.988281 35.445312 25.988281 35.449219 25.984375 C 35.648438 25.890625 35.886719 25.988281 35.988281 26.175781 C 36.089844 26.367188 36.386719 26.195312 36.28125 26.003906 C 36.101562 25.664062 35.6875 25.535156 35.335938 25.667969 " fill-opacity="1" fill-rule="nonzero"/><path fill="#bbbcbd" d="M 41.867188 22.1875 C 41.75 23.726562 41.519531 25.253906 41.1875 26.761719 C 40.886719 26.542969 40.601562 26.304688 40.335938 26.042969 C 40.050781 25.757812 39.828125 25.351562 39.511719 25.109375 C 39.277344 24.929688 38.96875 24.882812 38.683594 24.929688 C 38.519531 24.953125 38.363281 25.015625 38.214844 25.089844 C 38.117188 25.140625 38.019531 25.203125 37.929688 25.265625 C 37.917969 25.273438 37.882812 25.292969 37.847656 25.320312 C 37.808594 25.328125 37.777344 25.34375 37.753906 25.371094 C 37.730469 25.375 37.707031 25.382812 37.683594 25.402344 C 37.617188 25.453125 37.582031 25.488281 37.558594 25.5625 C 37.558594 25.566406 37.558594 25.574219 37.554688 25.578125 C 36.871094 26.226562 36.816406 27.253906 36.9375 28.164062 C 37.09375 29.359375 37.304688 30.554688 37.519531 31.742188 C 37.949219 34.132812 38.484375 36.515625 39.328125 38.796875 C 39.796875 40.074219 40.367188 41.316406 41.050781 42.496094 C 41.160156 42.683594 41.457031 42.515625 41.34375 42.324219 C 39.054688 38.378906 38.183594 33.847656 37.46875 29.402344 C 37.285156 28.265625 36.816406 26.554688 37.902344 25.722656 C 38.074219 25.632812 38.246094 25.453125 38.386719 25.382812 C 38.84375 25.152344 39.210938 25.238281 39.519531 25.628906 C 40 26.238281 40.566406 26.757812 41.210938 27.195312 C 41.300781 27.253906 41.4375 27.195312 41.460938 27.09375 C 41.832031 25.476562 42.082031 23.839844 42.210938 22.1875 C 42.226562 21.972656 41.886719 21.972656 41.867188 22.1875 " fill-opacity="1" fill-rule="nonzero"/><path fill="#bbbcbd" d="M 33.40625 27.5625 L 32.839844 29.503906 C 32.78125 29.714844 33.109375 29.804688 33.167969 29.59375 C 33.359375 28.949219 33.546875 28.300781 33.734375 27.652344 C 33.792969 27.445312 33.464844 27.355469 33.40625 27.5625 " fill-opacity="1" fill-rule="nonzero"/><path fill="#f5b47a" d="M 22.5 20.78125 C 22.621094 21.308594 22.78125 22.007812 22.96875 22.8125 L 25.84375 22.851562 C 25.148438 21.4375 24.597656 20.261719 24.398438 19.730469 C 24.390625 19.703125 24.375 19.6875 24.355469 19.675781 C 23.976562 18.230469 23.167969 16.917969 22.039062 16.035156 C 21.464844 15.585938 20.828125 15.390625 20.121094 15.417969 C 19.703125 15.433594 18.832031 15.449219 18.933594 16.121094 C 18.816406 16.148438 18.703125 16.183594 18.601562 16.230469 C 18.242188 16.394531 18.011719 16.796875 18.171875 17.195312 C 18.066406 17.28125 17.988281 17.402344 17.96875 17.5625 C 17.941406 17.785156 18.058594 17.988281 18.242188 18.054688 C 18.15625 18.207031 18.167969 18.410156 18.28125 18.550781 C 18.253906 18.617188 18.246094 18.699219 18.261719 18.796875 C 18.308594 19.0625 18.5 19.222656 18.726562 19.261719 C 18.625 19.640625 18.777344 19.996094 19.035156 20.277344 C 19.421875 20.691406 19.890625 21.03125 20.332031 21.386719 C 20.304688 21.523438 20.234375 21.941406 20.148438 22.46875 L 22.484375 22.496094 C 22.488281 22.496094 22.488281 22.5 22.488281 22.5 C 22.484375 22.019531 22.480469 21.589844 22.484375 21.222656 C 22.484375 21.070312 22.5 20.785156 22.5 20.78125 " fill-opacity="1" fill-rule="nonzero"/><path fill="#efa269" d="M 25.179688 21.5625 C 24.820312 21.898438 24.308594 22.117188 23.832031 22.046875 C 23.578125 22.011719 23.359375 21.878906 23.210938 21.667969 C 22.949219 21.292969 23.109375 20.777344 22.816406 20.429688 C 22.707031 20.300781 22.566406 20.25 22.417969 20.179688 C 22.238281 20.09375 22.074219 19.992188 21.914062 19.871094 C 21.632812 19.660156 21.386719 19.398438 21.203125 19.097656 C 20.839844 18.5 20.679688 17.699219 20.898438 17.027344 C 21.066406 16.527344 21.429688 16.164062 21.886719 15.953125 C 21.34375 15.5625 20.742188 15.390625 20.082031 15.417969 C 19.664062 15.433594 18.792969 15.449219 18.894531 16.121094 C 18.777344 16.148438 18.664062 16.183594 18.558594 16.230469 C 18.203125 16.394531 17.972656 16.796875 18.128906 17.195312 C 18.023438 17.28125 17.945312 17.402344 17.929688 17.5625 C 17.902344 17.785156 18.019531 17.988281 18.203125 18.054688 C 18.113281 18.207031 18.128906 18.410156 18.238281 18.550781 C 18.214844 18.617188 18.207031 18.699219 18.222656 18.796875 C 18.269531 19.0625 18.460938 19.222656 18.6875 19.261719 C 18.585938 19.640625 18.734375 19.996094 18.996094 20.277344 C 19.378906 20.691406 19.851562 21.03125 20.289062 21.386719 C 20.261719 21.523438 20.195312 21.941406 20.109375 22.46875 L 22.445312 22.496094 C 22.445312 22.496094 22.445312 22.5 22.449219 22.5 C 22.441406 22.019531 22.441406 21.589844 22.445312 21.222656 C 22.445312 21.070312 22.457031 20.785156 22.460938 20.78125 C 22.582031 21.308594 22.742188 22.007812 22.929688 22.8125 L 25.800781 22.851562 C 25.578125 22.390625 25.367188 21.957031 25.179688 21.5625 " fill-opacity="1" fill-rule="nonzero"/><path fill="#84b6c8" d="M 26.832031 11.058594 C 26.226562 10.777344 18.46875 7.289062 18.21875 6.636719 C 17.433594 4.613281 15.859375 3.09375 13.820312 2.683594 C 10.351562 1.984375 6.855469 4.769531 6.015625 8.90625 C 5.175781 13.039062 7.304688 16.960938 10.773438 17.660156 C 12.65625 18.039062 14.546875 17.390625 16.015625 16.0625 C 16.644531 15.492188 25.398438 15.398438 25.878906 15.390625 C 27.003906 15.375 27.835938 14.902344 27.972656 14.226562 L 28.238281 12.914062 C 28.375 12.25 27.816406 11.519531 26.832031 11.058594 " fill-opacity="1" fill-rule="nonzero"/><path fill="#61a3b8" d="M 26.832031 11.058594 C 26.226562 10.777344 18.46875 7.289062 18.21875 6.636719 C 18.574219 8.359375 18.492188 9.921875 18.214844 11.261719 C 17.660156 13.90625 16.332031 15.679688 16.015625 16.0625 C 16.265625 15.835938 17.808594 15.683594 19.605469 15.582031 C 19.601562 15.585938 19.601562 15.589844 19.601562 15.59375 C 19.667969 15.578125 20.683594 15.644531 20.816406 15.667969 C 21.160156 15.730469 21.453125 15.816406 21.664062 15.890625 C 21.902344 15.972656 22.042969 16.039062 22.042969 16.039062 L 22.019531 15.476562 C 23.964844 15.414062 25.675781 15.394531 25.878906 15.390625 C 27.003906 15.375 27.835938 14.902344 27.972656 14.226562 L 28.238281 12.914062 C 28.375 12.25 27.816406 11.519531 26.832031 11.058594 " fill-opacity="1" fill-rule="nonzero"/><path fill="#61a3b8" d="M 20.585938 19.195312 C 20.316406 19.347656 20.089844 19.589844 19.785156 19.675781 L 19.792969 19.890625 C 19.824219 20.6875 20.386719 21.316406 21.042969 21.289062 C 21.441406 21.273438 21.78125 21.019531 21.984375 20.652344 C 21.355469 20.417969 20.832031 19.789062 20.585938 19.195312 " fill-opacity="1" fill-rule="nonzero"/><path fill="#e9eaea" d="M 16.996094 11.1875 C 16.289062 14.800781 13.898438 17.464844 10.929688 16.941406 C 7.960938 16.417969 5.957031 13.097656 6.644531 9.246094 C 7.332031 5.394531 10.355469 2.824219 13.324219 3.351562 C 16.292969 3.875 17.746094 7.347656 16.996094 11.1875 " fill-opacity="1" fill-rule="nonzero"/><path fill="#d3d4d3" d="M 11.742188 10.417969 C 11.105469 13.9375 13.941406 16.363281 14.261719 16.121094 C 15.609375 15.105469 16.601562 13.316406 17.011719 11.203125 C 17.386719 9.285156 17.210938 7.460938 16.574219 6.046875 C 16.46875 5.816406 12.34375 7.09375 11.742188 10.417969 " fill-opacity="1" fill-rule="nonzero"/><path fill="#f4f6f5" d="M 17.136719 9.34375 L 12.210938 8.824219 C 11.664062 8.730469 11.25 9.070312 11.164062 9.550781 L 10.996094 10.894531 C 10.914062 11.375 11.101562 11.925781 11.644531 12.019531 L 16.320312 13.285156 C 16.320312 13.285156 16.421875 13.050781 16.546875 12.683594 C 16.660156 12.359375 16.792969 11.929688 16.894531 11.472656 C 16.976562 11.101562 17.03125 10.726562 17.066406 10.398438 C 17.132812 9.792969 17.136719 9.34375 17.136719 9.34375 " fill-opacity="1" fill-rule="nonzero"/><path fill="#e9eaea" d="M 16.855469 9.3125 C 16.308594 10.097656 15.558594 10.710938 14.667969 11.105469 C 14.050781 11.378906 13.40625 11.59375 12.742188 11.722656 C 12.273438 11.8125 11.722656 11.917969 11.226562 11.851562 C 11.347656 11.933594 11.488281 11.992188 11.644531 12.019531 L 16.320312 13.285156 C 16.320312 13.285156 16.421875 13.050781 16.546875 12.683594 C 16.660156 12.359375 16.792969 11.929688 16.894531 11.472656 C 16.976562 11.101562 17.03125 10.726562 17.066406 10.398438 C 17.132812 9.792969 17.136719 9.34375 17.136719 9.34375 L 16.855469 9.3125 " fill-opacity="1" fill-rule="nonzero"/><path fill="#ffffff" d="M 11.84375 8.78125 C 11.464844 8.714844 11.03125 9.351562 10.878906 10.207031 C 10.722656 11.0625 10.910156 11.808594 11.292969 11.878906 C 11.671875 11.945312 12.105469 11.308594 12.257812 10.453125 C 12.351562 9.929688 12.320312 9.449219 12.195312 9.140625 C 12.253906 9.136719 16.667969 9.605469 16.667969 9.605469 C 16.738281 9.5 16.8125 9.398438 16.898438 9.308594 C 16.898438 9.308594 11.871094 8.785156 11.84375 8.78125 " fill-opacity="1" fill-rule="nonzero"/><path fill="#84b6c8" d="M 6.011719 3.417969 C 5.707031 3.097656 5.398438 2.78125 5.09375 2.460938 C 4.976562 2.339844 4.761719 2.378906 4.660156 2.496094 C 4.539062 2.632812 4.582031 2.808594 4.695312 2.925781 C 5 3.246094 5.308594 3.566406 5.613281 3.886719 C 5.730469 4.007812 5.949219 3.964844 6.046875 3.851562 C 6.167969 3.714844 6.125 3.539062 6.011719 3.417969 " fill-opacity="1" fill-rule="nonzero"/><path fill="#84b6c8" d="M 4.726562 4.59375 C 3.828125 4.03125 2.945312 3.449219 2.074219 2.84375 C 1.75 2.621094 1.351562 3.085938 1.675781 3.3125 C 2.589844 3.945312 3.515625 4.558594 4.460938 5.148438 C 4.796875 5.355469 5.058594 4.800781 4.726562 4.59375 " fill-opacity="1" fill-rule="nonzero"/><path fill="#84b6c8" d="M 3.039062 7.988281 C 2.207031 7.789062 1.371094 7.585938 0.535156 7.386719 C 0.148438 7.292969 0.0390625 7.894531 0.421875 7.988281 C 1.257812 8.1875 2.089844 8.390625 2.925781 8.589844 C 3.3125 8.683594 3.425781 8.082031 3.039062 7.988281 " fill-opacity="1" fill-rule="nonzero"/><path fill="#84b6c8" d="M 1.5 9.695312 C 1.105469 9.726562 1.15625 10.339844 1.550781 10.304688 L 2.671875 10.214844 C 3.066406 10.183594 3.015625 9.570312 2.621094 9.605469 L 1.5 9.695312 " fill-opacity="1" fill-rule="nonzero"/><path fill="#84b6c8" d="M 3.308594 12.007812 C 2.582031 12.371094 1.855469 12.730469 1.132812 13.09375 C 0.78125 13.269531 0.988281 13.847656 1.34375 13.671875 C 2.066406 13.308594 2.792969 12.945312 3.519531 12.582031 C 3.867188 12.40625 3.660156 11.828125 3.308594 12.007812 " fill-opacity="1" fill-rule="nonzero"/><path fill="#84b6c8" d="M 3.621094 13.3125 C 3.386719 13.488281 3.152344 13.667969 2.917969 13.84375 C 2.601562 14.082031 2.953125 14.585938 3.269531 14.347656 C 3.503906 14.167969 3.738281 13.992188 3.972656 13.8125 C 4.289062 13.574219 3.9375 13.070312 3.621094 13.3125 " fill-opacity="1" fill-rule="nonzero"/><path fill="#478494" d="M 28.046875 12.015625 L 27.414062 11.390625 C 27.34375 11.703125 27.070312 12.679688 26.882812 13.273438 C 26.710938 13.8125 18.421875 13.164062 17.761719 12.914062 C 17.132812 14.632812 16.277344 15.765625 16.03125 16.0625 C 16.285156 15.835938 17.828125 15.683594 19.621094 15.582031 C 19.621094 15.585938 19.621094 15.589844 19.621094 15.59375 C 19.6875 15.578125 20.703125 15.644531 20.835938 15.667969 C 21.179688 15.730469 21.46875 15.816406 21.683594 15.890625 C 21.921875 15.972656 22.0625 16.039062 22.0625 16.039062 L 22.039062 15.480469 C 23.984375 15.414062 25.695312 15.394531 25.898438 15.390625 C 27.023438 15.375 27.851562 14.902344 27.992188 14.226562 L 28.257812 12.914062 C 28.316406 12.617188 28.238281 12.308594 28.046875 12.015625 " fill-opacity="1" fill-rule="nonzero"/><path fill="#478494" d="M 19.753906 19.933594 C 20.472656 19.597656 21.019531 20.917969 21.652344 21.058594 C 21.769531 20.957031 21.867188 20.832031 21.949219 20.6875 C 21.316406 20.453125 20.792969 19.824219 20.550781 19.230469 C 20.28125 19.386719 20.050781 19.625 19.746094 19.710938 L 19.753906 19.929688 C 19.753906 19.929688 19.753906 19.929688 19.753906 19.933594 " fill-opacity="1" fill-rule="nonzero"/><path fill="#f03c4e" d="M 27.894531 11.695312 C 27.757812 11.53125 27.617188 11.394531 27.507812 11.308594 C 27.449219 11.261719 27.386719 11.273438 27.34375 11.308594 C 27.398438 11.585938 27.410156 11.878906 27.355469 12.164062 L 26.890625 14.351562 C 26.808594 14.734375 26.652344 15.042969 26.449219 15.292969 C 26.464844 15.390625 26.558594 15.464844 26.664062 15.441406 C 26.914062 15.390625 27.167969 15.3125 27.390625 15.199219 C 27.730469 15.023438 28 14.765625 28.082031 14.371094 L 28.371094 12.9375 C 28.445312 12.511719 28.175781 12.039062 27.894531 11.695312 " fill-opacity="1" fill-rule="nonzero"/><path fill="#b12123" d="M 27.625 13.152344 C 27.460938 13.234375 27.285156 13.300781 27.109375 13.355469 L 26.890625 14.378906 C 26.808594 14.761719 26.652344 15.066406 26.449219 15.316406 C 26.464844 15.414062 26.558594 15.492188 26.664062 15.46875 C 26.914062 15.414062 27.167969 15.335938 27.390625 15.222656 C 27.496094 15.167969 27.792969 14.496094 27.902344 14.023438 C 27.957031 13.78125 27.980469 13.566406 27.988281 13.390625 C 28 13.199219 27.796875 13.066406 27.625 13.152344 " fill-opacity="1" fill-rule="nonzero"/><path fill="#e28848" d="M 18.410156 18.160156 C 18.429688 18.136719 18.4375 18.113281 18.4375 18.085938 C 18.667969 18.074219 18.914062 17.996094 19.140625 17.972656 C 19.441406 17.941406 19.742188 17.933594 20.046875 17.9375 C 20.054688 17.980469 20.0625 18.027344 20.066406 18.074219 C 19.574219 18.152344 19.078125 18.214844 18.59375 18.320312 C 18.519531 18.339844 18.453125 18.363281 18.398438 18.394531 C 18.351562 18.324219 18.355469 18.226562 18.410156 18.160156 Z M 21.921875 20.710938 L 22.660156 20.671875 C 22.660156 20.65625 22.65625 20.640625 22.652344 20.625 C 22.621094 20.496094 22.101562 20.644531 21.496094 20.203125 C 21.09375 19.886719 20.816406 19.421875 20.648438 18.886719 C 20.613281 18.777344 20.472656 18.757812 20.300781 18.777344 C 20.054688 18.804688 19.742188 18.90625 19.566406 18.9375 C 19.28125 18.984375 18.953125 19.105469 18.679688 19.011719 C 18.46875 18.988281 18.425781 18.839844 18.550781 18.558594 C 18.65625 18.535156 19.132812 18.457031 19.265625 18.433594 C 19.570312 18.382812 19.871094 18.332031 20.175781 18.28125 C 20.246094 18.269531 20.277344 18.199219 20.269531 18.140625 C 20.269531 18.132812 20.253906 17.894531 20.230469 17.8125 C 20.21875 17.761719 20.113281 17.710938 20.085938 17.710938 C 19.722656 17.707031 18.730469 17.800781 18.59375 17.824219 C 18.386719 17.859375 17.898438 17.867188 18.25 17.40625 C 18.457031 17.132812 19.035156 17.125 19.335938 17.105469 C 19.691406 17.078125 20.019531 17.121094 20.375 17.113281 C 20.507812 17.113281 20.5 16.886719 20.367188 16.890625 C 20.011719 16.894531 19.414062 16.882812 18.929688 16.941406 C 18.660156 16.972656 18.363281 17.074219 18.324219 17.09375 C 17.933594 16.15625 20.160156 16.308594 20.566406 16.335938 C 20.699219 16.34375 20.691406 16.121094 20.558594 16.109375 C 20.398438 16.101562 19.328125 16.140625 19.160156 16.097656 C 19.074219 16.078125 19.023438 16.027344 18.996094 15.96875 C 18.964844 15.902344 18.910156 15.914062 18.902344 15.96875 C 18.894531 16.023438 18.898438 16.074219 18.910156 16.132812 C 18.792969 16.160156 18.679688 16.195312 18.574219 16.242188 C 18.21875 16.40625 17.988281 16.808594 18.148438 17.207031 C 18.039062 17.292969 17.964844 17.414062 17.945312 17.574219 C 17.917969 17.796875 18.035156 18 18.21875 18.066406 C 18.132812 18.21875 18.144531 18.421875 18.257812 18.5625 C 18.230469 18.628906 18.222656 18.710938 18.238281 18.808594 C 18.285156 19.074219 18.476562 19.234375 18.703125 19.273438 C 18.601562 19.652344 18.75 20.007812 19.011719 20.289062 C 19.355469 20.660156 19.769531 20.972656 20.167969 21.285156 C 20.167969 21.285156 19.386719 20.574219 19.011719 19.996094 C 18.808594 19.679688 18.84375 19.472656 18.917969 19.277344 C 19.429688 19.25 19.964844 19.09375 20.464844 19.011719 C 20.460938 19.023438 20.453125 19.03125 20.453125 19.046875 C 20.40625 19.296875 20.007812 19.421875 19.828125 19.492188 C 19.609375 19.582031 19.382812 19.640625 19.15625 19.679688 C 19.027344 19.703125 19.03125 19.925781 19.160156 19.90625 C 19.488281 19.851562 19.800781 19.757812 20.101562 19.613281 C 20.265625 19.535156 20.457031 19.453125 20.566406 19.300781 C 20.832031 19.945312 21.320312 20.449219 21.921875 20.710938 " fill-opacity="1" fill-rule="nonzero"/><path fill="#d3d4d3" d="M 23.367188 32.335938 C 23.21875 30.960938 22.867188 24.414062 22.878906 23.792969 C 22.882812 23.523438 22.9375 23.054688 22.65625 22.929688 C 22.640625 22.65625 22.640625 21.976562 22.660156 21.828125 C 22.679688 21.703125 22.492188 21.589844 22.492188 21.589844 L 20.285156 21.550781 C 20.203125 21.550781 20.132812 21.613281 20.125 21.695312 C 20.085938 22.046875 20.050781 22.480469 20.023438 22.925781 C 19.824219 23.027344 19.78125 23.332031 19.773438 23.570312 C 19.753906 24.238281 19.25 31.605469 19.722656 33.132812 C 19.996094 34.027344 20.820312 34.386719 21.621094 34.359375 C 22.574219 34.320312 23.46875 33.269531 23.367188 32.335938 " fill-opacity="1" fill-rule="nonzero"/><path fill="#e9eaea" d="M 46.726562 25.238281 C 45.089844 23.136719 43.289062 23.917969 40.5 26.171875 C 38.46875 27.8125 34.710938 29.835938 31.964844 31.285156 C 31.957031 31.289062 30.6875 29.789062 29.492188 27.925781 C 28.929688 27.046875 28.164062 25.332031 27.621094 24.582031 C 26.769531 23.40625 25.722656 22.109375 25.5625 21.96875 C 25.398438 21.828125 24.921875 22.21875 24.371094 22.414062 C 23.820312 22.609375 23.21875 22.707031 23.09375 22.75 C 22.863281 22.828125 22.492188 22.761719 22.488281 22.910156 C 22.445312 22.980469 23.0625 25.46875 23.195312 25.835938 C 23.457031 26.5625 27.402344 36.347656 29.273438 37.019531 C 29.667969 37.160156 30.773438 37.054688 31.132812 36.898438 C 34.183594 35.5625 43.980469 30.324219 44.128906 30.261719 C 46.925781 29.066406 48.21875 27.820312 46.726562 25.238281 " fill-opacity="1" fill-rule="nonzero"/><path fill="#ffffff" d="M 46.726562 25.238281 C 45.089844 23.136719 43.289062 23.917969 40.5 26.171875 C 38.46875 27.8125 34.710938 29.835938 31.964844 31.285156 C 31.957031 31.289062 30.6875 29.789062 29.492188 27.925781 C 28.929688 27.046875 28.164062 25.332031 27.621094 24.582031 C 27.222656 24.035156 26.789062 23.464844 26.417969 22.996094 C 26.40625 22.960938 26.382812 22.929688 26.347656 22.910156 C 26.347656 22.90625 26.34375 22.90625 26.34375 22.902344 C 26.339844 22.902344 26.339844 22.902344 26.339844 22.90625 C 26.320312 22.894531 26.296875 22.890625 26.273438 22.890625 L 26.183594 22.890625 C 26.148438 22.890625 26.113281 22.90625 26.085938 22.929688 C 25.210938 23.300781 24.308594 23.601562 23.386719 23.832031 C 23.199219 23.875 23.28125 24.164062 23.46875 24.117188 C 24.367188 23.894531 25.480469 23.605469 26.335938 23.25 C 26.734375 23.75 27.164062 24.355469 27.609375 24.96875 C 28.152344 25.71875 28.746094 27.46875 29.3125 28.347656 C 30.503906 30.210938 31.808594 31.667969 31.820312 31.660156 C 34.5625 30.214844 38.285156 28.234375 40.316406 26.59375 C 43.109375 24.339844 44.910156 23.558594 46.546875 25.660156 C 47.140625 26.691406 47.292969 27.507812 47.082031 28.191406 C 47.519531 27.425781 47.449219 26.488281 46.726562 25.238281 " fill-opacity="1" fill-rule="nonzero"/><path fill="#855434" d="M 43.59375 10.300781 C 43.84375 10.597656 43.855469 11.070312 43.546875 11.359375 C 43.730469 11.019531 43.734375 10.628906 43.59375 10.300781 Z M 43.589844 11.746094 C 43.582031 11.734375 43.574219 11.722656 43.566406 11.707031 C 43.941406 11.476562 44.171875 11.039062 44.082031 10.59375 C 43.992188 10.125 43.578125 9.796875 43.121094 9.746094 C 43.117188 9.742188 43.113281 9.742188 43.113281 9.742188 C 42.992188 9.164062 42.816406 8.574219 42.488281 8.039062 C 41.164062 6.257812 39.207031 4.90625 35.644531 4.5 C 35.207031 4.449219 31.828125 4.109375 29.902344 5.578125 C 28.808594 6.410156 28.304688 7.585938 28.550781 8.941406 C 28.582031 9.125 28.742188 9.242188 28.710938 9.054688 C 28.476562 7.761719 29.039062 6.488281 30.144531 5.773438 C 30.292969 5.675781 30.449219 5.59375 30.609375 5.515625 C 29.429688 6.3125 28.707031 7.492188 28.960938 8.894531 C 29.007812 9.152344 29.167969 9.445312 29.398438 9.75 C 29.457031 9.832031 29.378906 9.269531 29.558594 8.722656 C 29.703125 8.292969 30.105469 7.847656 30.160156 7.914062 C 30.21875 7.976562 29.949219 8.460938 29.941406 9.019531 C 29.929688 10.011719 30.421875 10.820312 31.003906 11.429688 C 31.421875 11.867188 31.882812 12.199219 32.234375 12.421875 L 32.40625 18.167969 C 32.433594 19.101562 32.425781 20.042969 32.496094 20.972656 C 32.542969 21.597656 32.695312 22.226562 33.242188 22.597656 C 33.402344 22.703125 33.539062 22.4375 33.378906 22.332031 C 32.765625 21.921875 32.789062 21.039062 32.769531 20.386719 C 32.742188 19.484375 32.714844 18.585938 32.6875 17.683594 C 32.636719 15.988281 32.589844 14.296875 32.535156 12.601562 C 32.703125 12.695312 32.804688 12.742188 32.804688 12.742188 L 33.300781 21.570312 C 33.332031 22.101562 33.777344 22.519531 34.308594 22.507812 C 34.425781 22.507812 34.542969 22.5 34.660156 22.484375 L 40.238281 21.839844 C 40.238281 21.839844 42.863281 23.304688 44.703125 20.421875 C 45.339844 18.460938 45.496094 16.117188 44.464844 13.519531 C 45.660156 15.746094 45.863281 18.492188 44.898438 20.847656 C 44.824219 21.023438 45.089844 21.160156 45.164062 20.984375 C 46.425781 17.910156 45.785156 14.234375 43.589844 11.746094 " fill-opacity="1" fill-rule="nonzero"/><path fill="#6f4324" d="M 44.109375 12.984375 C 44.027344 12.71875 43.917969 12.46875 43.785156 12.222656 C 43.835938 12.195312 43.886719 12.175781 43.945312 12.175781 C 43.824219 12.019531 43.699219 11.867188 43.566406 11.71875 C 43.566406 11.714844 43.566406 11.710938 43.570312 11.707031 C 43.640625 11.664062 43.707031 11.609375 43.769531 11.550781 C 43.035156 11.941406 42.226562 12.199219 41.394531 12.21875 C 40.507812 12.238281 39.679688 11.960938 38.988281 11.449219 C 39.433594 11.605469 39.90625 11.679688 40.386719 11.667969 C 40.578125 11.664062 40.5625 11.367188 40.371094 11.371094 C 39.6875 11.386719 39.039062 11.214844 38.453125 10.871094 C 38.464844 10.851562 38.488281 10.835938 38.519531 10.832031 C 38.644531 10.824219 38.765625 10.800781 38.886719 10.777344 C 39.171875 10.84375 39.460938 10.882812 39.726562 10.898438 C 39.917969 10.910156 39.898438 10.613281 39.707031 10.601562 C 38.96875 10.558594 38.03125 10.316406 37.550781 9.730469 C 37.734375 9.824219 37.929688 9.90625 38.128906 9.96875 C 38.3125 10.03125 38.371094 9.738281 38.191406 9.679688 C 37.871094 9.574219 37.570312 9.425781 37.292969 9.234375 C 37.265625 9.136719 37.25 9.035156 37.246094 8.925781 C 37.511719 9.085938 37.789062 9.199219 38.082031 9.246094 C 38.367188 9.394531 38.667969 9.511719 38.988281 9.589844 C 39.175781 9.636719 39.238281 9.34375 39.050781 9.300781 C 38.289062 9.113281 37.613281 8.6875 37.117188 8.101562 C 37.097656 8.070312 37.074219 8.039062 37.050781 8.007812 C 37.261719 8.097656 37.476562 8.171875 37.699219 8.238281 C 37.882812 8.292969 37.945312 8 37.761719 7.945312 C 37.394531 7.839844 37.046875 7.695312 36.714844 7.519531 C 36.640625 7.382812 36.570312 7.246094 36.511719 7.097656 C 36.511719 7.09375 36.507812 7.09375 36.507812 7.089844 C 36.519531 7.082031 36.53125 7.078125 36.546875 7.078125 C 37.925781 7.128906 38.78125 8.246094 39.742188 9.074219 C 40.226562 9.488281 40.769531 9.816406 41.414062 9.898438 C 42.007812 9.972656 42.585938 9.800781 43.167969 9.753906 C 43.152344 9.75 43.136719 9.746094 43.117188 9.746094 C 43.117188 9.742188 43.113281 9.742188 43.113281 9.742188 C 42.992188 9.164062 42.816406 8.574219 42.488281 8.039062 C 41.261719 6.390625 39.492188 5.109375 36.410156 4.605469 L 36.425781 4.890625 C 35.8125 4.816406 35.199219 4.863281 34.601562 5.039062 C 34.417969 5.09375 34.511719 5.375 34.695312 5.324219 C 35.269531 5.15625 35.855469 5.113281 36.441406 5.195312 L 36.464844 5.609375 C 35.863281 5.621094 35.289062 5.804688 34.777344 6.132812 C 34.617188 6.238281 34.78125 6.488281 34.941406 6.382812 C 35.410156 6.078125 35.933594 5.917969 36.484375 5.902344 L 36.507812 6.355469 C 36.507812 6.355469 35.507812 6.378906 35.105469 6.855469 C 34.355469 7.738281 34.425781 9.039062 34.441406 10.121094 C 34.441406 10.15625 34.421875 10.203125 34.382812 10.210938 C 33.234375 10.429688 31.945312 9.570312 32.167969 8.363281 C 31.707031 8.660156 31.417969 9.265625 31.324219 9.777344 C 31.3125 9.84375 31.226562 9.863281 31.175781 9.824219 C 31.039062 9.710938 30.917969 9.574219 30.820312 9.429688 C 30.664062 9.863281 30.578125 10.324219 30.484375 10.78125 C 30.640625 11.015625 30.816406 11.234375 31.003906 11.429688 C 31.421875 11.867188 31.882812 12.199219 32.234375 12.421875 L 32.40625 18.167969 C 32.433594 19.101562 32.425781 20.042969 32.496094 20.972656 C 32.542969 21.597656 32.695312 22.226562 33.242188 22.597656 C 33.402344 22.703125 33.539062 22.4375 33.378906 22.332031 C 32.765625 21.921875 32.789062 21.039062 32.769531 20.386719 C 32.742188 19.484375 32.714844 18.585938 32.6875 17.683594 C 32.636719 15.988281 32.589844 14.296875 32.535156 12.601562 C 32.703125 12.695312 32.804688 12.742188 32.804688 12.742188 L 33.300781 21.570312 C 33.332031 22.101562 33.777344 22.519531 34.308594 22.507812 C 34.425781 22.507812 34.542969 22.5 34.660156 22.484375 L 40.199219 21.84375 C 40.597656 20.820312 40.890625 19.808594 40.882812 18.6875 C 40.871094 17.621094 40.617188 16.578125 40.550781 15.519531 C 40.527344 15.113281 40.519531 14.683594 40.621094 14.289062 C 40.648438 14.175781 40.6875 14.039062 40.773438 13.945312 C 40.839844 14.414062 40.90625 14.878906 40.96875 15.34375 C 40.996094 15.535156 41.296875 15.519531 41.269531 15.328125 C 41.199219 14.835938 41.128906 14.34375 41.058594 13.855469 C 41.179688 13.882812 41.289062 13.984375 41.382812 14.101562 C 41.773438 14.933594 41.949219 15.910156 42.070312 16.800781 C 42.097656 16.988281 42.398438 16.972656 42.371094 16.78125 C 42.277344 16.105469 42.152344 15.386719 41.9375 14.710938 C 41.929688 14.585938 41.921875 14.460938 41.921875 14.335938 C 41.914062 13.933594 41.910156 13.449219 42.234375 13.15625 C 42.285156 13.496094 42.335938 13.839844 42.386719 14.179688 C 42.414062 14.367188 42.710938 14.351562 42.683594 14.164062 C 42.628906 13.777344 42.570312 13.390625 42.511719 13.003906 C 42.703125 12.96875 42.871094 13.082031 43.003906 13.261719 C 43.136719 13.941406 43.253906 14.621094 43.351562 15.304688 C 43.378906 15.492188 43.679688 15.476562 43.652344 15.289062 C 43.554688 14.617188 43.441406 13.953125 43.308594 13.285156 C 43.367188 12.976562 43.453125 12.667969 43.574219 12.457031 C 43.675781 12.65625 43.757812 12.863281 43.828125 13.078125 C 43.886719 13.261719 44.167969 13.167969 44.109375 12.984375 " fill-opacity="1" fill-rule="nonzero"/><path fill="#a47444" d="M 35.128906 5.433594 C 34.378906 5.679688 33.769531 6.203125 33.402344 6.863281 C 33.464844 6.566406 33.558594 6.273438 33.679688 5.988281 C 33.730469 5.871094 33.628906 5.738281 33.5 5.78125 C 32.929688 5.964844 32.414062 6.269531 31.992188 6.675781 C 32.171875 6.371094 32.40625 6.101562 32.695312 5.878906 C 32.804688 5.792969 32.761719 5.585938 32.605469 5.605469 C 31.757812 5.703125 30.957031 6.03125 30.292969 6.542969 C 30.566406 6.195312 30.878906 5.878906 31.226562 5.601562 C 31.375 5.480469 31.214844 5.234375 31.0625 5.351562 C 30.390625 5.890625 29.84375 6.546875 29.445312 7.304688 C 29.421875 7.316406 29.40625 7.339844 29.394531 7.367188 C 29.382812 7.402344 29.371094 7.4375 29.355469 7.472656 C 29.304688 7.621094 29.464844 7.738281 29.570312 7.671875 C 29.597656 7.664062 29.625 7.648438 29.644531 7.617188 C 30.261719 6.796875 31.144531 6.21875 32.136719 5.988281 C 31.785156 6.367188 31.535156 6.820312 31.398438 7.332031 C 31.371094 7.441406 31.457031 7.507812 31.546875 7.507812 C 31.597656 7.535156 31.660156 7.53125 31.707031 7.464844 C 32.105469 6.890625 32.648438 6.449219 33.289062 6.175781 C 33.058594 6.824219 32.964844 7.503906 33.011719 8.195312 C 33.023438 8.390625 33.300781 8.363281 33.308594 8.175781 C 33.375 7.058594 34.15625 6.066406 35.222656 5.714844 C 35.40625 5.65625 35.3125 5.375 35.128906 5.433594 " fill-opacity="1" fill-rule="nonzero"/><path fill="#a47444" d="M 40.332031 10.359375 C 40.917969 10.609375 41.53125 10.710938 42.152344 10.660156 C 41.832031 10.878906 41.464844 11.011719 41.066406 11.050781 C 40.894531 11.066406 40.882812 11.296875 41.042969 11.34375 C 41.800781 11.570312 42.609375 11.453125 43.269531 11.023438 C 43.433594 10.917969 43.269531 10.671875 43.105469 10.777344 C 42.722656 11.023438 42.292969 11.152344 41.851562 11.15625 C 42.1875 11.019531 42.488281 10.8125 42.746094 10.542969 C 42.859375 10.425781 42.722656 10.273438 42.589844 10.304688 C 41.875 10.457031 41.140625 10.382812 40.46875 10.09375 C 40.292969 10.015625 40.15625 10.28125 40.332031 10.359375 " fill-opacity="1" fill-rule="nonzero"/><path fill="#a47444" d="M 43.773438 16.507812 C 43.757812 16.320312 43.457031 16.335938 43.476562 16.527344 C 43.570312 17.601562 43.46875 18.679688 43.171875 19.714844 C 43.191406 18.566406 43.132812 17.414062 42.742188 16.320312 C 42.6875 16.167969 42.4375 16.207031 42.453125 16.378906 C 42.550781 17.648438 42.503906 18.960938 42.042969 20.152344 C 42.070312 19.289062 41.960938 18.433594 41.714844 17.597656 C 41.664062 17.429688 41.425781 17.492188 41.421875 17.652344 C 41.410156 18.867188 41.386719 20.109375 40.882812 21.238281 C 40.804688 21.414062 41.070312 21.550781 41.148438 21.375 C 41.503906 20.582031 41.632812 19.734375 41.683594 18.878906 C 41.773438 19.554688 41.773438 20.246094 41.679688 20.929688 C 41.660156 21.09375 41.875 21.179688 41.960938 21.027344 C 42.527344 20.035156 42.746094 18.925781 42.789062 17.800781 C 42.917969 18.753906 42.882812 19.734375 42.84375 20.695312 C 42.839844 20.839844 43.074219 20.890625 43.128906 20.753906 C 43.675781 19.40625 43.902344 17.960938 43.773438 16.507812 " fill-opacity="1" fill-rule="nonzero"/><path fill="#a47444" d="M 44.296875 14.503906 C 44.25 14.316406 43.96875 14.414062 44.011719 14.597656 C 44.425781 16.339844 44.382812 18.15625 43.898438 19.878906 C 43.847656 20.0625 44.140625 20.125 44.191406 19.941406 C 44.691406 18.164062 44.722656 16.296875 44.296875 14.503906 " fill-opacity="1" fill-rule="nonzero"/><path fill="#f5b47a" d="M 39.933594 15.398438 C 40.023438 14.882812 39.820312 14.324219 39.390625 14.011719 C 38.996094 13.726562 38.558594 13.757812 38.144531 13.90625 C 38.144531 13.148438 38.222656 12.335938 38.171875 11.578125 C 38.164062 11.453125 36.789062 10.988281 35.925781 9.980469 C 35.292969 9.234375 35.136719 7.863281 35.007812 7.832031 C 34.867188 7.796875 34.5625 8.828125 34.640625 9.777344 C 34.242188 9.613281 34.128906 9.109375 34.109375 8.632812 C 34.085938 8.128906 34.164062 7.65625 34.117188 7.648438 C 33.980469 7.628906 33.847656 7.609375 33.71875 7.597656 C 33.644531 7.589844 33.164062 9.585938 33.09375 9.707031 C 33.066406 9.753906 32.769531 9.132812 32.691406 8.496094 C 32.640625 8.097656 32.800781 7.574219 32.777344 7.578125 C 32.546875 7.59375 31.929688 7.824219 31.652344 8.425781 C 31.4375 8.882812 31.265625 9.316406 31.195312 9.347656 C 31.109375 9.382812 31.015625 8.992188 31.078125 8.652344 C 31.136719 8.308594 31.355469 8.015625 31.296875 8.0625 C 31.070312 8.230469 30.917969 8.417969 30.820312 8.582031 C 30.671875 8.832031 30 10.671875 29.265625 12.433594 C 28.425781 14.457031 28.40625 16.21875 28.789062 17.605469 C 29.175781 19.011719 30.503906 21.871094 34.792969 20.65625 C 34.890625 20.628906 35.476562 22.199219 35.609375 23.078125 C 35.632812 23.21875 35.3125 23.3125 35.304688 23.410156 C 35.640625 24.160156 36.332031 24.929688 36.699219 25.660156 C 37.167969 24.949219 37.871094 24.421875 38.511719 23.875 C 39.183594 23.304688 40.007812 22.625 40.238281 21.757812 C 39.933594 21.648438 39.238281 21.304688 38.75 20.742188 C 38.21875 20.121094 37.898438 19.265625 37.8125 18.820312 C 38.023438 18.652344 38.730469 16.96875 38.664062 16.867188 C 38.753906 16.835938 38.839844 16.796875 38.921875 16.75 C 39.421875 16.476562 39.835938 15.96875 39.933594 15.398438 " fill-opacity="1" fill-rule="nonzero"/><path fill="#efa269" d="M 39.933594 15.398438 C 40.023438 14.882812 39.820312 14.324219 39.390625 14.011719 C 38.996094 13.726562 38.558594 13.757812 38.144531 13.90625 C 38.144531 13.148438 38.222656 12.335938 38.171875 11.578125 C 38.164062 11.453125 36.789062 10.988281 35.925781 9.980469 C 35.292969 9.234375 35.136719 7.863281 35.007812 7.832031 C 34.867188 7.796875 34.5625 8.828125 34.640625 9.777344 C 34.242188 9.613281 34.128906 9.109375 34.109375 8.632812 C 34.085938 8.128906 34.164062 7.65625 34.117188 7.648438 C 33.980469 7.628906 33.847656 7.609375 33.71875 7.597656 C 33.644531 7.589844 33.164062 9.585938 33.09375 9.707031 C 33.066406 9.753906 32.769531 9.132812 32.691406 8.496094 C 32.640625 8.097656 32.800781 7.574219 32.777344 7.578125 C 32.546875 7.59375 31.929688 7.824219 31.652344 8.425781 C 31.4375 8.882812 31.265625 9.316406 31.195312 9.347656 C 31.109375 9.382812 31.015625 8.992188 31.078125 8.652344 C 31.136719 8.308594 31.355469 8.015625 31.296875 8.0625 C 31.070312 8.230469 30.917969 8.417969 30.820312 8.582031 C 30.761719 8.683594 30.613281 9.054688 30.40625 9.574219 C 30.710938 9.414062 30.96875 9.652344 31.320312 9.703125 C 31.648438 9.753906 31.976562 9.589844 32.296875 9.640625 C 32.589844 9.683594 32.828125 9.945312 33.117188 10.015625 C 33.496094 10.109375 33.71875 9.765625 34.085938 9.84375 C 34.371094 9.902344 34.609375 10.132812 34.804688 10.335938 C 35.074219 10.609375 35.304688 10.917969 35.570312 11.195312 C 35.804688 11.4375 36.078125 11.632812 36.300781 11.886719 C 36.519531 12.136719 36.703125 12.414062 36.84375 12.714844 C 37.421875 13.949219 37.234375 15.390625 36.722656 16.609375 C 36.179688 17.910156 35.261719 18.984375 34.089844 19.773438 C 33.375 20.253906 32.460938 20.710938 31.5625 20.765625 C 32.386719 21.015625 33.445312 21.039062 34.792969 20.65625 C 34.890625 20.628906 35.476562 22.199219 35.609375 23.078125 C 35.632812 23.21875 35.3125 23.3125 35.304688 23.410156 C 35.640625 24.160156 36.332031 24.929688 36.699219 25.660156 C 37.167969 24.949219 37.871094 24.421875 38.511719 23.875 C 39.183594 23.304688 40.007812 22.625 40.238281 21.757812 C 39.933594 21.648438 39.238281 21.304688 38.75 20.742188 C 38.21875 20.121094 37.898438 19.265625 37.8125 18.820312 C 38.023438 18.652344 38.730469 16.96875 38.664062 16.867188 C 38.753906 16.835938 38.839844 16.796875 38.921875 16.75 C 39.421875 16.476562 39.835938 15.96875 39.933594 15.398438 " fill-opacity="1" fill-rule="nonzero"/><path fill="#efa269" d="M 29.878906 19.664062 C 29.921875 19.707031 29.964844 19.753906 30.007812 19.796875 C 29.972656 19.75 29.933594 19.703125 29.878906 19.664062 " fill-opacity="1" fill-rule="nonzero"/><path fill="#dc8349" d="M 31.636719 12.644531 C 31.523438 12.828125 31.394531 12.996094 31.246094 13.144531 C 31.128906 13.261719 30.949219 13.351562 30.851562 13.476562 C 30.808594 13.53125 30.792969 13.578125 30.796875 13.644531 C 30.800781 13.699219 30.886719 13.832031 30.894531 13.851562 C 30.933594 13.953125 30.945312 14.058594 30.949219 14.164062 C 30.957031 14.3125 31.1875 14.300781 31.179688 14.152344 C 31.175781 14.011719 31.15625 13.867188 31.097656 13.738281 C 31.09375 13.730469 31.027344 13.628906 31.03125 13.625 C 31.035156 13.605469 31.234375 13.464844 31.253906 13.449219 C 31.660156 13.117188 31.714844 12.519531 31.636719 12.644531 " fill-opacity="1" fill-rule="nonzero"/><path fill="#dc8349" d="M 36.207031 19.59375 C 35.800781 19.945312 35.359375 20.25 34.886719 20.507812 C 34.71875 20.601562 34.882812 20.851562 35.050781 20.757812 C 35.546875 20.484375 36.003906 20.160156 36.429688 19.792969 C 36.574219 19.667969 36.351562 19.46875 36.207031 19.59375 " fill-opacity="1" fill-rule="nonzero"/><path fill="#dc8349" d="M 38.820312 15.292969 C 38.632812 15.542969 38.417969 15.773438 38.214844 16.011719 C 38.089844 16.15625 38.3125 16.355469 38.4375 16.210938 C 38.761719 15.828125 39.457031 15.257812 39.269531 14.6875 C 39.203125 14.488281 39.023438 14.34375 38.808594 14.34375 C 38.527344 14.339844 38.328125 14.539062 38.167969 14.742188 C 38.105469 14.820312 38.136719 14.914062 38.199219 14.960938 C 38.226562 15.042969 38.253906 15.121094 38.28125 15.203125 C 38.339844 15.382812 38.625 15.289062 38.5625 15.109375 C 38.53125 15.019531 38.503906 14.929688 38.472656 14.839844 C 38.480469 14.832031 38.488281 14.820312 38.496094 14.8125 C 38.625 14.675781 38.667969 14.648438 38.84375 14.722656 C 39.015625 14.792969 39.015625 14.855469 38.96875 15.027344 C 38.941406 15.125 38.878906 15.214844 38.820312 15.292969 " fill-opacity="1" fill-rule="nonzero"/><path fill="#dc8349" d="M 39.984375 21.753906 C 39.386719 23.375 37.480469 23.992188 36.695312 25.476562 C 36.59375 25.214844 36.460938 24.964844 36.304688 24.722656 C 36.191406 24.542969 36.066406 24.367188 35.945312 24.191406 C 35.902344 24.128906 35.492188 23.496094 35.609375 23.484375 C 35.800781 23.460938 35.785156 23.164062 35.59375 23.1875 C 34.972656 23.257812 35.4375 23.96875 35.613281 24.230469 C 35.976562 24.777344 36.386719 25.300781 36.523438 25.957031 C 36.554688 26.117188 36.769531 26.058594 36.808594 25.941406 C 37.421875 24.195312 39.605469 23.632812 40.25 21.890625 C 40.316406 21.710938 40.050781 21.574219 39.984375 21.753906 " fill-opacity="1" fill-rule="nonzero"/><path fill="#dc8349" d="M 31.242188 17.777344 C 31.023438 17.8125 30.816406 17.78125 30.621094 17.679688 C 30.449219 17.59375 30.3125 17.859375 30.484375 17.945312 C 30.726562 18.066406 30.992188 18.113281 31.257812 18.074219 C 31.445312 18.046875 31.433594 17.75 31.242188 17.777344 " fill-opacity="1" fill-rule="nonzero"/><path fill="#f03c4e" d="M 30.042969 15.035156 C 30.082031 15.363281 30.164062 16.441406 30.300781 16.933594 C 30.449219 17.476562 31.109375 17.617188 31.71875 16.972656 C 32.207031 16.453125 32.839844 15.007812 32.832031 14.878906 C 31.175781 15.347656 30.042969 15.035156 30.042969 15.035156 " fill-opacity="1" fill-rule="nonzero"/><path fill="#b12123" d="M 30.882812 16.644531 C 31.199219 16.324219 31.636719 16.4375 32.015625 16.527344 C 32.425781 15.886719 32.820312 14.960938 32.8125 14.859375 C 31.152344 15.328125 30.019531 15.015625 30.019531 15.015625 C 30.0625 15.34375 30.144531 16.425781 30.28125 16.917969 C 30.375 17.261719 30.675781 17.441406 31.039062 17.363281 C 30.746094 17.265625 30.628906 16.90625 30.882812 16.644531 " fill-opacity="1" fill-rule="nonzero"/><path fill="#6f4324" d="M 30.4375 11.125 C 30.355469 11.109375 30.273438 11.128906 30.195312 11.179688 C 30.171875 11.144531 30.15625 11.097656 30.160156 11.066406 C 30.167969 10.984375 30.132812 10.90625 30.046875 10.886719 C 29.972656 10.871094 29.875 10.921875 29.867188 11.003906 C 29.855469 11.152344 29.894531 11.289062 29.992188 11.402344 C 29.945312 11.484375 29.910156 11.582031 29.886719 11.6875 C 29.816406 12.046875 29.945312 12.375 30.179688 12.421875 C 30.410156 12.46875 30.660156 12.214844 30.730469 11.855469 C 30.800781 11.496094 30.671875 11.171875 30.4375 11.125 " fill-opacity="1" fill-rule="nonzero"/><path fill="#6f4324" d="M 35.023438 11.925781 C 34.996094 11.851562 34.910156 11.804688 34.835938 11.832031 C 34.757812 11.859375 34.679688 11.886719 34.601562 11.914062 C 34.539062 11.761719 34.429688 11.652344 34.289062 11.621094 C 34.003906 11.554688 33.699219 11.820312 33.605469 12.21875 C 33.511719 12.617188 33.664062 12.992188 33.949219 13.058594 C 34.230469 13.125 34.539062 12.855469 34.632812 12.460938 C 34.652344 12.375 34.660156 12.289062 34.660156 12.210938 C 34.75 12.179688 34.839844 12.144531 34.929688 12.113281 C 35.003906 12.085938 35.050781 12.003906 35.023438 11.925781 " fill-opacity="1" fill-rule="nonzero"/><path fill="#6f4324" d="M 30.90625 9.675781 C 30.789062 9.640625 30.660156 9.648438 30.546875 9.695312 C 30.472656 9.730469 30.425781 9.804688 30.453125 9.886719 C 30.476562 9.957031 30.570312 10.011719 30.644531 9.980469 C 30.714844 9.949219 30.769531 9.945312 30.84375 9.96875 C 30.917969 9.992188 31.003906 9.925781 31.019531 9.851562 C 31.039062 9.769531 30.984375 9.699219 30.90625 9.675781 " fill-opacity="1" fill-rule="nonzero"/><path fill="#6f4324" d="M 33.9375 10.285156 C 34.207031 10.320312 34.449219 10.421875 34.660156 10.59375 C 34.808594 10.71875 35.007812 10.496094 34.859375 10.375 C 34.613281 10.167969 34.320312 10.035156 34 9.992188 C 33.808594 9.96875 33.746094 10.257812 33.9375 10.285156 " fill-opacity="1" fill-rule="nonzero"/></svg>