<?xml version="1.0" encoding="UTF-8"?>
<!DOCTYPE svg PUBLIC "-//W3C//DTD SVG 1.1//EN" "http://www.w3.org/Graphics/SVG/1.1/DTD/svg11.dtd">
<svg xmlns="http://www.w3.org/2000/svg" version="1.1" width="225px" height="225px" style="shape-rendering:geometricPrecision; text-rendering:geometricPrecision; image-rendering:optimizeQuality; fill-rule:evenodd; clip-rule:evenodd" xmlns:xlink="http://www.w3.org/1999/xlink">
<g><path style="opacity:0.999" fill="#da4a32" d="M 117.5,56.5 C 117.217,57.2891 116.717,57.9558 116,58.5C 114.274,57.4238 112.441,57.2571 110.5,58C 113.565,58.3683 116.232,59.535 118.5,61.5C 118.5,61.8333 118.5,62.1667 118.5,62.5C 118.678,63.6948 119.011,64.8615 119.5,66C 118.496,67.7983 117.996,69.6316 118,71.5C 120.47,68.686 120.97,65.686 119.5,62.5C 119.5,62.1667 119.5,61.8333 119.5,61.5C 117.164,59.9272 117.164,58.5939 119.5,57.5C 123.352,61.084 124.352,65.4173 122.5,70.5C 117.329,75.0844 117.662,75.4177 123.5,71.5C 125.771,75.7091 127.771,80.0424 129.5,84.5C 129.238,85.9778 129.571,87.3112 130.5,88.5C 135.261,86.63 140.261,85.9633 145.5,86.5C 145.638,90.2861 146.305,90.2861 147.5,86.5C 151.182,86.3347 154.848,86.5014 158.5,87C 159.517,88.0495 159.684,89.2161 159,90.5C 154.599,91.4667 150.099,91.8 145.5,91.5C 132.656,91.1713 119.989,91.5046 107.5,92.5C 107.5,93.1667 107.167,93.5 106.5,93.5C 105.167,90.1667 105.167,86.8333 106.5,83.5C 108.201,85.4233 110.201,85.7567 112.5,84.5C 111.626,82.2534 111.292,79.9201 111.5,77.5C 109.602,76.9035 107.935,76.9035 106.5,77.5C 105.883,77.6107 105.383,77.944 105,78.5C 104.8,76.6803 103.966,75.347 102.5,74.5C 100.176,71.1957 97.843,67.8624 95.5,64.5C 97.9613,61.5773 99.6279,61.9106 100.5,65.5C 100.783,66.2891 101.283,66.9558 102,67.5C 102.49,66.2068 102.657,64.8734 102.5,63.5C 105.094,55.5384 110.094,53.2051 117.5,56.5 Z M 120.5,81.5 C 122.088,82.6353 122.421,83.9686 121.5,85.5C 120.571,84.3112 120.238,82.9778 120.5,81.5 Z"/></g>
<g><path style="opacity:1" fill="#eb8f7f" d="M 117.5,56.5 C 118.492,56.3284 119.158,56.6618 119.5,57.5C 117.164,58.5939 117.164,59.9272 119.5,61.5C 119.167,61.5 118.833,61.5 118.5,61.5C 116.232,59.535 113.565,58.3683 110.5,58C 112.441,57.2571 114.274,57.4238 116,58.5C 116.717,57.9558 117.217,57.2891 117.5,56.5 Z"/></g>
<g><path style="opacity:0.075" fill="#f6d7d4" d="M 102.5,63.5 C 102.657,64.8734 102.49,66.2068 102,67.5C 101.283,66.9558 100.783,66.2891 100.5,65.5C 101.167,64.8333 101.833,64.1667 102.5,63.5 Z"/></g>
<g><path style="opacity:0.561" fill="#eda9a1" d="M 118.5,62.5 C 118.833,62.5 119.167,62.5 119.5,62.5C 120.97,65.686 120.47,68.686 118,71.5C 117.996,69.6316 118.496,67.7983 119.5,66C 119.011,64.8615 118.678,63.6948 118.5,62.5 Z"/></g>
<g><path style="opacity:0.153" fill="#f4cdc9" d="M 122.5,70.5 C 123.167,70.5 123.5,70.8333 123.5,71.5C 117.662,75.4177 117.329,75.0844 122.5,70.5 Z"/></g>
<g><path style="opacity:0.638" fill="#e78b80" d="M 104.5,81.5 C 105.167,82.1667 105.833,82.8333 106.5,83.5C 105.167,86.8333 105.167,90.1667 106.5,93.5C 106.44,94.0431 106.107,94.3764 105.5,94.5C 104.833,90.6875 104.166,87.0208 103.5,83.5C 103.328,82.5084 103.662,81.8417 104.5,81.5 Z"/></g>
<g><path style="opacity:0.681" fill="#e48579" d="M 129.5,84.5 C 135.5,85.1667 141.5,85.8333 147.5,86.5C 146.305,90.2861 145.638,90.2861 145.5,86.5C 140.261,85.9633 135.261,86.63 130.5,88.5C 129.571,87.3112 129.238,85.9778 129.5,84.5 Z"/></g>
<g><path style="opacity:0.236" fill="#f2c4bf" d="M 107.5,92.5 C 119.989,91.5046 132.656,91.1713 145.5,91.5C 141.702,92.4834 137.702,92.8168 133.5,92.5C 131.167,92.5 128.833,92.5 126.5,92.5C 124.585,92.2155 122.919,92.5489 121.5,93.5C 119.167,93.5 116.833,93.5 114.5,93.5C 114.5,95.1667 114.5,96.8333 114.5,98.5C 113.539,96.7354 113.205,94.7354 113.5,92.5C 111.5,92.5 109.5,92.5 107.5,92.5 Z"/></g>
<g><path style="opacity:0.999" fill="#dc5038" d="M 102.5,74.5 C 103.966,75.347 104.8,76.6803 105,78.5C 105.383,77.944 105.883,77.6107 106.5,77.5C 106.267,79.0618 105.6,80.3951 104.5,81.5C 103.662,81.8417 103.328,82.5084 103.5,83.5C 99.9147,92.5052 95.9147,101.339 91.5,110C 99.4931,110.5 107.493,110.666 115.5,110.5C 114.979,106.519 114.646,102.519 114.5,98.5C 114.5,96.8333 114.5,95.1667 114.5,93.5C 116.833,93.5 119.167,93.5 121.5,93.5C 122.249,99.1553 122.915,104.822 123.5,110.5C 123.194,113.385 123.527,116.052 124.5,118.5C 125.108,122.472 125.608,126.472 126,130.5C 127.31,131.897 128.81,132.897 130.5,133.5C 130.366,135.292 130.699,136.958 131.5,138.5C 131.5,139.167 131.5,139.833 131.5,140.5C 131.923,142.781 131.256,144.448 129.5,145.5C 128.833,145.5 128.167,145.5 127.5,145.5C 126.991,144.659 127.657,144.159 129.5,144C 128.207,143.51 126.873,143.343 125.5,143.5C 125.5,144.5 125.5,145.5 125.5,146.5C 123.741,146.954 121.741,146.954 119.5,146.5C 119.494,145.583 120.494,145.083 122.5,145C 115.971,143.091 109.304,142.258 102.5,142.5C 95.2314,141.766 88.2314,139.933 81.5,137C 76.7385,134.723 72.4051,131.89 68.5,128.5C 70.2456,122.766 73.0789,121.766 77,125.5C 79.3935,119.713 82.0602,114.046 85,108.5C 87.2104,103.643 86.877,98.9763 84,94.5C 83.1597,85.0868 86.8264,82.7534 95,87.5C 97.0217,82.7768 99.5217,78.4434 102.5,74.5 Z M 88.5,116.5 C 97.8571,116.168 107.19,116.502 116.5,117.5C 117.988,122.745 118.488,128.079 118,133.5C 114.033,135.386 109.866,135.886 105.5,135C 97.9101,134.079 90.5768,132.246 83.5,129.5C 84.5614,124.99 86.2281,120.656 88.5,116.5 Z M 120.5,140.5 C 121.833,141.167 123.167,141.833 124.5,142.5C 122.833,142.5 121.167,142.5 119.5,142.5C 119.328,141.508 119.662,140.842 120.5,140.5 Z"/></g>
<g><path style="opacity:0.325" fill="#f3c6c0" d="M 88.5,89.5 C 89.7027,90.9425 90.2027,92.6092 90,94.5C 88.7308,93.0953 88.2308,91.4286 88.5,89.5 Z"/></g>
<g><path style="opacity:0.396" fill="#eeb1aa" d="M 92.5,94.5 C 93.1847,92.5856 93.6847,90.5856 94,88.5C 96.4019,91.4423 95.9019,93.4423 92.5,94.5 Z"/></g>
<g><path style="opacity:0.999" fill="#dc523b" d="M 126.5,92.5 C 128.833,92.5 131.167,92.5 133.5,92.5C 137.653,100.807 141.82,109.14 146,117.5C 147.507,116.465 149.007,116.632 150.5,118C 152.377,121.562 154.71,124.895 157.5,128C 151.065,133.213 144.065,137.38 136.5,140.5C 135.5,140.5 134.5,140.5 133.5,140.5C 133.167,140.5 132.833,140.5 132.5,140.5C 132.5,139.833 132.5,139.167 132.5,138.5C 132.5,136.5 132.5,134.5 132.5,132.5C 136.162,131.168 139.828,129.835 143.5,128.5C 147.286,127.305 147.286,126.638 143.5,126.5C 141.012,123.534 139.012,120.201 137.5,116.5C 133.366,115.515 129.032,115.182 124.5,115.5C 124.5,113.833 124.5,112.167 124.5,110.5C 127.898,110.82 131.232,110.487 134.5,109.5C 131.013,104.194 128.346,98.527 126.5,92.5 Z"/></g>
<g><path style="opacity:0.494" fill="#edaba3" d="M 92.5,94.5 C 91.2338,97.6236 89.2338,98.1236 86.5,96C 88.5856,95.6847 90.5856,95.1847 92.5,94.5 Z"/></g>
<g><path style="opacity:0.388" fill="#f1bab4" d="M 129.5,112.5 C 130.675,112.281 131.675,112.614 132.5,113.5C 130.948,114.798 129.948,114.465 129.5,112.5 Z"/></g>
<g><path style="opacity:0.341" fill="#f1c3be" d="M 123.5,110.5 C 123.833,110.5 124.167,110.5 124.5,110.5C 124.5,112.167 124.5,113.833 124.5,115.5C 129.032,115.182 133.366,115.515 137.5,116.5C 132.706,115.903 128.373,116.57 124.5,118.5C 123.527,116.052 123.194,113.385 123.5,110.5 Z"/></g>
<g><path style="opacity:0.004" fill="#fae4e1" d="M 80.5,122.5 C 82.337,122.639 82.6704,123.306 81.5,124.5C 80.7025,124.043 80.3691,123.376 80.5,122.5 Z"/></g>
<g><path style="opacity:0.384" fill="#e99c94" d="M 149.5,123.5 C 149.5,124.167 149.833,124.5 150.5,124.5C 147.664,125.318 145.331,124.318 143.5,121.5C 143.808,120.692 144.308,120.025 145,119.5C 145.112,122.447 146.612,123.78 149.5,123.5 Z"/></g>
<g><path style="opacity:0.145" fill="#f4d2ce" d="M 143.5,126.5 C 147.286,126.638 147.286,127.305 143.5,128.5C 143.5,127.833 143.5,127.167 143.5,126.5 Z"/></g>
<g><path style="opacity:0.322" fill="#efb5ae" d="M 132.5,132.5 C 132.5,134.5 132.5,136.5 132.5,138.5C 132.167,138.5 131.833,138.5 131.5,138.5C 130.699,136.958 130.366,135.292 130.5,133.5C 131.167,133.167 131.833,132.833 132.5,132.5 Z"/></g>
<g><path style="opacity:0.098" fill="#f2c0ba" d="M 120.5,140.5 C 122.5,140.5 124.5,140.5 126.5,140.5C 126.5,141.833 125.833,142.5 124.5,142.5C 123.167,141.833 121.833,141.167 120.5,140.5 Z"/></g>
<g><path style="opacity:0.408" fill="#f0bab5" d="M 120.5,140.5 C 119.662,140.842 119.328,141.508 119.5,142.5C 118.212,140.965 118.212,139.299 119.5,137.5C 120.386,138.325 120.719,139.325 120.5,140.5 Z"/></g>
<g><path style="opacity:0.408" fill="#f0aca0" d="M 131.5,140.5 C 131.833,140.5 132.167,140.5 132.5,140.5C 132.833,140.5 133.167,140.5 133.5,140.5C 132.697,141.423 132.53,142.423 133,143.5C 134.729,143.026 135.895,142.026 136.5,140.5C 139.423,141.163 140.09,142.83 138.5,145.5C 135.264,144.886 132.264,144.886 129.5,145.5C 131.256,144.448 131.923,142.781 131.5,140.5 Z M 133.5,140.5 C 134.5,140.5 135.5,140.5 136.5,140.5C 135.895,142.026 134.729,143.026 133,143.5C 132.53,142.423 132.697,141.423 133.5,140.5 Z"/></g>
<g><path style="opacity:0.545" fill="#f0b8b2" d="M 127.5,145.5 C 127.158,146.338 126.492,146.672 125.5,146.5C 125.5,145.5 125.5,144.5 125.5,143.5C 126.873,143.343 128.207,143.51 129.5,144C 127.657,144.159 126.991,144.659 127.5,145.5 Z"/></g>
<g><path style="opacity:0.188" fill="#f3c6c1" d="M 102.5,142.5 C 109.304,142.258 115.971,143.091 122.5,145C 120.494,145.083 119.494,145.583 119.5,146.5C 117.732,147.507 116.399,146.841 115.5,144.5C 111.018,143.833 106.684,143.166 102.5,142.5 Z"/></g>
<g><path style="opacity:0.682" fill="#e78475" d="M 94.5,154.5 C 98.8333,154.5 103.167,154.5 107.5,154.5C 107.719,155.675 107.386,156.675 106.5,157.5C 105.264,156.754 103.93,156.421 102.5,156.5C 101.956,160.673 102.623,164.506 104.5,168C 102.167,168.667 99.8333,168.667 97.5,168C 99.377,164.506 100.044,160.673 99.5,156.5C 97.8561,156.286 96.3561,156.62 95,157.5C 94.5172,156.552 94.3505,155.552 94.5,154.5 Z"/></g>
<g><path style="opacity:0.692" fill="#eba69e" d="M 140.5,155.5 C 139.834,158.358 139.167,161.358 138.5,164.5C 137.893,164.376 137.56,164.043 137.5,163.5C 138.156,162.378 138.489,161.045 138.5,159.5C 138.351,157.68 137.684,156.18 136.5,155C 139.838,154.124 141.171,154.291 140.5,155.5 Z"/></g>
<g><path style="opacity:0.671" fill="#e99084" d="M 168.5,160.5 C 167.698,159.048 167.198,157.382 167,155.5C 166.333,159.5 166.333,163.5 167,167.5C 167.191,165.292 167.691,163.292 168.5,161.5C 168.054,164.01 168.72,166.01 170.5,167.5C 171.492,167.328 172.158,167.662 172.5,168.5C 172.44,169.043 172.107,169.376 171.5,169.5C 169.224,168.787 166.891,168.287 164.5,168C 165.134,165.925 165.468,163.759 165.5,161.5C 165.41,159.036 164.743,156.87 163.5,155C 166.817,154.502 170.15,154.335 173.5,154.5C 173.719,155.675 173.386,156.675 172.5,157.5C 171.264,156.754 169.93,156.421 168.5,156.5C 168.5,157.833 168.5,159.167 168.5,160.5 Z"/></g>
<g><path style="opacity:0.075" fill="#f3c3bd" d="M 68.5,156.5 C 68.44,155.957 68.1067,155.624 67.5,155.5C 66.833,159.647 66.1663,163.647 65.5,167.5C 65.797,163.233 65.4637,159.066 64.5,155C 67.4816,154.502 70.4816,154.335 73.5,154.5C 73.6495,155.552 73.4828,156.552 73,157.5C 71.6439,156.62 70.1439,156.286 68.5,156.5 Z"/></g>
<g><path style="opacity:0.979" fill="#dd4c2d" d="M 68.5,156.5 C 68.0882,158.973 69.0882,160.306 71.5,160.5C 71.246,161.332 70.246,161.999 68.5,162.5C 68.2407,164.989 69.2407,166.656 71.5,167.5C 72.1667,167.5 72.5,167.833 72.5,168.5C 72.44,169.043 72.1067,169.376 71.5,169.5C 68.7248,169.041 66.7248,168.374 65.5,167.5C 66.1663,163.647 66.833,159.647 67.5,155.5C 68.1067,155.624 68.44,155.957 68.5,156.5 Z"/></g>
<g><path style="opacity:0.559" fill="#e47f6f" d="M 146.5,154.5 C 150.833,154.5 155.167,154.5 159.5,154.5C 159.649,155.552 159.483,156.552 159,157.5C 157.644,156.62 156.144,156.286 154.5,156.5C 153.956,160.673 154.623,164.506 156.5,168C 154.5,168.667 152.5,168.667 150.5,168C 151.46,164.27 151.793,160.437 151.5,156.5C 149.856,156.286 148.356,156.62 147,157.5C 146.517,156.552 146.351,155.552 146.5,154.5 Z"/></g>
<g><path style="opacity:1" fill="#e8755d" d="M 51.5,168.5 C 51.3284,167.508 51.6618,166.842 52.5,166.5C 54.2296,167.976 55.5629,167.642 56.5,165.5C 54.1868,163.368 52.5202,160.868 51.5,158C 51.6667,157.167 51.8333,156.333 52,155.5C 56.0591,152.529 58.0591,153.529 58,158.5C 57.1512,155.479 55.6512,154.979 53.5,157C 57.1518,159.274 58.9851,162.441 59,166.5C 56.9155,169.145 54.4155,169.811 51.5,168.5 Z"/></g>
<g><path style="opacity:0.914" fill="#f1a89b" d="M 169.5,161.5 C 170.492,161.672 171.158,161.338 171.5,160.5C 172.612,160.486 172.779,161.486 172,163.5C 171.005,162.934 170.172,162.267 169.5,161.5 Z"/></g>
<g><path style="opacity:0.09" fill="#f9e1de" d="M 71.5,160.5 C 72.472,159.249 73.1386,159.582 73.5,161.5C 73.1667,162.167 72.8333,162.833 72.5,163.5C 71.2638,162.754 69.9305,162.421 68.5,162.5C 70.246,161.999 71.246,161.332 71.5,160.5 Z"/></g>
<g><path style="opacity:1" fill="#d5341a" d="M 168.5,160.5 C 169.5,160.5 170.5,160.5 171.5,160.5C 171.158,161.338 170.492,161.672 169.5,161.5C 169.167,161.5 168.833,161.5 168.5,161.5C 167.691,163.292 167.191,165.292 167,167.5C 166.333,163.5 166.333,159.5 167,155.5C 167.198,157.382 167.698,159.048 168.5,160.5 Z"/></g>
<g><path style="opacity:1" fill="#e77660" d="M 78.5,155.5 C 80.2884,154.378 82.2884,154.211 84.5,155C 83.6637,156.243 83.997,157.41 85.5,158.5C 87.003,157.41 87.3363,156.243 86.5,155C 88.1667,154.333 89.8333,154.333 91.5,155C 85.2099,159.541 85.5432,163.874 92.5,168C 90.5273,168.495 88.5273,168.662 86.5,168.5C 86.7778,166.654 86.1112,165.32 84.5,164.5C 83.1936,165.912 82.3603,167.579 82,169.5C 80.3084,169.324 78.8084,168.824 77.5,168C 84.854,164.196 85.1873,160.029 78.5,155.5 Z"/></g>
<g><path style="opacity:0.776" fill="#e67864" d="M 115.5,153.5 C 117.865,157.562 119.865,161.895 121.5,166.5C 123.748,167.324 123.914,168.324 122,169.5C 119.42,168.299 117.253,166.632 115.5,164.5C 112.815,164.708 112.149,165.875 113.5,168C 111.833,168.667 110.167,168.667 108.5,168C 111.493,163.54 113.827,158.707 115.5,153.5 Z M 114.5,160.5 C 116.337,160.639 116.67,161.306 115.5,162.5C 114.702,162.043 114.369,161.376 114.5,160.5 Z"/></g>
<g><path style="opacity:1" fill="#dd5339" d="M 137.5,163.5 C 137.56,164.043 137.893,164.376 138.5,164.5C 139.167,161.358 139.834,158.358 140.5,155.5C 140.666,160.179 140.499,164.845 140,169.5C 136.962,166.631 134.129,163.631 131.5,160.5C 131.217,159.711 130.717,159.044 130,158.5C 129.195,161.696 129.362,164.696 130.5,167.5C 130.5,167.833 130.5,168.167 130.5,168.5C 129.833,168.5 129.167,168.5 128.5,168.5C 128.5,167.5 128.5,166.5 128.5,165.5C 128.177,161.774 128.511,158.107 129.5,154.5C 132.16,157.494 134.827,160.494 137.5,163.5 Z"/></g>
<g><path style="opacity:0.202" fill="#f2cac6" d="M 131.5,160.5 C 130.532,162.607 130.198,164.941 130.5,167.5C 129.362,164.696 129.195,161.696 130,158.5C 130.717,159.044 131.217,159.711 131.5,160.5 Z"/></g>
<g><path style="opacity:0.155" fill="#f6d7d3" d="M 52.5,166.5 C 51.6618,166.842 51.3284,167.508 51.5,168.5C 50.218,167.292 50.218,165.958 51.5,164.5C 52.2975,164.957 52.6309,165.624 52.5,166.5 Z"/></g>
<g><path style="opacity:0.671" fill="#f0aea4" d="M 72.5,168.5 C 72.5,167.833 72.1667,167.5 71.5,167.5C 72.1405,165.668 73.1405,165.335 74.5,166.5C 74.1445,167.522 73.4778,168.189 72.5,168.5 Z"/></g>
<g><path style="opacity:0.533" fill="#efbab5" d="M 172.5,168.5 C 172.158,167.662 171.492,167.328 170.5,167.5C 173.189,164.626 173.856,164.959 172.5,168.5 Z"/></g>
<g><path style="opacity:0.502" fill="#f4c5bf" d="M 128.5,165.5 C 128.5,166.5 128.5,167.5 128.5,168.5C 126.443,168.043 126.443,167.043 128.5,165.5 Z"/></g>
<g><path style="opacity:0.004" fill="#fae6e4" d="M 130.5,167.5 C 133.001,167.511 133.168,168.178 131,169.5C 130.601,169.272 130.435,168.938 130.5,168.5C 130.5,168.167 130.5,167.833 130.5,167.5 Z"/></g>
</svg>
