<?xml version="1.0" encoding="UTF-8"?>
<!DOCTYPE svg PUBLIC "-//W3C//DTD SVG 1.1//EN" "http://www.w3.org/Graphics/SVG/1.1/DTD/svg11.dtd">
<svg xmlns="http://www.w3.org/2000/svg" version="1.1" width="2160px" height="630px" style="shape-rendering:geometricPrecision; text-rendering:geometricPrecision; image-rendering:optimizeQuality; fill-rule:evenodd; clip-rule:evenodd" xmlns:xlink="http://www.w3.org/1999/xlink">
<g><path style="opacity:0.998" fill="#24f3ed" d="M 277.5,-0.5 C 312.5,-0.5 347.5,-0.5 382.5,-0.5C 382.283,7.91753 382.95,16.2509 384.5,24.5C 359.167,24.5 333.833,24.5 308.5,24.5C 308.667,165.834 308.5,307.167 308,448.5C 300.7,488.8 277.2,513.967 237.5,524C 202.19,529.405 173.523,518.238 151.5,490.5C 189.667,506.889 223.834,500.889 254,472.5C 267.051,458.392 274.718,441.725 277,422.5C 277.5,281.5 277.667,140.5 277.5,-0.5 Z"/></g>
<g><path style="opacity:0.974" fill="#fc2b54" d="M 384.5,24.5 C 394.167,24.5 403.833,24.5 413.5,24.5C 413.27,61.4887 425.27,93.822 449.5,121.5C 413.656,98.8523 391.99,66.5189 384.5,24.5 Z"/></g>
<g><path style="opacity:1" fill="#000000" d="M 384.5,24.5 C 391.99,66.5189 413.656,98.8523 449.5,121.5C 450.167,121.5 450.5,121.833 450.5,122.5C 470.899,145.376 496.232,160.043 526.5,166.5C 526.5,193.5 526.5,220.5 526.5,247.5C 473.976,247.546 426.309,232.546 383.5,202.5C 382.667,276.164 382.167,349.831 382,423.5C 373.555,507.929 329.722,565.096 250.5,595C 191.594,612.846 136.26,605.346 84.5,572.5C 83.8333,572.5 83.5,572.167 83.5,571.5C 34.5998,516.891 19.4331,453.891 38,382.5C 58.6725,319.828 100.173,277.661 162.5,256C 180.063,250.324 198.063,247.491 216.5,247.5C 216.831,274.672 216.498,301.672 215.5,328.5C 173.781,319.233 140.614,331.9 116,366.5C 99.357,397.152 99.357,427.819 116,458.5C 124.884,472.556 136.717,483.223 151.5,490.5C 173.523,518.238 202.19,529.405 237.5,524C 277.2,513.967 300.7,488.8 308,448.5C 308.5,307.167 308.667,165.834 308.5,24.5C 333.833,24.5 359.167,24.5 384.5,24.5 Z"/></g>
<g><path style="opacity:0.986" fill="#24f2ec" d="M 450.5,122.5 C 474.179,136.612 499.845,143.612 527.5,143.5C 527.5,151.167 527.5,158.833 527.5,166.5C 527.167,166.5 526.833,166.5 526.5,166.5C 496.232,160.043 470.899,145.376 450.5,122.5 Z"/></g>
<g><path style="opacity:0.985" fill="#fd2b54" d="M 526.5,166.5 C 526.833,166.5 527.167,166.5 527.5,166.5C 537.472,167.784 547.472,168.784 557.5,169.5C 557.5,204.167 557.5,238.833 557.5,273.5C 504.841,273.445 457.008,258.445 414,228.5C 413.667,300.167 413.333,371.833 413,443.5C 407.794,523.675 368.961,580.842 296.5,615C 278.35,622.37 259.683,627.203 240.5,629.5C 227.5,629.5 214.5,629.5 201.5,629.5C 155.741,624.12 116.741,605.12 84.5,572.5C 136.26,605.346 191.594,612.846 250.5,595C 329.722,565.096 373.555,507.929 382,423.5C 382.167,349.831 382.667,276.164 383.5,202.5C 426.309,232.546 473.976,247.546 526.5,247.5C 526.5,220.5 526.5,193.5 526.5,166.5 Z"/></g>
<g><path style="opacity:0.984" fill="#000000" d="M 680.5,209.5 C 763.167,209.5 845.833,209.5 928.5,209.5C 921.671,233.155 914.337,256.655 906.5,280C 884.836,280.5 863.169,280.667 841.5,280.5C 841.5,366.833 841.5,453.167 841.5,539.5C 814.5,539.5 787.5,539.5 760.5,539.5C 760.5,452.5 760.5,365.5 760.5,278.5C 733.833,278.5 707.167,278.5 680.5,278.5C 680.5,255.5 680.5,232.5 680.5,209.5 Z"/></g>
<g><path style="opacity:0.97" fill="#000000" d="M 977.5,209.5 C 1010.84,211.194 1025.01,228.527 1020,261.5C 1009.16,284.997 991.331,292.83 966.5,285C 946.358,274.209 939.191,257.709 945,235.5C 951.089,220.728 961.922,212.061 977.5,209.5 Z"/></g>
<g><path style="opacity:0.984" fill="#000000" d="M 1054.5,209.5 C 1080.83,209.5 1107.17,209.5 1133.5,209.5C 1133.33,260.168 1133.5,310.834 1134,361.5C 1159.17,336.333 1184.33,311.167 1209.5,286C 1241.83,285.333 1274.17,285.333 1306.5,286C 1273.65,318.013 1240.99,350.18 1208.5,382.5C 1244.71,435.087 1281.04,487.587 1317.5,540C 1289.17,540.667 1260.83,540.667 1232.5,540C 1207.33,504.167 1182.17,468.333 1157,432.5C 1149.33,439.5 1141.67,446.5 1134,453.5C 1133.5,482.165 1133.33,510.831 1133.5,539.5C 1107.17,539.5 1080.83,539.5 1054.5,539.5C 1054.5,429.5 1054.5,319.5 1054.5,209.5 Z"/></g>
<g><path style="opacity:0.985" fill="#000000" d="M 1335.5,209.5 C 1418.17,209.5 1500.83,209.5 1583.5,209.5C 1576.37,232.881 1569.04,256.215 1561.5,279.5C 1539.84,280.5 1518.18,280.833 1496.5,280.5C 1496.5,366.833 1496.5,453.167 1496.5,539.5C 1469.5,539.5 1442.5,539.5 1415.5,539.5C 1415.5,452.5 1415.5,365.5 1415.5,278.5C 1388.83,278.5 1362.17,278.5 1335.5,278.5C 1335.5,255.5 1335.5,232.5 1335.5,209.5 Z"/></g>
<g><path style="opacity:0.983" fill="#000000" d="M 2159.5,538.5 C 2159.5,539.167 2159.5,539.833 2159.5,540.5C 2131.16,540.833 2102.83,540.5 2074.5,539.5C 2049.33,503.833 2024.17,468.167 1999,432.5C 1991.33,439.833 1983.67,447.167 1976,454.5C 1975.5,482.831 1975.33,511.165 1975.5,539.5C 1949.17,539.5 1922.83,539.5 1896.5,539.5C 1896.5,429.5 1896.5,319.5 1896.5,209.5C 1922.83,209.5 1949.17,209.5 1975.5,209.5C 1975.33,260.168 1975.5,310.834 1976,361.5C 2001.81,336.695 2027.31,311.528 2052.5,286C 2084.51,285.167 2116.51,285.333 2148.5,286.5C 2115.71,318.125 2083.04,349.958 2050.5,382C 2086.73,434.32 2123.07,486.487 2159.5,538.5 Z"/></g>
<g><path style="opacity:0.994" fill="#24f3ed" d="M 217.5,246.5 C 217.5,246.833 217.5,247.167 217.5,247.5C 217.167,247.5 216.833,247.5 216.5,247.5C 198.063,247.491 180.063,250.324 162.5,256C 100.173,277.661 58.6725,319.828 38,382.5C 19.4331,453.891 34.5998,516.891 83.5,571.5C 34.8432,537.886 6.84318,491.553 -0.5,432.5C -0.5,419.167 -0.5,405.833 -0.5,392.5C 9.61316,321.227 46.9465,269.727 111.5,238C 145.41,223.37 180.743,218.203 217.5,222.5C 217.5,230.5 217.5,238.5 217.5,246.5 Z"/></g>
<g><path style="opacity:0.992" fill="#fd2b54" d="M 217.5,246.5 C 227.455,246.155 237.289,246.822 247,248.5C 247.5,283.832 247.667,319.165 247.5,354.5C 209.389,344.928 177.556,354.928 152,384.5C 127.505,419.761 127.338,455.094 151.5,490.5C 136.717,483.223 124.884,472.556 116,458.5C 99.357,427.819 99.357,397.152 116,366.5C 140.614,331.9 173.781,319.233 215.5,328.5C 215.56,329.043 215.893,329.376 216.5,329.5C 217.5,302.175 217.833,274.841 217.5,247.5C 217.5,247.167 217.5,246.833 217.5,246.5 Z"/></g>
<g><path style="opacity:0.78" fill="#22060c" d="M 216.5,247.5 C 216.833,247.5 217.167,247.5 217.5,247.5C 217.833,274.841 217.5,302.175 216.5,329.5C 215.893,329.376 215.56,329.043 215.5,328.5C 216.498,301.672 216.831,274.672 216.5,247.5 Z"/></g>
<g><path style="opacity:0.989" fill="#24f2ec" d="M 1703.5,270.5 C 1646.59,277.58 1607.09,307.58 1585,360.5C 1567.71,418.51 1581.21,468.01 1625.5,509C 1647,526.084 1671.33,536.584 1698.5,540.5C 1637.26,540.652 1593.43,513.318 1567,458.5C 1545.44,398.602 1557.61,346.768 1603.5,303C 1632.51,279.275 1665.84,268.442 1703.5,270.5 Z"/></g>
<g><path style="opacity:0.994" fill="#000000" d="M 1703.5,270.5 C 1709.83,270.5 1716.17,270.5 1722.5,270.5C 1790.43,278.593 1832.6,315.927 1849,382.5C 1856.18,437.937 1837.68,482.437 1793.5,516C 1773.38,529.426 1751.38,537.593 1727.5,540.5C 1717.83,540.5 1708.17,540.5 1698.5,540.5C 1671.33,536.584 1647,526.084 1625.5,509C 1581.21,468.01 1567.71,418.51 1585,360.5C 1607.09,307.58 1646.59,277.58 1703.5,270.5 Z M 1708.5,340.5 C 1741.55,340.421 1764.22,355.588 1776.5,386C 1784.55,422.574 1771.88,449.241 1738.5,466C 1705.18,476.56 1678.35,467.726 1658,439.5C 1643.54,412.237 1645.87,386.571 1665,362.5C 1677.08,350.212 1691.58,342.878 1708.5,340.5 Z"/></g>
<g><path style="opacity:0.977" fill="#fb2b54" d="M 1722.5,270.5 C 1786.48,268.225 1832.65,295.558 1861,352.5C 1882.43,410.945 1871.26,462.111 1827.5,506C 1798.84,530.72 1765.51,542.22 1727.5,540.5C 1751.38,537.593 1773.38,529.426 1793.5,516C 1837.68,482.437 1856.18,437.937 1849,382.5C 1832.6,315.927 1790.43,278.593 1722.5,270.5 Z"/></g>
<g><path style="opacity:0.981" fill="#000000" d="M 942.5,314.5 C 968.833,314.5 995.167,314.5 1021.5,314.5C 1021.5,389.5 1021.5,464.5 1021.5,539.5C 995.167,539.5 968.833,539.5 942.5,539.5C 942.5,464.5 942.5,389.5 942.5,314.5 Z"/></g>
</svg>
