<?xml version="1.0" encoding="UTF-8"?>
<!DOCTYPE svg PUBLIC "-//W3C//DTD SVG 1.1//EN" "http://www.w3.org/Graphics/SVG/1.1/DTD/svg11.dtd">
<svg xmlns="http://www.w3.org/2000/svg" version="1.1" width="1563px" height="400px" style="shape-rendering:geometricPrecision; text-rendering:geometricPrecision; image-rendering:optimizeQuality; fill-rule:evenodd; clip-rule:evenodd" xmlns:xlink="http://www.w3.org/1999/xlink">
<g><path style="opacity:0.977" fill="#6731d1" d="M 80.5,-0.5 C 144.5,-0.5 208.5,-0.5 272.5,-0.5C 320.187,9.69169 347.354,39.025 354,87.5C 354.667,149.833 354.667,212.167 354,274.5C 349.687,311.472 330.853,338.139 297.5,354.5C 296.931,365.222 296.097,375.889 295,386.5C 292.558,393.112 288.058,397.445 281.5,399.5C 277.167,399.5 272.833,399.5 268.5,399.5C 251.425,389.788 234.758,379.288 218.5,368C 214.719,365.775 210.719,364.109 206.5,363C 168.167,362.667 129.833,362.333 91.5,362C 40.8743,357.2 10.2076,330.034 -0.5,280.5C -0.5,213.833 -0.5,147.167 -0.5,80.5C 8.83333,35.8333 35.8333,8.83333 80.5,-0.5 Z M 83.5,22.5 C 145.501,22.3333 207.501,22.5 269.5,23C 306.037,30.8713 326.537,53.3713 331,90.5C 331.97,153.191 331.637,215.858 330,278.5C 324.542,305.576 309.042,324.409 283.5,335C 278.449,337.72 275.282,341.887 274,347.5C 273.667,356.833 273.333,366.167 273,375.5C 257.748,365.791 242.581,355.958 227.5,346C 222.134,343.151 216.468,341.151 210.5,340C 198.202,338.911 185.869,338.411 173.5,338.5C 146.168,339.282 118.835,339.449 91.5,339C 53.8375,335.004 31.0041,314.504 23,277.5C 22.3333,212.833 22.3333,148.167 23,83.5C 30.0135,49.9869 50.1802,29.6536 83.5,22.5 Z"/></g>
<g><path style="opacity:0.973" fill="#6631d1" d="M 993.5,43.5 C 1001.75,42.277 1006.92,45.6103 1009,53.5C 1009.33,98.8333 1009.67,144.167 1010,189.5C 1037.78,164.683 1065.28,139.516 1092.5,114C 1102.43,109.465 1108.43,112.631 1110.5,123.5C 1110.42,125.299 1109.92,126.966 1109,128.5C 1088.77,147.402 1068.6,166.235 1048.5,185C 1069.32,211.156 1090.15,237.322 1111,263.5C 1112.86,274.648 1108.02,279.815 1096.5,279C 1093.7,277.207 1091.2,275.04 1089,272.5C 1069.73,248.277 1050.23,224.277 1030.5,200.5C 1023.82,207.017 1016.98,213.35 1010,219.5C 1009.95,237.219 1009.28,254.886 1008,272.5C 1002.94,278.873 996.777,280.04 989.5,276C 987.959,274.421 986.792,272.587 986,270.5C 985.333,197.5 985.333,124.5 986,51.5C 987.353,47.6499 989.853,44.9832 993.5,43.5 Z"/></g>
<g><path style="opacity:0.982" fill="#6632d1" d="M 1562.5,181.5 C 1562.5,190.833 1562.5,200.167 1562.5,209.5C 1556.32,242.525 1537.32,264.692 1505.5,276C 1473.35,284.774 1444.85,278.274 1420,256.5C 1419.91,262.61 1419.25,268.61 1418,274.5C 1411.33,279.833 1404.67,279.833 1398,274.5C 1396.96,272.285 1396.29,269.952 1396,267.5C 1395.33,196.5 1395.33,125.5 1396,54.5C 1397.7,45.3854 1403.2,41.8854 1412.5,44C 1415.33,45.5 1417.5,47.6667 1419,50.5C 1419.33,80.8333 1419.67,111.167 1420,141.5C 1436.05,122.142 1456.72,112.142 1482,111.5C 1526.07,115.069 1552.9,138.402 1562.5,181.5 Z M 1475.5,133.5 C 1512.14,134.644 1533.31,153.31 1539,189.5C 1540.52,215.291 1530.69,235.458 1509.5,250C 1481.94,263.101 1457.11,259.267 1435,238.5C 1415.18,211.327 1414.51,183.66 1433,155.5C 1444.3,142.434 1458.47,135.1 1475.5,133.5 Z"/></g>
<g><path style="opacity:0.968" fill="#6731d0" d="M 1147.5,45.5 C 1154.51,43.9265 1159.68,46.2598 1163,52.5C 1163.02,114.531 1163.69,176.531 1165,238.5C 1168.72,253.292 1178.22,259.459 1193.5,257C 1198.21,261.14 1199.71,266.306 1198,272.5C 1196.44,275.728 1193.94,277.895 1190.5,279C 1163.54,281.388 1147.37,269.221 1142,242.5C 1140.36,179.527 1140.03,116.527 1141,53.5C 1142.28,50.0618 1144.44,47.3951 1147.5,45.5 Z"/></g>
<g><path style="opacity:0.983" fill="#6731d1" d="M 123.5,87.5 C 160.168,87.3333 196.835,87.5 233.5,88C 245.69,89.0233 251.69,95.6899 251.5,108C 251.344,112.457 250.178,116.624 248,120.5C 218.5,159.333 189,198.167 159.5,237C 185.167,237.333 210.833,237.667 236.5,238C 245.836,238.007 251.669,242.507 254,251.5C 255.948,260.015 254.114,267.515 248.5,274C 246.283,275.275 243.949,276.275 241.5,277C 198.833,277.667 156.167,277.667 113.5,277C 104.505,273.984 100.172,267.651 100.5,258C 100.495,253.187 101.661,248.687 104,244.5C 133.712,205.577 163.546,166.743 193.5,128C 168.833,127.667 144.167,127.333 119.5,127C 110.001,124.368 105.334,118.035 105.5,108C 105.549,101.907 107.549,96.5736 111.5,92C 115.301,89.5837 119.301,88.0837 123.5,87.5 Z"/></g>
<g><path style="opacity:0.986" fill="#6631d1" d="M 467.5,111.5 C 497.835,111.333 528.168,111.5 558.5,112C 573.165,113.685 578.998,121.852 576,136.5C 575.275,138.949 574.275,141.283 573,143.5C 548.136,175.397 523.636,207.564 499.5,240C 522.896,240.03 546.23,240.697 569.5,242C 576.55,245.589 579.883,251.422 579.5,259.5C 579.563,268.229 575.563,274.062 567.5,277C 530.5,277.667 493.5,277.667 456.5,277C 448.29,273.939 444.29,267.939 444.5,259C 444.713,255.358 445.547,251.858 447,248.5C 471.833,215.667 496.667,182.833 521.5,150C 502.167,149.667 482.833,149.333 463.5,149C 456.526,148.023 452.026,144.19 450,137.5C 446.769,122.212 452.603,113.545 467.5,111.5 Z"/></g>
<g><path style="opacity:0.979" fill="#6731d1" d="M 679.5,111.5 C 724.213,113.709 749.713,137.043 756,181.5C 756.877,188.249 756.544,194.916 755,201.5C 752.778,205.388 749.612,208.221 745.5,210C 709.534,211.134 673.534,211.968 637.5,212.5C 646.019,233.185 661.519,243.852 684,244.5C 697.112,243.908 708.945,239.741 719.5,232C 734.44,228.301 743.44,233.967 746.5,249C 745.823,253.687 743.823,257.687 740.5,261C 708.386,282.547 674.719,285.213 639.5,269C 609.668,250.17 596.168,223.003 599,187.5C 602.821,149.015 623.321,124.515 660.5,114C 666.977,113.138 673.311,112.305 679.5,111.5 Z M 670.5,147.5 C 694.935,143.874 710.935,153.707 718.5,177C 691.5,177.667 664.5,177.667 637.5,177C 643.248,161.15 654.248,151.317 670.5,147.5 Z"/></g>
<g><path style="opacity:0.988" fill="#6631d1" d="M 866.5,111.5 C 913.227,114.727 938.061,139.727 941,186.5C 941.667,211.5 941.667,236.5 941,261.5C 939.401,273.098 932.734,279.098 921,279.5C 911.391,279.202 905.058,274.536 902,265.5C 901.667,237.833 901.333,210.167 901,182.5C 899.421,166.827 891.254,156.327 876.5,151C 856.767,145.357 840.6,150.523 828,166.5C 826.601,169.363 825.601,172.363 825,175.5C 824.667,205.5 824.333,235.5 824,265.5C 821.299,275.024 814.965,279.69 805,279.5C 795.543,279.613 789.209,275.28 786,266.5C 785.015,218.775 785.348,171.108 787,123.5C 793.62,114.072 802.454,111.238 813.5,115C 818.333,117.167 821.833,120.667 824,125.5C 836.887,116.704 851.054,112.037 866.5,111.5 Z"/></g>
<g><path style="opacity:0.972" fill="#6631d1" d="M 1353.5,111.5 C 1359.27,111.796 1363.44,114.462 1366,119.5C 1366.99,170.916 1366.66,222.25 1365,273.5C 1359.22,279.164 1352.72,279.997 1345.5,276C 1344.28,274.352 1343.45,272.519 1343,270.5C 1342.67,266.167 1342.33,261.833 1342,257.5C 1320.17,277.666 1294.67,284.166 1265.5,277C 1237.27,268.774 1220.11,250.274 1214,221.5C 1212.9,203.36 1212.4,185.193 1212.5,167C 1212.67,151.833 1212.83,136.667 1213,121.5C 1217.62,113.408 1224.12,111.574 1232.5,116C 1234.05,117.214 1235.22,118.714 1236,120.5C 1236.33,149.5 1236.67,178.5 1237,207.5C 1239.88,239.713 1257.55,256.047 1290,256.5C 1312.7,256.829 1329.37,247.162 1340,227.5C 1340.92,224.899 1341.59,222.232 1342,219.5C 1342.33,186.167 1342.67,152.833 1343,119.5C 1345.2,114.997 1348.7,112.33 1353.5,111.5 Z"/></g>
</svg>
